<?xml version="1.0" encoding="utf-8"?>
<!-- Generator: Adobe Illustrator 24.1.1, SVG Export Plug-In . SVG Version: 6.00 Build 0)  -->
<svg version="1.1" id="b8c64dc2-e86a-49bc-92bf-164106d9e7fb"
	 xmlns="http://www.w3.org/2000/svg" xmlns:xlink="http://www.w3.org/1999/xlink" x="0px" y="0px" viewBox="0 0 887.9 569.7"
	 style="enable-background:new 0 0 887.9 569.7;" xml:space="preserve">
<style type="text/css">
	.st0{fill:#514C4D;}
	.st1{fill:#E6E6E6;}
	.st2{fill:#FFFFFF;}
	.st3{fill:#DCCCCF;}
	.st4{fill:#CCCCCC;}
</style>
<rect class="st0" width="887.9" height="569.7"/>
<g>
	<rect x="138.3" y="77.7" class="st1" width="611.5" height="391.6"/>
	<rect x="155.8" y="126.9" class="st2" width="576.5" height="319.3"/>
	<rect x="138.1" y="77.4" class="st3" width="611.5" height="26"/>
	<circle class="st2" cx="157.4" cy="90.7" r="4.8"/>
	<circle class="st2" cx="175.7" cy="90.7" r="4.8"/>
	<circle class="st2" cx="193.9" cy="90.7" r="4.8"/>
	<path class="st4" d="M569.2,156.8H381.5c-0.9-0.1-1.6-1-1.4-1.9c0.1-0.7,0.7-1.3,1.4-1.4h187.7c0.9,0.1,1.6,1,1.4,1.9
		C570.5,156.1,569.9,156.7,569.2,156.8z"/>
	<path class="st4" d="M439.1,174.9H319.8c-0.9-0.1-1.6-1-1.4-1.9c0.1-0.7,0.7-1.3,1.4-1.4h119.3c0.9,0.1,1.6,1,1.4,1.9
		C440.5,174.3,439.9,174.8,439.1,174.9z"/>
	<path class="st4" d="M569.2,175.3H449.9c-0.9-0.1-1.6-1-1.4-1.9c0.1-0.7,0.7-1.3,1.4-1.4h119.3c0.9,0.1,1.6,1,1.4,1.9
		C570.5,174.6,569.9,175.2,569.2,175.3z"/>
	<path class="st4" d="M439.4,193.1H320.1c-0.9-0.1-1.6-1-1.4-1.9c0.1-0.7,0.7-1.3,1.4-1.4h119.3c0.9,0.1,1.6,1,1.4,1.9
		C440.8,192.4,440.2,193,439.4,193.1z"/>
	<path class="st4" d="M439.7,211.3H320.4c-0.9-0.1-1.6-1-1.4-1.9c0.1-0.7,0.7-1.3,1.4-1.4h119.3c0.9,0.1,1.6,1,1.4,1.9
		C441.1,210.6,440.5,211.2,439.7,211.3z"/>
	<path class="st4" d="M493.9,193.1h-34.2c-0.9-0.1-1.6-1-1.4-1.9c0.1-0.7,0.7-1.3,1.4-1.4h34.2c0.9,0.1,1.6,1,1.4,1.9
		C495.2,192.4,494.6,193,493.9,193.1L493.9,193.1z"/>
	<path class="st4" d="M493.9,210.9h-34.2c-0.9-0.1-1.6-1-1.4-1.9c0.1-0.7,0.7-1.3,1.4-1.4h34.2c0.9,0.1,1.6,1,1.4,1.9
		C495.2,210.3,494.6,210.8,493.9,210.9L493.9,210.9z"/>
	<path class="st4" d="M551.2,210.9h-34.2c-0.9-0.1-1.6-1-1.4-1.9c0.1-0.7,0.7-1.3,1.4-1.4h34.2c0.9,0.1,1.6,1,1.4,1.9
		C552.6,210.3,552,210.8,551.2,210.9z"/>
	<path class="st4" d="M353.1,156.8h-34.2c-0.9-0.1-1.6-1-1.4-1.9c0.1-0.7,0.7-1.3,1.4-1.4h34.2c0.9,0.1,1.6,1,1.4,1.9
		C354.5,156.1,353.9,156.7,353.1,156.8z"/>
	<path class="st4" d="M438.7,365.1H319.4c-0.9-0.1-1.6-1-1.4-1.9c0.1-0.7,0.7-1.3,1.4-1.4h119.3c0.9,0.1,1.6,1,1.4,1.9
		C440,364.4,439.5,365,438.7,365.1L438.7,365.1z"/>
	<path class="st4" d="M438.1,401.4H318.8c-0.9-0.1-1.6-1-1.4-1.9c0.1-0.7,0.7-1.3,1.4-1.4h119.3c0.9,0.1,1.6,1,1.4,1.9
		C439.5,400.7,438.9,401.3,438.1,401.4z"/>
	<path class="st4" d="M438.4,419.6H319.1c-0.9-0.1-1.6-1-1.4-1.9c0.1-0.7,0.7-1.3,1.4-1.4h119.3c0.9,0.1,1.6,1,1.4,1.9
		C439.8,418.9,439.2,419.5,438.4,419.6L438.4,419.6z"/>
	<path class="st4" d="M489.4,401.7h-34.2c-0.9-0.1-1.6-1-1.4-1.9c0.1-0.7,0.7-1.3,1.4-1.4h34.2c0.9,0.1,1.6,1,1.4,1.9
		C490.7,401.1,490.1,401.6,489.4,401.7L489.4,401.7z"/>
	<path class="st4" d="M489.4,419.6h-34.2c-0.9-0.1-1.6-1-1.4-1.9c0.1-0.7,0.7-1.3,1.4-1.4h34.2c0.9,0.1,1.6,1,1.4,1.9
		C490.7,418.9,490.1,419.5,489.4,419.6L489.4,419.6z"/>
	<path class="st4" d="M546.7,401.7h-34.2c-0.9-0.1-1.6-1-1.4-1.9c0.1-0.7,0.7-1.3,1.4-1.4h34.2c0.9,0.1,1.6,1,1.4,1.9
		C548.1,401.1,547.5,401.6,546.7,401.7z"/>
	<path class="st4" d="M569.3,383.2H381.6c-0.9-0.1-1.6-1-1.4-1.9c0.1-0.7,0.7-1.3,1.4-1.4h187.7c0.9,0.1,1.6,1,1.4,1.9
		C570.7,382.6,570.1,383.1,569.3,383.2z"/>
	<path class="st4" d="M353.3,383.2h-34.2c-0.9-0.1-1.6-1-1.4-1.9c0.1-0.7,0.7-1.3,1.4-1.4h34.2c0.9,0.1,1.6,1,1.4,1.9
		C354.6,382.6,354,383.1,353.3,383.2z"/>
	<polygon class="st1" points="409.9,240.6 363.5,286.4 409.9,332.1 420.3,321.7 385.3,286.7 420.6,251.3 	"/>
	<polygon class="st1" points="478.2,240.6 524.6,286.4 478.2,332.1 467.8,321.7 502.9,286.7 467.5,251.3 	"/>
	<polygon class="st3" points="409.9,240.6 363.5,286.4 409.9,332.1 420.3,321.7 385.3,286.7 420.6,251.3 	"/>
	<polygon class="st3" points="478.2,240.6 524.6,286.4 478.2,332.1 467.8,321.7 502.9,286.7 467.5,251.3 	"/>
</g>
</svg>
