<?xml version="1.0" encoding="utf-8"?>
<!-- Generator: Adobe Illustrator 25.2.0, SVG Export Plug-In . SVG Version: 6.00 Build 0)  -->
<svg version="1.1" id="Layer_1" xmlns="http://www.w3.org/2000/svg" xmlns:xlink="http://www.w3.org/1999/xlink" x="0px" y="0px"
	 viewBox="0 0 1920 1080" style="enable-background:new 0 0 1920 1080;" xml:space="preserve">
<style type="text/css">
	.st0{fill:none;}
	.st1{fill:#FFFAF0;}
	.st2{fill:#F4F17B;stroke:#438521;stroke-width:8.1466;stroke-miterlimit:10;}
	.st3{fill:#844C17;stroke:#D4DC58;stroke-width:13.3262;stroke-miterlimit:10;}
	.st4{fill:#916846;}
	.st5{fill:#81A408;}
	.st6{fill:#F6A417;}
	.st7{fill:#DB800A;}
	.st8{fill:#E1E6E9;}
	.st9{fill:#D5D6DB;}
	.st10{fill:#DC8744;}
	.st11{opacity:0.1;fill:#EBF0F3;enable-background:new    ;}
	.st12{opacity:0.1;fill:#D5D6DB;enable-background:new    ;}
	.st13{opacity:0.25;fill:#EBF0F3;enable-background:new    ;}
	.st14{font-family:'GoudyOldStyleT-Regular';}
	.st15{font-size:350px;}
	.st16{font-family:'GoudyOldStyleT-Italic';}
	.st17{font-size:75px;}
</style>
<path class="st0" d="M-371.6,660.8c0,43.3-35.1,78.4-78.4,78.4V582.4C-406.7,582.4-371.6,617.5-371.6,660.8z"/>
<line class="st0" x1="-450" y1="921.5" x2="-450" y2="739.2"/>
<line class="st0" x1="-450" y1="582.4" x2="-450" y2="415.1"/>
<g>
	<rect y="0" class="st1" width="1920" height="1080"/>
</g>
<g>
	<g>
		<path class="st2" d="M1193.9,759.7c-5.4,51.7-54.8,89.4-110.2,84.4c-55.4-5.1-95.9-51.1-90.5-102.7c5.4-51.7,62.6-163.8,118-158.7
			C1166.7,587.6,1199.4,708,1193.9,759.7z"/>
	</g>
	<ellipse class="st3" cx="1093" cy="759.9" rx="55.9" ry="52.1"/>
	<ellipse class="st4" cx="1118.3" cy="771.5" rx="16" ry="14.9"/>
</g>
<g>
	<polygon class="st5" points="675.1,541.5 696.5,578.2 735.7,572.4 733,524.7 719.7,551.4 704.7,514.7 708.3,549.5 684.6,523.9 
		698.8,553.7 	"/>
	<g>
		<path class="st6" d="M781.8,646.3c0.2,1.5,0.5,3,0.7,4.5c0.5,3.1,0.9,6.2,1.4,9.4c2.1,14.5,3.9,29.9,5.3,45.5
			c0.3,3.2,0.6,6.4,0.8,9.5c2.6,32.1,3.3,63.9,1.1,87.5c-0.3,3.5-0.7,6.8-1.2,9.9c-2.5,16-6.8,26.4-13.6,27.8
			c-9.3,1.9-21.9-13.3-35.2-36.8c-1.6-2.8-3.2-5.7-4.8-8.7c-13.1-24.8-26.6-56.7-37.8-87.4c-1.1-3-2.2-6-3.3-9
			c-4-11.2-7.6-22.2-10.8-32.4L781.8,646.3z"/>
		<path class="st6" d="M778.8,627.5c1.3,5.3,2.3,11.8,3,18.8L684.4,666c-1.8-4.9-3.4-9.6-4.5-13.8c-0.4-1.5-0.8-2.9-1.1-4.3
			c-0.4-1.7-0.7-3.3-1-5c-4.8-27,2.9-52.1,18.7-64.8c4.8-3.9,10.3-6.6,16.5-7.8c7.6-1.5,15.3-0.7,22.7,2c13.9,5.1,26.6,17.1,35,33.3
			c1.5,2.8,2.8,5.8,4.1,8.9C776.4,618.6,777.8,623,778.8,627.5z"/>
	</g>
	<path class="st7" d="M774.8,614.5l-23.2,4.7c-1.3,0.3-2.6-0.6-2.9-1.9l-1.1-4.5c-0.3-1.3,0.5-2.6,1.8-2.8l21.3-4.3
		C772.2,608.5,773.6,611.4,774.8,614.5z"/>
	<path class="st7" d="M784.4,751.9L728,763.3c-1.3,0.3-2.7-0.5-3-1.8l-1.1-4.7c-0.3-1.3,0.6-2.5,1.9-2.8l56.4-11.4
		c1.3-0.3,2.7,0.5,3,1.8l1.1,4.7C786.6,750.4,785.7,751.7,784.4,751.9z"/>
	<path class="st7" d="M789.2,705.7c0.3,3.2,0.6,6.4,0.8,9.5l-20.9,4.2c-1.3,0.3-2.6-0.6-2.9-1.9l-1.1-4.5c-0.3-1.3,0.5-2.6,1.8-2.8
		L789.2,705.7z"/>
	<path class="st7" d="M746.2,690.6l1.1,4.5c0.3,1.3-0.5,2.6-1.8,2.8l-47,9.5c-1.1-3-2.2-6-3.3-9l48.1-9.8
		C744.6,688.5,745.9,689.3,746.2,690.6z"/>
	<path class="st7" d="M714,638.1l1.1,4.5c0.3,1.3-0.5,2.6-1.8,2.8l-33.3,6.8c-0.4-1.5-0.8-2.9-1.1-4.3c-0.4-1.7-0.7-3.3-1-5
		l33.3-6.8C712.4,635.9,713.7,636.8,714,638.1z"/>
	<path class="st7" d="M782.5,650.8c0.5,3.1,0.9,6.2,1.4,9.4l-33.5,6.8c-1.3,0.3-2.6-0.6-2.9-1.9l-1.1-4.5c-0.3-1.3,0.5-2.6,1.8-2.8
		L782.5,650.8z"/>
	<path class="st7" d="M791.1,802.7c-0.3,3.5-0.7,6.8-1.2,9.9l-14.3,2.9c-1.3,0.3-2.6-0.6-2.9-1.9l-1.1-4.5c-0.3-1.3,0.5-2.6,1.8-2.8
		L791.1,802.7z"/>
	<path class="st7" d="M757,793.2l1.1,4.5c0.3,1.3-0.5,2.6-1.8,2.8l-15.2,3.1c-1.6-2.8-3.2-5.7-4.8-8.7l17.8-3.6
		C755.4,791.1,756.7,791.9,757,793.2z"/>
	<path class="st7" d="M725.3,607.5l-19.1,3.9c-0.8,0.2-1.6-0.3-1.8-1.1l-1.6-6.8c-0.2-0.8,0.3-1.5,1.2-1.7l19.1-3.9
		c0.8-0.2,1.6,0.3,1.8,1.1l1.6,6.8C726.6,606.5,726.1,607.3,725.3,607.5z"/>
</g>
<g>
	<path class="st8" d="M1023.7,628.9c3.2-6.1,2.2-13.6-2.3-18.9c-3.2-3.7-7.5-5.9-12-6.6c-4.5-0.7-8.4-3.7-10.1-7.6
		c-1.7-3.9-4.8-7.4-9.4-9.5c-6.5-3.1-14.6-2.3-20.3,1.8c-6.4,4.6-8.7,11.6-7.2,18c2,8.9-0.7,18.1-6.8,25.1l-8,9.2l25.9,19.5l8-9.2
		c6.1-7,15.2-11.3,24.9-11.4C1013.3,639.2,1020.2,635.7,1023.7,628.9L1023.7,628.9z"/>
	<path class="st9" d="M1023.7,628.9c-3.5,6.8-10.4,10.3-17.4,10.4c-9.7,0.1-18.8,4.4-24.9,11.4l-7.9,9.2l-25.9-19.5l0,0l21,15.8
		l8-9.1c6.1-7,15.2-11.4,24.9-11.4c7-0.1,13.9-3.6,17.4-10.4c3.2-6.1,2.2-13.6-2.3-18.9c-0.2-0.2-0.4-0.5-0.6-0.7
		c2,1.1,3.9,2.6,5.5,4.5C1025.9,615.3,1026.9,622.8,1023.7,628.9L1023.7,628.9z"/>
	<path class="st10" d="M985.4,654.1c-18.2,21-27.5,47.2-28.6,74.2c-0.7,17.7-8.2,36.6-22.3,52.9c-29.6,34.2-77.4,44-106.6,22
		c-8.9-6.7-15.1-15.6-18.5-25.7c-7.8-23-1.4-52.3,19.2-76.1c14.2-16.3,32.4-27,50.8-31.4c6.7-1.6,13.3-3.6,19.7-6.1
		c6.9-2.6,13.6-5.8,19.9-9.4c12.2-6.9,23.1-15.7,32.2-26.2c1.4-1.6,4-1.9,5.8-0.6l0.8,0.6l26.2,19.8l0.8,0.6
		C986.5,650,986.8,652.4,985.4,654.1L985.4,654.1z"/>
	<path class="st11" d="M949.1,630.6c-27.6,29.2-63,37.7-69.8,39.3c-18.4,4.4-36.6,15.1-50.8,31.4c-20.6,23.8-27,53.1-19.2,76.1
		c13.6,14.8,33.3,24.2,55.3,24.2c41,0,74.3-32.7,74.3-73C938.9,700.5,972.8,642.8,949.1,630.6z"/>
	<ellipse class="st12" cx="870.2" cy="733.8" rx="45.4" ry="44.6"/>
	<ellipse class="st12" cx="865.7" cy="723" rx="20.3" ry="20"/>
	<path class="st13" d="M979.4,589.1c-6.6,0-11.9,5.2-11.9,11.7s5.3,11.7,11.9,11.7s11.9-5.2,11.9-11.7S986,589.1,979.4,589.1z"/>
</g>
<text transform="matrix(0.9337 0 0 1 144.2385 390.4872)" class="st14 st15">Cup O’ Byte</text>
<text transform="matrix(1 0 0 1 553.3676 951.5415)" class="st16 st17">What ingredients do you have?</text>
</svg>
