<?xml version="1.0" encoding="utf-8"?>
<!-- Generator: Adobe Illustrator 25.1.0, SVG Export Plug-In . SVG Version: 6.00 Build 0)  -->
<svg version="1.1" id="Layer_1" xmlns="http://www.w3.org/2000/svg" xmlns:xlink="http://www.w3.org/1999/xlink" x="0px" y="0px"
	 viewBox="0 0 1920 1080" style="enable-background:new 0 0 1920 1080;" xml:space="preserve">
<style type="text/css">
	.st0{fill:#E8E8E8;}
	.st1{clip-path:url(#SVGID_2_);}
	.st2{fill:#F2F2F2;}
	.st3{fill:#3F3D56;}
	.st4{opacity:0.8;fill:none;stroke:#241332;stroke-width:2;stroke-miterlimit:10;enable-background:new    ;}
	.st5{fill:#241332;}
	.st6{fill:#2F2E41;}
	.st7{fill:#FFFFFF;}
	.st8{fill:#FFFFFF;fill-opacity:0;}
	.st9{clip-path:url(#SVGID_4_);}
	.st10{clip-path:url(#SVGID_6_);}
	.st11{fill:none;}
	.st12{clip-path:url(#SVGID_8_);}
	.st13{clip-path:url(#SVGID_10_);}
	.st14{clip-path:url(#SVGID_12_);}
	.st15{clip-path:url(#SVGID_14_);}
	.st16{fill:#E7E4E9;}
	.st17{clip-path:url(#SVGID_16_);}
	.st18{clip-path:url(#SVGID_18_);}
	.st19{clip-path:url(#SVGID_20_);}
	.st20{clip-path:url(#SVGID_22_);}
	.st21{clip-path:url(#SVGID_24_);}
	.st22{clip-path:url(#SVGID_26_);}
	.st23{clip-path:url(#SVGID_28_);}
	.st24{font-family:'Montserrat-Bold';}
	.st25{font-size:90px;}
	.st26{fill:#FDFCFF;}
	.st27{fill:#8A56AC;}
	.st28{font-size:20px;}
	.st29{fill:#352641;}
	.st30{fill:#998FA2;}
	.st31{font-family:'Montserrat-Regular';}
	.st32{font-size:25px;}
	.st33{clip-path:url(#SVGID_30_);}
	.st34{clip-path:url(#SVGID_32_);}
	.st35{clip-path:url(#SVGID_34_);}
	.st36{clip-path:url(#SVGID_36_);}
	.st37{clip-path:url(#SVGID_38_);}
	.st38{clip-path:url(#SVGID_40_);}
	.st39{clip-path:url(#SVGID_42_);}
	.st40{clip-path:url(#SVGID_44_);}
	.st41{clip-path:url(#SVGID_46_);}
	.st42{clip-path:url(#SVGID_48_);}
	.st43{clip-path:url(#SVGID_50_);}
	.st44{clip-path:url(#SVGID_52_);}
	.st45{clip-path:url(#SVGID_54_);}
</style>
<rect class="st0" width="1920" height="1080"/>
<g>
	<defs>
		<rect id="SVGID_1_" x="150" y="20" width="768" height="1024"/>
	</defs>
	<clipPath id="SVGID_2_">
		<use xlink:href="#SVGID_1_"  style="overflow:visible;"/>
	</clipPath>
	<g id="Splashscreen" class="st1">
		<rect x="2175.5" y="-832" class="st0" width="1920" height="1080"/>
		<g id="Group_1886" transform="translate(-60 632.149)">
			<path id="Path_360" class="st2" d="M968.4,180.4C867.5,40.1,654.6-16.8,445.1,44.5c-110.7,32.4-217.5,97.3-270.4,223
				C80.1,492.3,278.7,564,408.6,586.9c62.8,11.1,121.9,29.6,176,54.9c97.2,45.5,269.3,85.8,399.1-103.7
				C1077.7,400.7,1035.5,273.8,968.4,180.4z"/>
			<path id="Path_361" class="st3" d="M383.8,208.2c-0.3-2.2-0.9-4.4-1.7-6.5c-0.2-0.8-0.8-1.5-1.5-1.8c-0.5-0.1-1-0.1-1.5,0
				l-7.6,1.2c-0.6,0-1.2,0.3-1.7,0.7c-1,1,0,2.7,0,4.2c-0.2,1.7-1.4,3-3,3.4c-1.6,0.3-3.2,0.3-4.8-0.1l-10.6-1.7
				c3.1-1,5.9-2.9,8.1-5.4c1.4-1.7,2.1-4.8,0.1-5.5c-0.6-0.2-1.2-0.2-1.9-0.1c-4.8,0-8.6-4-13.1-5.7c-5.9-2.1-12.5-0.1-16.3,4.9
				l5.7,0.3c0.5,0,1.1,0.1,1.5,0.4c1.2,1-0.3,3-0.1,4.6c0.2,2.1,3,2.5,5.1,2.7c2.1,0.2,4.7,1.9,3.7,3.7c-10.5,3.6-21.1-7-32.1-5.7
				c-2.8,0.3-5.4,1.4-8.1,2.1c-16.6,4.2-33.7-7-50.6-4.6c-3.8,0.6-7.5,1.6-11.1,2.9c-2.3,0.8-4.7,1.6-6.4,3.3
				c-1.7,1.8-2.3,4.8-0.7,6.6c-4.4,0.4-8.8-0.1-13-1.2c2.3,1.3,3.8,3.8,3.7,6.4c-6.8,1.1-13.5,3.1-19.8,6c1.2,2,2.5,3.8,4.1,5.4
				l-8.6,5.6c2.6,0.8,4,3.6,3.2,6.2c-0.1,0.3-0.3,0.7-0.4,1c3-1.3,4.9-4.8,8.1-5.5c2.1-0.5,4.3,0.4,6.3,1.2c2,0.8,4.2,1.6,6.3,1
				c2.1-0.6,3.6-3.3,2.3-5c8.9-2.6,18.1-4,27.4-4.3c0.7-0.1,1.4,0,2.1,0.4c1.2,0.8,0.9,2.6,0.8,4.1s1.1,3.4,2.4,2.7
				c-1.5,1.3-0.2,3.9,1.3,5.3c1.5,1.4,3.3,3.3,2.4,5.2c-0.2,0.5-0.6,0.9-0.9,1.3c-0.7,1.4,0.4,3.1,1.7,4s2.8,1.6,3.7,2.9
				c0.9,1.3,0.5,3.6-1.1,3.8l-4.4-5.6c-1.5,1.6-2.6,3.5-3,5.7c4.7,4.2,5.4,11.3,1.5,16.3c-2,2.4-4.9,3.8-7.4,5.7
				c-2.5,1.8-4.8,4.5-4.8,7.6c0,5.4-0.4,10.4,1.6,15.3c3.7,9.2,8,18.1,12.8,26.8c1.3,2.3,2.9,4.8,5.5,5.1
				c-3.2-7.9-6.2-15.9-8.8-24.1c1.7,0,3.7,0.1,4.6,1.5c0.8,1.1,0.6,2.7,0.9,4.1c0.3,1.3,0.9,2.6,1.6,3.8l15.5,27.6
				c1.3,2.3,2.8,4.8,5.2,5.7c1.6,0.6,3.4,0.5,4.8,1.3c1.1,0.7,1.9,1.9,3.1,2.5c3.3,1.8,7.8-1.6,10.9,0.5c0.8,0.7,1.5,1.5,2.2,2.3
				c2.8,2.4,7.4,0.8,10.7,2.6c2.1,1.2,3.2,3.5,4.3,5.7c2.8,5.3,7.3,10.6,13.4,11c1.9,0.1,3.8-0.2,5.7,0.2s3.7,2,3.4,3.9
				c-0.5,3.2,1.1,6.7,0.6,9.9c-0.8,5.9-9.1,8.4-9.8,14.3c0,1.3-0.1,2.6-0.2,3.9c-0.4,1.5-1.5,2.8-1.9,4.3c-0.8,2.9,1.3,5.8,3.6,7.7
				s5,3.6,6.3,6.4c1.3,2.9,0.7,6.3,1.1,9.4c0.9,6.9,6.9,12,13,15.2c1.9,1,3.9,2,5.1,3.7c1.6,2.3,1.4,5.3,1.9,8
				c1.3,6.6,6.9,12.1,7,18.8c0.1,4.8-2.6,9.2-4.1,13.7c-3,8.8-2.1,18.4,2.6,26.5c1.3,1.9,2.5,4,3.5,6.1c1.5,3.9,1,8.3,2.4,12.3
				c1.8,5.2,6.9,9.5,6.4,15c2.3,4.8,7.3,7.1,12.4,8.5l9.1,2.5c1.7,0.6,3.5,0.8,5.3,0.6c1.8-0.4,3.5-1.8,3.4-3.6
				c-4.5-1-9.1-2.1-12.8-4.8s-6.2-7.6-4.8-11.9c0.6-2,2-4.4,0.7-6c-0.8-1-2.1-1.2-3-2.1c-1.3-1.4-0.9-3.6,0.1-5.3s2.3-3.1,2.7-5
				c0.4-2.1-0.6-4.3-2.4-5.4c1.7-0.6,3.2-1.6,4.5-2.9c1.3-1.3,1.6-3.3,0.8-5c2.8,0.4,6,0.5,7.9-1.6c1.5-1.7,1.4-4.2,0.8-6.4
				s-1.5-4.2-1.6-6.5c6.4,0.3,12.8,0.1,19.1-0.6c-0.9-3.1-3-5.7-5.8-7.3c2.9-0.5,5.5-3.9,6.4-6.7c0.8-2.8,0.8-5.8,0.1-8.7
				c-0.2-0.7-0.2-1.5-0.1-2.3c0.5-1,1.3-1.8,2.3-2.2l14.3-8.2c0.9-0.4,1.6-1,2.3-1.7c1.5-1.8,1.3-4.4,0.5-6.6s-2-4.2-2.3-6.5
				c-0.9-6.8,6.4-11.8,8.9-18.2c0.8-2.6,1.3-5.3,1.4-8c0.2-2.9,0.2-6.3-2-8.1c-2.1-1.8-5.5-1.4-7.7-3.1c-2-1.5-2.8-4.5-5-5.7
				c-2-1.1-4.6-0.4-6.8-0.9c-4-0.9-6.5-5.5-10.6-5.9c-2.3-0.2-4.9,0.9-6.8-0.5c-1.7-1.2-1.7-3.5-2-5.6c-1.1-6.4-6.1-11.4-12.5-12.5
				c-2.4-0.4-4.9-0.2-7-1.5c-2-1.3-3-3.8-4.6-5.6c-2.6-2.9-6.6-4-10.4-4.9l-15.5-3.6c-2.7-0.6-6.3-1-7.8,1.4
				c-0.4,0.9-0.7,1.9-0.9,2.9c-1.1,3.7-4.5,6.3-8.4,6.3c-1.3-2.2-3.4-3.8-5.9-4.5c-1.6-0.3-3.2-0.6-4.7-1.1
				c-3.3-1.6-4.7-5.6-3.1-8.9c0,0,0,0,0,0c0.1-0.1,0.1-0.2,0.2-0.3c1.8-3.3,1.3-7.4-1.4-10c-2.6-2.4-6.4-2.9-10-2.7
				c-0.9-2,0.6-4.3,2.3-5.8s3.7-2.9,4.1-5.1c0.6-3.4-3.8-6.1-7.2-5s-5.5,4.3-6.9,7.5c-0.7,1.9-1.6,3.7-2.8,5.3
				c-1.3,1.5-3.3,2.7-5.3,2.2c-2.7-0.7-3.8-4-4.4-6.7c-1-3.7-1.5-7.5-1.5-11.3c0.2-3.8,1.5-7.7,4.3-10.3c4.6-4.2,11.6-3.8,17.7-3.1
				c-1.4-1.8-1.2-4.4,0.5-5.9c1.7-1.5,4-2,6.1-1.5c1.9,0.4,3.5,1.4,4.8,2.8c1.8,2.1,2.2,5,3.6,7.4s4.3,4.5,6.7,3.2
				c2.1-1.1,2.4-4,1.9-6.4c-0.5-2.3-1.6-4.6-1.4-7c0.4-4.5,5.1-7.3,9.2-9.1s8.9-4.4,9.6-8.9c0-0.9,0.2-1.8,0.5-2.6
				c0.5-0.7,1.1-1.3,1.9-1.7c12.1-8,24.4-16.1,38.3-20.5c0.7-0.2,0.8,0,1.5-0.2c1-0.6,0.3-2.2-0.6-2.9s-2.3-1.2-2.6-2.3
				c-0.2-0.9,0.3-1.7,0.4-2.6c0.1-1.8-1.2-3.3-3-3.4c-0.4,0-0.8,0-1.2,0.2c-1.1-1.5,1.1-3.2,2.9-3.7c5.3-1.5,10.8-2.4,16.4-2.7
				c0.6-0.1,1.3,0,1.9,0.3c0.9,0.6,0.8,2.1,0.2,3c-0.8,0.8-1.6,1.6-2.5,2.3c-1.8,1.8-2.5,4.4-1.8,6.9c2.9,1.5,6,3,9.2,2.5
				s6-4.1,4.5-7c-1.4-2.7-5.6-3.3-6.3-6.2c-0.8-3.4,4-6.5,2.9-9.8c-0.5-1.5-1.9-2.3-3.1-3.4c-2.7-2.7-3.5-6.7-2-10.2
				c-3.7,0.7-7.5-0.5-10.2-3.2c-2.4-2.5-4.4-6.4-7.9-6.2c-3.2,0.1-5.9,3.8-8.9,2.7c-0.7-0.3-1.5-0.8-2.2-0.5
				c-0.5,0.3-0.8,0.8-0.8,1.4c-0.8,3.6,0.5,7.7-1.4,10.9c-2.1,3.4-7.1,3.9-9.7,6.9c-1.4,1.7-2,3.9-3.3,5.7c-1.3,1.8-4.1,2.9-5.6,1.3
				c1.6-3.2,0.7-7.1-2.1-9.4c-1.4-0.9-3-1.7-4.6-2.3c-1.8-0.8-3.6-1.7-5.2-2.9c-0.8-0.5-1.5-1.2-1.9-2c-0.3-1.1-0.3-2.2,0.1-3.2
				c1.6-4.6,5.6-8,10.5-8.7c2.1-0.3,4.5-0.2,5.9-1.8c0.7-0.8,1.1-2.1,2.2-2.4c0.7-0.1,1.4,0,2,0.2l7.7,2.7c0.9,0.4,1.8,0.5,2.8,0.5
				c1-0.1,1.7-1,1.6-2c-0.2-1.3-2.2-1.9-2-3.2c0.1-0.4,0.3-0.8,0.6-1.1c5.7-6,13.7-9.2,21.9-8.7c1,1.6-0.6,3.5-1.9,4.9
				s-2.3,3.8-0.8,4.9c0.6,0.3,1.3,0.5,2.1,0.5c1.9,0.3,3.8,0.8,5.5,1.7c2.7,1.2,5.3,2.4,7.9,3.8c-0.4-1.7-0.3-3.4,0.2-5.1
				c0.6-1.6,2.5-2.8,4.1-2.2c1.5,0.6,2.3,2.6,4,2.8c2.2,0.2,3-3,2.1-5s-2.7-3.7-2.9-5.9c-0.1-1.5,0.5-3.3-0.7-4.2
				c-0.4-0.3-0.9-0.4-1.4-0.5l-29.5-5.4c-1.8-0.3-4.3-0.1-4.4,1.7c0,1,0.8,2,0.5,2.9c-0.4,1-1.8,0.9-2.8,1.2c-1.5,0.7-2.4,2.3-2.2,4
				c0.3,1.6,0.9,3.2,1.8,4.5C388.7,209.1,385.8,209,383.8,208.2z"/>
			<path id="Path_362" class="st3" d="M360.3,183.1c-3.8-1.3-8,0-10.5,3.1c-0.6,0.6-0.8,1.4-0.5,2.2c0.6,1,2.1,0.6,3.2,0.2
				c1.6-0.6,3.4-0.6,5-0.1c1,0.4,1.9,1,3,1.3c1,0.4,2.2,0.3,3.1-0.4c0.6-0.8,0.9-1.8,0.8-2.9c0.1-0.7-0.1-1.4-0.6-1.9
				c-0.4-0.2-0.9-0.4-1.4-0.4c-1.1-0.2-2-0.8-2.7-1.6"/>
			<path id="Path_363" class="st3" d="M370.9,180.1c-1.3-0.1-2.5,1-2.6,2.3c0,0.4,0.1,0.8,0.2,1.1c1.3,0.3,2.6,0.4,3.9,0.3
				c1.3-0.2,2.4-1.2,2.7-2.5c-1.5,0.3-3.1,0-4.5-0.9"/>
			<path id="Path_364" class="st3" d="M406.6,175.2c-3.5,0.7-6.9,1.9-10.1,3.4c3.1,1.2,5.1,4.3,4.8,7.6c-0.1,0.6-0.1,1.3,0,1.9
				c0.4,0.9,1.4,1.2,2.4,1.5c1.7,0.5,3.5,0.7,5.2,0.7c1.8-0.1,3.4-1.1,4.3-2.6c0.3-0.7,0.6-1.4,0.9-2.1c2.3-3.4,9,0.7,11.4-2.6
				c0.9-1.2,0.8-2.9,1.9-3.9c0.6-0.4,1.2-0.7,1.9-0.7c4.9-1,9.8-1.7,14.8-2.1c2.3-0.2,5.4-1,5.4-3.4c-8.8-1.7-18-0.5-26.1,3.5
				c-2.9,1.5-6.8,4.5-9.6,2.6c-1-0.7-1-2.7-2.4-3.5C410.2,174.5,408.2,174.9,406.6,175.2z"/>
			<path id="Path_365" class="st3" d="M435.5,180.6l4.1,0.8c-3-0.1-5.5,2.2-5.6,5.1c0,0,0,0,0,0c0,0.2,0,0.5,0,0.7
				c3.9,1.3,8.1,0,12.2,0.2s8.9,3.1,8.2,7.1c-0.2,1.2-0.9,2.4-0.5,3.6c0.4,0.8,0.9,1.5,1.4,2.2c0.9,1.6,0.2,3.6-0.9,5.1
				s-2.5,2.6-3.5,4.1c-2.4,3.8-1,8.8,0.4,13c0.4,1.6,1.2,3.1,2.2,4.4c2.1,2.2,5.5,2.4,8.6,2.5c2.2,0,4.8-0.1,6.2-1.8
				c1.8-2.2,0.6-5.8,1.8-8.4c1.1-2.4,3.9-3.4,6.4-4.2c4.6-1.3,9.4-2.5,13.8-4.5c5.5-2.5,10.5-6.4,16.5-6.7c1.7,0.1,3.4,0,5-0.4
				c1.6-0.5,3.2-1.9,3-3.5c-0.1-1.4-1.3-2.5-2.3-3.6c-0.9-1.1-1.7-2.7-0.8-3.9l15.7-2.9c-1.1-3-2-7,0.6-9c0.9-0.7,2.2-1,2.9-1.9
				c1.3-1.5,0.7-4-0.9-5.2c-1.5-1.2-3.6-1.5-5.6-1.7c-6.9-0.4-13.8-0.4-20.7,0.2l-40.5,2.2c-2.7,0.1-5.8-0.1-8.3,0.8
				c-2.1,0.8-3.6,2.2-6,2.7C444.5,178.7,439.6,178.1,435.5,180.6z"/>
			<path id="Path_366" class="st3" d="M509.9,213.4c-0.4-0.1-0.9,0-1.2,0.3c-0.2,0.3-0.4,0.6-0.4,0.9c-0.3,1.5,0.1,3.1,0.9,4.4
				c0.9,1.3,2.4,2,4,1.9c1.9-0.2,3.2-1.8,5-2.6c2.6-1.2,13.9-3.1,6.1-7.3c-2.7-1.4-4.4-0.2-6.5,0.8
				C515.3,213,512.6,213.6,509.9,213.4z"/>
			<path id="Path_367" class="st3" d="M578,178.2c-0.9,0.4-1.7,1-2.2,1.9c-0.5,0.9-0.2,2,0.7,2.5c0.3,0.1,0.7,0.2,1.1,0.2l3.7,0.1
				c1.6,0,3.5,0.4,4,1.9c0.3,1.1-0.4,2.6,0.5,3.4c0.4,0.3,0.8,0.5,1.3,0.5c1.2,0.3,2.5,0.4,3.7,0.1c2.7-0.7,1.3-2.4,2.1-3.8
				c1.3-2.2,1.1-0.9,3.4-2.2c1.7-0.9,3.9-2.7,2.5-5.1C596.2,173.5,581.6,176.4,578,178.2z"/>
			<path id="Path_368" class="st3" d="M650.9,176.1l-2.1,0.3c-4.9,0.5-9.7,1.4-14.4,2.7c2,0.8,4.1,1.3,6.3,1.5
				c1.2,0.1,2.4,0.2,3.5,0.5c2.1,0.6,4.1,2.2,6.1,1.4c1.2-0.5,1.6-1.8,2.7-2.5c0.7-0.5,3.4-1.2,3.7-1.7
				C659.1,174.6,652.8,175.9,650.9,176.1z"/>
			<path id="Path_369" class="st3" d="M660.4,185.9c-2.9,1.6-5.5,3.6-7.9,5.8c-1,0.9-2,2.1-1.9,3.5c0.1,1.8,2.1,2.9,3.8,3.6l6.9,2.9
				c0.8-1.2,0.1-2.8-0.8-3.9s-1.9-2.5-1.5-3.9c0.4-1.6,2.4-2.1,4-2.4c2.6-0.4,9.7-0.4,8.9-4.7C670.7,181.8,663,184.4,660.4,185.9z"
				/>
			<path id="Path_370" class="st3" d="M659,469.1c-0.8,1.9-0.6,4,0.4,5.8c1.4,1.8,3.8,2.6,6,2.1c2.2-0.6,4.1-1.8,5.6-3.6
				c1.3-1.5,2.4-3.1,3.2-4.9c1.1-2.8,1.9-5.7,2.4-8.7l2.1-11.2c0.5-2.5,0.5-10.2-4.1-7.7c-1.3,0.7-4.2,6.1-5.5,7.6
				c-2.4,2.8-2.7,5.4-3.9,8.8C663.6,461.4,660.4,464.9,659,469.1z"/>
			<path id="Path_371" class="st3" d="M901.5,526.3c-1.5-0.6-3-1.3-4.4-2.1c-1.4,3.9-2.2,7.9-2.2,12.1l10.3-5.8
				c1.5-0.9,3.3-2.1,3.3-3.9c0-0.4-0.2-0.9-0.6-1.1c-0.2-0.1-0.5-0.1-0.7-0.1c-1.5,0.3-3,0.7-4.4,1.4c-1.4,0.7-3,0.7-4.4,0"/>
			<path id="Path_372" class="st3" d="M955.7,529.7c-1.1,0.3-2.2,0.7-3.3,1.2c-2.4,1.2-4,3.5-6.1,5.1c-2.1,1.4-4.4,2.5-6.9,3.2
				c-0.6,0.7-0.5,1.7,0.2,2.3c0,0,0.1,0.1,0.2,0.1c0.8,0.5,1.8,0.7,2.7,0.6c2.5,0.1,5.1,0.1,7.3-1.1c1.2-0.8,2.4-1.7,3.4-2.7
				c2.6-2,5.6-3.7,8.7-4.9c1.1-0.4,2.1-1,3-1.8c1.9-1.9,2-4.8-0.7-5.4C962,525.7,957.8,529,955.7,529.7z"/>
			<path id="Path_373" class="st3" d="M979.6,514.1c0.3-2.6-0.7-5.2-2.6-7c0,2.6-0.1,5.3-1.6,7.5c-1,1.5-2.7,2.6-3.8,4
				s-1.6,3.8-0.3,5c0.9,0.6,1.9,1,3,1c2.7,0.3,5.7,0.5,7.6-1.4c1-1,1.5-2.6,2.7-3.4c0.5-0.2,0.9-0.5,1.2-0.9
				c0.5-0.8-0.3-1.9-1.2-2.2s-1.9-0.2-2.8-0.4s-1.8-1.3-1.3-2.1"/>
			<path id="Path_374" class="st3" d="M937.1,419.2c-1.4,0.3-2.8,0.4-4.3,0.3c-2.4-0.4-4.2-2.2-6.1-3.7c-4.5-3.5-10-5.4-15.7-5.5
				c-5.2-0.1-10.4,1.3-15.5,0.3c0.5,1.8,1.8,3.3,3.6,4.1c1.7,0.8,3.6,1.2,5.2,2c2.7,1.3,4.9,3.5,6.1,6.3c0.4,1.3,1,2.6,1.7,3.8
				c1.7,2.3,4.9,2.8,7.7,2.6c3.7-0.2,7.5-1.3,11,0.1c2.6,1.1,4.5,3.3,6.7,5.1s5.3,3.1,7.8,1.8c-5.4-1.7-9-6.8-8.9-12.4
				c2.5,0.2,9.6,0.1,9.2-4.1C945.3,416.4,939.2,418.8,937.1,419.2z"/>
			<path id="Path_375" class="st3" d="M904.8,448.1c0.4-2.4,2.8-4.5,2.1-6.9c-0.5-1.6-2.4-2.4-4.1-2.4s-3.3,0.5-5,0.5
				c-1.1-0.1-2.2,0-3.3,0c-3.4,0.6-5.4,4.1-8.6,5.3c-1.9,0.8-4.1,0.6-6.1,1.1c-4.5,1.2-7.4,5.5-10.6,8.9
				c-5.1,5.6-11.8,9.5-19.2,11.2c-2.6,0.6-5.4,1-7.4,2.7c-2.7,2.2-3.4,6-4,9.5c-1.7,9.5-4.2,18.9-7.6,28l10.8,1.4
				c2,0.4,4.1,0.4,6.1-0.1c1.4-0.5,2.8-1.3,4-2.2c4.8-3,10.2-4.9,15.8-5.7c2.8-0.5,5.7-0.3,8.4,0.6c2.6,1,4.9,3.4,5.1,6.3
				c2.3-0.7,4.9-0.1,6.6,1.6c1.7,1.7,2.8,3.9,3.2,6.3c0.3,1.5,0.6,3.2,1.9,3.9c1.1,0.5,2.4,0,3.6-0.1c4.1-0.3,7.6,4.5,11.7,3.7
				c4.4-0.9,5.4-7.4,9.7-8.7c2.4-0.8,5.9,0.2,7-2.1c1-2-1-4.3-0.8-6.6c0.3-2.8,3.5-3.9,6-5.1c8.7-4.1,12.8-15.7,8.6-24.3
				c-2.5-5.1-7.4-9.1-8.3-14.7c-0.7-4.3,1-9.3-1.7-12.7c-1.4-1.7-3.8-2.7-4.6-4.7c-0.5-1.3-0.3-2.8-0.6-4.1s-1.5-2.8-2.8-2.4
				c-3.9,1-5.2,13.2-7.3,16.1C910.3,456.6,903.8,453.6,904.8,448.1z"/>
			<path id="Path_376" class="st3" d="M832.2,423.8c-1.3-0.5-2.7-0.6-4.1-0.2c-1.3,0.5-2,2.4-1,3.4c8.1-0.3,16.2-0.6,24.2,0.5
				c9.2,1.3,18.3,4.4,27.6,3.5c-5.3-1.6-10.7-2.8-16.1-3.7l-9.1-1.7c-2.4-0.5-4.9-0.9-7.4-1.1C841.2,423.8,837.3,425.2,832.2,423.8z
				"/>
			<path id="Path_377" class="st3" d="M840.3,395.7c-0.7-0.1-1.5-0.1-1.8,0.5c-0.3,0.5,0,1.3-0.1,1.9c-0.2,0.8-1.3,1.1-2.2,0.9
				c-0.8-0.3-1.7-0.2-2.6,0c-0.8,0.5-1.1,1.6-0.8,2.5c0.3,0.9,0.8,1.7,1.5,2.4c1.1,1.4,2.4,2.7,3.9,3.9c2.8,2,6.5,3,8.3,6
				c0.2,0.6,0.6,1.1,1.1,1.5c0.8,0.5,1.9,0.1,2.8-0.3l3.2-1.4c0.6-0.2,1.1-0.6,1.5-1c0.7-1,0.3-2.4-0.3-3.4s-1.4-2.2-1.3-3.4
				c0.2-2.2,3-3,4.2-4.8c1.2-1.9,0.4-4.3,0.5-6.5c0.2-2.6,1.8-5.9-0.8-7.8c-2.2-1.6-4.3-0.1-5.9,1.7
				C848,392.1,846.4,396.2,840.3,395.7z"/>
			<path id="Path_378" class="st3" d="M859.5,357.5c1.1,2.1,3.3,3.3,4.5,5.3c1.3,2.2,1.1,5,2.5,7.1c1.4,2.2,4.3,3.3,5.1,5.8
				c0.9,2.7-1.1,6,0.5,8.3c1.2,1.5,3.4,1.8,4.9,0.7c0.1-0.1,0.2-0.1,0.2-0.2c1.4-1.5,1.3-3.8-0.2-5.2c-0.9-0.9-2.3-1.2-3-2.2
				c-0.4-0.6-0.7-1.2-0.8-1.9c-0.4-2-0.4-4.1,0.2-6c0.2-0.5,0.3-1,0.2-1.6c-0.3-1-1.7-1.1-2.7-1.6c-2.2-1.1-2.1-4.2-1.8-6.6
				c-0.3,1.6-6-1.1-6.6-2c-1.2-1.8-0.5-5.3-0.8-7.3C859.2,351.3,858.2,354.9,859.5,357.5z"/>
			<path id="Path_379" class="st3" d="M801.8,389.3c-1.1-1.2-2.7-2.4-4.1-1.7c-1,0.7-1.5,2-1,3.2c0.5,1.1,1.3,2,2.3,2.7
				c3,2.4,6.1,4.6,8.7,7.5c4.6,5.1,7.1,11.9,12.1,16.6c1,1.1,2.3,1.8,3.8,2.1c1.5,0.2,2.9-0.8,3.3-2.3c0.1-1.2-0.7-2.3-1.5-3.2
				c-1.9-2.1-4.1-4.1-5.9-6.3c-0.8-0.9-1.4-2-1.5-3.2c0-1.2,1.1-2.4,2.2-2.1c-1.4-0.4-2.4-2.7-4.5-3.1c-1.7-0.4-2.1,0.7-4.2-0.2
				C807.6,397.6,804.5,392.4,801.8,389.3z"/>
			<path id="Path_380" class="st3" d="M893.7,274.1c-1.1-0.3-2.2-0.7-3.3-1.2c-2.9-0.9-6.7,1.3-6.4,4.3c0.3,2,2.1,3.3,3.1,5.1
				c1.5,2.6,1.1,5.8,0.3,8.7c-0.2,0.9-0.6,1.7-1.1,2.5c-0.7,0.8-1.6,1.4-2.6,1.9c-3.9,2.2-7.4,5.1-10.2,8.7
				c-0.3,0.3-0.5,0.7-0.6,1.2c-0.1,1,0.9,1.8,1.5,2.6c1.3,1.9,0.4,4.4,0.5,6.7c0,0.7,0.3,1.3,0.8,1.7c0.8,0.4,1.7-0.3,2.1-1
				c1.4-2.5,0.3-6.6,3-7.8c0.5-0.2,1.1-0.3,1.4-0.8c0.5-0.7,0-1.7,0.3-2.5c0.4-1.2,2.1-1.3,3.4-1.2c2.2,0.1,4.5-0.2,6.6-0.9
				c0.8-0.2,1.6-0.6,2.2-1.3c0.7-1.1,0.9-2.4,0.6-3.6c-0.8-6.2-2.7-12.1-5.8-17.6c2.3,0.3,4.8,0.5,6.8-0.6c1.1-0.7,2.4-2.7,1.9-4
				C897.2,272.6,895.6,274.4,893.7,274.1z"/>
			<path id="Path_381" class="st3" d="M600.1,308c0.4,1.4,0.4,3,0.1,4.4c-0.5,1.4-2,2.6-3.4,2.2c-1.1-0.3-1.8-1.5-2.5-2.3
				c-4.4-4.7-14.3-2-17-7.8c-1.1-2.4-0.4-5.3-1.1-7.8c-1-3-3.9-5-7-4.8c-1.4,0.2-2.8,0.6-4,1.2c-8.6,3.4-17.6,5.7-26.7,6.7
				c-1.7,0.1-3.5,0.4-5.1,0.9c-3.8,1.4-6.3,4.9-8.2,8.4c-1.8,3.6-3.2,7.4-5.6,10.6c-2.6,3.3-6.2,5.7-9.6,8.2c-1.3,0.8-2.4,2-3.2,3.3
				c-0.6,1.6-0.8,3.3-0.6,4.9l0.7,20.3c0.1,2.6,0.2,5.3,1.4,7.6c1.5,2.9,4.3,4.8,6.3,7.4c2,2.6,3.1,5.9,3,9.2c0,1.3-0.2,2.9,0.9,3.8
				c0.6,0.4,1.4,0.6,2.1,0.6l27.4,2.2c4.8,0.4,10.2,1,13.3,4.7c1.5,1.7,2.7,4.2,5,4.4c1-0.1,1.9-0.2,2.9-0.4c2.5-0.2,4.6,1.7,6,3.7
				c2.1,3.1,3,6.9,2.7,10.6c-0.2,2.3-1,4.6-1.1,7c-0.6,9,7,16.7,7.1,25.7c0.1,5.3-2.4,10.2-4.9,14.9c3.9,6,0.7,13.9,2.3,20.9
				c1.5,6.6,7,11.8,8.4,18.5c0.6,3,0.7,6.8,3.4,8.4c1.2,0.6,2.5,0.8,3.8,0.8c7.9,0.1,15.7-1.7,22.8-5.2c3.3-1.6,6.8-4.1,7.3-7.8
				c0.5-3-1-6.3,0.5-8.8c1.8-3,6.4-2.8,9-5.1c4.3-3.8,0.9-11,2.7-16.4c1.6-4.9,6.9-7.5,9.6-11.9c1-1.9,1.8-3.9,2.2-6
				c1.2-5.1,2-10.2,2.3-15.4c0.1-3.2,0.3-6.3,0.7-9.4c2.9-17.8,20.5-29.8,26.2-46.9c0.5-1.6,0.8-3.8-0.7-4.7
				c-0.9-0.4-1.8-0.5-2.8-0.3L664,370c-1.6,0.3-3.2,0.2-4.7-0.3c-1.4-0.7-2.5-2.5-1.7-3.9c2.1-3.9-2.3-8.8-4.2-12.8
				c-5.3-10.7-11.6-20.9-18.8-30.5c-0.5-0.5-0.8-1.1-0.8-1.8l3.6,0.1c-1.2-4.3-3.2-9.1-7.4-10.7c-2.4-0.9-5-0.6-7.5-0.4
				C615.1,310.2,607.3,309.1,600.1,308z"/>
			<path id="Path_382" class="st3" d="M622.4,210.1c1.9,2,4,4.2,6.8,4.5c4.9,0.6,8.4-4.4,10.6-8.8c0.2,2.3,2.2,4.1,4.5,4
				c1.2-0.2,2.3-0.6,3.4-1.3c9.6-5.3,20.4-8.1,31.4-8.1c-0.2-1.7,0.9-3.3,2.6-3.7c2.2-0.4,4.2,1.5,5.3,3.5s1.7,4.3,3.5,5.8
				s5,1.4,5.7-0.7c0.6-2.1-1.5-3.9-3.3-5.1s-3.7-3.5-2.5-5.3c9.2-2,18.5-4.1,27.9-4.5c1.6,0.1,3.2-0.2,4.7-0.8
				c1.5-0.6,2.4-2.2,2.2-3.9c-4.2,1-8.6-0.7-11.1-4.2c13.1-1.1,27-2,38.6,4.2c1.4,3-5.7,5.5-3.8,8.2c0.6,0.9,1.8,1,2.9,1
				c8.1,0.1,16.2,0.3,24.1-0.9c2.9-0.4,5.9-1.1,8.8-0.7c4.9,0.6,9,3.9,13.8,4.9c1.9,0.6,4,0.3,5.8-0.7c1.6-1.1,2.4-3.7,1-5.2
				c4.5-4.4,12-3.3,18-1.2s11.6,5.5,17.9,6c4.5,0.3,9.1-0.9,13.6-0.1c2.8,0.5,5.4,1.7,8.2,2.5c5.2,1.4,10.7,1.1,16.1,1.2
				c13.7,0.2,27.3,2.9,40.1,8c1.7,0.5,3.2,1.4,4.5,2.6c1.3,1.2,1.7,3.1,1,4.8l-13.2-1.9c1.2,2.4,4.5,2.9,7.1,3.7s5.3,3.7,3.7,6
				c-2.8-0.9-5.4,1.9-6.8,4.5s-3.2,5.7-6.1,5.9c-2.7,0.1-5.9-2.1-7.6-0.1c2.4,3,4.4,6.3,6.1,9.8c1.7,3.6,2.9,8,0.6,11.3
				c-0.4,0.6-0.9,1-1.6,1.2c-1.9,0.5-3.1-1.8-4.5-3.2c-1.7-1.8-4.3-2.3-6.6-3.1s-4.7-2.5-4.9-4.9c-0.1-1.5,0.7-2.9,1.3-4.3
				c1-2.4,1.4-4.9,1.3-7.5c0-2.1-0.8-4.1-2.2-5.7c-1.5-1.4-4-1.9-5.6-0.6c-0.7,0.6-1.3,1.6-2.3,1.6c-1.7,0.1-3-2.9-4.4-1.9
				c0.2,1.1-0.1,2.2-0.6,3.1c-4.1,3.6-10.4,2.1-15.7,3.3c-2.5,0.7-4.9,1.8-7.1,3.1c-0.8,0.4-1.5,1-2,1.7c-0.5,1.4,0,3,1.2,3.8
				c1.2,0.8,2.6,1.2,4,1.4c6.4,1.2,13,3.1,18,7.2s8.4,11,6.8,17.3l-12.7-12.1c0.5,5.1,0.8,10.2,0.8,15.3c0.1,1-0.1,2-0.4,2.9
				c-0.9,2-3.4,2.7-5.5,3.1c-2.3,0.4-3.9,2.7-3.4,5c0,0.2,0.1,0.3,0.1,0.5c0.8,2.5,2.7,4.4,4.4,6.4s3.5,4.1,3.7,6.7
				s-1.7,5.5-4.3,5.3c-2-0.1-3.4-1.9-4.3-3.7s-1.3-3.8-2.6-5.3c-3.8-4.6-12.4-2.6-15.8-7.5c-1.8,2-2.4,4.8-1.6,7.4
				c1.6-1,3.8-0.1,5,1.4s1.8,3.3,2.7,4.9c1.3,2.2,3.3,4.1,3.5,6.7c0,1,0,1.9,0,2.9c0.3,1.5,1.6,2.6,2.5,3.9c2.1,3,2,7.1,0.6,10.4
				s-3.8,6.2-6.2,8.9c-4.1,4.9-8.5,9.4-13.4,13.5c-1.5,1-2.8,2.3-3.8,3.8c-0.9,1.6-0.9,3.8,0.4,5c-1,0-2.7,0.5-3.7,0.6
				c-0.3-3.9-0.4-7.8-0.2-11.7c-3.8-1.8-7.9,3.1-7.4,7.3s3.5,7.6,5.7,11.2c1.6,2.7,2.8,5.8,2.2,8.8s-3.3,5.9-6.3,5.6
				c-4.9-0.4-7-7.5-11.8-8.3c-0.4-0.1-0.9-0.1-1.3,0.1c-0.7,0.4-0.8,1.4-0.9,2.2c-0.2,4-0.4,8.2,1.2,12c2.3,5.4,8.3,10,7,15.8
				c-6.7-3.1-10.2-10.7-11.8-17.9s-1.9-14.9-4.7-21.7c-2.2,2.8-6.7,0.5-8.7-2.4c-1.9-2.8-3-5.9-4.8-8.7s-4.6-5.3-7.9-5.5
				c-3.5-0.2-6.5,2.2-9.2,4.5c-2.2,1.9-4.4,3.8-5.7,6.4c-1.9,3.7-1.4,8.2-1.5,12.3c-0.1,4.5-1.1,9.3-4.1,12.6s-8.8,4.5-12.2,1.5
				c-1.8-1.6-2.6-3.9-3.4-6.1c-3.7-10.8-6.8-21.7-9.2-32.9c-0.6,2.5-2.8,5.8-4.9,4.3c-0.5-0.4-0.9-0.9-1.1-1.5
				c-4-6.7-11.3-10.8-18.8-13.2s-15.2-3.5-22.6-6.2c-4.1-1.5-8-3.4-11.7-5.8c-1.9,2.8-2.1,6.4-0.6,9.4c1.7,3,5.2,4.4,8.5,3.5
				c1.6-0.5,3-1.7,4.6-2.2s3.8-0.3,4.5,1.3c0.7,1.5-0.3,3.3,0.2,4.9c0.8,2.4,4.4,2.6,5.6,4.7c0.9,1.6,0.2,3.7-1.2,5
				c-1.4,1.2-3,2.2-4.7,2.9c-5.3,2.9-9,7.9-13.6,11.8s-11.1,6.7-16.6,4.2c1.3-6.6-6.6-11.5-8-18.1c-0.5-2.2-0.2-4.5-0.9-6.6
				c-1-3.1-3.7-5.2-5.9-7.5c-5.5-5.7-8.4-13.5-8.1-21.4c0.1-2.7,0.6-5.5,0-8.1s-2.8-5.2-5.5-5.1c-6.2,0.3-14.1,0.7-17.3-4.6
				c-1.2-1.9-1.7-4.7,0-6.1c1.2-1,2.9-0.9,4.5-0.8l14,1.4c3.3,0.3,6.8,0.6,9.6-1.1s4-6.3,1.4-8.3c-1.9-1.5-5.3-1.4-5.9-3.7
				c-0.5-2,1.7-4.2,0.5-5.8c-0.8-1.2-2.7-0.8-3.9,0s-2,2.2-3.2,2.8c-2.2,1.2-4.9,0.1-7.3-0.7s-5.6-0.8-6.8,1.4
				c-1.3,2.5,1.2,5.8-0.1,8.3c-1.7,3.3-7.5,1.4-9.9,4.3c-2.8,3.3,1.9,8.1,0.9,12.3c-2.4,1.2-5.3,1-7.6-0.4c-2.2-1.5-3.5-4.1-3.2-6.8
				c0.2-1.9,1.2-3.8,0.6-5.6c-0.5-1.4-2-2.3-3.3-3l-13.6-7.5c-1.3,2.3,0.3,5.3,2.3,7s4.5,3.1,5.8,5.4c1.7,3.3,0.6,7.4-2.7,9.4
				c-0.4,0.3-0.9,0.4-1.4,0.2c-0.4-0.3-0.8-0.7-0.9-1.2c-2.4-6.2-6-12.2-11.8-15.4s-14.1-2.6-17.8,2.9c-0.9,1.3-1.5,2.8-2.3,4.1
				c-4.2,7.2-13.1,10.6-21.4,10.4c-0.8,0-1.6-0.1-2.3-0.5c-1.3-0.9-1.3-2.9-1.1-4.5l0.9-6.9c0.2-1.4,0.4-2.9,1.5-3.8
				c1.5-1.2,3.8-0.4,5.7-0.5c3.1-0.1,5.7-2.2,6.6-5.1c0.8-2.9-0.1-6.1-2.3-8.1c-0.9-0.8-2.1-1.9-1.6-3c0.4-0.6,1-1.1,1.8-1.2
				c3.5-1,7.3-1.3,10.7-2.5s6.8-3.7,7.7-7.3c0.3-1.1,0.4-2.4,1.4-3c0.5-0.2,1-0.3,1.6-0.3c3.9-0.6,6.7-4,6.5-7.9
				c1.7-1.2,4-0.3,5.6,0.9s3,2.9,5,3.4c3.7,1,7.2-2.2,11-2.3c1.6,0,3.2,0.6,4.7,0c1.5-0.5,2.4-2.1,3.6-3.2s3.2-1.8,4.3-0.6l-0.9-6.8
				c3.7,0.9,7.7,0.2,10.8-2l-11.8-4c-0.4-0.1-0.8-0.3-1.1-0.6c-0.9-0.9,0-2.4,0.7-3.4c1.7-2.5,2-6.7-0.8-7.9c-1.9-0.9-4,0.2-5.8,1.2
				l-8.6,4.8c-0.3,1.6,1.7,2.6,3,3.7c2.1,1.8,2.2,5,0.4,7c-0.9,1-2.3,1.7-3.7,1.7c1.2,1.5,1.6,3.4,1.1,5.3l-5.8,0.4
				c-0.7,0.1-1.3,0-1.9-0.4c-0.6-0.6-0.5-1.5-0.7-2.3c-0.3-2-2.3-3.4-4.3-3.7c-2-0.2-4,0-6,0.5c-0.8,0.3-1.7,0.3-2.6-0.1
				c-0.5-0.3-0.8-0.8-1-1.3c-0.9-2.1-0.1-4.5,1.3-6.3c1.5-1.7,3.2-3.2,5-4.6c4-3.6,7-8.2,8.6-13.3c3.2-1.3,6.5-3.2,9.7-4.5
				c4.9-2.5,10.5-3.6,16-3.1l10.8,0.2c3.2,0.1,6.5,0.1,9.5,1.4s5.6,3.9,5.8,7.1c0.1,0.7-0.1,1.5-0.7,2c-0.4,0.2-0.9,0.3-1.4,0.3
				C626.7,209.2,625.4,210,622.4,210.1z"/>
			<path id="Path_383" class="st3" d="M536,244c0.9-0.8,1.2-2,0.9-3.2c-2.1-0.8-4.5-0.4-6.1,1.2c-0.6,0.6-1.2,1.4-1.6,2.2
				c-1.4,2.3-2.7,5.1-1.9,7.7c0.1,0.6,0.5,1.1,1,1.4c0.4,0.1,0.8,0.2,1.2,0.2c1.6,0,3.1-0.1,4.7-0.3c1-0.1,2.1-0.4,2.4-1.3
				c0.5-1.2-0.7-2.5-0.3-3.7c0.2-0.5,0.6-1,1-1.4c0.4-0.4,0.7-1,0.6-1.6c-0.1-0.6-1-0.9-1.3-0.4"/>
			<path id="Path_384" class="st3" d="M544.2,233.5c-1.4-0.3-2.8-0.4-4.3-0.3c-0.3,0-0.6,0.1-0.9,0.2c-0.3,0.2-0.5,0.5-0.6,0.8
				c-0.6,2,0.4,4.1,2.3,4.9c0.5,0.1,1,0.3,1.5,0.6c1.2,0.9,0.4,2.8,0.7,4.3c0.3,1.7,1.9,3.1,1.6,4.8c-0.2,1.3-1.7,2.4-1.4,3.7
				c0.2,1.4,2,1.8,3.4,1.9c0.8,0.1,1.7,0,2.4-0.3c0.8-0.5,1.3-1.3,1.5-2.2c0.6-1.7,0.8-3.5,0.7-5.3c0-0.8-0.2-1.6-0.6-2.3
				c-0.4-0.6-0.9-1.1-1.4-1.6C546.4,239.6,549.3,234.9,544.2,233.5z"/>
			<path id="Path_385" class="st4" d="M898.3,478.9c0,0-206.3-118.4-295.1-96c0,0-188.2,20.3-210,64.8c0,0-59.8-186.9-81.6-193.2"/>
			<path id="Path_386" class="st4" d="M393.3,447.7c34.6-92.2,346.2-194.4,346.2-194.4c-44.2,11.2-136.2,129.6-136.2,129.6
				S408.8,241.4,311.6,254.5c0,0,428.1,14,586.7,224.3"/>
			<circle id="Ellipse_114" class="st5" cx="311.6" cy="254.5" r="9"/>
			<circle id="Ellipse_115" class="st5" cx="393.3" cy="447.7" r="9"/>
			<circle id="Ellipse_116" class="st5" cx="739.4" cy="253.3" r="9"/>
			<circle id="Ellipse_117" class="st5" cx="898.3" cy="478.9" r="9"/>
			<circle id="Ellipse_118" class="st5" cx="603.2" cy="382.9" r="9"/>
		</g>
		<g id="Group_1887" transform="translate(-51 -60)">
			
				<ellipse id="Ellipse_64" transform="matrix(0.357 -0.9341 0.9341 0.357 -355.2815 892.6711)" class="st6" cx="470.8" cy="704.4" rx="21.5" ry="6.8"/>
			<circle id="Ellipse_65" class="st6" cx="431" cy="736.9" r="43.1"/>
			<rect id="Rectangle_552" x="411.4" y="770.7" class="st6" width="13.1" height="23.4"/>
			<rect id="Rectangle_553" x="437.5" y="770.7" class="st6" width="13.1" height="23.4"/>
			<ellipse id="Ellipse_66" class="st6" cx="422.3" cy="794.4" rx="10.9" ry="4.1"/>
			<ellipse id="Ellipse_67" class="st6" cx="448.4" cy="793.9" rx="10.9" ry="4.1"/>
			<path id="Path_280" class="st5" d="M389.2,696.9c-3.5-15.6,7.6-31.3,24.8-35.1c17.2-3.8,33.9,5.7,37.4,21.2s-7.9,21.3-25.1,25.2
				S392.7,712.5,389.2,696.9z"/>
			
				<ellipse id="Ellipse_68" transform="matrix(0.4285 -0.9035 0.9035 0.4285 -429.2079 755.2952)" class="st6" cx="382.5" cy="716.9" rx="6.8" ry="21.5"/>
		</g>
		<g id="Group_1888" transform="translate(214 242)">
			<circle id="Ellipse_69" class="st6" cx="526" cy="430.6" r="42"/>
			
				<rect id="Rectangle_554" x="532.6" y="463.6" transform="matrix(1 -4.642559e-03 4.642559e-03 1 -2.1994 2.5072)" class="st6" width="12.8" height="22.9"/>
			
				<rect id="Rectangle_555" x="507" y="463.7" transform="matrix(1 -4.642559e-03 4.642559e-03 1 -2.2002 2.3887)" class="st6" width="12.8" height="22.9"/>
			
				<ellipse id="Ellipse_70" transform="matrix(0.8638 -0.5039 0.5039 0.8638 -176.7822 323.9924)" class="st6" cx="510.8" cy="488.9" rx="10.6" ry="4"/>
			
				<ellipse id="Ellipse_71" transform="matrix(0.8638 -0.5039 0.5039 0.8638 -173.319 336.5709)" class="st6" cx="535.8" cy="488.8" rx="10.6" ry="4"/>
			<circle id="Ellipse_72" class="st7" cx="524.9" cy="420" r="14.4"/>
			<circle id="Ellipse_73" class="st3" cx="519.9" cy="413.9" r="4.8"/>
			<path id="Path_281" class="st5" d="M566.5,391.4c3.3-15.2-7.6-30.5-24.4-34.2s-33.1,5.7-36.4,20.9s7.8,20.8,24.6,24.4
				S563.2,406.6,566.5,391.4z"/>
			
				<ellipse id="Ellipse_74" transform="matrix(0.3892 -0.9212 0.9212 0.3892 -82.6343 694.1229)" class="st6" cx="482.1" cy="409.4" rx="6.6" ry="21"/>
			
				<ellipse id="Ellipse_75" transform="matrix(0.3892 -0.9212 0.9212 0.3892 -62.279 794.459)" class="st6" cx="567.9" cy="444.2" rx="6.6" ry="21"/>
			<path id="Path_282" class="st7" d="M534.5,449c0,5.3-4.2,9.6-9.5,9.6c-5.3,0-9.6-4.2-9.6-9.5v0c0-5.3,4.3-6.4,9.5-6.4
				S534.4,443.7,534.5,449z"/>
		</g>
		<g id="top">
			<rect id="bg" x="150" y="20" class="st8" width="768" height="56"/>
			<g>
				<defs>
					<rect id="SVGID_3_" x="170" y="35" width="733.3" height="16"/>
				</defs>
				<clipPath id="SVGID_4_">
					<use xlink:href="#SVGID_3_"  style="overflow:visible;"/>
				</clipPath>
				<g id="status_bar_light" transform="translate(20 15)" class="st9">
					<g id="status_bar_light-2">
						<g id="Battery" transform="translate(709 2.333)">
							<g>
								<defs>
									<path id="SVGID_5_" d="M152.7,20h16.7c1.5,0,2.7,1.2,2.7,2.7v6l0,0c0,1.5-1.2,2.7-2.7,2.7h-16.7c-1.5,0-2.7-1.2-2.7-2.7v-6
										l0,0C150,21.2,151.2,20,152.7,20z"/>
								</defs>
								<clipPath id="SVGID_6_">
									<use xlink:href="#SVGID_5_"  style="overflow:visible;"/>
								</clipPath>
								<g id="Border" class="st10">
									<path id="Fill" class="st11" d="M152.7,20h16.7c1.5,0,2.7,1.2,2.7,2.7v6l0,0c0,1.5-1.2,2.7-2.7,2.7h-16.7
										c-1.5,0-2.7-1.2-2.7-2.7v-6l0,0C150,21.2,151.2,20,152.7,20z"/>
								</g>
							</g>
							<g>
								<defs>
									<path id="SVGID_7_" d="M173,23.7v4c0.8-0.3,1.3-1.1,1.3-2S173.8,24,173,23.7"/>
								</defs>
								<clipPath id="SVGID_8_">
									<use xlink:href="#SVGID_7_"  style="overflow:visible;"/>
								</clipPath>
								<g id="Cap" transform="translate(23 3.667)" class="st12">
									<path id="Fill-2" d="M145,15h11.3v14H145V15z"/>
								</g>
							</g>
							<g>
								<defs>
									<path id="SVGID_9_" d="M153.3,22h15.3c0.7,0,1.3,0.6,1.3,1.3c0,0,0,0,0,0V28l0,0c0,0.7-0.6,1.3-1.3,1.3l0,0h-15.3
										c-0.7,0-1.3-0.6-1.3-1.3c0,0,0,0,0,0v-4.7l0,0C152,22.6,152.6,22,153.3,22L153.3,22z"/>
								</defs>
								<clipPath id="SVGID_10_">
									<use xlink:href="#SVGID_9_"  style="overflow:visible;"/>
								</clipPath>
								<g id="Capacity" transform="translate(2 2)" class="st13">
									<path id="Fill-3" d="M145,15h28v17.3h-28V15z"/>
								</g>
							</g>
						</g>
						<g id="Wifi" transform="translate(688.694 2.331)">
							<g>
								<defs>
									<path id="SVGID_11_" d="M157.6,22.3c2.2,0,4.3,0.9,6,2.4c0.1,0.1,0.3,0.1,0.4,0l1.2-1.2c0.1-0.1,0.1-0.1,0.1-0.2
										c0-0.1,0-0.2-0.1-0.2c-4.2-4-10.9-4-15.1,0c-0.1,0.1-0.1,0.1-0.1,0.2c0,0.1,0,0.2,0.1,0.2l1.2,1.2c0.1,0.1,0.3,0.1,0.4,0
										C153.3,23.1,155.4,22.3,157.6,22.3L157.6,22.3z M157.6,26.1c1.2,0,2.4,0.5,3.3,1.3c0.1,0.1,0.3,0.1,0.4,0l1.2-1.2
										c0.1-0.1,0.1-0.1,0.1-0.2c0-0.1,0-0.2-0.1-0.2c-2.7-2.6-7-2.6-9.8,0c-0.1,0.1-0.1,0.1-0.1,0.2c0,0.1,0,0.2,0.1,0.2l1.2,1.2
										c0.1,0.1,0.3,0.1,0.4,0C155.2,26.5,156.4,26.1,157.6,26.1L157.6,26.1z M159.9,28.9c0.1-0.1,0.1-0.1,0.1-0.2
										c0-0.1,0-0.2-0.1-0.2c-1.3-1.1-3.1-1.1-4.4,0c-0.1,0.1-0.1,0.1-0.1,0.2c0,0.1,0,0.2,0.1,0.2l2,2c0.1,0.1,0.1,0.1,0.2,0.1
										c0.1,0,0.2,0,0.2-0.1L159.9,28.9z"/>
								</defs>
								<clipPath id="SVGID_12_">
									<use xlink:href="#SVGID_11_"  style="overflow:visible;"/>
								</clipPath>
								<g id="Wifi-2" class="st14">
									<path id="Fill-4" d="M145,15h25.3v21H145V15z"/>
								</g>
							</g>
						</g>
						<g id="Cellular_Connection" transform="translate(666.667 2.667)">
							<g>
								<defs>
									<path id="SVGID_13_" d="M151,26.7h1c0.6,0,1,0.4,1,1v2c0,0.6-0.4,1-1,1h-1c-0.6,0-1-0.4-1-1v-2
										C150,27.1,150.4,26.7,151,26.7z M155.7,24.7h1c0.6,0,1,0.4,1,1v4c0,0.6-0.4,1-1,1h-1c-0.6,0-1-0.4-1-1v-4
										C154.7,25.1,155.1,24.7,155.7,24.7L155.7,24.7z M160.3,22.3h1c0.6,0,1,0.4,1,1v6.3c0,0.6-0.4,1-1,1h-1c-0.6,0-1-0.4-1-1
										v-6.3C159.3,22.8,159.8,22.3,160.3,22.3z M165,20h1c0.6,0,1,0.4,1,1v8.7c0,0.6-0.4,1-1,1h-1c-0.6,0-1-0.4-1-1V21
										C164,20.4,164.4,20,165,20z"/>
								</defs>
								<clipPath id="SVGID_14_">
									<use xlink:href="#SVGID_13_"  style="overflow:visible;"/>
								</clipPath>
								<g id="Cellular_Connection-2" class="st15">
									<path id="Fill-5" d="M145,15h27v20.7h-27V15z"/>
								</g>
							</g>
						</g>
						<g id="Bars___Time_Black">
							<path id="Background" class="st11" d="M150,36h54V20h-54V36z"/>
							<path id="_Time" d="M166.4,35.2c2.5,0,4-2,4-5.3c0-1.1-0.2-2.2-0.7-3.1c-0.6-1.2-1.9-2-3.2-1.9c-1.9-0.1-3.5,1.3-3.7,3.2
								c0,0.1,0,0.2,0,0.3c-0.1,1.7,1.3,3.2,3,3.3c0.1,0,0.1,0,0.2,0c1.1,0.1,2.1-0.5,2.6-1.5h0.1c0,2.3-0.9,3.6-2.3,3.6
								c-0.8,0-1.5-0.5-1.7-1.2H163C163.3,34.2,164.8,35.3,166.4,35.2z M166.5,30.2c-1,0-1.9-0.8-1.9-1.8c0-0.1,0-0.1,0-0.2
								c0-1.1,0.9-1.9,2-1.9c1.1,0,1.9,0.9,1.9,2c0,1-0.8,1.9-1.8,1.9C166.6,30.2,166.5,30.2,166.5,30.2L166.5,30.2z M173.5,34
								c0.6,0,1.1-0.5,1.1-1.1c0-0.6-0.5-1.1-1.1-1.1c-0.6,0-1.1,0.5-1.1,1.1C172.4,33.5,172.9,33.9,173.5,34
								C173.5,34,173.5,34,173.5,34L173.5,34z M173.5,28.8c0.6,0,1.1-0.4,1.1-1c0,0,0-0.1,0-0.1c0-0.6-0.5-1.1-1.1-1.1
								c-0.6,0-1,0.5-1.1,1.1C172.4,28.3,172.9,28.8,173.5,28.8C173.5,28.8,173.5,28.8,173.5,28.8L173.5,28.8z M181.4,35h1.7v-1.8
								h1.3v-1.5h-1.3v-6.5h-2.5c-1.7,2.6-3.1,4.8-4,6.5v1.6h4.8V35z M178.3,31.6c1.1-2,2.2-3.6,3.1-5h0.1v5.1h-3.2V31.6z M188.5,35
								h1.8v-9.9h-1.8l-2.6,1.8v1.7l2.5-1.7h0.1L188.5,35z"/>
						</g>
					</g>
				</g>
			</g>
			<g id="header_back_filter_light">
				<g id="bg-2">
					<path class="st7" d="M918,76.5H206v-1h712V76.5z"/>
					<path class="st16" d="M206,76h712H206 M206,75h712v2H206V75z"/>
				</g>
				<g>
					<defs>
						<rect id="SVGID_15_" x="150" y="20" width="768" height="44"/>
					</defs>
					<clipPath id="SVGID_16_">
						<use xlink:href="#SVGID_15_"  style="overflow:visible;"/>
					</clipPath>
					<g id="Status_bar_light-3" class="st17">
						<path id="bg-3" class="st7" d="M150,20h768v44H150V20z"/>
						<g>
							<defs>
								<rect id="SVGID_17_" x="170" y="34" width="733.3" height="16"/>
							</defs>
							<clipPath id="SVGID_18_">
								<use xlink:href="#SVGID_17_"  style="overflow:visible;"/>
							</clipPath>
							<g id="Status_Bar_Light-4" transform="translate(20 14)" class="st18">
								<g id="status_bar_light-5">
									<g id="Battery-2" transform="translate(709 2.333)">
										<g>
											<defs>
												<path id="SVGID_19_" d="M152.7,20h16.7c1.5,0,2.7,1.2,2.7,2.7v6l0,0c0,1.5-1.2,2.7-2.7,2.7h-16.7
													c-1.5,0-2.7-1.2-2.7-2.7v-6l0,0C150,21.2,151.2,20,152.7,20z"/>
											</defs>
											<clipPath id="SVGID_20_">
												<use xlink:href="#SVGID_19_"  style="overflow:visible;"/>
											</clipPath>
											<g id="Border-2" class="st19">
												<g id="Fill-6">
													<path class="st11" d="M152.7,20h16.7c1.5,0,2.7,1.2,2.7,2.7v6l0,0c0,1.5-1.2,2.7-2.7,2.7h-16.7c-1.5,0-2.7-1.2-2.7-2.7
														v-6l0,0C150,21.2,151.2,20,152.7,20z"/>
													<path class="st11" d="M152.7,20c-1.5,0-2.7,1.2-2.7,2.7v6c0,1.5,1.2,2.7,2.7,2.7h16.7c1.5,0,2.7-1.2,2.7-2.7v-6
														c0-1.5-1.2-2.7-2.7-2.7H152.7 M152.7,18h16.7c2.6,0,4.7,2.1,4.7,4.7v6c0,2.6-2.1,4.7-4.7,4.7h-16.7
														c-2.6,0-4.7-2.1-4.7-4.7v-6C148,20.1,150.1,18,152.7,18z"/>
												</g>
											</g>
										</g>
										<g>
											<defs>
												<path id="SVGID_21_" d="M173,23.7v4c0.8-0.3,1.3-1.1,1.3-2S173.8,24,173,23.7"/>
											</defs>
											<clipPath id="SVGID_22_">
												<use xlink:href="#SVGID_21_"  style="overflow:visible;"/>
											</clipPath>
											<g id="Cap-2" transform="translate(23 3.667)" class="st20">
												<path id="Fill-7" d="M145,15h11.3v14H145V15z"/>
											</g>
										</g>
										<g>
											<defs>
												<path id="SVGID_23_" d="M153.3,22h15.3c0.7,0,1.3,0.6,1.3,1.3c0,0,0,0,0,0V28l0,0c0,0.7-0.6,1.3-1.3,1.3l0,0h-15.3
													c-0.7,0-1.3-0.6-1.3-1.3c0,0,0,0,0,0v-4.7l0,0C152,22.6,152.6,22,153.3,22L153.3,22z"/>
											</defs>
											<clipPath id="SVGID_24_">
												<use xlink:href="#SVGID_23_"  style="overflow:visible;"/>
											</clipPath>
											<g id="Capacity-2" transform="translate(2 2)" class="st21">
												<path id="Fill-8" d="M145,15h28v17.3h-28V15z"/>
											</g>
										</g>
									</g>
									<g id="Wifi-3" transform="translate(688.694 2.331)">
										<g>
											<defs>
												<path id="SVGID_25_" d="M157.6,22.3c2.2,0,4.3,0.9,6,2.4c0.1,0.1,0.3,0.1,0.4,0l1.2-1.2c0.1-0.1,0.1-0.1,0.1-0.2
													c0-0.1,0-0.2-0.1-0.2c-4.2-4-10.9-4-15.1,0c-0.1,0.1-0.1,0.1-0.1,0.2c0,0.1,0,0.2,0.1,0.2l1.2,1.2
													c0.1,0.1,0.3,0.1,0.4,0C153.3,23.1,155.4,22.3,157.6,22.3L157.6,22.3z M157.6,26.1c1.2,0,2.4,0.5,3.3,1.3
													c0.1,0.1,0.3,0.1,0.4,0l1.2-1.2c0.1-0.1,0.1-0.1,0.1-0.2c0-0.1,0-0.2-0.1-0.2c-2.7-2.6-7-2.6-9.8,0
													c-0.1,0.1-0.1,0.1-0.1,0.2c0,0.1,0,0.2,0.1,0.2l1.2,1.2c0.1,0.1,0.3,0.1,0.4,0C155.2,26.5,156.4,26.1,157.6,26.1
													L157.6,26.1z M159.9,28.9c0.1-0.1,0.1-0.1,0.1-0.2c0-0.1,0-0.2-0.1-0.2c-1.3-1.1-3.1-1.1-4.4,0
													c-0.1,0.1-0.1,0.1-0.1,0.2c0,0.1,0,0.2,0.1,0.2l2,2c0.1,0.1,0.1,0.1,0.2,0.1c0.1,0,0.2,0,0.2-0.1L159.9,28.9z"/>
											</defs>
											<clipPath id="SVGID_26_">
												<use xlink:href="#SVGID_25_"  style="overflow:visible;"/>
											</clipPath>
											<g id="Wifi-4" class="st22">
												<path id="Fill-9" d="M145,15h25.3v21H145V15z"/>
											</g>
										</g>
									</g>
									<g id="Cellular_Connection-3" transform="translate(666.667 2.667)">
										<g>
											<defs>
												<path id="SVGID_27_" d="M151,26.7h1c0.6,0,1,0.4,1,1v2c0,0.6-0.4,1-1,1h-1c-0.6,0-1-0.4-1-1v-2
													C150,27.1,150.4,26.7,151,26.7z M155.7,24.7h1c0.6,0,1,0.4,1,1v4c0,0.6-0.4,1-1,1h-1c-0.6,0-1-0.4-1-1v-4
													C154.7,25.1,155.1,24.7,155.7,24.7L155.7,24.7z M160.3,22.3h1c0.6,0,1,0.4,1,1v6.3c0,0.6-0.4,1-1,1h-1c-0.6,0-1-0.4-1-1
													v-6.3C159.3,22.8,159.8,22.3,160.3,22.3z M165,20h1c0.6,0,1,0.4,1,1v8.7c0,0.6-0.4,1-1,1h-1c-0.6,0-1-0.4-1-1V21
													C164,20.4,164.4,20,165,20z"/>
											</defs>
											<clipPath id="SVGID_28_">
												<use xlink:href="#SVGID_27_"  style="overflow:visible;"/>
											</clipPath>
											<g id="Cellular_Connection-4" class="st23">
												<path id="Fill-10" d="M145,15h27v20.7h-27V15z"/>
											</g>
										</g>
									</g>
									<g id="Bars___Time_Black-2">
										<path id="Background-2" class="st11" d="M150,36h54V20h-54V36z"/>
										<path id="_Time-2" d="M166.4,35.2c2.5,0,4-2,4-5.3c0-1.1-0.2-2.2-0.7-3.1c-0.6-1.2-1.9-2-3.2-1.9
											c-1.9-0.1-3.5,1.3-3.7,3.2c0,0.1,0,0.2,0,0.3c-0.1,1.7,1.3,3.2,3,3.3c0.1,0,0.1,0,0.2,0c1.1,0.1,2.1-0.5,2.6-1.5h0.1
											c0,2.3-0.9,3.6-2.3,3.6c-0.8,0-1.5-0.5-1.7-1.2H163C163.3,34.2,164.8,35.3,166.4,35.2z M166.5,30.2c-1,0-1.9-0.8-1.9-1.8
											c0-0.1,0-0.1,0-0.2c0-1.1,0.9-1.9,2-1.9c1.1,0,1.9,0.9,1.9,2c0,1-0.8,1.9-1.8,1.9C166.6,30.2,166.5,30.2,166.5,30.2
											L166.5,30.2z M173.5,34c0.6,0,1.1-0.5,1.1-1.1c0-0.6-0.5-1.1-1.1-1.1c-0.6,0-1.1,0.5-1.1,1.1
											C172.4,33.5,172.9,33.9,173.5,34C173.5,34,173.5,34,173.5,34L173.5,34z M173.5,28.8c0.6,0,1.1-0.4,1.1-1c0,0,0-0.1,0-0.1
											c0-0.6-0.5-1.1-1.1-1.1c-0.6,0-1,0.5-1.1,1.1C172.4,28.3,172.9,28.8,173.5,28.8C173.5,28.8,173.5,28.8,173.5,28.8
											L173.5,28.8z M181.4,35h1.7v-1.8h1.3v-1.5h-1.3v-6.5h-2.5c-1.7,2.6-3.1,4.8-4,6.5v1.6h4.8V35z M178.3,31.6
											c1.1-2,2.2-3.6,3.1-5h0.1v5.1h-3.2V31.6z M188.5,35h1.8v-9.9h-1.8l-2.6,1.8v1.7l2.5-1.7h0.1L188.5,35z"/>
									</g>
								</g>
							</g>
						</g>
					</g>
				</g>
			</g>
		</g>
		<text transform="matrix(1 0 0 1 233.36 248)" class="st5 st24 st25">Designpathy</text>
	</g>
</g>
<path id="bg_1_" class="st26" d="M1158.5,487.3h498c18.2,0,33,14.8,33,33c0,18.2-14.8,33-33,33h-498c-18.2,0-33-14.8-33-33
	C1125.5,502,1140.3,487.3,1158.5,487.3z"/>
<path id="bg-2_1_" class="st26" d="M1158.5,361.3h498c18.2,0,33,14.8,33,33l0,0c0,18.2-14.8,33-33,33h-498c-18.2,0-33-14.8-33-33
	l0,0C1125.5,376,1140.3,361.3,1158.5,361.3z"/>
<text transform="matrix(1 0 0 1 1106.9053 249.2565)" class="st5 st24 st25">Designpathy</text>
<path id="bg-3_1_" class="st27" d="M1461.5,591.3h198c16.6,0,30,13.4,30,30l0,0c0,16.6-13.4,30-30,30h-198c-16.6,0-30-13.4-30-30
	l0,0C1431.5,604.7,1445,591.3,1461.5,591.3z"/>
<text transform="matrix(1 0 0 1 1531.0752 625.2565)" class="st7 st24 st28">Login</text>
<path id="bg-4" class="st29" d="M1155.5,591.3h198c16.6,0,30,13.4,30,30s-13.4,30-30,30h-198c-16.6,0-30-13.4-30-30
	S1139,591.3,1155.5,591.3z"/>
<text transform="matrix(1 0 0 1 1213.6353 625.2565)" class="st7 st24 st28">Sign Up</text>
<text transform="matrix(1 0 0 1 1172.5452 403.2565)" class="st30 st31 st32">Email</text>
<text transform="matrix(1 0 0 1 1172.5452 529.2565)" class="st30 st31 st32">Password</text>
<g id="Group_1890" transform="translate(-36 -30.49)">
	<g id="Group_1887_1_" transform="translate(182.122 886.627)">
		
			<ellipse id="Ellipse_64_1_" transform="matrix(0.357 -0.9341 0.9341 0.357 675.3197 1129.4515)" class="st6" cx="1158.1" cy="74.2" rx="26.2" ry="8.2"/>
		<circle id="Ellipse_65_1_" class="st6" cx="1109.7" cy="113.7" r="52.4"/>
		<rect id="Rectangle_552_1_" x="1085.8" y="154.8" class="st6" width="15.9" height="28.5"/>
		<rect id="Rectangle_553_1_" x="1117.6" y="154.8" class="st6" width="15.9" height="28.5"/>
		<ellipse id="Ellipse_66_1_" class="st6" cx="1099.1" cy="183.6" rx="13.3" ry="5"/>
		<ellipse id="Ellipse_67_1_" class="st6" cx="1130.9" cy="183" rx="13.3" ry="5"/>
		<path id="Path_280_1_" class="st5" d="M1058.9,65c-4.2-18.9,9.3-38.1,30.2-42.7s41.3,6.9,45.5,25.8s-9.6,25.9-30.5,30.6
			C1083.2,83.4,1063.1,84,1058.9,65z"/>
		
			<ellipse id="Ellipse_68_1_" transform="matrix(0.4285 -0.9035 0.9035 0.4285 519.6669 1000.4583)" class="st6" cx="1050.7" cy="89.4" rx="8.2" ry="26.2"/>
	</g>
	<g id="Group_1888_1_" transform="translate(499.492 882.413)">
		<circle id="Ellipse_69_1_" class="st6" cx="1103.5" cy="111.5" r="51.1"/>
		
			<rect id="Rectangle_554_1_" x="1111.5" y="151.5" transform="matrix(1 -4.642559e-03 4.642559e-03 1 -0.7559 5.1982)" class="st6" width="15.5" height="27.8"/>
		
			<rect id="Rectangle_555_1_" x="1080.5" y="151.7" transform="matrix(1 -4.642559e-03 4.642559e-03 1 -0.7569 5.0541)" class="st6" width="15.5" height="27.8"/>
		
			<ellipse id="Ellipse_70_1_" transform="matrix(0.8638 -0.5039 0.5039 0.8638 55.9182 571.6016)" class="st6" cx="1085.1" cy="182.4" rx="12.9" ry="4.9"/>
		
			<ellipse id="Ellipse_71_1_" transform="matrix(0.8638 -0.5039 0.5039 0.8638 60.1285 586.8931)" class="st6" cx="1115.5" cy="182.2" rx="12.9" ry="4.9"/>
		<circle id="Ellipse_72_1_" class="st7" cx="1102.2" cy="98.6" r="17.5"/>
		<circle id="Ellipse_73_1_" class="st3" cx="1096.2" cy="91.2" r="5.8"/>
		<path id="Path_281_1_" class="st5" d="M1152.9,63.8c4-18.5-9.2-37.1-29.6-41.5s-40.2,6.9-44.3,25.4c-4,18.5,9.5,25.2,29.9,29.7
			C1129.3,81.8,1148.8,82.3,1152.9,63.8z"/>
		
			<ellipse id="Ellipse_74_1_" transform="matrix(0.3892 -0.9212 0.9212 0.3892 562.563 1019.6931)" class="st6" cx="1050.2" cy="85.6" rx="8" ry="25.5"/>
		
			<ellipse id="Ellipse_75_1_" transform="matrix(0.3892 -0.9212 0.9212 0.3892 587.3096 1141.674)" class="st6" cx="1154.5" cy="128" rx="8" ry="25.5"/>
		<path id="Path_282_1_" class="st7" d="M1113.9,133.8c0,6.4-5.1,11.7-11.6,11.7c-6.4,0-11.7-5.1-11.7-11.6l0,0v-0.1
			c0-6.4,5.2-7.8,11.6-7.8C1108.6,126,1113.8,127.3,1113.9,133.8z"/>
	</g>
</g>
<g id="top_1_">
	<rect id="bg-5" x="1023.5" y="21.3" class="st8" width="768" height="56"/>
	<g>
		<defs>
			<rect id="SVGID_29_" x="1043.5" y="36.3" width="733.3" height="16"/>
		</defs>
		<clipPath id="SVGID_30_">
			<use xlink:href="#SVGID_29_"  style="overflow:visible;"/>
		</clipPath>
		<g id="status_bar_light_1_" transform="translate(20 15)" class="st33">
			<g id="status_bar_light-2_1_">
				<g id="Battery_1_" transform="translate(709 2.333)">
					<g>
						<defs>
							<path id="SVGID_31_" d="M1026.2,21.3h16.7c1.5,0,2.7,1.2,2.7,2.7v6l0,0c0,1.5-1.2,2.7-2.7,2.7h-16.7c-1.5,0-2.7-1.2-2.7-2.7
								v-6l0,0C1023.5,22.5,1024.7,21.3,1026.2,21.3z"/>
						</defs>
						<clipPath id="SVGID_32_">
							<use xlink:href="#SVGID_31_"  style="overflow:visible;"/>
						</clipPath>
						<g id="Border_1_" class="st34">
							<path id="Fill_1_" class="st11" d="M1026.2,21.3h16.7c1.5,0,2.7,1.2,2.7,2.7v6l0,0c0,1.5-1.2,2.7-2.7,2.7h-16.7
								c-1.5,0-2.7-1.2-2.7-2.7v-6l0,0C1023.5,22.5,1024.7,21.3,1026.2,21.3z"/>
						</g>
					</g>
					<g>
						<defs>
							<path id="SVGID_33_" d="M1046.5,24.9v4c0.8-0.3,1.3-1.1,1.3-2S1047.3,25.3,1046.5,24.9"/>
						</defs>
						<clipPath id="SVGID_34_">
							<use xlink:href="#SVGID_33_"  style="overflow:visible;"/>
						</clipPath>
						<g id="Cap_1_" transform="translate(23 3.667)" class="st35">
							<path id="Fill-2_1_" d="M1018.5,16.3h11.3v14h-11.3V16.3z"/>
						</g>
					</g>
					<g>
						<defs>
							<path id="SVGID_35_" d="M1026.9,23.3h15.3c0.7,0,1.3,0.6,1.3,1.3c0,0,0,0,0,0v4.7l0,0c0,0.7-0.6,1.3-1.3,1.3l0,0h-15.3
								c-0.7,0-1.3-0.6-1.3-1.3c0,0,0,0,0,0v-4.7l0,0C1025.5,23.9,1026.1,23.3,1026.9,23.3L1026.9,23.3z"/>
						</defs>
						<clipPath id="SVGID_36_">
							<use xlink:href="#SVGID_35_"  style="overflow:visible;"/>
						</clipPath>
						<g id="Capacity_1_" transform="translate(2 2)" class="st36">
							<path id="Fill-3_1_" d="M1018.5,16.3h28v17.3h-28V16.3z"/>
						</g>
					</g>
				</g>
				<g id="Wifi_1_" transform="translate(688.694 2.331)">
					<g>
						<defs>
							<path id="SVGID_37_" d="M1031.2,23.5c2.2,0,4.3,0.9,6,2.4c0.1,0.1,0.3,0.1,0.4,0l1.2-1.2c0.1-0.1,0.1-0.1,0.1-0.2
								c0-0.1,0-0.2-0.1-0.2c-4.2-4-10.9-4-15.1,0c-0.1,0.1-0.1,0.1-0.1,0.2c0,0.1,0,0.2,0.1,0.2l1.2,1.2c0.1,0.1,0.3,0.1,0.4,0
								C1026.8,24.4,1029,23.5,1031.2,23.5L1031.2,23.5z M1031.2,27.3c1.2,0,2.4,0.5,3.3,1.3c0.1,0.1,0.3,0.1,0.4,0l1.2-1.2
								c0.1-0.1,0.1-0.1,0.1-0.2c0-0.1,0-0.2-0.1-0.2c-2.7-2.6-7-2.6-9.8,0c-0.1,0.1-0.1,0.1-0.1,0.2c0,0.1,0,0.2,0.1,0.2l1.2,1.2
								c0.1,0.1,0.3,0.1,0.4,0C1028.8,27.8,1030,27.3,1031.2,27.3L1031.2,27.3z M1033.4,30.1c0.1-0.1,0.1-0.1,0.1-0.2
								c0-0.1,0-0.2-0.1-0.2c-1.3-1.1-3.1-1.1-4.4,0c-0.1,0.1-0.1,0.1-0.1,0.2c0,0.1,0,0.2,0.1,0.2l2,2c0.1,0.1,0.1,0.1,0.2,0.1
								c0.1,0,0.2,0,0.2-0.1L1033.4,30.1z"/>
						</defs>
						<clipPath id="SVGID_38_">
							<use xlink:href="#SVGID_37_"  style="overflow:visible;"/>
						</clipPath>
						<g id="Wifi-2_1_" class="st37">
							<path id="Fill-4_1_" d="M1018.5,16.3h25.3v21h-25.3V16.3z"/>
						</g>
					</g>
				</g>
				<g id="Cellular_Connection_1_" transform="translate(666.667 2.667)">
					<g>
						<defs>
							<path id="SVGID_39_" d="M1024.5,27.9h1c0.6,0,1,0.4,1,1v2c0,0.6-0.4,1-1,1h-1c-0.6,0-1-0.4-1-1v-2
								C1023.5,28.4,1024,27.9,1024.5,27.9z M1029.2,25.9h1c0.6,0,1,0.4,1,1v4c0,0.6-0.4,1-1,1h-1c-0.6,0-1-0.4-1-1v-4
								C1028.2,26.4,1028.7,25.9,1029.2,25.9L1029.2,25.9z M1033.9,23.6h1c0.6,0,1,0.4,1,1v6.3c0,0.6-0.4,1-1,1h-1c-0.6,0-1-0.4-1-1
								v-6.3C1032.9,24,1033.3,23.6,1033.9,23.6z M1038.5,21.3h1c0.6,0,1,0.4,1,1v8.7c0,0.6-0.4,1-1,1h-1c-0.6,0-1-0.4-1-1v-8.7
								C1037.5,21.7,1038,21.3,1038.5,21.3z"/>
						</defs>
						<clipPath id="SVGID_40_">
							<use xlink:href="#SVGID_39_"  style="overflow:visible;"/>
						</clipPath>
						<g id="Cellular_Connection-2_1_" class="st38">
							<path id="Fill-5_1_" d="M1018.5,16.3h27v20.7h-27V16.3z"/>
						</g>
					</g>
				</g>
				<g id="Bars___Time_Black_1_">
					<path id="Background_1_" class="st11" d="M1023.5,37.3h54v-16h-54V37.3z"/>
					<path id="_Time_1_" d="M1040,36.5c2.5,0,4-2,4-5.3c0-1.1-0.2-2.2-0.7-3.1c-0.6-1.2-1.9-2-3.2-1.9c-1.9-0.1-3.5,1.3-3.7,3.2
						c0,0.1,0,0.2,0,0.3c-0.1,1.7,1.3,3.2,3,3.3c0.1,0,0.1,0,0.2,0c1.1,0.1,2.1-0.5,2.6-1.5h0.1c0,2.3-0.9,3.6-2.3,3.6
						c-0.8,0-1.5-0.5-1.7-1.2h-1.8C1036.8,35.4,1038.3,36.6,1040,36.5z M1040,31.5c-1,0-1.9-0.8-1.9-1.8c0-0.1,0-0.1,0-0.2
						c0-1.1,0.9-1.9,2-1.9c1.1,0,1.9,0.9,1.9,2c0,1-0.8,1.9-1.8,1.9C1040.1,31.5,1040.1,31.5,1040,31.5L1040,31.5z M1047.1,35.2
						c0.6,0,1.1-0.5,1.1-1.1c0-0.6-0.5-1.1-1.1-1.1c-0.6,0-1.1,0.5-1.1,1.1C1046,34.7,1046.4,35.2,1047.1,35.2
						C1047,35.2,1047.1,35.2,1047.1,35.2L1047.1,35.2z M1047.1,30.1c0.6,0,1.1-0.4,1.1-1c0,0,0-0.1,0-0.1c0-0.6-0.5-1.1-1.1-1.1
						c-0.6,0-1,0.5-1.1,1.1C1046,29.6,1046.4,30.1,1047.1,30.1C1047,30.1,1047.1,30.1,1047.1,30.1L1047.1,30.1z M1055,36.3h1.7v-1.8
						h1.3v-1.5h-1.3v-6.5h-2.5c-1.7,2.6-3.1,4.8-4,6.5v1.6h4.8V36.3z M1051.8,32.9c1.1-2,2.2-3.6,3.1-5h0.1V33h-3.2V32.9z
						 M1062.1,36.3h1.8v-9.9h-1.8l-2.6,1.8v1.7l2.5-1.7h0.1L1062.1,36.3z"/>
				</g>
			</g>
		</g>
	</g>
	<g id="header_back_filter_light_1_">
		<g id="bg-6">
			<path class="st7" d="M1791.5,77.8h-712v-1h712V77.8z"/>
			<path class="st16" d="M1079.5,77.3h712H1079.5 M1079.5,76.3h712v2h-712V76.3z"/>
		</g>
		<g>
			<defs>
				<rect id="SVGID_41_" x="1023.5" y="21.3" width="768" height="44"/>
			</defs>
			<clipPath id="SVGID_42_">
				<use xlink:href="#SVGID_41_"  style="overflow:visible;"/>
			</clipPath>
			<g id="Status_bar_light-3_1_" class="st39">
				<path id="bg-7" class="st7" d="M1023.5,21.3h768v44h-768V21.3z"/>
				<g>
					<defs>
						<rect id="SVGID_43_" x="1043.5" y="35.3" width="733.3" height="16"/>
					</defs>
					<clipPath id="SVGID_44_">
						<use xlink:href="#SVGID_43_"  style="overflow:visible;"/>
					</clipPath>
					<g id="Status_Bar_Light-4_1_" transform="translate(20 14)" class="st40">
						<g id="status_bar_light-5_1_">
							<g id="Battery-2_1_" transform="translate(709 2.333)">
								<g>
									<defs>
										<path id="SVGID_45_" d="M1026.2,21.3h16.7c1.5,0,2.7,1.2,2.7,2.7v6l0,0c0,1.5-1.2,2.7-2.7,2.7h-16.7
											c-1.5,0-2.7-1.2-2.7-2.7v-6l0,0C1023.5,22.5,1024.7,21.3,1026.2,21.3z"/>
									</defs>
									<clipPath id="SVGID_46_">
										<use xlink:href="#SVGID_45_"  style="overflow:visible;"/>
									</clipPath>
									<g id="Border-2_1_" class="st41">
										<g id="Fill-6_1_">
											<path class="st11" d="M1026.2,21.3h16.7c1.5,0,2.7,1.2,2.7,2.7v6l0,0c0,1.5-1.2,2.7-2.7,2.7h-16.7
												c-1.5,0-2.7-1.2-2.7-2.7v-6l0,0C1023.5,22.5,1024.7,21.3,1026.2,21.3z"/>
											<path class="st11" d="M1026.2,21.3c-1.5,0-2.7,1.2-2.7,2.7v6c0,1.5,1.2,2.7,2.7,2.7h16.7c1.5,0,2.7-1.2,2.7-2.7v-6
												c0-1.5-1.2-2.7-2.7-2.7H1026.2 M1026.2,19.3h16.7c2.6,0,4.7,2.1,4.7,4.7v6c0,2.6-2.1,4.7-4.7,4.7h-16.7
												c-2.6,0-4.7-2.1-4.7-4.7v-6C1021.5,21.3,1023.6,19.3,1026.2,19.3z"/>
										</g>
									</g>
								</g>
								<g>
									<defs>
										<path id="SVGID_47_" d="M1046.5,24.9v4c0.8-0.3,1.3-1.1,1.3-2S1047.3,25.3,1046.5,24.9"/>
									</defs>
									<clipPath id="SVGID_48_">
										<use xlink:href="#SVGID_47_"  style="overflow:visible;"/>
									</clipPath>
									<g id="Cap-2_1_" transform="translate(23 3.667)" class="st42">
										<path id="Fill-7_1_" d="M1018.5,16.3h11.3v14h-11.3V16.3z"/>
									</g>
								</g>
								<g>
									<defs>
										<path id="SVGID_49_" d="M1026.9,23.3h15.3c0.7,0,1.3,0.6,1.3,1.3c0,0,0,0,0,0v4.7l0,0c0,0.7-0.6,1.3-1.3,1.3l0,0h-15.3
											c-0.7,0-1.3-0.6-1.3-1.3c0,0,0,0,0,0v-4.7l0,0C1025.5,23.9,1026.1,23.3,1026.9,23.3L1026.9,23.3z"/>
									</defs>
									<clipPath id="SVGID_50_">
										<use xlink:href="#SVGID_49_"  style="overflow:visible;"/>
									</clipPath>
									<g id="Capacity-2_1_" transform="translate(2 2)" class="st43">
										<path id="Fill-8_1_" d="M1018.5,16.3h28v17.3h-28V16.3z"/>
									</g>
								</g>
							</g>
							<g id="Wifi-3_1_" transform="translate(688.694 2.331)">
								<g>
									<defs>
										<path id="SVGID_51_" d="M1031.2,23.5c2.2,0,4.3,0.9,6,2.4c0.1,0.1,0.3,0.1,0.4,0l1.2-1.2c0.1-0.1,0.1-0.1,0.1-0.2
											c0-0.1,0-0.2-0.1-0.2c-4.2-4-10.9-4-15.1,0c-0.1,0.1-0.1,0.1-0.1,0.2c0,0.1,0,0.2,0.1,0.2l1.2,1.2c0.1,0.1,0.3,0.1,0.4,0
											C1026.8,24.4,1029,23.5,1031.2,23.5L1031.2,23.5z M1031.2,27.3c1.2,0,2.4,0.5,3.3,1.3c0.1,0.1,0.3,0.1,0.4,0l1.2-1.2
											c0.1-0.1,0.1-0.1,0.1-0.2c0-0.1,0-0.2-0.1-0.2c-2.7-2.6-7-2.6-9.8,0c-0.1,0.1-0.1,0.1-0.1,0.2c0,0.1,0,0.2,0.1,0.2
											l1.2,1.2c0.1,0.1,0.3,0.1,0.4,0C1028.8,27.8,1030,27.3,1031.2,27.3L1031.2,27.3z M1033.4,30.1c0.1-0.1,0.1-0.1,0.1-0.2
											c0-0.1,0-0.2-0.1-0.2c-1.3-1.1-3.1-1.1-4.4,0c-0.1,0.1-0.1,0.1-0.1,0.2c0,0.1,0,0.2,0.1,0.2l2,2c0.1,0.1,0.1,0.1,0.2,0.1
											c0.1,0,0.2,0,0.2-0.1L1033.4,30.1z"/>
									</defs>
									<clipPath id="SVGID_52_">
										<use xlink:href="#SVGID_51_"  style="overflow:visible;"/>
									</clipPath>
									<g id="Wifi-4_1_" class="st44">
										<path id="Fill-9_1_" d="M1018.5,16.3h25.3v21h-25.3V16.3z"/>
									</g>
								</g>
							</g>
							<g id="Cellular_Connection-3_1_" transform="translate(666.667 2.667)">
								<g>
									<defs>
										<path id="SVGID_53_" d="M1024.5,27.9h1c0.6,0,1,0.4,1,1v2c0,0.6-0.4,1-1,1h-1c-0.6,0-1-0.4-1-1v-2
											C1023.5,28.4,1024,27.9,1024.5,27.9z M1029.2,25.9h1c0.6,0,1,0.4,1,1v4c0,0.6-0.4,1-1,1h-1c-0.6,0-1-0.4-1-1v-4
											C1028.2,26.4,1028.7,25.9,1029.2,25.9L1029.2,25.9z M1033.9,23.6h1c0.6,0,1,0.4,1,1v6.3c0,0.6-0.4,1-1,1h-1
											c-0.6,0-1-0.4-1-1v-6.3C1032.9,24,1033.3,23.6,1033.9,23.6z M1038.5,21.3h1c0.6,0,1,0.4,1,1v8.7c0,0.6-0.4,1-1,1h-1
											c-0.6,0-1-0.4-1-1v-8.7C1037.5,21.7,1038,21.3,1038.5,21.3z"/>
									</defs>
									<clipPath id="SVGID_54_">
										<use xlink:href="#SVGID_53_"  style="overflow:visible;"/>
									</clipPath>
									<g id="Cellular_Connection-4_1_" class="st45">
										<path id="Fill-10_1_" d="M1018.5,16.3h27v20.7h-27V16.3z"/>
									</g>
								</g>
							</g>
							<g id="Bars___Time_Black-2_1_">
								<path id="Background-2_1_" class="st11" d="M1023.5,37.3h54v-16h-54V37.3z"/>
								<path id="_Time-2_1_" d="M1040,36.5c2.5,0,4-2,4-5.3c0-1.1-0.2-2.2-0.7-3.1c-0.6-1.2-1.9-2-3.2-1.9
									c-1.9-0.1-3.5,1.3-3.7,3.2c0,0.1,0,0.2,0,0.3c-0.1,1.7,1.3,3.2,3,3.3c0.1,0,0.1,0,0.2,0c1.1,0.1,2.1-0.5,2.6-1.5h0.1
									c0,2.3-0.9,3.6-2.3,3.6c-0.8,0-1.5-0.5-1.7-1.2h-1.8C1036.8,35.4,1038.3,36.6,1040,36.5z M1040,31.5c-1,0-1.9-0.8-1.9-1.8
									c0-0.1,0-0.1,0-0.2c0-1.1,0.9-1.9,2-1.9c1.1,0,1.9,0.9,1.9,2c0,1-0.8,1.9-1.8,1.9C1040.1,31.5,1040.1,31.5,1040,31.5
									L1040,31.5z M1047.1,35.2c0.6,0,1.1-0.5,1.1-1.1c0-0.6-0.5-1.1-1.1-1.1c-0.6,0-1.1,0.5-1.1,1.1
									C1046,34.7,1046.4,35.2,1047.1,35.2C1047,35.2,1047.1,35.2,1047.1,35.2L1047.1,35.2z M1047.1,30.1c0.6,0,1.1-0.4,1.1-1
									c0,0,0-0.1,0-0.1c0-0.6-0.5-1.1-1.1-1.1c-0.6,0-1,0.5-1.1,1.1C1046,29.6,1046.4,30.1,1047.1,30.1
									C1047,30.1,1047.1,30.1,1047.1,30.1L1047.1,30.1z M1055,36.3h1.7v-1.8h1.3v-1.5h-1.3v-6.5h-2.5c-1.7,2.6-3.1,4.8-4,6.5v1.6
									h4.8V36.3z M1051.8,32.9c1.1-2,2.2-3.6,3.1-5h0.1V33h-3.2V32.9z M1062.1,36.3h1.8v-9.9h-1.8l-2.6,1.8v1.7l2.5-1.7h0.1
									L1062.1,36.3z"/>
							</g>
						</g>
					</g>
				</g>
			</g>
		</g>
	</g>
</g>
</svg>
