<?xml version="1.0" encoding="utf-8"?>
<!-- Generator: Adobe Illustrator 25.2.0, SVG Export Plug-In . SVG Version: 6.00 Build 0)  -->
<svg version="1.1" id="Layer_1" xmlns="http://www.w3.org/2000/svg" xmlns:xlink="http://www.w3.org/1999/xlink" x="0px" y="0px"
	 viewBox="0 0 1920 1080" style="enable-background:new 0 0 1920 1080;" xml:space="preserve">
<style type="text/css">
	.st0{fill:#EFEFEF;}
	.st1{fill:none;}
	.st2{fill:#DBDBDB;}
	.st3{fill:#6D6D6D;}
	.st4{fill:#FFFFFF;}
	.st5{fill:#CCCCCC;}
	.st6{clip-path:url(#SVGID_2_);}
	.st7{fill:#241332;}
	.st8{fill:#352641;}
	.st9{font-family:'Montserrat-Bold';}
	.st10{font-size:12px;}
	.st11{fill:#BCB6C2;}
	.st12{font-family:'Montserrat-Medium';}
	.st13{font-size:13.065px;}
	.st14{clip-path:url(#SVGID_4_);}
	.st15{clip-path:url(#SVGID_6_);}
	.st16{fill:none;stroke:#BCB6C2;stroke-width:1.5;stroke-linecap:round;stroke-linejoin:round;}
	.st17{clip-path:url(#SVGID_8_);}
	.st18{clip-path:url(#SVGID_10_);}
	.st19{clip-path:url(#SVGID_12_);}
	.st20{clip-path:url(#SVGID_14_);}
	.st21{clip-path:url(#SVGID_16_);}
	.st22{clip-path:url(#SVGID_18_);}
	.st23{clip-path:url(#SVGID_20_);}
	.st24{clip-path:url(#SVGID_22_);}
	.st25{fill:#FFFFFF;fill-opacity:0;}
	.st26{font-size:30.1606px;}
	.st27{font-size:20.1071px;}
	.st28{fill:#3F3D56;}
	.st29{fill:#2F2E41;}
	.st30{fill:#868687;}
	.st31{clip-path:url(#SVGID_24_);}
	.st32{fill:#E8E8E8;}
	.st33{fill:#F2F2F2;}
	.st34{opacity:0.8;fill:none;stroke:#241332;stroke-width:2;stroke-miterlimit:10;enable-background:new    ;}
	.st35{clip-path:url(#SVGID_26_);}
	.st36{clip-path:url(#SVGID_28_);}
	.st37{clip-path:url(#SVGID_30_);}
	.st38{clip-path:url(#SVGID_32_);}
	.st39{clip-path:url(#SVGID_34_);}
	.st40{clip-path:url(#SVGID_36_);}
	.st41{fill:#E7E4E9;}
	.st42{clip-path:url(#SVGID_38_);}
	.st43{clip-path:url(#SVGID_40_);}
	.st44{clip-path:url(#SVGID_42_);}
	.st45{clip-path:url(#SVGID_44_);}
	.st46{clip-path:url(#SVGID_46_);}
	.st47{clip-path:url(#SVGID_48_);}
	.st48{clip-path:url(#SVGID_50_);}
	.st49{font-size:56.5512px;}
	.st50{font-family:'Montserrat-SemiBold';}
	.st51{font-size:24px;}
</style>
<rect class="st0" width="1920" height="1080"/>
<rect x="751.5" y="1204.9" class="st1" width="0" height="4.6"/>
<text transform="matrix(1 0 0 1 194.0327 1618.3467)" class="st10" style="font-family:'FreestyleScript-Regular';">Lorem ipsum</text>
<g>
</g>
<g>
	<g>
		<path class="st2" d="M950.5,265v-43.7c0-2.1,1.7-3.9,3.9-3.9h7.6c2.1,0,3.9,1.7,3.9,3.9V265c0,2.1-1.7,3.9-3.9,3.9h-7.6
			C952.2,268.8,950.5,267.1,950.5,265z"/>
		<path class="st2" d="M950.5,353.2v-43.7c0-2.1,1.7-3.9,3.9-3.9h7.6c2.1,0,3.9,1.7,3.9,3.9v43.7c0,2.1-1.7,3.9-3.9,3.9h-7.6
			C952.2,357.1,950.5,355.4,950.5,353.2z"/>
		<path class="st3" d="M928.7,863H420.9c-16.2,0-29.4-13.2-29.4-29.4V115.2c0-16.2,13.2-29.4,29.4-29.4h507.9
			c16.2,0,29.4,13.2,29.4,29.4v718.5C958.2,849.9,945,863,928.7,863z"/>
		<rect x="436" y="139.1" class="st4" width="469.1" height="643.4"/>
		<path class="st2" d="M772.4,119H577.3c-2.1,0-3.9-1.7-3.9-3.9v0c0-2.1,1.7-3.9,3.9-3.9h195.1c2.1,0,3.9,1.7,3.9,3.9v0
			C776.2,117.3,774.5,119,772.4,119z"/>
		<circle class="st5" cx="674.8" cy="824.4" r="21.8"/>
	</g>
	<g>
		<g>
			<defs>
				<rect id="SVGID_1_" x="436" y="139.1" width="469.1" height="643.4"/>
			</defs>
			<clipPath id="SVGID_2_">
				<use xlink:href="#SVGID_1_"  style="overflow:visible;"/>
			</clipPath>
			<g id="bg_dark" class="st6">
				<rect id="bg-3_1_" x="436" y="139.1" class="st7" width="469.1" height="643.4"/>
			</g>
		</g>
		<g id="content" transform="translate(201 -38.908)">
			<g id="card" transform="translate(-45 744.908)">
				<g id="card-2">
					<g transform="matrix(1, 0, 0, 1, -156, -706)">
						<path id="bg-4" class="st8" d="M555.7,582.7h229.7c13.5,0,24.4,11.3,24.4,25.1v105.6c0,13.9-10.9,25.1-24.4,25.1H555.7
							c-13.5,0-24.4-11.3-24.4-25.1V607.8C531.3,594,542.2,582.7,555.7,582.7z"/>
					</g>
					<g id="field" transform="translate(32 32)">
						<text transform="matrix(0.9721 0 0 1 357.5047 -123.1027)" class="st4 st9 st10">What is design accessibility?</text>
						<text transform="matrix(0.5723 0 0 1 357.1906 -99.8996)" class="st11 st12 st13">Everyone benefits from designs that are easier to see. People with </text>
						<text transform="matrix(0.5723 0 0 1 357.1906 -85.1242)" class="st11 st12 st13">different visual abilities see your designs in varying ways—the </text>
						<text transform="matrix(0.5723 0 0 1 357.1906 -70.3459)" class="st11 st12 st13">diverse nature of impairments creates a wide variation in how </text>
						<text transform="matrix(0.5723 0 0 1 357.1906 -55.5685)" class="st11 st12 st13">your designs are perceived. A clean and clear visual presentation </text>
						<text transform="matrix(0.5723 0 0 1 357.1906 -40.7921)" class="st11 st12 st13">helps everyone make sense of a website’s information and </text>
						<text transform="matrix(0.5723 0 0 1 357.1906 -26.0158)" class="st11 st12 st13">functionality. (Source: accessibility.design.gov)</text>
						<g>
							<defs>
								<rect id="SVGID_3_" x="587.6" y="-135.2" width="14.7" height="15.1"/>
							</defs>
							<clipPath id="SVGID_4_">
								<use xlink:href="#SVGID_3_"  style="overflow:visible;"/>
							</clipPath>
							<g id="icons_chevron" transform="translate(368)" class="st14">
								<rect id="back" x="219.6" y="-135.2" class="st1" width="14.7" height="15.1"/>
								<path id="line" class="st4" d="M225.2-129.4l2.6,2.7c0.2,0.2,0.2,0.6,0,0.9l0,0c-0.2,0.2-0.6,0.2-0.9,0l-2.6-2.7
									c-0.2-0.2-0.2-0.6,0-0.9l0,0C224.6-129.7,225-129.7,225.2-129.4z"/>
								<path id="line-2" class="st4" d="M227-126.8l2.6-2.7c0.2-0.2,0.6-0.2,0.9,0l0,0c0.2,0.2,0.2,0.6,0,0.9l-2.6,2.7
									c-0.2,0.2-0.6,0.2-0.9,0l0,0C226.7-126.1,226.7-126.5,227-126.8z"/>
							</g>
						</g>
					</g>
				</g>
			</g>
			<path class="st0" d="M603.7,396H343.9c-9.4,0-17-7.6-17-17v-86.8c0-9.4,7.6-17,17-17h259.8c9.4,0,17,7.6,17,17V379
				C620.7,388.4,613.1,396,603.7,396z"/>
		</g>
		<g id="top_1_" transform="translate(0 -3)">
			<g>
				<defs>
					<rect id="SVGID_5_" x="450.7" y="177.3" width="14.7" height="15.1"/>
				</defs>
				<clipPath id="SVGID_6_">
					<use xlink:href="#SVGID_5_"  style="overflow:visible;"/>
				</clipPath>
				<g id="icons_dark_back" transform="translate(24 59)" class="st15">
					<rect id="bg-5" x="426.7" y="118.3" class="st1" width="14.7" height="15.1"/>
					<g id="arrow-left" transform="translate(5 5)">
						<line id="Line_36" class="st16" x1="433.3" y1="120.8" x2="424.7" y2="120.8"/>
						<path id="Path_12" class="st16" d="M429,125.2l-4.3-4.4l4.3-4.4"/>
					</g>
				</g>
			</g>
			<g>
				<defs>
					<rect id="SVGID_7_" x="436" y="142.1" width="469.1" height="27.6"/>
				</defs>
				<clipPath id="SVGID_8_">
					<use xlink:href="#SVGID_7_"  style="overflow:visible;"/>
				</clipPath>
				<g id="Status_bar_light" transform="translate(0 3)" class="st17">
					<path id="bg-6" class="st4" d="M436,139.1h469.1v27.6H436V139.1z"/>
					<g>
						<defs>
							<rect id="SVGID_9_" x="448.2" y="147.9" width="447.9" height="10.1"/>
						</defs>
						<clipPath id="SVGID_10_">
							<use xlink:href="#SVGID_9_"  style="overflow:visible;"/>
						</clipPath>
						<g id="Status_Bar_Light-2" transform="translate(20 14)" class="st18">
							<g id="status_bar_light-3">
								<g id="Battery_1_" transform="translate(709 2.333)">
									<g>
										<defs>
											<path id="SVGID_11_" d="M153.9,133h10.2c0.9,0,1.6,0.8,1.6,1.7v3.8l0,0c0,0.9-0.7,1.7-1.6,1.7h-10.2
												c-0.9,0-1.6-0.8-1.6-1.7v-3.8l0,0C152.3,133.8,153,133,153.9,133z"/>
										</defs>
										<clipPath id="SVGID_12_">
											<use xlink:href="#SVGID_11_"  style="overflow:visible;"/>
										</clipPath>
										<g id="Border_1_" class="st19">
											<path id="Fill_1_" class="st1" d="M153.9,133h10.2c0.9,0,1.6,0.8,1.6,1.7v3.8l0,0c0,0.9-0.7,1.7-1.6,1.7h-10.2
												c-0.9,0-1.6-0.8-1.6-1.7v-3.8l0,0C152.3,133.8,153,133,153.9,133z"/>
										</g>
									</g>
									<g>
										<defs>
											<path id="SVGID_13_" d="M166.4,135.3v2.5c0.5-0.2,0.8-0.7,0.8-1.3C167.2,136,166.8,135.5,166.4,135.3"/>
										</defs>
										<clipPath id="SVGID_14_">
											<use xlink:href="#SVGID_13_"  style="overflow:visible;"/>
										</clipPath>
										<g id="Cap_1_" transform="translate(23 3.667)" class="st20">
											<path id="Fill-2_1_" d="M140.3,128.5h6.9v8.8h-6.9V128.5z"/>
										</g>
									</g>
									<g>
										<defs>
											<path id="SVGID_15_" d="M154.3,134.3h9.4c0.4,0,0.8,0.4,0.8,0.8c0,0,0,0,0,0v2.9l0,0c0,0.5-0.4,0.8-0.8,0.8l0,0h-9.4
												c-0.4,0-0.8-0.4-0.8-0.8c0,0,0,0,0,0v-2.9l0,0C153.5,134.7,153.9,134.3,154.3,134.3L154.3,134.3z"/>
										</defs>
										<clipPath id="SVGID_16_">
											<use xlink:href="#SVGID_15_"  style="overflow:visible;"/>
										</clipPath>
										<g id="Capacity_1_" transform="translate(2 2)" class="st21">
											<path id="Fill-3_1_" d="M148.5,129.1h17.1V140h-17.1V129.1z"/>
										</g>
									</g>
								</g>
								<g id="Wifi_1_" transform="translate(688.694 2.331)">
									<g>
										<defs>
											<path id="SVGID_17_" d="M164.9,134.5c1.4,0,2.7,0.5,3.6,1.5c0.1,0.1,0.2,0.1,0.3,0l0.7-0.7c0,0,0.1-0.1,0.1-0.1
												c0-0.1,0-0.1-0.1-0.1c-2.6-2.5-6.6-2.5-9.2,0c0,0-0.1,0.1-0.1,0.1c0,0.1,0,0.1,0.1,0.1l0.7,0.7c0.1,0.1,0.2,0.1,0.3,0
												C162.2,135,163.5,134.5,164.9,134.5L164.9,134.5z M164.9,136.8c0.7,0,1.5,0.3,2,0.8c0.1,0.1,0.2,0.1,0.3,0l0.7-0.7
												c0,0,0.1-0.1,0.1-0.1c0-0.1,0-0.1-0.1-0.1c-1.7-1.6-4.3-1.6-6,0c0,0-0.1,0.1-0.1,0.1c0,0.1,0,0.1,0.1,0.1l0.7,0.7
												c0.1,0.1,0.2,0.1,0.3,0C163.4,137.1,164.1,136.8,164.9,136.8L164.9,136.8z M166.2,138.6c0,0,0.1-0.1,0.1-0.1
												c0-0.1,0-0.1-0.1-0.1c-0.8-0.7-1.9-0.7-2.7,0c0,0-0.1,0.1-0.1,0.1c0,0.1,0,0.1,0.1,0.1l1.2,1.3c0,0,0.1,0.1,0.1,0.1
												c0.1,0,0.1,0,0.1-0.1L166.2,138.6z"/>
										</defs>
										<clipPath id="SVGID_18_">
											<use xlink:href="#SVGID_17_"  style="overflow:visible;"/>
										</clipPath>
										<g id="Wifi-2_1_" class="st22">
											<path id="Fill-4_1_" d="M157.2,129.9h15.4v13.2h-15.4V129.9z"/>
										</g>
									</g>
								</g>
								<g id="Cellular_Connection_1_" transform="translate(666.667 2.667)">
									<g>
										<defs>
											<path id="SVGID_19_" d="M169.4,137.1h0.6c0.3,0,0.6,0.3,0.6,0.6v1.3c0,0.3-0.3,0.6-0.6,0.6h-0.6c-0.3,0-0.6-0.3-0.6-0.6
												v-1.3C168.8,137.4,169.1,137.1,169.4,137.1z M172.2,135.8h0.6c0.3,0,0.6,0.3,0.6,0.6v2.5c0,0.3-0.3,0.6-0.6,0.6h-0.6
												c-0.3,0-0.6-0.3-0.6-0.6v-2.5C171.6,136.1,171.9,135.8,172.2,135.8L172.2,135.8z M175.1,134.4h0.6c0.3,0,0.6,0.3,0.6,0.6
												v4c0,0.3-0.3,0.6-0.6,0.6h-0.6c-0.3,0-0.6-0.3-0.6-0.6v-4C174.5,134.6,174.8,134.4,175.1,134.4z M177.9,132.9h0.6
												c0.3,0,0.6,0.3,0.6,0.6v5.4c0,0.3-0.3,0.6-0.6,0.6h-0.6c-0.3,0-0.6-0.3-0.6-0.6v-5.4
												C177.3,133.2,177.6,132.9,177.9,132.9z"/>
										</defs>
										<clipPath id="SVGID_20_">
											<use xlink:href="#SVGID_19_"  style="overflow:visible;"/>
										</clipPath>
										<g id="Cellular_Connection-2_1_" class="st23">
											<path id="Fill-5_1_" d="M165.7,129.8h16.5v13h-16.5V129.8z"/>
										</g>
									</g>
								</g>
								<g id="Bars___Time_Black_1_">
									<path id="Background_1_" class="st1" d="M428.2,143.9h33v-10.1h-33V143.9z"/>
									<path id="_Time_1_" d="M438.3,143.5c1.5,0,2.4-1.2,2.4-3.3c0-0.7-0.1-1.4-0.4-2c-0.4-0.8-1.1-1.3-2-1.2
										c-1.2-0.1-2.2,0.8-2.2,2c0,0.1,0,0.1,0,0.2c0,1.1,0.8,2,1.9,2.1c0,0,0.1,0,0.1,0c0.7,0,1.3-0.3,1.6-0.9h0.1
										c0,1.4-0.5,2.3-1.4,2.3c-0.5,0-0.9-0.3-1.1-0.8h-1.1C436.3,142.8,437.2,143.5,438.3,143.5z M438.3,140.3
										c-0.6,0-1.2-0.5-1.2-1.1c0,0,0-0.1,0-0.1c0-0.7,0.5-1.2,1.2-1.2c0.7,0,1.2,0.6,1.2,1.2C439.5,139.8,439,140.3,438.3,140.3
										C438.4,140.3,438.3,140.3,438.3,140.3L438.3,140.3z M442.6,142.7c0.4,0,0.7-0.3,0.7-0.7c0-0.4-0.3-0.7-0.7-0.7
										c-0.4,0-0.7,0.3-0.7,0.7C441.9,142.3,442.2,142.6,442.6,142.7C442.6,142.7,442.6,142.7,442.6,142.7L442.6,142.7z
										 M442.6,139.4c0.4,0,0.7-0.3,0.7-0.6c0,0,0,0,0-0.1c0-0.4-0.3-0.7-0.7-0.7c-0.4,0-0.6,0.3-0.6,0.7
										C441.9,139.1,442.2,139.4,442.6,139.4C442.6,139.4,442.6,139.4,442.6,139.4L442.6,139.4z M447.4,143.3h1v-1.2h0.8v-0.9
										h-0.8v-4.1H447c-1.1,1.6-1.9,3-2.5,4.1v1h2.9V143.3z M445.5,141.2c0.7-1.3,1.3-2.3,1.9-3.2h0.1v3.2L445.5,141.2
										L445.5,141.2z M451.8,143.3h1.1v-6.2h-1.1l-1.6,1.1v1.1l1.5-1.1h0.1L451.8,143.3z"/>
								</g>
							</g>
						</g>
					</g>
				</g>
			</g>
			<g>
				<defs>
					<rect id="SVGID_21_" x="875.8" y="179.8" width="14.7" height="15.1"/>
				</defs>
				<clipPath id="SVGID_22_">
					<use xlink:href="#SVGID_21_"  style="overflow:visible;"/>
				</clipPath>
				<g id="icons_dark_setting" transform="translate(720 63)" class="st24">
					<rect id="Rectangle_531" x="155.8" y="116.8" class="st25" width="14.7" height="15.1"/>
					<g id="settings" transform="translate(3 3)">
						<ellipse id="Ellipse_52" class="st16" cx="160.1" cy="121.3" rx="1.8" ry="1.9"/>
						<path id="Path_199" class="st16" d="M163.8,122.9c-0.1,0.3-0.1,0.7,0.2,0.9l0,0c0.4,0.4,0.4,1,0,1.5s-1,0.4-1.4,0c0,0,0,0,0,0
							l0,0c-0.3-0.3-0.9-0.3-1.2,0c-0.1,0.2-0.2,0.4-0.2,0.6v0.1c0,0.6-0.4,1-1,1c-0.6,0-1-0.5-1-1v0c0-0.3-0.2-0.7-0.5-0.8
							c-0.3-0.1-0.7-0.1-0.9,0.2l0,0c-0.4,0.4-1,0.4-1.4,0c-0.4-0.4-0.4-1,0-1.5c0,0,0,0,0,0l0,0c0.3-0.3,0.3-0.9,0-1.2
							c-0.2-0.2-0.4-0.2-0.6-0.2h-0.1c-0.6,0-1-0.5-1-1s0.4-1,1-1h0c0.3,0,0.6-0.2,0.8-0.6c0.1-0.3,0.1-0.7-0.2-0.9l0,0
							c-0.4-0.4-0.4-1,0-1.5c0.4-0.4,1-0.4,1.4,0c0,0,0,0,0,0l0,0c0.2,0.2,0.6,0.3,0.9,0.2h0c0.3-0.1,0.5-0.4,0.5-0.8v-0.1
							c0-0.6,0.4-1,1-1c0.6,0,1,0.5,1,1v0c0,0.5,0.4,0.9,0.8,0.8c0.2,0,0.4-0.1,0.6-0.2l0,0c0.4-0.4,1-0.4,1.4,0s0.4,1,0,1.5
							c0,0,0,0,0,0l0,0c-0.2,0.2-0.3,0.6-0.2,0.9v0c0.1,0.3,0.4,0.5,0.8,0.5h0.1c0.6,0,1,0.5,1,1c0,0.6-0.4,1-1,1h0
							C164.3,122.4,164,122.6,163.8,122.9z"/>
					</g>
				</g>
			</g>
			<text transform="matrix(0.9721 0 0 1 534.7057 405.9984)" class="st4 st9 st26">Color Accessibility</text>
		</g>
		<g id="card-3" transform="translate(156 563)">
			<g id="card-4">
				<g transform="matrix(1, 0, 0, 1, -156, -563)">
					<path id="bg-7" class="st4" d="M538.6,492.9h263.9c4,0,7.3,3.4,7.3,7.5v23.2c0,4.2-3.3,7.5-7.3,7.5H538.6c-4,0-7.3-3.4-7.3-7.5
						v-23.2C531.3,496.2,534.6,492.9,538.6,492.9z"/>
				</g>
				<g id="field-2" transform="translate(150 27)">
					<text transform="matrix(0.9721 0 0 1 316.9259 -70.757)" class="st8 st9 st27">Play Now</text>
				</g>
			</g>
		</g>
	</g>
	<g id="Group_1881" transform="translate(0.629 0.528)">
		<ellipse id="Ellipse_96" class="st28" cx="675.2" cy="334.1" rx="73.8" ry="13"/>
		<path id="Path_345" class="st28" d="M717.9,333.4c-0.1-0.1-1.3-2.2-1.8-6.7c-0.4-4.1-0.1-11.1,3.4-20.7
			c6.8-18.3-1.6-33.1-1.7-33.3l0.4-0.2c0,0,2.2,3.8,3.5,9.8c1.7,8,1.1,16.2-1.8,23.9c-6.8,18.3-1.7,27-1.7,27L717.9,333.4z"/>
		<circle id="Ellipse_101" class="st7" cx="715.2" cy="268.5" r="3.1"/>
		<circle id="Ellipse_102" class="st28" cx="725" cy="280" r="3.1"/>
		<circle id="Ellipse_103" class="st7" cx="718.4" cy="287.6" r="3.1"/>
		<circle id="Ellipse_104" class="st7" cx="726.5" cy="294.1" r="3.1"/>
		<circle id="Ellipse_105" class="st28" cx="716" cy="304.1" r="3.1"/>
		<path id="Path_346" class="st28" d="M719.8,333.5c0,0-3.1-7.7,6.2-13.4L719.8,333.5z"/>
		<path id="Path_347" class="st28" d="M716,333.4c0,0-1.4-8.1-12.4-8.1L716,333.4z"/>
	</g>
	<g id="Group_1883" transform="translate(-64.979 -67.52)">
		<circle id="Ellipse_69_1_" class="st29" cx="710.7" cy="351.5" r="12.8"/>
		
			<rect id="Rectangle_554_1_" x="712.7" y="361.6" transform="matrix(1 -4.642559e-03 4.642559e-03 1 -1.687 3.3217)" class="st29" width="3.9" height="7"/>
		
			<rect id="Rectangle_555_1_" x="704.9" y="361.6" transform="matrix(1 -4.642559e-03 4.642559e-03 1 -1.6873 3.2855)" class="st29" width="3.9" height="7"/>
		
			<ellipse id="Ellipse_70_1_" transform="matrix(0.8638 -0.5039 0.5039 0.8638 -89.9006 406.0709)" class="st29" cx="706.1" cy="369.3" rx="3.2" ry="1.2"/>
		
			<ellipse id="Ellipse_71_1_" transform="matrix(0.8638 -0.5039 0.5039 0.8638 -88.8435 409.9101)" class="st29" cx="713.7" cy="369.3" rx="3.2" ry="1.2"/>
		<circle id="Ellipse_72_1_" class="st4" cx="710.3" cy="348.3" r="4.4"/>
		<circle id="Ellipse_73_1_" class="st28" cx="708.8" cy="346.4" r="1.5"/>
		<path id="Path_281_1_" class="st7" d="M723.1,339.5c1-4.6-2.3-9.3-7.4-10.4s-10.1,1.7-11.1,6.4c-1,4.6,2.4,6.3,7.5,7.5
			C717.1,344,722.1,344.2,723.1,339.5z"/>
		
			<ellipse id="Ellipse_74_1_" transform="matrix(0.3892 -0.9212 0.9212 0.3892 108.0927 853.0466)" class="st29" cx="697.3" cy="345" rx="2" ry="6.4"/>
		
			<ellipse id="Ellipse_75_1_" transform="matrix(0.3892 -0.9212 0.9212 0.3892 114.3055 883.6711)" class="st29" cx="723.5" cy="355.6" rx="2" ry="6.4"/>
		<path id="Path_282_1_" class="st4" d="M713.3,357.1c0,1.6-1.3,2.9-2.9,2.9s-2.9-1.3-2.9-2.9v0c0-1.6,1.3-2,2.9-2
			S713.3,355.5,713.3,357.1z"/>
	</g>
	<g id="Group_1884" transform="translate(155.021 -272.52)">
		
			<ellipse id="Ellipse_64_1_" transform="matrix(0.357 -0.9341 0.9341 0.357 -176.8956 867.6503)" class="st29" cx="541.8" cy="562.3" rx="6.6" ry="2.1"/>
		<circle id="Ellipse_65_1_" class="st29" cx="529.7" cy="572.2" r="13.1"/>
		<rect id="Rectangle_552_1_" x="523.7" y="582.6" class="st29" width="4" height="7.2"/>
		<rect id="Rectangle_553_1_" x="531.7" y="582.6" class="st29" width="4" height="7.2"/>
		<ellipse id="Ellipse_66_1_" class="st29" cx="527" cy="589.8" rx="3.3" ry="1.2"/>
		<ellipse id="Ellipse_67_1_" class="st29" cx="535" cy="589.6" rx="3.3" ry="1.2"/>
		<path id="Path_280_1_" class="st7" d="M516.9,560c-1.1-4.8,2.3-9.6,7.6-10.7c5.2-1.2,10.4,1.7,11.4,6.5c1.1,4.8-2.4,6.5-7.7,7.7
			C523,564.6,518,564.8,516.9,560z"/>
		
			<ellipse id="Ellipse_68_1_" transform="matrix(0.4285 -0.9035 0.9035 0.4285 -217.3061 788.7236)" class="st29" cx="514.9" cy="566.1" rx="2.1" ry="6.6"/>
	</g>
</g>
<g>
	<g>
		<path class="st2" d="M1436.8,413.6v-43.7c0-2.1,1.7-3.9,3.9-3.9h7.6c2.1,0,3.9,1.7,3.9,3.9v43.7c0,2.1-1.7,3.9-3.9,3.9h-7.6
			C1438.6,417.5,1436.8,415.7,1436.8,413.6z"/>
		<path class="st2" d="M1436.8,501.9v-43.7c0-2.1,1.7-3.9,3.9-3.9h7.6c2.1,0,3.9,1.7,3.9,3.9v43.7c0,2.1-1.7,3.9-3.9,3.9h-7.6
			C1438.6,505.8,1436.8,504,1436.8,501.9z"/>
		<path class="st30" d="M1415.1,1011.7H907.2c-16.2,0-29.4-13.2-29.4-29.4V263.8c0-16.2,13.2-29.4,29.4-29.4h507.9
			c16.2,0,29.4,13.2,29.4,29.4v718.5C1444.5,998.5,1431.3,1011.7,1415.1,1011.7z"/>
		<rect x="922.4" y="287.7" class="st4" width="469.1" height="643.4"/>
		<path class="st2" d="M1258.7,267.7h-195.1c-2.1,0-3.9-1.7-3.9-3.9l0,0c0-2.1,1.7-3.9,3.9-3.9h195.1c2.1,0,3.9,1.7,3.9,3.9l0,0
			C1262.6,266,1260.8,267.7,1258.7,267.7z"/>
		<circle class="st5" cx="1161.2" cy="973" r="21.8"/>
	</g>
	<g>
		<defs>
			<rect id="SVGID_23_" x="922.4" y="287.7" width="469.1" height="643.4"/>
		</defs>
		<clipPath id="SVGID_24_">
			<use xlink:href="#SVGID_23_"  style="overflow:visible;"/>
		</clipPath>
		<g id="Splashscreen" class="st31">
			<rect x="2159.6" y="-247.6" class="st32" width="1172.8" height="678.6"/>
			<g id="Group_1886" transform="translate(-60 632.149)">
				<path id="Path_360" class="st33" d="M1445.6,153.6C1384,65.4,1253.9,29.7,1126,68.2c-67.6,20.4-132.9,61.2-165.2,140.2
					C903,349.6,1024.3,394.7,1103.6,409c38.4,7,74.5,18.6,107.5,34.5c59.4,28.6,164.5,53.9,243.8-65.2
					C1512.4,292,1486.6,212.3,1445.6,153.6z"/>
				<path id="Path_361" class="st28" d="M1088.6,171c-0.2-1.4-0.5-2.8-1-4.1c-0.1-0.5-0.5-0.9-0.9-1.2c-0.3-0.1-0.6-0.1-0.9,0
					l-4.7,0.7c-0.4,0-0.8,0.2-1.1,0.4c-0.6,0.7,0,1.7,0,2.6c-0.1,1-0.9,1.9-1.9,2.1c-1,0.2-2,0.2-2.9,0l-6.5-1
					c1.9-0.6,3.6-1.8,4.9-3.4c0.9-1,1.3-3,0.1-3.5c-0.4-0.1-0.8-0.1-1.1-0.1c-2.9,0-5.3-2.5-8-3.6c-3.6-1.3-7.6-0.1-10,3.1l3.5,0.2
					c0.3,0,0.6,0.1,0.9,0.3c0.8,0.6-0.2,1.9-0.1,2.9c0.1,1.3,1.8,1.6,3.1,1.7c1.3,0.1,2.9,1.2,2.3,2.3c-6.4,2.3-12.9-4.4-19.6-3.6
					c-1.7,0.2-3.3,0.9-5,1.3c-10.1,2.6-20.6-4.4-30.9-2.9c-2.3,0.4-4.6,1-6.8,1.8c-1.4,0.5-2.9,1-3.9,2.1s-1.4,3-0.4,4.1
					c-2.7,0.2-5.4,0-7.9-0.8c1.4,0.8,2.3,2.4,2.3,4c-4.2,0.7-8.2,2-12.1,3.8c0.7,1.2,1.6,2.4,2.5,3.4l-5.3,3.5
					c1.6,0.5,2.5,2.3,1.9,3.9c-0.1,0.2-0.2,0.4-0.3,0.6c1.8-0.8,3-3,5-3.5c1.3-0.3,2.6,0.3,3.8,0.8c1.2,0.5,2.6,1,3.9,0.6
					c1.3-0.4,2.2-2.1,1.4-3.2c5.4-1.6,11.1-2.5,16.7-2.7c0.4-0.1,0.9,0,1.3,0.2c0.7,0.5,0.5,1.7,0.5,2.6c0,0.9,0.7,2.1,1.5,1.7
					c-0.9,0.8-0.1,2.4,0.8,3.3s2,2.1,1.4,3.3c-0.1,0.3-0.4,0.5-0.5,0.8c-0.4,0.9,0.2,1.9,1,2.5c0.8,0.6,1.7,1,2.2,1.8
					c0.5,0.8,0.3,2.3-0.7,2.4l-2.7-3.5c-0.9,1-1.6,2.2-1.8,3.6c2.9,2.6,3.3,7.1,0.9,10.3c-1.2,1.5-3,2.4-4.5,3.6
					c-1.5,1.2-2.9,2.8-2.9,4.8c0,3.4-0.3,6.5,1,9.6c2.3,5.8,4.9,11.4,7.8,16.8c0.8,1.4,1.8,3,3.3,3.2c-2-5-3.8-10-5.4-15.1
					c1,0,2.2,0.1,2.8,1c0.5,0.7,0.4,1.7,0.5,2.6c0.2,0.8,0.5,1.6,1,2.4l9.5,17.4c0.8,1.4,1.7,3,3.2,3.6c1,0.4,2.1,0.3,3,0.8
					c0.7,0.4,1.2,1.2,1.9,1.6c2,1.1,4.8-1,6.6,0.3c0.5,0.5,0.9,0.9,1.4,1.4c1.7,1.5,4.5,0.5,6.5,1.7c1.3,0.7,1.9,2.2,2.6,3.6
					c1.7,3.4,4.5,6.6,8.2,6.9c1.2,0.1,2.3-0.1,3.5,0.1c1.1,0.3,2.2,1.3,2.1,2.5c-0.3,2,0.7,4.2,0.4,6.2c-0.5,3.7-5.5,5.3-6,9
					c0,0.8,0,1.6-0.1,2.4c-0.2,1-0.9,1.8-1.2,2.7c-0.5,1.8,0.8,3.6,2.2,4.9c1.4,1.2,3.1,2.3,3.8,4c0.8,1.8,0.4,3.9,0.7,5.9
					c0.6,4.3,4.2,7.5,7.9,9.6c1.1,0.6,2.4,1.2,3.1,2.3c1,1.4,0.9,3.3,1.2,5c0.8,4.2,4.2,7.6,4.3,11.8c0.1,3-1.6,5.8-2.5,8.6
					c-1.8,5.5-1.3,11.6,1.6,16.6c0.8,1.2,1.5,2.5,2.1,3.8c0.9,2.4,0.6,5.2,1.5,7.7c1.1,3.3,4.2,6,3.9,9.4c1.4,3,4.5,4.5,7.6,5.3
					l5.6,1.6c1,0.4,2.2,0.5,3.3,0.4c1.1-0.2,2.1-1.1,2.1-2.3c-2.7-0.6-5.5-1.3-7.8-3c-2.2-1.7-3.8-4.8-2.9-7.5
					c0.4-1.3,1.2-2.7,0.4-3.8c-0.5-0.6-1.3-0.8-1.8-1.3c-0.8-0.9-0.5-2.3,0.1-3.3c0.6-1,1.4-2,1.6-3.1c0.2-1.3-0.3-2.7-1.5-3.4
					c1-0.4,2-1,2.8-1.8c0.8-0.8,1-2.1,0.5-3.1c1.7,0.2,3.7,0.3,4.8-1c0.9-1.1,0.8-2.7,0.5-4c-0.4-1.4-0.9-2.7-1-4.1
					c3.9,0.2,7.8,0.1,11.7-0.4c-0.6-1.9-1.8-3.6-3.6-4.6c1.8-0.3,3.4-2.5,3.9-4.2c0.5-1.8,0.5-3.6,0.1-5.4c-0.1-0.5-0.1-1-0.1-1.4
					c0.3-0.6,0.8-1.1,1.4-1.4l8.7-5.2c0.5-0.3,1-0.6,1.4-1.1c0.9-1.1,0.8-2.8,0.3-4.1c-0.5-1.4-1.2-2.7-1.4-4.1
					c-0.5-4.3,3.9-7.4,5.4-11.4c0.5-1.6,0.8-3.3,0.8-5c0.1-1.8,0.1-3.9-1.2-5.1c-1.3-1.1-3.3-0.9-4.7-1.9c-1.3-1-1.7-2.8-3.1-3.6
					c-1.2-0.7-2.8-0.3-4.2-0.6c-2.4-0.6-4-3.5-6.4-3.7c-1.4-0.2-3,0.6-4.1-0.3c-1-0.7-1.1-2.2-1.2-3.5c-0.7-4-3.7-7.2-7.6-7.9
					c-1.4-0.2-3-0.1-4.2-1c-1.2-0.8-1.8-2.4-2.8-3.5c-1.6-1.8-4.1-2.5-6.4-3.1l-9.5-2.3c-1.7-0.4-3.8-0.6-4.7,0.9
					c-0.3,0.6-0.5,1.2-0.6,1.8c-0.7,2.3-2.8,3.9-5.1,4c-0.8-1.4-2.1-2.4-3.6-2.9c-1-0.2-1.9-0.4-2.9-0.7c-2-1-2.9-3.5-1.9-5.6
					c0,0,0,0,0,0c0-0.1,0.1-0.1,0.1-0.2c1.1-2.1,0.8-4.6-0.9-6.3c-1.6-1.5-3.9-1.8-6.1-1.7c-0.6-1.3,0.4-2.7,1.4-3.6
					c1-0.9,2.3-1.8,2.5-3.2c0.3-2.2-2.3-3.8-4.4-3.2s-3.3,2.7-4.2,4.7c-0.4,1.2-1,2.3-1.7,3.3c-0.8,1-2,1.7-3.2,1.4
					c-1.7-0.4-2.3-2.5-2.7-4.2c-0.6-2.3-0.9-4.7-0.9-7.1c0.1-2.4,0.9-4.8,2.6-6.5c2.8-2.6,7.1-2.4,10.8-2c-0.8-1.1-0.7-2.7,0.3-3.7
					c1-0.9,2.4-1.3,3.7-0.9c1.1,0.2,2.2,0.9,2.9,1.8c1.1,1.3,1.4,3.2,2.2,4.7s2.6,2.8,4.1,2c1.3-0.7,1.5-2.5,1.2-4
					c-0.3-1.5-1-2.9-0.9-4.4c0.2-2.9,3.1-4.6,5.6-5.7c2.5-1.2,5.4-2.8,5.8-5.6c0-0.6,0.1-1.1,0.3-1.6c0.3-0.5,0.7-0.8,1.1-1.1
					c7.4-5,14.9-10.1,23.4-12.9c0.4-0.1,0.5,0,0.9-0.1c0.6-0.4,0.2-1.4-0.4-1.8s-1.4-0.7-1.6-1.5c-0.1-0.5,0.2-1.1,0.3-1.6
					c0.1-1.1-0.8-2.1-1.8-2.1c-0.2,0-0.5,0-0.7,0.1c-0.7-0.9,0.7-2,1.8-2.3c3.3-0.9,6.6-1.5,10-1.7c0.4-0.1,0.8,0,1.1,0.2
					c0.6,0.4,0.5,1.3,0.1,1.9c-0.5,0.5-1,1-1.5,1.4c-1.1,1.1-1.5,2.8-1.1,4.3c1.8,0.9,3.7,1.9,5.6,1.5c2-0.3,3.7-2.6,2.8-4.4
					c-0.9-1.7-3.4-2.1-3.9-3.9c-0.5-2.2,2.4-4.1,1.8-6.2c-0.3-0.9-1.2-1.5-1.9-2.1c-1.7-1.7-2.2-4.2-1.2-6.4c-2.3,0.4-4.6-0.3-6.2-2
					c-1.5-1.5-2.7-4-4.8-3.9c-1.9,0.1-3.6,2.4-5.4,1.7c-0.4-0.2-0.9-0.5-1.4-0.3c-0.3,0.2-0.5,0.5-0.5,0.9c-0.5,2.3,0.3,4.9-0.9,6.8
					c-1.3,2.1-4.3,2.4-5.9,4.4c-0.9,1-1.2,2.5-2,3.6c-0.8,1.1-2.5,1.8-3.4,0.8c1-2,0.4-4.5-1.3-5.9c-0.9-0.6-1.8-1.1-2.8-1.4
					c-1.1-0.5-2.2-1.1-3.2-1.8c-0.5-0.3-0.9-0.7-1.2-1.3c-0.2-0.7-0.2-1.4,0.1-2c1-2.9,3.4-5,6.4-5.5c1.3-0.2,2.7-0.1,3.6-1.1
					c0.4-0.5,0.7-1.3,1.3-1.5c0.4-0.1,0.8,0,1.2,0.2l4.7,1.7c0.5,0.2,1.1,0.3,1.7,0.3c0.6-0.1,1-0.6,1-1.2c-0.2-0.8-1.4-1.2-1.2-2
					c0.1-0.3,0.2-0.5,0.4-0.7c3.5-3.8,8.4-5.8,13.4-5.4c0.6,1-0.3,2.2-1.1,3.1s-1.4,2.4-0.5,3.1c0.4,0.2,0.8,0.3,1.3,0.3
					c1.2,0.2,2.3,0.5,3.3,1c1.6,0.7,3.2,1.5,4.8,2.4c-0.2-1.1-0.2-2.1,0.1-3.2c0.4-1,1.5-1.8,2.5-1.4c0.9,0.4,1.4,1.7,2.4,1.8
					c1.3,0.2,1.9-1.9,1.3-3.1c-0.6-1.3-1.7-2.3-1.8-3.7c-0.1-0.9,0.3-2.1-0.4-2.6c-0.3-0.2-0.5-0.3-0.9-0.3l-18-3.4
					c-1.1-0.2-2.6,0-2.7,1.1c0,0.6,0.5,1.2,0.3,1.8c-0.3,0.6-1.1,0.6-1.7,0.8c-0.9,0.4-1.5,1.5-1.3,2.5c0.2,1,0.6,2,1.1,2.8
					C1091.5,171.6,1089.7,171.5,1088.6,171z"/>
				<path id="Path_362" class="st28" d="M1074.2,155.3c-2.3-0.8-4.9,0-6.4,2c-0.4,0.4-0.5,0.9-0.3,1.4c0.4,0.6,1.3,0.4,1.9,0.2
					c1-0.4,2.1-0.4,3.1-0.1c0.6,0.2,1.2,0.6,1.8,0.8c0.6,0.3,1.3,0.2,1.9-0.3c0.4-0.5,0.5-1.2,0.5-1.8c0.1-0.4-0.1-0.9-0.4-1.2
					c-0.3-0.2-0.5-0.2-0.8-0.3c-0.7-0.1-1.2-0.5-1.7-1"/>
				<path id="Path_363" class="st28" d="M1080.7,153.4c-0.8,0-1.5,0.6-1.6,1.4c0,0.2,0,0.5,0.1,0.7c0.8,0.2,1.6,0.3,2.4,0.2
					c0.8-0.1,1.5-0.8,1.7-1.6c-0.9,0.2-1.9,0-2.7-0.5"/>
				<path id="Path_364" class="st28" d="M1102.5,150.3c-2.1,0.5-4.2,1.2-6.2,2.2c1.9,0.8,3.1,2.7,3,4.8c-0.1,0.4-0.1,0.8,0,1.2
					c0.2,0.6,0.9,0.8,1.5,0.9c1,0.3,2.1,0.5,3.2,0.4c1.1-0.1,2.1-0.7,2.6-1.7c0.2-0.5,0.3-0.9,0.5-1.3c1.4-2.2,5.5,0.5,7-1.6
					c0.5-0.7,0.5-1.8,1.2-2.4c0.4-0.3,0.8-0.4,1.2-0.5c3-0.6,6-1,9-1.3c1.4-0.1,3.3-0.7,3.3-2.1c-5.4-1.1-11-0.3-15.9,2.2
					c-1.8,0.9-4.1,2.8-5.8,1.6c-0.6-0.5-0.6-1.7-1.5-2.2C1104.6,149.9,1103.4,150.1,1102.5,150.3z"/>
				<path id="Path_365" class="st28" d="M1120.1,153.7l2.5,0.5c-1.8-0.1-3.3,1.4-3.4,3.2c0,0,0,0,0,0c0,0.1,0,0.3,0,0.4
					c2.4,0.8,5,0,7.5,0.1c2.5,0.1,5.4,1.9,5,4.5c-0.1,0.8-0.6,1.5-0.3,2.3c0.2,0.5,0.5,0.9,0.9,1.4c0.5,1,0.1,2.3-0.6,3.2
					c-0.7,0.9-1.6,1.6-2.1,2.6c-1.4,2.4-0.6,5.5,0.2,8.2c0.2,1,0.7,2,1.4,2.8c1.3,1.4,3.4,1.5,5.2,1.5c1.4,0,2.9,0,3.8-1.1
					c1.1-1.4,0.3-3.6,1.1-5.3c0.7-1.5,2.4-2.2,3.9-2.6c2.8-0.8,5.7-1.6,8.4-2.8c3.3-1.6,6.4-4,10.1-4.2c1,0,2.1,0,3.1-0.2
					c1-0.3,1.9-1.2,1.9-2.2c-0.1-0.9-0.8-1.6-1.4-2.2c-0.6-0.7-1-1.7-0.5-2.4l9.6-1.8c-0.7-1.9-1.2-4.4,0.4-5.7
					c0.6-0.4,1.3-0.6,1.8-1.2c0.8-0.9,0.4-2.5-0.5-3.3c-0.9-0.8-2.2-1-3.4-1.1c-4.2-0.3-8.4-0.2-12.6,0.1l-24.7,1.4
					c-1.7,0.1-3.6,0-5.1,0.5c-1.3,0.5-2.2,1.4-3.7,1.7C1125.6,152.5,1122.6,152.2,1120.1,153.7z"/>
				<path id="Path_366" class="st28" d="M1165.6,174.3c-0.3,0-0.5,0-0.7,0.2c-0.1,0.2-0.2,0.4-0.2,0.6c-0.2,1,0,1.9,0.5,2.8
					c0.5,0.8,1.5,1.3,2.4,1.2c1.1-0.2,2-1.2,3-1.6c1.6-0.8,8.5-1.9,3.7-4.6c-1.6-0.9-2.7-0.1-4,0.5
					C1168.8,174.1,1167.2,174.5,1165.6,174.3z"/>
				<path id="Path_367" class="st28" d="M1207.2,152.2c-0.6,0.2-1,0.6-1.3,1.2c-0.3,0.6-0.1,1.3,0.4,1.6c0.2,0.1,0.4,0.1,0.6,0.1
					l2.3,0.1c1,0,2.2,0.2,2.4,1.2c0.2,0.7-0.2,1.6,0.3,2.1c0.2,0.2,0.5,0.3,0.8,0.3c0.7,0.2,1.5,0.2,2.3,0.1
					c1.6-0.5,0.8-1.5,1.3-2.4c0.8-1.4,0.7-0.6,2-1.4c1-0.6,2.4-1.7,1.5-3.2C1218.3,149.3,1209.4,151.1,1207.2,152.2z"/>
				<path id="Path_368" class="st28" d="M1251.7,150.9l-1.3,0.2c-3,0.3-5.9,0.9-8.8,1.7c1.2,0.5,2.5,0.8,3.8,1
					c0.7,0,1.4,0.1,2.2,0.3c1.3,0.4,2.5,1.4,3.7,0.9c0.8-0.3,1-1.1,1.6-1.5c0.4-0.3,2.1-0.8,2.2-1.1
					C1256.7,149.9,1252.8,150.8,1251.7,150.9z"/>
				<path id="Path_369" class="st28" d="M1257.5,157c-1.7,1-3.4,2.2-4.8,3.6c-0.6,0.6-1.2,1.3-1.2,2.2c0.1,1.2,1.3,1.8,2.3,2.3
					l4.2,1.8c0.5-0.7,0-1.8-0.5-2.5c-0.5-0.7-1.1-1.6-0.9-2.4c0.3-1,1.4-1.3,2.4-1.5c1.6-0.3,6-0.3,5.4-2.9
					C1263.8,154.5,1259.1,156.1,1257.5,157z"/>
				<path id="Path_370" class="st28" d="M1256.6,335c-0.5,1.2-0.4,2.5,0.3,3.6c0.9,1.1,2.3,1.6,3.7,1.3c1.3-0.4,2.5-1.2,3.4-2.2
					c0.8-0.9,1.5-2,2-3.1c0.7-1.8,1.2-3.6,1.4-5.5l1.3-7c0.3-1.6,0.3-6.4-2.5-4.8c-0.8,0.4-2.5,3.8-3.3,4.8
					c-1.4,1.7-1.6,3.4-2.4,5.5C1259.4,330.2,1257.5,332.4,1256.6,335z"/>
				<path id="Path_371" class="st28" d="M1404.7,370.9c-0.9-0.4-1.8-0.8-2.7-1.3c-0.9,2.4-1.3,5-1.4,7.6l6.3-3.7
					c0.9-0.5,2-1.3,2-2.4c0-0.3-0.1-0.5-0.3-0.7c-0.1-0.1-0.3-0.1-0.4-0.1c-0.9,0.2-1.8,0.5-2.7,0.9c-0.9,0.4-1.8,0.4-2.7,0"/>
				<path id="Path_372" class="st28" d="M1437.8,373.1c-0.7,0.2-1.4,0.4-2,0.7c-1.4,0.8-2.4,2.2-3.7,3.2c-1.3,0.9-2.7,1.6-4.2,2
					c-0.4,0.4-0.3,1.1,0.1,1.5c0,0,0.1,0,0.1,0.1c0.5,0.3,1.1,0.4,1.7,0.4c1.5,0,3.1,0,4.5-0.7c0.8-0.5,1.5-1.1,2.1-1.7
					c1.6-1.3,3.4-2.3,5.3-3.1c0.7-0.3,1.3-0.6,1.8-1.1c1.2-1.2,1.2-3-0.4-3.4C1441.7,370.5,1439.1,372.7,1437.8,373.1z"/>
				<path id="Path_373" class="st28" d="M1452.5,363.3c0.2-1.6-0.4-3.3-1.6-4.4c0,1.6-0.1,3.4-1,4.7c-0.6,1-1.6,1.6-2.3,2.5
					c-0.7,0.9-1,2.4-0.2,3.2c0.5,0.4,1.2,0.6,1.8,0.6c1.6,0.2,3.5,0.3,4.6-0.9c0.6-0.7,0.9-1.6,1.7-2.1c0.3-0.1,0.5-0.3,0.7-0.5
					c0.3-0.5-0.2-1.2-0.7-1.4c-0.6-0.2-1.2-0.1-1.7-0.3s-1.1-0.8-0.8-1.4"/>
				<path id="Path_374" class="st28" d="M1426.5,303.6c-0.9,0.2-1.7,0.3-2.6,0.2c-1.4-0.3-2.6-1.4-3.7-2.3c-2.8-2.2-6.1-3.4-9.6-3.5
					c-3.2-0.1-6.4,0.8-9.5,0.2c0.3,1.2,1.1,2.1,2.2,2.6c1,0.5,2.2,0.8,3.2,1.3c1.7,0.8,3,2.2,3.7,4c0.3,0.8,0.6,1.6,1,2.4
					c1,1.4,3,1.7,4.7,1.6c2.3-0.2,4.6-0.8,6.7,0c1.6,0.7,2.7,2.1,4.1,3.2c1.3,1.1,3.2,2,4.8,1.1c-3.3-1.1-5.5-4.2-5.4-7.8
					c1.5,0.1,5.9,0.1,5.6-2.5C1431.5,301.9,1427.8,303.4,1426.5,303.6z"/>
				<path id="Path_375" class="st28" d="M1406.7,321.8c0.3-1.5,1.7-2.8,1.3-4.3c-0.3-1-1.5-1.5-2.5-1.5c-1,0-2,0.3-3.1,0.3
					c-0.7,0-1.3,0-2,0c-2,0.3-3.3,2.6-5.2,3.3c-1.2,0.5-2.5,0.4-3.7,0.7c-2.8,0.7-4.5,3.4-6.5,5.6c-3.1,3.5-7.2,5.9-11.7,7
					c-1.6,0.4-3.3,0.6-4.5,1.7c-1.7,1.4-2.1,3.8-2.4,6c-1,6-2.6,11.9-4.7,17.6l6.6,0.9c1.2,0.3,2.5,0.2,3.8-0.1
					c0.9-0.3,1.7-0.8,2.5-1.4c2.9-1.9,6.2-3.1,9.6-3.6c1.7-0.3,3.5-0.2,5.1,0.4c1.6,0.7,3,2.2,3.1,3.9c1.4-0.5,3-0.1,4,1
					c1,1.1,1.7,2.5,1.9,4c0.2,0.9,0.3,2,1.2,2.4c0.7,0.3,1.5,0,2.2-0.1c2.5-0.2,4.6,2.8,7.1,2.3c2.7-0.6,3.3-4.7,5.9-5.5
					c1.5-0.5,3.6,0.1,4.3-1.3c0.6-1.3-0.6-2.7-0.5-4.1c0.2-1.7,2.2-2.5,3.7-3.2c5.3-2.6,7.8-9.9,5.2-15.3c-1.5-3.2-4.5-5.7-5.1-9.2
					c-0.4-2.7,0.6-5.9-1.1-8c-0.9-1.1-2.3-1.7-2.8-3c-0.3-0.8-0.2-1.7-0.4-2.6c-0.2-0.9-0.9-1.8-1.7-1.5c-2.4,0.6-3.2,8.3-4.4,10.1
					C1410.1,327.1,1406.1,325.3,1406.7,321.8z"/>
				<path id="Path_376" class="st28" d="M1362.4,306.5c-0.8-0.3-1.7-0.4-2.5-0.1c-0.8,0.3-1.2,1.5-0.6,2.1c4.9-0.2,9.9-0.4,14.8,0.3
					c5.6,0.8,11.2,2.8,16.9,2.2c-3.2-1-6.5-1.8-9.8-2.3l-5.5-1.1c-1.5-0.3-3-0.6-4.5-0.7C1367.9,306.6,1365.5,307.4,1362.4,306.5z"
					/>
				<path id="Path_377" class="st28" d="M1367.4,288.9c-0.4,0-0.9-0.1-1.1,0.3c-0.2,0.3,0,0.8-0.1,1.2c-0.1,0.5-0.8,0.7-1.4,0.6
					c-0.5-0.2-1.1-0.2-1.6,0c-0.5,0.3-0.7,1-0.5,1.6c0.2,0.6,0.5,1.1,0.9,1.5c0.7,0.9,1.5,1.7,2.4,2.4c1.7,1.3,4,1.9,5.1,3.8
					c0.2,0.4,0.4,0.7,0.7,0.9c0.5,0.3,1.2,0.1,1.7-0.2l1.9-0.9c0.3-0.1,0.7-0.3,0.9-0.6c0.4-0.6,0.2-1.5-0.2-2.2
					c-0.4-0.7-0.8-1.4-0.8-2.1c0.1-1.4,1.8-1.9,2.5-3c0.7-1.2,0.2-2.7,0.3-4.1c0.1-1.6,1.1-3.7-0.5-4.9c-1.3-1-2.6-0.1-3.6,1
					C1372.1,286.6,1371.1,289.2,1367.4,288.9z"/>
				<path id="Path_378" class="st28" d="M1379.1,264.9c0.7,1.3,2,2.1,2.8,3.3c0.8,1.4,0.7,3.1,1.5,4.5c0.9,1.4,2.6,2.1,3.1,3.6
					c0.5,1.7-0.7,3.8,0.3,5.2c0.7,1,2.1,1.1,3,0.4c0,0,0.1-0.1,0.1-0.1c0.8-0.9,0.8-2.4-0.1-3.3c-0.6-0.5-1.4-0.8-1.9-1.4
					c-0.2-0.4-0.4-0.8-0.5-1.2c-0.3-1.3-0.2-2.6,0.1-3.8c0.1-0.3,0.2-0.7,0.1-1c-0.2-0.6-1.1-0.7-1.6-1c-1.3-0.7-1.3-2.6-1.1-4.1
					c-0.2,1-3.7-0.7-4-1.3c-0.7-1.1-0.3-3.3-0.5-4.6C1378.9,261,1378.3,263.3,1379.1,264.9z"/>
				<path id="Path_379" class="st28" d="M1343.8,284.9c-0.6-0.7-1.6-1.5-2.5-1.1c-0.6,0.4-0.9,1.3-0.6,2c0.3,0.7,0.8,1.3,1.4,1.7
					c1.8,1.5,3.7,2.9,5.3,4.7c2.8,3.2,4.3,7.5,7.4,10.4c0.6,0.7,1.4,1.1,2.3,1.3c0.9,0.1,1.8-0.5,2-1.4c0.1-0.8-0.4-1.4-0.9-2
					c-1.2-1.3-2.5-2.6-3.6-3.9c-0.5-0.5-0.8-1.2-0.9-2c0-0.7,0.7-1.5,1.4-1.3c-0.9-0.2-1.5-1.7-2.8-2c-1.1-0.2-1.3,0.4-2.6-0.1
					C1347.4,290.1,1345.5,286.8,1343.8,284.9z"/>
				<path id="Path_380" class="st28" d="M1400,212.4c-0.7-0.2-1.4-0.5-2-0.7c-1.8-0.5-4.1,0.8-3.9,2.7c0.2,1.3,1.3,2.1,1.9,3.2
					c0.9,1.6,0.7,3.7,0.2,5.5c-0.1,0.6-0.3,1.1-0.7,1.6c-0.5,0.5-1,0.9-1.6,1.2c-2.4,1.4-4.5,3.2-6.2,5.4c-0.2,0.2-0.3,0.5-0.4,0.7
					c-0.1,0.6,0.5,1.1,0.9,1.6c0.8,1.2,0.2,2.8,0.3,4.2c0,0.4,0.2,0.8,0.5,1c0.5,0.2,1-0.2,1.3-0.6c0.8-1.6,0.2-4.1,1.8-4.9
					c0.3-0.1,0.7-0.2,0.9-0.5c0.3-0.4,0-1.1,0.2-1.6c0.2-0.8,1.3-0.8,2.1-0.8c1.4,0.1,2.7-0.1,4-0.6c0.5-0.1,1-0.4,1.3-0.8
					c0.4-0.7,0.5-1.5,0.3-2.3c-0.5-3.9-1.7-7.6-3.5-11c1.4,0.2,2.9,0.3,4.1-0.4c0.7-0.4,1.5-1.7,1.2-2.5
					C1402.1,211.5,1401.2,212.7,1400,212.4z"/>
				<path id="Path_381" class="st28" d="M1220.7,233.7c0.2,0.9,0.3,1.9,0,2.8c-0.3,0.9-1.2,1.6-2.1,1.4c-0.7-0.2-1.1-0.9-1.6-1.4
					c-2.7-3-8.7-1.3-10.4-4.9c-0.7-1.5-0.2-3.3-0.7-4.9c-0.6-1.9-2.4-3.1-4.3-3c-0.9,0.1-1.7,0.4-2.5,0.8
					c-5.2,2.2-10.7,3.6-16.3,4.2c-1.1,0.1-2.1,0.3-3.1,0.6c-2.3,0.9-3.9,3.1-5,5.3s-1.9,4.7-3.4,6.7c-1.6,2.1-3.8,3.6-5.8,5.1
					c-0.8,0.5-1.5,1.2-1.9,2.1c-0.4,1-0.5,2-0.4,3.1l0.4,12.7c0.1,1.6,0.1,3.3,0.8,4.8c0.9,1.8,2.6,3,3.9,4.6
					c1.2,1.7,1.9,3.7,1.8,5.8c0,0.8-0.1,1.8,0.5,2.4c0.4,0.3,0.8,0.4,1.3,0.4l16.7,1.4c2.9,0.2,6.2,0.7,8.1,3c0.9,1.1,1.6,2.7,3,2.8
					c0.6,0,1.2-0.1,1.8-0.3c1.5-0.1,2.8,1.1,3.7,2.3c1.3,2,1.8,4.3,1.6,6.7c-0.1,1.5-0.6,2.9-0.7,4.4c-0.4,5.6,4.3,10.5,4.4,16.2
					c0.1,3.3-1.5,6.4-3,9.4c2.4,3.8,0.4,8.8,1.4,13.1c0.9,4.2,4.3,7.4,5.1,11.6c0.4,1.9,0.4,4.3,2,5.3c0.7,0.4,1.5,0.5,2.3,0.5
					c4.8,0.1,9.6-1.1,13.9-3.3c2-1,4.1-2.6,4.5-4.9c0.3-1.9-0.6-3.9,0.3-5.5c1.1-1.9,3.9-1.8,5.5-3.2c2.6-2.4,0.6-6.9,1.6-10.3
					c1-3.1,4.2-4.7,5.9-7.5c0.6-1.2,1.1-2.5,1.4-3.8c0.7-3.2,1.2-6.4,1.4-9.7c0-2,0.2-4,0.4-5.9c1.8-11.2,12.5-18.7,16-29.5
					c0.3-1,0.5-2.4-0.4-3c-0.5-0.3-1.1-0.3-1.7-0.2l-7.7,1c-0.9,0.2-1.9,0.2-2.9-0.2c-0.9-0.4-1.5-1.6-1-2.4c1.3-2.4-1.4-5.5-2.6-8
					c-3.2-6.7-7.1-13.2-11.5-19.1c-0.3-0.3-0.5-0.7-0.5-1.1l2.2,0.1c-0.7-2.7-2-5.7-4.5-6.7c-1.5-0.6-3.1-0.4-4.6-0.3
					C1229.8,235.1,1225.1,234.4,1220.7,233.7z"/>
				<path id="Path_382" class="st28" d="M1234.3,172.2c1.2,1.3,2.5,2.6,4.1,2.8c3,0.4,5.1-2.8,6.5-5.5c0.1,1.5,1.3,2.6,2.7,2.5
					c0.7-0.1,1.4-0.4,2.1-0.8c5.9-3.3,12.5-5.1,19.2-5.1c-0.1-1.1,0.5-2.1,1.6-2.3c1.4-0.3,2.6,0.9,3.2,2.2c0.7,1.3,1.1,2.7,2.1,3.7
					c1,0.9,3.1,0.9,3.5-0.5c0.4-1.3-0.9-2.4-2-3.2c-1.1-0.8-2.3-2.2-1.5-3.3c5.6-1.3,11.3-2.6,17.1-2.8c1,0,2-0.1,2.9-0.5
					c0.9-0.4,1.5-1.4,1.3-2.4c-2.6,0.6-5.3-0.4-6.8-2.6c8-0.7,16.5-1.3,23.6,2.6c0.9,1.9-3.5,3.4-2.3,5.1c0.4,0.5,1.1,0.6,1.8,0.6
					c4.9,0.1,9.9,0.2,14.7-0.6c1.8-0.3,3.6-0.7,5.4-0.4c3,0.4,5.5,2.4,8.4,3.1c1.2,0.4,2.5,0.2,3.5-0.4c1-0.7,1.4-2.3,0.6-3.3
					c2.8-2.8,7.3-2.1,11-0.8s7.1,3.5,10.9,3.8c2.8,0.2,5.6-0.6,8.3-0.1c1.7,0.3,3.3,1.1,5,1.6c3.2,0.9,6.5,0.7,9.8,0.8
					c8.4,0.1,16.7,1.8,24.5,5c1,0.3,1.9,0.9,2.7,1.7c0.8,0.8,1,2,0.6,3l-8.1-1.2c0.8,1.5,2.7,1.8,4.3,2.3s3.2,2.3,2.3,3.8
					c-1.7-0.6-3.3,1.2-4.2,2.8c-0.9,1.6-1.9,3.6-3.7,3.7c-1.6,0.1-3.6-1.3-4.6-0.1c1.5,1.9,2.7,4,3.7,6.1c1,2.2,1.8,5.1,0.4,7.1
					c-0.2,0.4-0.6,0.6-1,0.8c-1.2,0.3-1.9-1.2-2.7-2c-1-1.1-2.6-1.4-4-1.9c-1.4-0.5-2.9-1.5-3-3.1c-0.1-1,0.4-1.8,0.8-2.7
					c0.6-1.5,0.9-3.1,0.8-4.7c0-1.3-0.5-2.6-1.3-3.6c-0.9-0.9-2.5-1.2-3.4-0.4c-0.5,0.4-0.8,1-1.4,1c-1,0-1.8-1.8-2.7-1.2
					c0.1,0.7,0,1.4-0.4,2c-2.5,2.2-6.3,1.3-9.6,2.1c-1.5,0.5-3,1.1-4.4,2c-0.5,0.2-0.9,0.6-1.2,1.1c-0.3,0.9,0,1.9,0.8,2.4
					c0.8,0.5,1.6,0.8,2.5,0.9c3.9,0.8,7.9,1.9,11,4.5c3.1,2.6,5.1,6.9,4.2,10.9l-7.7-7.6c0.3,3.2,0.5,6.4,0.5,9.6
					c0.1,0.6,0,1.3-0.2,1.8c-0.5,1.3-2,1.7-3.4,2c-1.4,0.3-2.4,1.7-2.1,3.2c0,0.1,0,0.2,0.1,0.3c0.5,1.6,1.6,2.8,2.7,4
					c1.1,1.2,2.1,2.6,2.3,4.2s-1.1,3.5-2.6,3.4c-1.2-0.1-2.1-1.2-2.6-2.3c-0.5-1.1-0.8-2.4-1.6-3.3c-2.3-2.9-7.6-1.6-9.7-4.7
					c-1.1,1.3-1.5,3-1,4.6c1-0.6,2.3,0,3,0.9c0.7,0.9,1.1,2.1,1.6,3.1c0.8,1.4,2,2.6,2.1,4.2c0,0.6,0,1.2,0,1.8c0.2,1,1,1.7,1.5,2.5
					c1.3,1.9,1.2,4.4,0.4,6.6c-0.8,2.1-2.3,3.9-3.8,5.6c-2.5,3.1-5.2,5.9-8.2,8.5c-0.9,0.6-1.7,1.5-2.3,2.4c-0.5,1-0.6,2.4,0.3,3.1
					c-0.6,0-1.7,0.3-2.2,0.4c-0.2-2.4-0.3-4.9-0.1-7.3c-2.3-1.2-4.8,1.9-4.5,4.6s2.2,4.8,3.5,7.1c1,1.7,1.7,3.6,1.4,5.5
					s-2,3.7-3.9,3.5c-3-0.3-4.3-4.7-7.2-5.2c-0.3-0.1-0.5,0-0.8,0.1c-0.4,0.3-0.5,0.9-0.5,1.4c-0.1,2.5-0.2,5.2,0.7,7.5
					c1.4,3.4,5,6.3,4.3,9.9c-4.1-2-6.3-6.7-7.2-11.3c-1-4.6-1.1-9.3-2.9-13.6c-1.3,1.7-4.1,0.3-5.3-1.5c-1.1-1.7-1.8-3.7-3-5.5
					c-1.1-1.8-2.8-3.3-4.8-3.4c-2.1-0.1-4,1.4-5.6,2.8c-1.3,1.2-2.7,2.4-3.5,4c-1.1,2.4-0.8,5.1-0.9,7.8c-0.1,2.8-0.6,5.8-2.5,7.9
					s-5.4,2.8-7.4,0.9c-1.1-1-1.6-2.4-2.1-3.8c-2.3-6.8-4.1-13.7-5.6-20.6c-0.3,1.6-1.7,3.6-3,2.7c-0.3-0.3-0.5-0.6-0.7-0.9
					c-2.4-4.2-6.9-6.8-11.5-8.3c-4.5-1.5-9.3-2.2-13.8-3.9c-2.5-0.9-4.9-2.2-7.2-3.7c-1.2,1.8-1.3,4-0.3,5.9c1,1.9,3.2,2.8,5.2,2.2
					c1-0.3,1.8-1,2.8-1.4c1-0.4,2.3-0.2,2.7,0.8c0.4,0.9-0.2,2.1,0.1,3.1c0.5,1.5,2.7,1.6,3.4,3c0.6,1,0.1,2.4-0.7,3.2
					c-0.9,0.7-1.9,1.4-2.9,1.8c-3.2,1.8-5.5,5-8.3,7.4c-2.8,2.4-6.8,4.2-10.1,2.7c0.8-4.2-4-7.2-4.9-11.4c-0.3-1.4-0.1-2.8-0.6-4.1
					c-0.6-1.9-2.3-3.2-3.6-4.7c-3.3-3.6-5.1-8.5-4.9-13.4c0.1-1.7,0.4-3.5,0-5.1c-0.4-1.7-1.7-3.3-3.4-3.2
					c-3.8,0.2-8.6,0.5-10.6-2.9c-0.7-1.2-1-2.9,0-3.8c0.7-0.6,1.8-0.6,2.7-0.5l8.6,0.9c2,0.2,4.2,0.4,5.9-0.7
					c1.7-1.1,2.5-3.9,0.9-5.2c-1.2-0.9-3.2-0.9-3.6-2.3c-0.3-1.2,1-2.6,0.3-3.6c-0.5-0.7-1.7-0.5-2.4,0c-0.7,0.6-1.2,1.4-2,1.8
					c-1.4,0.7-3,0-4.5-0.4c-1.5-0.5-3.4-0.5-4.2,0.9c-0.8,1.6,0.7,3.6-0.1,5.2c-1,2.1-4.6,0.9-6.1,2.7c-1.7,2.1,1.1,5.1,0.6,7.7
					c-1.5,0.8-3.2,0.7-4.6-0.3c-1.4-1-2.1-2.6-1.9-4.3c0.1-1.2,0.7-2.4,0.3-3.5c-0.3-0.9-1.2-1.4-2-1.9l-8.3-4.7
					c-0.8,1.5,0.2,3.3,1.4,4.4c1.2,1.1,2.7,1.9,3.6,3.4c1.1,2.1,0.3,4.7-1.6,5.9c-0.2,0.2-0.5,0.2-0.8,0.1c-0.3-0.2-0.5-0.4-0.5-0.7
					c-1.5-3.9-3.7-7.7-7.2-9.7c-3.5-2-8.6-1.6-10.9,1.8c-0.5,0.8-0.9,1.7-1.4,2.6c-2.5,4.5-8,6.7-13.1,6.5c-0.5,0-1-0.1-1.4-0.3
					c-0.8-0.6-0.8-1.8-0.7-2.8l0.5-4.3c0.1-0.9,0.3-1.8,0.9-2.4c0.9-0.8,2.3-0.3,3.5-0.3c1.9-0.1,3.5-1.4,4-3.2
					c0.5-1.8,0-3.8-1.4-5.1c-0.5-0.5-1.3-1.2-1-1.9c0.2-0.4,0.6-0.7,1.1-0.7c2.2-0.6,4.4-0.8,6.6-1.6c2.1-0.8,4.2-2.3,4.7-4.6
					c0.2-0.7,0.2-1.5,0.8-1.9c0.3-0.1,0.6-0.2,1-0.2c2.4-0.3,4.1-2.5,4-5c1-0.7,2.4-0.2,3.4,0.6c1,0.8,1.9,1.8,3,2.1
					c2.2,0.6,4.4-1.4,6.7-1.4c1,0,2,0.3,2.9,0c0.9-0.3,1.5-1.3,2.2-2c0.7-0.7,2-1.1,2.6-0.4l-0.6-4.3c2.3,0.6,4.7,0.1,6.6-1.2
					l-7.2-2.5c-0.3-0.1-0.5-0.2-0.7-0.4c-0.5-0.6,0-1.5,0.4-2.2c1-1.6,1.2-4.2-0.5-5c-1.1-0.5-2.5,0.1-3.6,0.7l-5.3,3
					c-0.2,1,1.1,1.6,1.8,2.3c1.3,1.2,1.4,3.1,0.3,4.4c-0.6,0.7-1.4,1-2.2,1.1c0.7,0.9,1,2.2,0.7,3.3l-3.5,0.3
					c-0.4,0.1-0.8,0-1.2-0.2c-0.4-0.3-0.3-1-0.4-1.5c-0.2-1.2-1.4-2.1-2.6-2.3c-1.2-0.1-2.5,0-3.6,0.3c-0.5,0.2-1.1,0.2-1.6,0
					c-0.3-0.2-0.5-0.5-0.6-0.8c-0.5-1.3,0-2.8,0.8-4c0.9-1.1,1.9-2,3-2.9c2.5-2.2,4.3-5.1,5.2-8.4c2-0.8,4-2,5.9-2.8
					c3-1.6,6.4-2.2,9.8-1.9l6.6,0.1c2,0,4,0.1,5.8,0.9c1.8,0.8,3.4,2.4,3.5,4.4c0.1,0.5-0.1,0.9-0.4,1.2c-0.3,0.1-0.5,0.2-0.8,0.2
					C1236.9,171.7,1236.1,172.2,1234.3,172.2z"/>
				<path id="Path_383" class="st28" d="M1181.5,193.6c0.5-0.5,0.7-1.3,0.5-2c-1.3-0.5-2.7-0.2-3.7,0.7c-0.4,0.4-0.7,0.9-1,1.4
					c-0.9,1.5-1.6,3.2-1.1,4.8c0.1,0.4,0.3,0.7,0.6,0.9c0.2,0.1,0.5,0.1,0.7,0.1c1,0,1.9-0.1,2.9-0.2c0.6-0.1,1.3-0.2,1.5-0.8
					c0.3-0.7-0.4-1.6-0.2-2.3c0.1-0.3,0.3-0.6,0.6-0.9c0.3-0.3,0.4-0.6,0.4-1c-0.1-0.4-0.6-0.6-0.8-0.3"/>
				<path id="Path_384" class="st28" d="M1186.5,186.9c-0.9-0.2-1.7-0.3-2.6-0.2c-0.2,0-0.4,0-0.6,0.1c-0.2,0.1-0.3,0.3-0.3,0.5
					c-0.4,1.3,0.2,2.6,1.4,3.1c0.3,0.1,0.6,0.2,0.9,0.4c0.7,0.6,0.3,1.8,0.4,2.7c0.2,1.1,1.2,2,1,3c-0.1,0.8-1,1.5-0.9,2.3
					c0.1,0.9,1.2,1.1,2.1,1.2c0.5,0.1,1,0,1.5-0.2c0.5-0.3,0.8-0.8,0.9-1.4c0.4-1.1,0.5-2.2,0.4-3.3c0-0.5-0.1-1-0.4-1.5
					c-0.3-0.4-0.5-0.7-0.9-1C1187.9,190.8,1189.6,187.8,1186.5,186.9z"/>
				<path id="Path_385" class="st34" d="M1402.8,341.1c0,0-126-74.4-180.2-60.3c0,0-114.9,12.7-128.3,40.7
					c0,0-36.5-117.5-49.9-121.4"/>
				<path id="Path_386" class="st34" d="M1094.3,321.6c21.1-57.9,211.4-122.2,211.4-122.2c-27,7-83.2,81.4-83.2,81.4
					s-118.8-88.9-178.1-80.7c0,0,261.5,8.8,358.4,141"/>
				<ellipse id="Ellipse_114" class="st7" cx="1044.4" cy="200.2" rx="5.5" ry="5.7"/>
				<ellipse id="Ellipse_115" class="st7" cx="1094.3" cy="321.6" rx="5.5" ry="5.7"/>
				<ellipse id="Ellipse_116" class="st7" cx="1305.7" cy="199.4" rx="5.5" ry="5.7"/>
				<ellipse id="Ellipse_117" class="st7" cx="1402.8" cy="341.1" rx="5.5" ry="5.7"/>
				<ellipse id="Ellipse_118" class="st7" cx="1222.6" cy="280.8" rx="5.5" ry="5.7"/>
			</g>
			<g id="Group_1887" transform="translate(-51 -60)">
				
					<ellipse id="Ellipse_64" transform="matrix(0.3465 -0.9381 0.9381 0.3465 49.5797 1551.3533)" class="st29" cx="1138.2" cy="740.1" rx="13.5" ry="4.1"/>
				<ellipse id="Ellipse_65" class="st29" cx="1113.8" cy="760.5" rx="26.3" ry="27.1"/>
				<rect id="Rectangle_552" x="1101.9" y="781.8" class="st29" width="8" height="14.7"/>
				<rect id="Rectangle_553" x="1117.8" y="781.8" class="st29" width="8" height="14.7"/>
				<ellipse id="Ellipse_66" class="st29" cx="1108.5" cy="796.7" rx="6.7" ry="2.6"/>
				<ellipse id="Ellipse_67" class="st29" cx="1124.5" cy="796.3" rx="6.7" ry="2.6"/>
				<path id="Path_280" class="st7" d="M1088.3,735.4c-2.1-9.8,4.7-19.7,15.2-22.1c10.5-2.4,20.7,3.6,22.9,13.4
					c2.1,9.8-4.8,13.4-15.3,15.8C1100.5,744.8,1090.5,745.1,1088.3,735.4z"/>
				
					<ellipse id="Ellipse_68" transform="matrix(0.4407 -0.8976 0.8976 0.4407 -65.033 1391.5667)" class="st29" cx="1084.2" cy="748" rx="4.2" ry="13.2"/>
			</g>
			<g id="Group_1888" transform="translate(214 242)">
				<ellipse id="Ellipse_69" class="st29" cx="1068.7" cy="455.8" rx="25.7" ry="26.4"/>
				
					<rect id="Rectangle_554" x="1072.8" y="476.5" transform="matrix(1 -4.775744e-03 4.775744e-03 1 -2.2977 5.1473)" class="st29" width="7.8" height="14.4"/>
				
					<rect id="Rectangle_555" x="1057.2" y="476.6" transform="matrix(1 -4.775744e-03 4.775744e-03 1 -2.2983 5.0729)" class="st29" width="7.8" height="14.4"/>
				
					<ellipse id="Ellipse_70" transform="matrix(0.8553 -0.5181 0.5181 0.8553 -101.8635 620.1685)" class="st29" cx="1059.5" cy="492.5" rx="6.5" ry="2.5"/>
				
					<ellipse id="Ellipse_71" transform="matrix(0.8553 -0.5181 0.5181 0.8553 -99.6168 628.068)" class="st29" cx="1074.7" cy="492.4" rx="6.5" ry="2.5"/>
				<ellipse id="Ellipse_72" class="st4" cx="1068.1" cy="449.2" rx="8.8" ry="9"/>
				<ellipse id="Ellipse_73" class="st28" cx="1065" cy="445.3" rx="2.9" ry="3"/>
				<path id="Path_281" class="st7" d="M1093.5,431.2c2-9.6-4.6-19.2-14.9-21.5c-10.3-2.3-20.2,3.6-22.2,13.1c-2,9.6,4.8,13,15,15.3
					S1091.5,440.7,1093.5,431.2z"/>
				
					<ellipse id="Ellipse_74" transform="matrix(0.4007 -0.9162 0.9162 0.4007 219.0011 1219.7635)" class="st29" cx="1041.9" cy="442.5" rx="4.1" ry="12.9"/>
				
					<ellipse id="Ellipse_75" transform="matrix(0.4007 -0.9162 0.9162 0.4007 230.3763 1280.9114)" class="st29" cx="1094.4" cy="464.3" rx="4.1" ry="12.9"/>
				<path id="Path_282" class="st4" d="M1073.9,467.3c0,3.3-2.6,6-5.8,6.1s-5.9-2.6-5.9-6v0c0-3.3,2.6-4,5.8-4
					C1071.3,463.3,1073.9,464,1073.9,467.3z"/>
			</g>
			<g id="top">
				<rect id="bg" x="922.4" y="287.7" class="st25" width="469.1" height="35.2"/>
				<g>
					<defs>
						<rect id="SVGID_25_" x="934.6" y="297.2" width="447.9" height="10.1"/>
					</defs>
					<clipPath id="SVGID_26_">
						<use xlink:href="#SVGID_25_"  style="overflow:visible;"/>
					</clipPath>
					<g id="status_bar_light" transform="translate(20 15)" class="st35">
						<g id="status_bar_light-2">
							<g id="Battery" transform="translate(709 2.333)">
								<g>
									<defs>
										<path id="SVGID_27_" d="M640.3,281.3h10.2c0.9,0,1.6,0.8,1.6,1.7v3.8l0,0c0,0.9-0.7,1.7-1.6,1.7h-10.2
											c-0.9,0-1.6-0.8-1.6-1.7V283l0,0C638.7,282.1,639.4,281.3,640.3,281.3z"/>
									</defs>
									<clipPath id="SVGID_28_">
										<use xlink:href="#SVGID_27_"  style="overflow:visible;"/>
									</clipPath>
									<g id="Border" class="st36">
										<path id="Fill" class="st1" d="M640.3,281.3h10.2c0.9,0,1.6,0.8,1.6,1.7v3.8l0,0c0,0.9-0.7,1.7-1.6,1.7h-10.2
											c-0.9,0-1.6-0.8-1.6-1.7V283l0,0C638.7,282.1,639.4,281.3,640.3,281.3z"/>
									</g>
								</g>
								<g>
									<defs>
										<path id="SVGID_29_" d="M652.7,283.6v2.5c0.5-0.2,0.8-0.7,0.8-1.3S653.2,283.8,652.7,283.6"/>
									</defs>
									<clipPath id="SVGID_30_">
										<use xlink:href="#SVGID_29_"  style="overflow:visible;"/>
									</clipPath>
									<g id="Cap" transform="translate(23 3.667)" class="st37">
										<path id="Fill-2" d="M626.6,276.8h6.9v8.8h-6.9V276.8z"/>
									</g>
								</g>
								<g>
									<defs>
										<path id="SVGID_31_" d="M640.7,282.6h9.4c0.4,0,0.8,0.4,0.8,0.8c0,0,0,0,0,0v2.9l0,0c0,0.5-0.4,0.8-0.8,0.8l0,0h-9.4
											c-0.4,0-0.8-0.4-0.8-0.8c0,0,0,0,0,0v-2.9l0,0C639.9,282.9,640.2,282.6,640.7,282.6L640.7,282.6z"/>
									</defs>
									<clipPath id="SVGID_32_">
										<use xlink:href="#SVGID_31_"  style="overflow:visible;"/>
									</clipPath>
									<g id="Capacity" transform="translate(2 2)" class="st38">
										<path id="Fill-3" d="M634.8,277.4h17.1v10.9h-17.1V277.4z"/>
									</g>
								</g>
							</g>
							<g id="Wifi" transform="translate(688.694 2.331)">
								<g>
									<defs>
										<path id="SVGID_33_" d="M651.2,282.7c1.4,0,2.7,0.5,3.6,1.5c0.1,0.1,0.2,0.1,0.3,0l0.7-0.7c0,0,0.1-0.1,0.1-0.1
											c0-0.1,0-0.1-0.1-0.1c-2.6-2.5-6.6-2.5-9.2,0c0,0-0.1,0.1-0.1,0.1c0,0.1,0,0.1,0.1,0.1l0.7,0.7c0.1,0.1,0.2,0.1,0.3,0
											C648.6,283.3,649.9,282.7,651.2,282.7L651.2,282.7z M651.2,285.1c0.7,0,1.5,0.3,2,0.8c0.1,0.1,0.2,0.1,0.3,0l0.7-0.7
											c0,0,0.1-0.1,0.1-0.1c0-0.1,0-0.1-0.1-0.1c-1.7-1.6-4.3-1.6-6,0c0,0-0.1,0.1-0.1,0.1c0,0.1,0,0.1,0.1,0.1l0.7,0.7
											c0.1,0.1,0.2,0.1,0.3,0C649.8,285.4,650.5,285.1,651.2,285.1L651.2,285.1z M652.6,286.9c0,0,0.1-0.1,0.1-0.1
											c0-0.1,0-0.1-0.1-0.1c-0.8-0.7-1.9-0.7-2.7,0c0,0-0.1,0.1-0.1,0.1c0,0.1,0,0.1,0.1,0.1l1.2,1.3c0,0,0.1,0.1,0.1,0.1
											c0.1,0,0.1,0,0.1-0.1L652.6,286.9z"/>
									</defs>
									<clipPath id="SVGID_34_">
										<use xlink:href="#SVGID_33_"  style="overflow:visible;"/>
									</clipPath>
									<g id="Wifi-2" class="st39">
										<path id="Fill-4" d="M643.5,278.2h15.4v13.2h-15.4V278.2z"/>
									</g>
								</g>
							</g>
							<g id="Cellular_Connection" transform="translate(666.667 2.667)">
								<g>
									<defs>
										<path id="SVGID_35_" d="M655.7,285.4h0.6c0.3,0,0.6,0.3,0.6,0.6v1.3c0,0.3-0.3,0.6-0.6,0.6h-0.6c-0.3,0-0.6-0.3-0.6-0.6
											V286C655.1,285.7,655.4,285.4,655.7,285.4z M658.6,284.1h0.6c0.3,0,0.6,0.3,0.6,0.6v2.5c0,0.3-0.3,0.6-0.6,0.6h-0.6
											c-0.3,0-0.6-0.3-0.6-0.6v-2.5C658,284.4,658.3,284.1,658.6,284.1L658.6,284.1z M661.4,282.6h0.6c0.3,0,0.6,0.3,0.6,0.6v4
											c0,0.3-0.3,0.6-0.6,0.6h-0.6c-0.3,0-0.6-0.3-0.6-0.6v-4C660.8,282.9,661.1,282.6,661.4,282.6z M664.3,281.2h0.6
											c0.3,0,0.6,0.3,0.6,0.6v5.4c0,0.3-0.3,0.6-0.6,0.6h-0.6c-0.3,0-0.6-0.3-0.6-0.6v-5.4C663.7,281.5,664,281.2,664.3,281.2z"
											/>
									</defs>
									<clipPath id="SVGID_36_">
										<use xlink:href="#SVGID_35_"  style="overflow:visible;"/>
									</clipPath>
									<g id="Cellular_Connection-2" class="st40">
										<path id="Fill-5" d="M652.1,278h16.5v13h-16.5V278z"/>
									</g>
								</g>
							</g>
							<g id="Bars___Time_Black">
								<path id="Background" class="st1" d="M914.6,292.2h33v-10.1h-33V292.2z"/>
								<path id="_Time" d="M924.6,291.7c1.5,0,2.4-1.2,2.4-3.3c0-0.7-0.1-1.4-0.4-2c-0.4-0.8-1.1-1.3-2-1.2c-1.2-0.1-2.2,0.8-2.2,2
									c0,0.1,0,0.1,0,0.2c0,1.1,0.8,2,1.9,2.1c0,0,0.1,0,0.1,0c0.7,0,1.3-0.3,1.6-0.9h0.1c0,1.4-0.5,2.3-1.4,2.3
									c-0.5,0-0.9-0.3-1.1-0.8h-1.1C922.7,291.1,923.6,291.8,924.6,291.7z M924.7,288.6c-0.6,0-1.2-0.5-1.2-1.1c0,0,0-0.1,0-0.1
									c0-0.7,0.5-1.2,1.2-1.2c0.7,0,1.2,0.6,1.2,1.2C925.9,288.1,925.4,288.6,924.7,288.6C924.7,288.6,924.7,288.6,924.7,288.6
									L924.7,288.6z M929,290.9c0.4,0,0.7-0.3,0.7-0.7s-0.3-0.7-0.7-0.7c-0.4,0-0.7,0.3-0.7,0.7
									C928.3,290.6,928.6,290.9,929,290.9C928.9,290.9,928.9,290.9,929,290.9L929,290.9z M929,287.7c0.4,0,0.7-0.3,0.7-0.6
									c0,0,0,0,0-0.1c0-0.4-0.3-0.7-0.7-0.7c-0.4,0-0.6,0.3-0.6,0.7C928.3,287.4,928.6,287.7,929,287.7
									C928.9,287.7,928.9,287.7,929,287.7L929,287.7z M933.8,291.6h1v-1.2h0.8v-0.9h-0.8v-4.1h-1.5c-1.1,1.6-1.9,3-2.5,4.1v1h2.9
									V291.6z M931.8,289.5c0.7-1.3,1.3-2.3,1.9-3.2h0.1v3.2L931.8,289.5L931.8,289.5z M938.1,291.6h1.1v-6.2h-1.1l-1.6,1.1v1.1
									l1.5-1.1h0.1L938.1,291.6z"/>
							</g>
						</g>
					</g>
				</g>
				<g id="header_back_filter_light">
					<g id="bg-2">
						<path class="st4" d="M1391.5,323.3H956.6v-0.6h434.9V323.3z"/>
						<path class="st41" d="M956.6,322.9h434.9H956.6 M956.6,322.3h434.9v1.3H956.6V322.3z"/>
					</g>
					<g>
						<defs>
							<rect id="SVGID_37_" x="922.4" y="287.7" width="469.1" height="27.6"/>
						</defs>
						<clipPath id="SVGID_38_">
							<use xlink:href="#SVGID_37_"  style="overflow:visible;"/>
						</clipPath>
						<g id="Status_bar_light-3" class="st42">
							<path id="bg-3" class="st4" d="M922.4,287.7h469.1v27.6H922.4V287.7z"/>
							<g>
								<defs>
									<rect id="SVGID_39_" x="934.6" y="296.5" width="447.9" height="10.1"/>
								</defs>
								<clipPath id="SVGID_40_">
									<use xlink:href="#SVGID_39_"  style="overflow:visible;"/>
								</clipPath>
								<g id="Status_Bar_Light-4" transform="translate(20 14)" class="st43">
									<g id="status_bar_light-5">
										<g id="Battery-2" transform="translate(709 2.333)">
											<g>
												<defs>
													<path id="SVGID_41_" d="M640.3,281.7h10.2c0.9,0,1.6,0.8,1.6,1.7v3.8l0,0c0,0.9-0.7,1.7-1.6,1.7h-10.2
														c-0.9,0-1.6-0.8-1.6-1.7v-3.8l0,0C638.7,282.4,639.4,281.7,640.3,281.7z"/>
												</defs>
												<clipPath id="SVGID_42_">
													<use xlink:href="#SVGID_41_"  style="overflow:visible;"/>
												</clipPath>
												<g id="Border-2" class="st44">
													<g id="Fill-6">
														<path class="st1" d="M640.3,281.7h10.2c0.9,0,1.6,0.8,1.6,1.7v3.8l0,0c0,0.9-0.7,1.7-1.6,1.7h-10.2
															c-0.9,0-1.6-0.8-1.6-1.7v-3.8l0,0C638.7,282.4,639.4,281.7,640.3,281.7z"/>
														<path class="st1" d="M640.3,281.7c-0.9,0-1.6,0.8-1.6,1.7v3.8c0,0.9,0.7,1.7,1.6,1.7h10.2c0.9,0,1.6-0.8,1.6-1.7v-3.8
															c0-0.9-0.7-1.7-1.6-1.7H640.3 M640.3,280.4h10.2c1.6,0,2.9,1.3,2.9,2.9v3.8c0,1.6-1.3,2.9-2.9,2.9h-10.2
															c-1.6,0-2.9-1.3-2.9-2.9v-3.8C637.4,281.7,638.7,280.4,640.3,280.4z"/>
													</g>
												</g>
											</g>
											<g>
												<defs>
													<path id="SVGID_43_" d="M652.7,284v2.5c0.5-0.2,0.8-0.7,0.8-1.3C653.5,284.7,653.2,284.2,652.7,284"/>
												</defs>
												<clipPath id="SVGID_44_">
													<use xlink:href="#SVGID_43_"  style="overflow:visible;"/>
												</clipPath>
												<g id="Cap-2" transform="translate(23 3.667)" class="st45">
													<path id="Fill-7" d="M626.6,277.2h6.9v8.8h-6.9V277.2z"/>
												</g>
											</g>
											<g>
												<defs>
													<path id="SVGID_45_" d="M640.7,282.9h9.4c0.4,0,0.8,0.4,0.8,0.8c0,0,0,0,0,0v2.9l0,0c0,0.5-0.4,0.8-0.8,0.8l0,0h-9.4
														c-0.4,0-0.8-0.4-0.8-0.8c0,0,0,0,0,0v-2.9l0,0C639.9,283.3,640.2,282.9,640.7,282.9L640.7,282.9z"/>
												</defs>
												<clipPath id="SVGID_46_">
													<use xlink:href="#SVGID_45_"  style="overflow:visible;"/>
												</clipPath>
												<g id="Capacity-2" transform="translate(2 2)" class="st46">
													<path id="Fill-8" d="M634.8,277.8h17.1v10.9h-17.1V277.8z"/>
												</g>
											</g>
										</g>
										<g id="Wifi-3" transform="translate(688.694 2.331)">
											<g>
												<defs>
													<path id="SVGID_47_" d="M651.2,283.1c1.4,0,2.7,0.5,3.6,1.5c0.1,0.1,0.2,0.1,0.3,0l0.7-0.7c0,0,0.1-0.1,0.1-0.1
														c0-0.1,0-0.1-0.1-0.1c-2.6-2.5-6.6-2.5-9.2,0c0,0-0.1,0.1-0.1,0.1c0,0.1,0,0.1,0.1,0.1l0.7,0.7c0.1,0.1,0.2,0.1,0.3,0
														C648.6,283.6,649.9,283.1,651.2,283.1L651.2,283.1z M651.2,285.5c0.7,0,1.5,0.3,2,0.8c0.1,0.1,0.2,0.1,0.3,0l0.7-0.7
														c0,0,0.1-0.1,0.1-0.1c0-0.1,0-0.1-0.1-0.1c-1.7-1.6-4.3-1.6-6,0c0,0-0.1,0.1-0.1,0.1c0,0.1,0,0.1,0.1,0.1l0.7,0.7
														c0.1,0.1,0.2,0.1,0.3,0C649.8,285.8,650.5,285.5,651.2,285.5L651.2,285.5z M652.6,287.2c0,0,0.1-0.1,0.1-0.1
														c0-0.1,0-0.1-0.1-0.1c-0.8-0.7-1.9-0.7-2.7,0c0,0-0.1,0.1-0.1,0.1c0,0.1,0,0.1,0.1,0.1l1.2,1.3c0,0,0.1,0.1,0.1,0.1
														c0.1,0,0.1,0,0.1-0.1L652.6,287.2z"/>
												</defs>
												<clipPath id="SVGID_48_">
													<use xlink:href="#SVGID_47_"  style="overflow:visible;"/>
												</clipPath>
												<g id="Wifi-4" class="st47">
													<path id="Fill-9" d="M643.5,278.5h15.4v13.2h-15.4V278.5z"/>
												</g>
											</g>
										</g>
										<g id="Cellular_Connection-3" transform="translate(666.667 2.667)">
											<g>
												<defs>
													<path id="SVGID_49_" d="M655.7,285.7h0.6c0.3,0,0.6,0.3,0.6,0.6v1.3c0,0.3-0.3,0.6-0.6,0.6h-0.6
														c-0.3,0-0.6-0.3-0.6-0.6v-1.3C655.1,286,655.4,285.7,655.7,285.7z M658.6,284.5h0.6c0.3,0,0.6,0.3,0.6,0.6v2.5
														c0,0.3-0.3,0.6-0.6,0.6h-0.6c-0.3,0-0.6-0.3-0.6-0.6v-2.5C658,284.8,658.3,284.5,658.6,284.5L658.6,284.5z M661.4,283
														h0.6c0.3,0,0.6,0.3,0.6,0.6v4c0,0.3-0.3,0.6-0.6,0.6h-0.6c-0.3,0-0.6-0.3-0.6-0.6v-4C660.8,283.3,661.1,283,661.4,283z
														 M664.3,281.6h0.6c0.3,0,0.6,0.3,0.6,0.6v5.4c0,0.3-0.3,0.6-0.6,0.6h-0.6c-0.3,0-0.6-0.3-0.6-0.6v-5.4
														C663.7,281.8,664,281.6,664.3,281.6z"/>
												</defs>
												<clipPath id="SVGID_50_">
													<use xlink:href="#SVGID_49_"  style="overflow:visible;"/>
												</clipPath>
												<g id="Cellular_Connection-4" class="st48">
													<path id="Fill-10" d="M652.1,278.4h16.5v13h-16.5V278.4z"/>
												</g>
											</g>
										</g>
										<g id="Bars___Time_Black-2">
											<path id="Background-2" class="st1" d="M914.6,292.6h33v-10.1h-33V292.6z"/>
											<path id="_Time-2" d="M924.6,292.1c1.5,0,2.4-1.2,2.4-3.3c0-0.7-0.1-1.4-0.4-2c-0.4-0.8-1.1-1.3-2-1.2
												c-1.2-0.1-2.2,0.8-2.2,2c0,0.1,0,0.1,0,0.2c0,1.1,0.8,2,1.9,2.1c0,0,0.1,0,0.1,0c0.7,0,1.3-0.3,1.6-0.9h0.1
												c0,1.4-0.5,2.3-1.4,2.3c-0.5,0-0.9-0.3-1.1-0.8h-1.1C922.7,291.5,923.6,292.2,924.6,292.1z M924.7,289
												c-0.6,0-1.2-0.5-1.2-1.1c0,0,0-0.1,0-0.1c0-0.7,0.5-1.2,1.2-1.2c0.7,0,1.2,0.6,1.2,1.2C925.9,288.4,925.4,289,924.7,289
												C924.7,289,924.7,289,924.7,289L924.7,289z M929,291.3c0.4,0,0.7-0.3,0.7-0.7s-0.3-0.7-0.7-0.7c-0.4,0-0.7,0.3-0.7,0.7
												C928.3,291,928.6,291.3,929,291.3C928.9,291.3,928.9,291.3,929,291.3L929,291.3z M929,288.1c0.4,0,0.7-0.3,0.7-0.6
												c0,0,0,0,0-0.1c0-0.4-0.3-0.7-0.7-0.7c-0.4,0-0.6,0.3-0.6,0.7C928.3,287.8,928.6,288.1,929,288.1
												C928.9,288.1,928.9,288.1,929,288.1L929,288.1z M933.8,292h1v-1.2h0.8v-0.9h-0.8v-4.1h-1.5c-1.1,1.6-1.9,3-2.5,4.1v1h2.9
												V292z M931.8,289.8c0.7-1.3,1.3-2.3,1.9-3.2h0.1v3.2L931.8,289.8L931.8,289.8z M938.1,292h1.1v-6.2h-1.1l-1.6,1.1v1.1
												l1.5-1.1h0.1L938.1,292z"/>
										</g>
									</g>
								</g>
							</g>
						</g>
					</g>
				</g>
			</g>
			<text transform="matrix(0.9721 0 0 1 973.2856 431.0115)" class="st7 st9 st49">Designpathy</text>
		</g>
	</g>
</g>
<g id="text" transform="translate(-3)">
	<text transform="matrix(1 0 0 1 554.553 454.3029)" class="st4 st50 st51">Your High Score: 0</text>
</g>
</svg>
