<?xml version="1.0" encoding="utf-8"?>
<!-- Generator: Adobe Illustrator 25.2.0, SVG Export Plug-In . SVG Version: 6.00 Build 0)  -->
<svg version="1.1" id="Layer_1" xmlns="http://www.w3.org/2000/svg" xmlns:xlink="http://www.w3.org/1999/xlink" x="0px" y="0px"
	 viewBox="0 0 1920 1080" style="enable-background:new 0 0 1920 1080;" xml:space="preserve">
<style type="text/css">
	.st0{fill:none;}
	.st1{fill:#DBDBDB;}
	.st2{fill:#6D6D6D;}
	.st3{fill:#FFFFFF;}
	.st4{fill:#CCCCCC;}
	.st5{clip-path:url(#SVGID_2_);}
	.st6{fill:#241332;}
	.st7{fill:#352641;}
	.st8{font-family:'Montserrat-Bold';}
	.st9{font-size:12px;}
	.st10{fill:#BCB6C2;}
	.st11{font-family:'Montserrat-Medium';}
	.st12{font-size:13.065px;}
	.st13{clip-path:url(#SVGID_4_);}
	.st14{fill:url(#photo-2_1_);}
	.st15{font-family:'Montserrat-SemiBold';}
	.st16{font-size:15.0803px;}
	.st17{clip-path:url(#SVGID_6_);}
	.st18{fill:none;stroke:#BCB6C2;stroke-width:1.5;stroke-linecap:round;stroke-linejoin:round;}
	.st19{clip-path:url(#SVGID_8_);}
	.st20{clip-path:url(#SVGID_10_);}
	.st21{clip-path:url(#SVGID_12_);}
	.st22{clip-path:url(#SVGID_14_);}
	.st23{clip-path:url(#SVGID_16_);}
	.st24{clip-path:url(#SVGID_18_);}
	.st25{clip-path:url(#SVGID_20_);}
	.st26{clip-path:url(#SVGID_22_);}
	.st27{fill:#FFFFFF;fill-opacity:0;}
	.st28{font-size:30.1606px;}
	.st29{font-size:20.1071px;}
	.st30{fill:#868687;}
	.st31{clip-path:url(#SVGID_24_);}
	.st32{fill:#E8E8E8;}
	.st33{fill:#F2F2F2;}
	.st34{fill:#3F3D56;}
	.st35{opacity:0.8;fill:none;stroke:#241332;stroke-width:2;stroke-miterlimit:10;enable-background:new    ;}
	.st36{fill:#2F2E41;}
	.st37{clip-path:url(#SVGID_26_);}
	.st38{clip-path:url(#SVGID_28_);}
	.st39{clip-path:url(#SVGID_30_);}
	.st40{clip-path:url(#SVGID_32_);}
	.st41{clip-path:url(#SVGID_34_);}
	.st42{clip-path:url(#SVGID_36_);}
	.st43{fill:#E7E4E9;}
	.st44{clip-path:url(#SVGID_38_);}
	.st45{clip-path:url(#SVGID_40_);}
	.st46{clip-path:url(#SVGID_42_);}
	.st47{clip-path:url(#SVGID_44_);}
	.st48{clip-path:url(#SVGID_46_);}
	.st49{clip-path:url(#SVGID_48_);}
	.st50{clip-path:url(#SVGID_50_);}
	.st51{font-size:56.5512px;}
</style>
<pattern  y="1080" width="607.5" height="810" patternUnits="userSpaceOnUse" id="pattern_2" viewBox="101.2 -810 607.5 810" style="overflow:visible;">
	<g>
		<rect x="101.2" y="-810" class="st0" width="607.5" height="810"/>
		
			<image style="overflow:visible;enable-background:new    ;" width="810" height="810" xlink:href="59F440BD.png"  transform="matrix(1 0 0 -1 0 0)">
		</image>
	</g>
</pattern>
<rect x="751.5" y="1204.9" class="st0" width="0" height="4.6"/>
<text transform="matrix(1 0 0 1 194.0327 1618.3467)" class="st9" style="font-family:'FreestyleScript-Regular';">Lorem ipsum</text>
<g>
</g>
<g>
	<g>
		<path class="st1" d="M974.4,264.1v-43.7c0-2.1,1.7-3.9,3.9-3.9h7.6c2.1,0,3.9,1.7,3.9,3.9v43.7c0,2.1-1.7,3.9-3.9,3.9h-7.6
			C976.1,268,974.4,266.2,974.4,264.1z"/>
		<path class="st1" d="M974.4,352.4v-43.7c0-2.1,1.7-3.9,3.9-3.9h7.6c2.1,0,3.9,1.7,3.9,3.9v43.7c0,2.1-1.7,3.9-3.9,3.9h-7.6
			C976.1,356.2,974.4,354.5,974.4,352.4z"/>
		<path class="st2" d="M952.7,862.2H444.8c-16.2,0-29.4-13.2-29.4-29.4V114.3c0-16.2,13.2-29.4,29.4-29.4h507.9
			c16.2,0,29.4,13.2,29.4,29.4v718.5C982.1,849,968.9,862.2,952.7,862.2z"/>
		<rect x="459.9" y="138.2" class="st3" width="469.1" height="643.4"/>
		<path class="st1" d="M796.3,118.2H601.2c-2.1,0-3.9-1.7-3.9-3.9v0c0-2.1,1.7-3.9,3.9-3.9h195.1c2.1,0,3.9,1.7,3.9,3.9v0
			C800.1,116.4,798.4,118.2,796.3,118.2z"/>
		<circle class="st4" cx="698.7" cy="823.5" r="21.8"/>
	</g>
	<g>
		<g>
			<defs>
				<rect id="SVGID_1_" x="459.9" y="138.2" width="469.1" height="643.4"/>
			</defs>
			<clipPath id="SVGID_2_">
				<use xlink:href="#SVGID_1_"  style="overflow:visible;"/>
			</clipPath>
			<g id="bg_dark" class="st5">
				<rect id="bg-3_1_" x="459.9" y="138.2" class="st6" width="469.1" height="643.4"/>
			</g>
		</g>
		<g id="content" transform="translate(201 -38.908)">
			<g id="card" transform="translate(-45 744.908)">
				<g id="card-2">
					<g transform="matrix(1, 0, 0, 1, -156, -706)">
						<path id="bg-4" class="st7" d="M579.7,581.8h229.7c13.5,0,24.4,11.3,24.4,25.1v105.6c0,13.9-10.9,25.1-24.4,25.1H579.7
							c-13.5,0-24.4-11.3-24.4-25.1V607C555.2,593.1,566.2,581.8,579.7,581.8z"/>
					</g>
					<g id="field" transform="translate(32 32)">
						<text transform="matrix(0.9721 0 0 1 381.4233 -123.9663)" class="st3 st8 st9">What is design accessibility?</text>
						<text transform="matrix(0.5723 0 0 1 381.1093 -100.7631)" class="st10 st11 st12">Everyone benefits from designs that are easier to see. People with </text>
						<text transform="matrix(0.5723 0 0 1 381.1093 -85.9878)" class="st10 st11 st12">different visual abilities see your designs in varying ways—the </text>
						<text transform="matrix(0.5723 0 0 1 381.1093 -71.2094)" class="st10 st11 st12">diverse nature of impairments creates a wide variation in how </text>
						<text transform="matrix(0.5723 0 0 1 381.1093 -56.4321)" class="st10 st11 st12">your designs are perceived. A clean and clear visual presentation </text>
						<text transform="matrix(0.5723 0 0 1 381.1093 -41.6557)" class="st10 st11 st12">helps everyone make sense of a website’s information and </text>
						<text transform="matrix(0.5723 0 0 1 381.1093 -26.8794)" class="st10 st11 st12">functionality. (Source: accessibility.design.gov)</text>
						<g>
							<defs>
								<rect id="SVGID_3_" x="611.6" y="-136.1" width="14.7" height="15.1"/>
							</defs>
							<clipPath id="SVGID_4_">
								<use xlink:href="#SVGID_3_"  style="overflow:visible;"/>
							</clipPath>
							<g id="icons_chevron" transform="translate(368)" class="st13">
								<rect id="back" x="243.6" y="-136.1" class="st0" width="14.7" height="15.1"/>
								<path id="line" class="st3" d="M249.1-130.3l2.6,2.7c0.2,0.2,0.2,0.6,0,0.9l0,0c-0.2,0.2-0.6,0.2-0.9,0l-2.6-2.7
									c-0.2-0.2-0.2-0.6,0-0.9l0,0C248.5-130.5,248.9-130.5,249.1-130.3z"/>
								<path id="line-2" class="st3" d="M250.9-127.6l2.6-2.7c0.2-0.2,0.6-0.2,0.9,0l0,0c0.2,0.2,0.2,0.6,0,0.9l-2.6,2.7
									c-0.2,0.2-0.6,0.2-0.9,0l0,0C250.6-127,250.6-127.4,250.9-127.6z"/>
							</g>
						</g>
					</g>
				</g>
			</g>
			<g id="carrousel" transform="translate(-45 184.908)">
				<g transform="matrix(1, 0, 0, 1, -156, -146)">
					<pattern  id="photo-2_1_" xlink:href="#pattern_2" patternTransform="matrix(0.5632 0 0 -0.5632 -2932.1687 -14054.3477)">
					</pattern>
					<path id="photo-2" class="st14" d="M579.7,230h229.8c13.5,0,24.4,11.3,24.4,25.1v66.7c0,13.9-10.9,25.1-24.4,25.1H579.7
						c-13.5,0-24.4-11.3-24.4-25.1v-66.7C555.2,241.2,566.2,230,579.7,230z"/>
				</g>
				<g id="text" transform="translate(110.579 313.092)">
					<text transform="matrix(0.9721 0 0 1 358.3929 -17.9411)" class="st3 st15 st16">Your High Score: 0</text>
				</g>
			</g>
		</g>
		<g id="top_1_" transform="translate(0 -3)">
			<g>
				<defs>
					<rect id="SVGID_5_" x="474.6" y="176.4" width="14.7" height="15.1"/>
				</defs>
				<clipPath id="SVGID_6_">
					<use xlink:href="#SVGID_5_"  style="overflow:visible;"/>
				</clipPath>
				<g id="icons_dark_back" transform="translate(24 59)" class="st17">
					<rect id="bg-5" x="450.6" y="117.4" class="st0" width="14.7" height="15.1"/>
					<g id="arrow-left" transform="translate(5 5)">
						<line id="Line_36" class="st18" x1="457.2" y1="120" x2="448.6" y2="120"/>
						<path id="Path_12" class="st18" d="M452.9,124.4l-4.3-4.4l4.3-4.4"/>
					</g>
				</g>
			</g>
			<g>
				<defs>
					<rect id="SVGID_7_" x="459.9" y="141.2" width="469.1" height="27.6"/>
				</defs>
				<clipPath id="SVGID_8_">
					<use xlink:href="#SVGID_7_"  style="overflow:visible;"/>
				</clipPath>
				<g id="Status_bar_light" transform="translate(0 3)" class="st19">
					<path id="bg-6" class="st3" d="M459.9,138.2H929v27.6H459.9V138.2z"/>
					<g>
						<defs>
							<rect id="SVGID_9_" x="472.1" y="147" width="447.9" height="10.1"/>
						</defs>
						<clipPath id="SVGID_10_">
							<use xlink:href="#SVGID_9_"  style="overflow:visible;"/>
						</clipPath>
						<g id="Status_Bar_Light-2" transform="translate(20 14)" class="st20">
							<g id="status_bar_light-3">
								<g id="Battery_1_" transform="translate(709 2.333)">
									<g>
										<defs>
											<path id="SVGID_11_" d="M177.9,132.2H188c0.9,0,1.6,0.8,1.6,1.7v3.8l0,0c0,0.9-0.7,1.7-1.6,1.7h-10.2
												c-0.9,0-1.6-0.8-1.6-1.7v-3.8l0,0C176.2,132.9,177,132.2,177.9,132.2z"/>
										</defs>
										<clipPath id="SVGID_12_">
											<use xlink:href="#SVGID_11_"  style="overflow:visible;"/>
										</clipPath>
										<g id="Border_1_" class="st21">
											<path id="Fill_1_" class="st0" d="M177.9,132.2H188c0.9,0,1.6,0.8,1.6,1.7v3.8l0,0c0,0.9-0.7,1.7-1.6,1.7h-10.2
												c-0.9,0-1.6-0.8-1.6-1.7v-3.8l0,0C176.2,132.9,177,132.2,177.9,132.2z"/>
										</g>
									</g>
									<g>
										<defs>
											<path id="SVGID_13_" d="M190.3,134.5v2.5c0.5-0.2,0.8-0.7,0.8-1.3C191.1,135.2,190.8,134.7,190.3,134.5"/>
										</defs>
										<clipPath id="SVGID_14_">
											<use xlink:href="#SVGID_13_"  style="overflow:visible;"/>
										</clipPath>
										<g id="Cap_1_" transform="translate(23 3.667)" class="st22">
											<path id="Fill-2_1_" d="M164.2,127.7h6.9v8.8h-6.9V127.7z"/>
										</g>
									</g>
									<g>
										<defs>
											<path id="SVGID_15_" d="M178.3,133.4h9.4c0.4,0,0.8,0.4,0.8,0.8c0,0,0,0,0,0v2.9l0,0c0,0.5-0.4,0.8-0.8,0.8l0,0h-9.4
												c-0.4,0-0.8-0.4-0.8-0.8c0,0,0,0,0,0v-2.9l0,0C177.4,133.8,177.8,133.4,178.3,133.4L178.3,133.4z"/>
										</defs>
										<clipPath id="SVGID_16_">
											<use xlink:href="#SVGID_15_"  style="overflow:visible;"/>
										</clipPath>
										<g id="Capacity_1_" transform="translate(2 2)" class="st23">
											<path id="Fill-3_1_" d="M172.4,128.3h17.1v10.9h-17.1V128.3z"/>
										</g>
									</g>
								</g>
								<g id="Wifi_1_" transform="translate(688.694 2.331)">
									<g>
										<defs>
											<path id="SVGID_17_" d="M188.8,133.6c1.4,0,2.7,0.5,3.6,1.5c0.1,0.1,0.2,0.1,0.3,0l0.7-0.7c0,0,0.1-0.1,0.1-0.1
												c0-0.1,0-0.1-0.1-0.1c-2.6-2.5-6.6-2.5-9.2,0c0,0-0.1,0.1-0.1,0.1c0,0.1,0,0.1,0.1,0.1l0.7,0.7c0.1,0.1,0.2,0.1,0.3,0
												C186.1,134.1,187.4,133.6,188.8,133.6L188.8,133.6z M188.8,136c0.7,0,1.5,0.3,2,0.8c0.1,0.1,0.2,0.1,0.3,0l0.7-0.7
												c0,0,0.1-0.1,0.1-0.1c0-0.1,0-0.1-0.1-0.1c-1.7-1.6-4.3-1.6-6,0c0,0-0.1,0.1-0.1,0.1c0,0.1,0,0.1,0.1,0.1l0.7,0.7
												c0.1,0.1,0.2,0.1,0.3,0C187.3,136.3,188,136,188.8,136L188.8,136z M190.1,137.7c0,0,0.1-0.1,0.1-0.1c0-0.1,0-0.1-0.1-0.1
												c-0.8-0.7-1.9-0.7-2.7,0c0,0-0.1,0.1-0.1,0.1c0,0.1,0,0.1,0.1,0.1l1.2,1.3c0,0,0.1,0.1,0.1,0.1s0.1,0,0.1-0.1
												L190.1,137.7z"/>
										</defs>
										<clipPath id="SVGID_18_">
											<use xlink:href="#SVGID_17_"  style="overflow:visible;"/>
										</clipPath>
										<g id="Wifi-2_1_" class="st24">
											<path id="Fill-4_1_" d="M181.1,129h15.4v13.2h-15.4V129z"/>
										</g>
									</g>
								</g>
								<g id="Cellular_Connection_1_" transform="translate(666.667 2.667)">
									<g>
										<defs>
											<path id="SVGID_19_" d="M193.3,136.2h0.6c0.3,0,0.6,0.3,0.6,0.6v1.3c0,0.3-0.3,0.6-0.6,0.6h-0.6c-0.3,0-0.6-0.3-0.6-0.6
												v-1.3C192.7,136.5,193,136.2,193.3,136.2z M196.2,135h0.6c0.3,0,0.6,0.3,0.6,0.6v2.5c0,0.3-0.3,0.6-0.6,0.6h-0.6
												c-0.3,0-0.6-0.3-0.6-0.6v-2.5C195.5,135.2,195.8,135,196.2,135L196.2,135z M199,133.5h0.6c0.3,0,0.6,0.3,0.6,0.6v4
												c0,0.3-0.3,0.6-0.6,0.6H199c-0.3,0-0.6-0.3-0.6-0.6v-4C198.4,133.8,198.7,133.5,199,133.5z M201.9,132h0.6
												c0.3,0,0.6,0.3,0.6,0.6v5.4c0,0.3-0.3,0.6-0.6,0.6h-0.6c-0.3,0-0.6-0.3-0.6-0.6v-5.4C201.2,132.3,201.5,132,201.9,132z"
												/>
										</defs>
										<clipPath id="SVGID_20_">
											<use xlink:href="#SVGID_19_"  style="overflow:visible;"/>
										</clipPath>
										<g id="Cellular_Connection-2_1_" class="st25">
											<path id="Fill-5_1_" d="M189.6,128.9h16.5v13h-16.5V128.9z"/>
										</g>
									</g>
								</g>
								<g id="Bars___Time_Black_1_">
									<path id="Background_1_" class="st0" d="M452.1,143.1h33V133h-33V143.1z"/>
									<path id="_Time_1_" d="M462.2,142.6c1.5,0,2.4-1.2,2.4-3.3c0-0.7-0.1-1.4-0.4-2c-0.4-0.8-1.1-1.3-2-1.2
										c-1.2-0.1-2.2,0.8-2.2,2c0,0.1,0,0.1,0,0.2c0,1.1,0.8,2,1.9,2.1c0,0,0.1,0,0.1,0c0.7,0,1.3-0.3,1.6-0.9h0.1
										c0,1.4-0.5,2.3-1.4,2.3c-0.5,0-0.9-0.3-1.1-0.8h-1.1C460.3,141.9,461.2,142.7,462.2,142.6z M462.2,139.5
										c-0.6,0-1.2-0.5-1.2-1.1c0,0,0-0.1,0-0.1c0-0.7,0.5-1.2,1.2-1.2c0.7,0,1.2,0.6,1.2,1.2
										C463.4,138.9,462.9,139.4,462.2,139.5C462.3,139.5,462.2,139.5,462.2,139.5L462.2,139.5z M466.5,141.8
										c0.4,0,0.7-0.3,0.7-0.7s-0.3-0.7-0.7-0.7c-0.4,0-0.7,0.3-0.7,0.7C465.8,141.5,466.1,141.8,466.5,141.8
										C466.5,141.8,466.5,141.8,466.5,141.8L466.5,141.8z M466.5,138.6c0.4,0,0.7-0.3,0.7-0.6c0,0,0,0,0-0.1
										c0-0.4-0.3-0.7-0.7-0.7c-0.4,0-0.6,0.3-0.6,0.7C465.8,138.3,466.1,138.6,466.5,138.6C466.5,138.6,466.5,138.6,466.5,138.6
										L466.5,138.6z M471.4,142.5h1v-1.2h0.8v-0.9h-0.8v-4.1h-1.5c-1.1,1.6-1.9,3-2.5,4.1v1h2.9V142.5z M469.4,140.3
										c0.7-1.3,1.3-2.3,1.9-3.2h0.1v3.2L469.4,140.3L469.4,140.3z M475.7,142.5h1.1v-6.2h-1.1l-1.6,1.1v1.1l1.5-1.1h0.1
										L475.7,142.5z"/>
								</g>
							</g>
						</g>
					</g>
				</g>
			</g>
			<g>
				<defs>
					<rect id="SVGID_21_" x="899.7" y="178.9" width="14.7" height="15.1"/>
				</defs>
				<clipPath id="SVGID_22_">
					<use xlink:href="#SVGID_21_"  style="overflow:visible;"/>
				</clipPath>
				<g id="icons_dark_setting" transform="translate(720 63)" class="st26">
					<rect id="Rectangle_531" x="179.7" y="115.9" class="st27" width="14.7" height="15.1"/>
					<g id="settings" transform="translate(3 3)">
						<ellipse id="Ellipse_52" class="st18" cx="184.1" cy="120.5" rx="1.8" ry="1.9"/>
						<path id="Path_199" class="st18" d="M187.8,122c-0.1,0.3-0.1,0.7,0.2,0.9l0,0c0.4,0.4,0.4,1,0,1.5s-1,0.4-1.4,0c0,0,0,0,0,0
							l0,0c-0.3-0.3-0.9-0.3-1.2,0c-0.1,0.2-0.2,0.4-0.2,0.6v0.1c0,0.6-0.4,1-1,1c-0.6,0-1-0.5-1-1v0c0-0.3-0.2-0.7-0.5-0.8
							c-0.3-0.1-0.7-0.1-0.9,0.2l0,0c-0.4,0.4-1,0.4-1.4,0c-0.4-0.4-0.4-1,0-1.5c0,0,0,0,0,0l0,0c0.3-0.3,0.3-0.9,0-1.2
							c-0.2-0.2-0.4-0.2-0.6-0.2h-0.1c-0.6,0-1-0.5-1-1c0-0.6,0.4-1,1-1h0c0.3,0,0.6-0.2,0.8-0.6c0.1-0.3,0.1-0.7-0.2-0.9l0,0
							c-0.4-0.4-0.4-1,0-1.5c0.4-0.4,1-0.4,1.4,0c0,0,0,0,0,0l0,0c0.2,0.2,0.6,0.3,0.9,0.2h0c0.3-0.1,0.5-0.4,0.5-0.8v-0.1
							c0-0.6,0.4-1,1-1c0.6,0,1,0.5,1,1v0c0,0.5,0.4,0.9,0.8,0.8c0.2,0,0.4-0.1,0.6-0.2l0,0c0.4-0.4,1-0.4,1.4,0
							c0.4,0.4,0.4,1,0,1.5c0,0,0,0,0,0l0,0c-0.2,0.2-0.3,0.6-0.2,0.9v0c0.1,0.3,0.4,0.5,0.8,0.5h0.1c0.6,0,1,0.5,1,1s-0.4,1-1,1h0
							C188.2,121.5,187.9,121.7,187.8,122z"/>
					</g>
				</g>
			</g>
			<text transform="matrix(0.9721 0 0 1 558.6243 405.1348)" class="st3 st8 st28">Color Accessibility</text>
		</g>
		<g id="card-3" transform="translate(156 563)">
			<g id="card-4">
				<g transform="matrix(1, 0, 0, 1, -156, -563)">
					<path id="bg-7" class="st3" d="M562.6,492h263.9c4,0,7.3,3.4,7.3,7.5v23.2c0,4.2-3.3,7.5-7.3,7.5H562.6c-4,0-7.3-3.4-7.3-7.5
						v-23.2C555.2,495.4,558.5,492,562.6,492z"/>
				</g>
				<g id="field-2" transform="translate(150 27)">
					<text transform="matrix(0.9721 0 0 1 340.8445 -71.6206)" class="st7 st8 st29">Play Now</text>
				</g>
			</g>
		</g>
	</g>
</g>
<g>
	<g>
		<path class="st1" d="M1444.9,381.4v-43.7c0-2.1,1.7-3.9,3.9-3.9h7.6c2.1,0,3.9,1.7,3.9,3.9v43.7c0,2.1-1.7,3.9-3.9,3.9h-7.6
			C1446.6,385.3,1444.9,383.5,1444.9,381.4z"/>
		<path class="st1" d="M1444.9,469.7v-43.7c0-2.1,1.7-3.9,3.9-3.9h7.6c2.1,0,3.9,1.7,3.9,3.9v43.7c0,2.1-1.7,3.9-3.9,3.9h-7.6
			C1446.6,473.5,1444.9,471.8,1444.9,469.7z"/>
		<path class="st30" d="M1423.2,979.5H915.3c-16.2,0-29.4-13.2-29.4-29.4V231.6c0-16.2,13.2-29.4,29.4-29.4h507.9
			c16.2,0,29.4,13.2,29.4,29.4V950C1452.6,966.3,1439.4,979.5,1423.2,979.5z"/>
		<rect x="930.4" y="255.5" class="st3" width="469.1" height="643.4"/>
		<path class="st1" d="M1266.8,235.5h-195.1c-2.1,0-3.9-1.7-3.9-3.9l0,0c0-2.1,1.7-3.9,3.9-3.9h195.1c2.1,0,3.9,1.7,3.9,3.9l0,0
			C1270.7,233.7,1268.9,235.5,1266.8,235.5z"/>
		<circle class="st4" cx="1169.2" cy="940.8" r="21.8"/>
	</g>
	<g>
		<defs>
			<rect id="SVGID_23_" x="930.4" y="255.5" width="469.1" height="643.4"/>
		</defs>
		<clipPath id="SVGID_24_">
			<use xlink:href="#SVGID_23_"  style="overflow:visible;"/>
		</clipPath>
		<g id="Splashscreen" class="st31">
			<rect x="2167.7" y="-279.8" class="st32" width="1172.8" height="678.6"/>
			<g id="Group_1886" transform="translate(-60 632.149)">
				<path id="Path_360" class="st33" d="M1453.7,121.4C1392.1,33.2,1262-2.6,1134,36c-67.6,20.4-132.9,61.2-165.2,140.2
					c-57.8,141.2,63.5,186.3,142.9,200.7c38.4,7,74.5,18.6,107.5,34.5c59.4,28.6,164.5,53.9,243.8-65.2
					C1520.5,259.8,1494.7,180.1,1453.7,121.4z"/>
				<path id="Path_361" class="st34" d="M1096.6,138.8c-0.2-1.4-0.5-2.8-1-4.1c-0.1-0.5-0.5-0.9-0.9-1.2c-0.3-0.1-0.6-0.1-0.9,0
					l-4.7,0.7c-0.4,0-0.8,0.2-1.1,0.4c-0.6,0.7,0,1.7,0,2.6c-0.1,1-0.9,1.9-1.9,2.1c-1,0.2-2,0.2-2.9,0l-6.5-1
					c1.9-0.6,3.6-1.8,4.9-3.4c0.9-1,1.3-3,0.1-3.5c-0.4-0.1-0.8-0.1-1.1-0.1c-2.9,0-5.3-2.5-8-3.6c-3.6-1.3-7.6-0.1-10,3.1l3.5,0.2
					c0.3,0,0.6,0.1,0.9,0.3c0.8,0.6-0.2,1.9-0.1,2.9c0.1,1.3,1.8,1.6,3.1,1.7s2.9,1.2,2.3,2.3c-6.4,2.3-12.9-4.4-19.6-3.6
					c-1.7,0.2-3.3,0.9-5,1.3c-10.1,2.6-20.6-4.4-30.9-2.9c-2.3,0.4-4.6,1-6.8,1.8c-1.4,0.5-2.9,1-3.9,2.1c-1,1.1-1.4,3-0.4,4.1
					c-2.7,0.2-5.4,0-7.9-0.8c1.4,0.8,2.3,2.4,2.3,4c-4.2,0.7-8.2,2-12.1,3.8c0.7,1.2,1.6,2.4,2.5,3.4l-5.3,3.5
					c1.6,0.5,2.5,2.3,1.9,3.9c-0.1,0.2-0.2,0.4-0.3,0.6c1.8-0.8,3-3,5-3.5c1.3-0.3,2.6,0.3,3.8,0.8c1.2,0.5,2.6,1,3.9,0.6
					c1.3-0.4,2.2-2.1,1.4-3.2c5.4-1.6,11.1-2.5,16.7-2.7c0.4-0.1,0.9,0,1.3,0.2c0.7,0.5,0.5,1.7,0.5,2.6c0,0.9,0.7,2.1,1.5,1.7
					c-0.9,0.8-0.1,2.4,0.8,3.3c0.9,0.9,2,2.1,1.4,3.3c-0.1,0.3-0.4,0.5-0.5,0.8c-0.4,0.9,0.2,1.9,1,2.5c0.8,0.6,1.7,1,2.2,1.8
					c0.5,0.8,0.3,2.3-0.7,2.4l-2.7-3.5c-0.9,1-1.6,2.2-1.8,3.6c2.9,2.6,3.3,7.1,0.9,10.3c-1.2,1.5-3,2.4-4.5,3.6s-2.9,2.8-2.9,4.8
					c0,3.4-0.3,6.5,1,9.6c2.3,5.8,4.9,11.4,7.8,16.8c0.8,1.4,1.8,3,3.3,3.2c-2-5-3.8-10-5.4-15.1c1,0,2.2,0.1,2.8,1
					c0.5,0.7,0.4,1.7,0.5,2.6c0.2,0.8,0.5,1.6,1,2.4l9.5,17.4c0.8,1.4,1.7,3,3.2,3.6c1,0.4,2.1,0.3,3,0.8c0.7,0.4,1.2,1.2,1.9,1.6
					c2,1.1,4.8-1,6.6,0.3c0.5,0.5,0.9,0.9,1.4,1.4c1.7,1.5,4.5,0.5,6.5,1.7c1.3,0.7,1.9,2.2,2.6,3.6c1.7,3.4,4.5,6.6,8.2,6.9
					c1.2,0.1,2.3-0.1,3.5,0.1c1.1,0.3,2.2,1.3,2.1,2.5c-0.3,2,0.7,4.2,0.4,6.2c-0.5,3.7-5.5,5.3-6,9c0,0.8,0,1.6-0.1,2.4
					c-0.2,1-0.9,1.8-1.2,2.7c-0.5,1.8,0.8,3.6,2.2,4.9s3.1,2.3,3.8,4c0.8,1.8,0.4,3.9,0.7,5.9c0.6,4.3,4.2,7.5,7.9,9.6
					c1.1,0.6,2.4,1.2,3.1,2.3c1,1.4,0.9,3.3,1.2,5c0.8,4.2,4.2,7.6,4.3,11.8c0.1,3-1.6,5.8-2.5,8.6c-1.8,5.5-1.3,11.6,1.6,16.6
					c0.8,1.2,1.5,2.5,2.1,3.8c0.9,2.4,0.6,5.2,1.5,7.7c1.1,3.3,4.2,6,3.9,9.4c1.4,3,4.5,4.5,7.6,5.3l5.6,1.6c1,0.4,2.2,0.5,3.3,0.4
					c1.1-0.2,2.1-1.1,2.1-2.3c-2.7-0.6-5.5-1.3-7.8-3c-2.2-1.7-3.8-4.8-2.9-7.5c0.4-1.3,1.2-2.7,0.4-3.8c-0.5-0.6-1.3-0.8-1.8-1.3
					c-0.8-0.9-0.5-2.3,0.1-3.3c0.6-1,1.4-2,1.6-3.1c0.2-1.3-0.3-2.7-1.5-3.4c1-0.4,2-1,2.8-1.8c0.8-0.8,1-2.1,0.5-3.1
					c1.7,0.2,3.7,0.3,4.8-1c0.9-1.1,0.8-2.7,0.5-4c-0.3-1.4-0.9-2.7-1-4.1c3.9,0.2,7.8,0.1,11.7-0.4c-0.6-1.9-1.8-3.6-3.6-4.6
					c1.8-0.3,3.4-2.5,3.9-4.2c0.5-1.8,0.5-3.6,0.1-5.4c-0.1-0.5-0.1-1-0.1-1.4c0.3-0.6,0.8-1.1,1.4-1.4l8.7-5.2
					c0.5-0.3,1-0.6,1.4-1.1c0.9-1.1,0.8-2.8,0.3-4.1s-1.2-2.7-1.4-4.1c-0.5-4.3,3.9-7.4,5.4-11.4c0.5-1.6,0.8-3.3,0.8-5
					c0.1-1.8,0.1-3.9-1.2-5.1c-1.3-1.1-3.3-0.9-4.7-1.9c-1.3-1-1.7-2.8-3.1-3.6c-1.2-0.7-2.8-0.3-4.2-0.6c-2.4-0.6-4-3.5-6.4-3.7
					c-1.4-0.2-3,0.6-4.1-0.3c-1-0.7-1.1-2.2-1.2-3.5c-0.7-4-3.7-7.2-7.6-7.9c-1.4-0.2-3-0.1-4.2-1c-1.2-0.8-1.8-2.4-2.8-3.5
					c-1.6-1.8-4.1-2.5-6.4-3.1l-9.5-2.3c-1.7-0.4-3.8-0.6-4.7,0.9c-0.3,0.6-0.5,1.2-0.6,1.8c-0.7,2.3-2.8,3.9-5.1,4
					c-0.8-1.4-2.1-2.4-3.6-2.9c-1-0.2-1.9-0.4-2.9-0.7c-2-1-2.9-3.5-1.9-5.6c0,0,0,0,0,0c0-0.1,0.1-0.1,0.1-0.2
					c1.1-2.1,0.8-4.6-0.9-6.3c-1.6-1.5-3.9-1.8-6.1-1.7c-0.6-1.3,0.4-2.7,1.4-3.6c1-0.9,2.3-1.8,2.5-3.2c0.3-2.2-2.3-3.8-4.4-3.2
					s-3.3,2.7-4.2,4.7c-0.4,1.2-1,2.3-1.7,3.3c-0.8,1-2,1.7-3.2,1.4c-1.7-0.4-2.3-2.5-2.7-4.2c-0.6-2.3-0.9-4.7-0.9-7.1
					c0.1-2.4,0.9-4.8,2.6-6.5c2.8-2.6,7.1-2.4,10.8-2c-0.8-1.1-0.7-2.7,0.3-3.7c1-0.9,2.4-1.3,3.7-0.9c1.1,0.2,2.2,0.9,2.9,1.8
					c1.1,1.3,1.4,3.2,2.2,4.7s2.6,2.8,4.1,2c1.3-0.7,1.5-2.5,1.2-4c-0.3-1.5-1-2.9-0.9-4.4c0.2-2.9,3.1-4.6,5.6-5.7
					c2.5-1.2,5.4-2.8,5.8-5.6c0-0.6,0.1-1.1,0.3-1.6c0.3-0.5,0.7-0.8,1.1-1.1c7.4-5,14.9-10.1,23.4-12.9c0.4-0.1,0.5,0,0.9-0.1
					c0.6-0.4,0.2-1.4-0.4-1.8c-0.6-0.4-1.4-0.7-1.6-1.5c-0.1-0.5,0.2-1.1,0.3-1.6c0.1-1.1-0.8-2.1-1.8-2.1c-0.2,0-0.5,0-0.7,0.1
					c-0.7-0.9,0.7-2,1.8-2.3c3.3-0.9,6.6-1.5,10-1.7c0.4-0.1,0.8,0,1.1,0.2c0.6,0.4,0.5,1.3,0.1,1.9c-0.5,0.5-1,1-1.5,1.4
					c-1.1,1.1-1.5,2.8-1.1,4.3c1.8,0.9,3.7,1.9,5.6,1.5c2-0.3,3.7-2.6,2.8-4.4c-0.9-1.7-3.4-2.1-3.9-3.9c-0.5-2.2,2.4-4.1,1.8-6.2
					c-0.3-0.9-1.2-1.5-1.9-2.1c-1.7-1.7-2.2-4.2-1.2-6.4c-2.3,0.4-4.6-0.3-6.2-2c-1.5-1.5-2.7-4-4.8-3.9c-1.9,0.1-3.6,2.4-5.4,1.7
					c-0.4-0.2-0.9-0.5-1.4-0.3c-0.3,0.2-0.5,0.5-0.5,0.9c-0.5,2.3,0.3,4.9-0.9,6.8c-1.3,2.1-4.3,2.4-5.9,4.4c-0.9,1-1.2,2.5-2,3.6
					s-2.5,1.8-3.4,0.8c1-2,0.4-4.5-1.3-5.9c-0.9-0.6-1.8-1.1-2.8-1.4c-1.1-0.5-2.2-1.1-3.2-1.8c-0.5-0.3-0.9-0.7-1.2-1.3
					c-0.2-0.7-0.2-1.4,0.1-2c1-2.9,3.4-5,6.4-5.5c1.3-0.2,2.7-0.1,3.6-1.1c0.4-0.5,0.7-1.3,1.3-1.5c0.4-0.1,0.8,0,1.2,0.2l4.7,1.7
					c0.5,0.2,1.1,0.3,1.7,0.3c0.6-0.1,1-0.6,1-1.2c-0.2-0.8-1.4-1.2-1.2-2c0.1-0.3,0.2-0.5,0.4-0.7c3.5-3.8,8.4-5.8,13.4-5.4
					c0.6,1-0.3,2.2-1.1,3.1s-1.4,2.4-0.5,3.1c0.4,0.2,0.8,0.3,1.3,0.3c1.2,0.2,2.3,0.5,3.3,1c1.6,0.7,3.2,1.5,4.8,2.4
					c-0.2-1.1-0.2-2.1,0.1-3.2c0.4-1,1.5-1.8,2.5-1.4c0.9,0.4,1.4,1.7,2.4,1.8c1.3,0.2,1.9-1.9,1.3-3.1c-0.6-1.3-1.7-2.3-1.8-3.7
					c-0.1-0.9,0.3-2.1-0.4-2.6c-0.3-0.2-0.5-0.3-0.9-0.3l-18-3.4c-1.1-0.2-2.6,0-2.7,1.1c0,0.6,0.5,1.2,0.3,1.8
					c-0.3,0.6-1.1,0.6-1.7,0.8c-0.9,0.4-1.5,1.5-1.3,2.5c0.2,1,0.6,2,1.1,2.8C1099.6,139.4,1097.8,139.3,1096.6,138.8z"/>
				<path id="Path_362" class="st34" d="M1082.2,123.1c-2.3-0.8-4.9,0-6.4,2c-0.4,0.4-0.5,0.9-0.3,1.4c0.4,0.6,1.3,0.4,1.9,0.2
					c1-0.4,2.1-0.4,3.1-0.1c0.6,0.2,1.2,0.6,1.8,0.8c0.6,0.3,1.3,0.2,1.9-0.3c0.4-0.5,0.5-1.2,0.5-1.8c0.1-0.4-0.1-0.9-0.4-1.2
					c-0.3-0.2-0.5-0.2-0.8-0.3c-0.7-0.1-1.2-0.5-1.7-1"/>
				<path id="Path_363" class="st34" d="M1088.7,121.2c-0.8,0-1.5,0.6-1.6,1.4c0,0.2,0,0.5,0.1,0.7c0.8,0.2,1.6,0.3,2.4,0.2
					c0.8-0.1,1.5-0.8,1.7-1.6c-0.9,0.2-1.9,0-2.7-0.5"/>
				<path id="Path_364" class="st34" d="M1110.5,118.1c-2.1,0.5-4.2,1.2-6.2,2.2c1.9,0.8,3.1,2.7,3,4.8c-0.1,0.4-0.1,0.8,0,1.2
					c0.2,0.6,0.9,0.8,1.5,0.9c1,0.3,2.1,0.5,3.2,0.4c1.1-0.1,2.1-0.7,2.6-1.7c0.2-0.5,0.3-0.9,0.5-1.3c1.4-2.2,5.5,0.5,7-1.6
					c0.5-0.7,0.5-1.8,1.2-2.4c0.4-0.3,0.8-0.4,1.2-0.5c3-0.6,6-1,9-1.3c1.4-0.1,3.3-0.7,3.3-2.1c-5.4-1.1-11-0.3-15.9,2.2
					c-1.8,0.9-4.1,2.8-5.8,1.6c-0.6-0.5-0.6-1.7-1.5-2.2C1112.7,117.7,1111.5,117.9,1110.5,118.1z"/>
				<path id="Path_365" class="st34" d="M1128.2,121.5l2.5,0.5c-1.8-0.1-3.3,1.4-3.4,3.2c0,0,0,0,0,0c0,0.1,0,0.3,0,0.4
					c2.4,0.8,5,0,7.5,0.1c2.5,0.1,5.4,1.9,5,4.5c-0.1,0.8-0.6,1.5-0.3,2.3c0.2,0.5,0.5,0.9,0.9,1.4c0.5,1,0.1,2.3-0.6,3.2
					s-1.6,1.6-2.1,2.6c-1.4,2.4-0.6,5.5,0.2,8.2c0.2,1,0.7,2,1.4,2.8c1.3,1.4,3.4,1.5,5.2,1.5c1.4,0,2.9,0,3.8-1.1
					c1.1-1.4,0.3-3.6,1.1-5.3c0.7-1.5,2.4-2.2,3.9-2.6c2.8-0.8,5.7-1.6,8.4-2.8c3.3-1.6,6.4-4,10.1-4.2c1,0,2.1,0,3.1-0.2
					c1-0.3,1.9-1.2,1.9-2.2c-0.1-0.9-0.8-1.6-1.4-2.2c-0.6-0.7-1-1.7-0.5-2.4l9.6-1.8c-0.7-1.9-1.2-4.4,0.4-5.7
					c0.6-0.4,1.3-0.6,1.8-1.2c0.8-0.9,0.4-2.5-0.5-3.3c-0.9-0.8-2.2-1-3.4-1.1c-4.2-0.3-8.4-0.2-12.6,0.1l-24.7,1.4
					c-1.7,0.1-3.6,0-5.1,0.5c-1.3,0.5-2.2,1.4-3.7,1.7C1133.7,120.3,1130.7,119.9,1128.2,121.5z"/>
				<path id="Path_366" class="st34" d="M1173.6,142.1c-0.3,0-0.5,0-0.7,0.2c-0.1,0.2-0.2,0.4-0.2,0.6c-0.2,1,0,1.9,0.5,2.8
					c0.5,0.8,1.5,1.3,2.4,1.2c1.1-0.2,2-1.2,3-1.6c1.6-0.8,8.5-1.9,3.7-4.6c-1.6-0.9-2.7-0.1-4,0.5
					C1176.9,141.9,1175.3,142.2,1173.6,142.1z"/>
				<path id="Path_367" class="st34" d="M1215.2,120c-0.6,0.2-1,0.6-1.3,1.2c-0.3,0.6-0.1,1.3,0.4,1.6c0.2,0.1,0.4,0.1,0.6,0.1
					l2.3,0.1c1,0,2.2,0.2,2.4,1.2c0.2,0.7-0.2,1.6,0.3,2.1c0.2,0.2,0.5,0.3,0.8,0.3c0.7,0.2,1.5,0.2,2.3,0.1
					c1.6-0.5,0.8-1.5,1.3-2.4c0.8-1.4,0.7-0.6,2-1.4c1-0.6,2.4-1.7,1.5-3.2C1226.3,117,1217.5,118.9,1215.2,120z"/>
				<path id="Path_368" class="st34" d="M1259.8,118.7l-1.3,0.2c-3,0.3-5.9,0.9-8.8,1.7c1.2,0.5,2.5,0.8,3.8,1
					c0.7,0,1.4,0.1,2.2,0.3c1.3,0.4,2.5,1.4,3.7,0.9c0.8-0.3,1-1.1,1.6-1.5c0.4-0.3,2.1-0.8,2.2-1.1
					C1264.8,117.7,1260.9,118.5,1259.8,118.7z"/>
				<path id="Path_369" class="st34" d="M1265.5,124.8c-1.7,1-3.4,2.2-4.8,3.6c-0.6,0.6-1.2,1.3-1.2,2.2c0.1,1.2,1.3,1.8,2.3,2.3
					l4.2,1.8c0.5-0.7,0-1.8-0.5-2.5c-0.5-0.7-1.1-1.6-0.9-2.4c0.3-1,1.4-1.3,2.4-1.5c1.6-0.3,6-0.3,5.4-2.9
					C1271.8,122.3,1267.1,123.9,1265.5,124.8z"/>
				<path id="Path_370" class="st34" d="M1264.7,302.8c-0.5,1.2-0.4,2.5,0.3,3.6c0.9,1.1,2.3,1.6,3.7,1.3c1.3-0.4,2.5-1.2,3.4-2.2
					c0.8-0.9,1.5-2,2-3.1c0.7-1.8,1.2-3.6,1.4-5.5l1.3-7c0.3-1.6,0.3-6.4-2.5-4.8c-0.8,0.4-2.5,3.8-3.3,4.8
					c-1.4,1.7-1.6,3.4-2.4,5.5C1267.5,297.9,1265.6,300.1,1264.7,302.8z"/>
				<path id="Path_371" class="st34" d="M1412.8,338.7c-0.9-0.4-1.8-0.8-2.7-1.3c-0.9,2.4-1.3,5-1.4,7.6l6.3-3.7
					c0.9-0.5,2-1.3,2-2.4c0-0.3-0.1-0.5-0.3-0.7c-0.1-0.1-0.3-0.1-0.4-0.1c-0.9,0.2-1.8,0.5-2.7,0.9c-0.9,0.4-1.8,0.4-2.7,0"/>
				<path id="Path_372" class="st34" d="M1445.9,340.9c-0.7,0.2-1.4,0.4-2,0.7c-1.4,0.8-2.4,2.2-3.7,3.2c-1.3,0.9-2.7,1.6-4.2,2
					c-0.4,0.4-0.3,1.1,0.1,1.5c0,0,0.1,0,0.1,0.1c0.5,0.3,1.1,0.4,1.7,0.4c1.5,0,3.1,0,4.5-0.7c0.8-0.5,1.5-1.1,2.1-1.7
					c1.6-1.3,3.4-2.3,5.3-3.1c0.7-0.3,1.3-0.6,1.8-1.1c1.2-1.2,1.2-3-0.4-3.4C1449.8,338.3,1447.2,340.4,1445.9,340.9z"/>
				<path id="Path_373" class="st34" d="M1460.6,331c0.2-1.6-0.4-3.3-1.6-4.4c0,1.6-0.1,3.4-1,4.7c-0.6,1-1.6,1.6-2.3,2.5
					s-1,2.4-0.2,3.2c0.5,0.4,1.2,0.6,1.8,0.6c1.6,0.2,3.5,0.3,4.6-0.9c0.6-0.7,0.9-1.6,1.7-2.1c0.3-0.1,0.5-0.3,0.7-0.5
					c0.3-0.5-0.2-1.2-0.7-1.4s-1.2-0.1-1.7-0.3s-1.1-0.8-0.8-1.4"/>
				<path id="Path_374" class="st34" d="M1434.5,271.4c-0.9,0.2-1.7,0.3-2.6,0.2c-1.4-0.3-2.6-1.4-3.7-2.3c-2.8-2.2-6.1-3.4-9.6-3.5
					c-3.2-0.1-6.4,0.8-9.5,0.2c0.3,1.2,1.1,2.1,2.2,2.6c1,0.5,2.2,0.8,3.2,1.3c1.7,0.8,3,2.2,3.7,4c0.3,0.8,0.6,1.6,1,2.4
					c1,1.4,3,1.7,4.7,1.6c2.3-0.2,4.6-0.8,6.7,0c1.6,0.7,2.7,2.1,4.1,3.2s3.2,2,4.8,1.1c-3.3-1.1-5.5-4.2-5.4-7.8
					c1.5,0.1,5.9,0.1,5.6-2.5C1439.6,269.7,1435.8,271.2,1434.5,271.4z"/>
				<path id="Path_375" class="st34" d="M1414.8,289.6c0.3-1.5,1.7-2.8,1.3-4.3c-0.3-1-1.5-1.5-2.5-1.5c-1,0-2,0.3-3.1,0.3
					c-0.7,0-1.3,0-2,0c-2,0.3-3.3,2.6-5.2,3.3c-1.2,0.5-2.5,0.4-3.7,0.7c-2.8,0.7-4.5,3.4-6.5,5.6c-3.1,3.5-7.2,5.9-11.7,7
					c-1.6,0.4-3.3,0.6-4.5,1.7c-1.7,1.4-2.1,3.8-2.4,6c-1,6-2.6,11.9-4.7,17.6l6.6,0.9c1.2,0.3,2.5,0.2,3.8-0.1
					c0.9-0.3,1.7-0.8,2.5-1.4c2.9-1.9,6.2-3.1,9.6-3.6c1.7-0.3,3.5-0.2,5.1,0.4c1.6,0.7,3,2.2,3.1,3.9c1.4-0.5,3-0.1,4,1
					c1,1.1,1.7,2.5,1.9,4c0.2,0.9,0.3,2,1.2,2.4c0.7,0.3,1.5,0,2.2-0.1c2.5-0.2,4.6,2.8,7.1,2.3c2.7-0.6,3.3-4.7,5.9-5.5
					c1.5-0.5,3.6,0.1,4.3-1.3c0.6-1.3-0.6-2.7-0.5-4.1c0.2-1.7,2.2-2.5,3.7-3.2c5.3-2.6,7.8-9.9,5.2-15.3c-1.5-3.2-4.5-5.7-5.1-9.2
					c-0.4-2.7,0.6-5.9-1.1-8c-0.9-1.1-2.3-1.7-2.8-3c-0.3-0.8-0.2-1.7-0.4-2.6s-0.9-1.8-1.7-1.5c-2.4,0.6-3.2,8.3-4.4,10.1
					C1418.2,294.9,1414.2,293.1,1414.8,289.6z"/>
				<path id="Path_376" class="st34" d="M1370.5,274.3c-0.8-0.3-1.7-0.4-2.5-0.1c-0.8,0.3-1.2,1.5-0.6,2.1c4.9-0.2,9.9-0.4,14.8,0.3
					c5.6,0.8,11.2,2.8,16.9,2.2c-3.2-1-6.5-1.8-9.8-2.3l-5.5-1.1c-1.5-0.3-3-0.6-4.5-0.7C1376,274.3,1373.6,275.2,1370.5,274.3z"/>
				<path id="Path_377" class="st34" d="M1375.4,256.6c-0.4,0-0.9-0.1-1.1,0.3c-0.2,0.3,0,0.8-0.1,1.2c-0.1,0.5-0.8,0.7-1.4,0.6
					c-0.5-0.2-1.1-0.2-1.6,0c-0.5,0.3-0.7,1-0.5,1.6c0.2,0.6,0.5,1.1,0.9,1.5c0.7,0.9,1.5,1.7,2.4,2.4c1.7,1.3,4,1.9,5.1,3.8
					c0.2,0.4,0.4,0.7,0.7,0.9c0.5,0.3,1.2,0.1,1.7-0.2l1.9-0.9c0.3-0.1,0.7-0.3,0.9-0.6c0.4-0.6,0.2-1.5-0.2-2.2s-0.8-1.4-0.8-2.1
					c0.1-1.4,1.8-1.9,2.5-3c0.7-1.2,0.2-2.7,0.3-4.1c0.1-1.6,1.1-3.7-0.5-4.9c-1.3-1-2.6-0.1-3.6,1
					C1380.1,254.4,1379.2,257,1375.4,256.6z"/>
				<path id="Path_378" class="st34" d="M1387.2,232.6c0.7,1.3,2,2.1,2.8,3.3c0.8,1.4,0.7,3.1,1.5,4.5c0.9,1.4,2.6,2.1,3.1,3.6
					c0.5,1.7-0.7,3.8,0.3,5.2c0.7,1,2.1,1.1,3,0.4c0,0,0.1-0.1,0.1-0.1c0.8-0.9,0.8-2.4-0.1-3.3c-0.6-0.5-1.4-0.8-1.9-1.4
					c-0.2-0.4-0.4-0.8-0.5-1.2c-0.3-1.3-0.2-2.6,0.1-3.8c0.1-0.3,0.2-0.7,0.1-1c-0.2-0.6-1.1-0.7-1.6-1c-1.3-0.7-1.3-2.6-1.1-4.1
					c-0.2,1-3.7-0.7-4-1.3c-0.7-1.1-0.3-3.3-0.5-4.6C1387,228.7,1386.4,231,1387.2,232.6z"/>
				<path id="Path_379" class="st34" d="M1351.9,252.6c-0.6-0.7-1.6-1.5-2.5-1.1c-0.6,0.4-0.9,1.3-0.6,2c0.3,0.7,0.8,1.3,1.4,1.7
					c1.8,1.5,3.7,2.9,5.3,4.7c2.8,3.2,4.3,7.5,7.4,10.4c0.6,0.7,1.4,1.1,2.3,1.3c0.9,0.1,1.8-0.5,2-1.4c0.1-0.8-0.4-1.4-0.9-2
					c-1.2-1.3-2.5-2.6-3.6-3.9c-0.5-0.5-0.8-1.2-0.9-2c0-0.7,0.7-1.5,1.4-1.3c-0.9-0.2-1.5-1.7-2.8-2c-1.1-0.2-1.3,0.4-2.6-0.1
					C1355.5,257.8,1353.6,254.6,1351.9,252.6z"/>
				<path id="Path_380" class="st34" d="M1408.1,180.2c-0.7-0.2-1.4-0.5-2-0.7c-1.8-0.5-4.1,0.8-3.9,2.7c0.2,1.3,1.3,2.1,1.9,3.2
					c0.9,1.6,0.7,3.7,0.2,5.5c-0.1,0.6-0.3,1.1-0.7,1.6c-0.5,0.5-1,0.9-1.6,1.2c-2.4,1.4-4.5,3.2-6.2,5.4c-0.2,0.2-0.3,0.5-0.4,0.7
					c-0.1,0.6,0.5,1.1,0.9,1.6c0.8,1.2,0.2,2.8,0.3,4.2c0,0.4,0.2,0.8,0.5,1c0.5,0.2,1-0.2,1.3-0.6c0.8-1.6,0.2-4.1,1.8-4.9
					c0.3-0.1,0.7-0.2,0.9-0.5c0.3-0.4,0-1.1,0.2-1.6c0.2-0.8,1.3-0.8,2.1-0.8c1.4,0.1,2.7-0.1,4-0.6c0.5-0.1,1-0.4,1.3-0.8
					c0.4-0.7,0.5-1.5,0.3-2.3c-0.5-3.9-1.7-7.6-3.5-11c1.4,0.2,2.9,0.3,4.1-0.4c0.7-0.4,1.5-1.7,1.2-2.5
					C1410.2,179.3,1409.2,180.4,1408.1,180.2z"/>
				<path id="Path_381" class="st34" d="M1228.7,201.5c0.2,0.9,0.3,1.9,0,2.8c-0.3,0.9-1.2,1.6-2.1,1.4c-0.7-0.2-1.1-0.9-1.6-1.4
					c-2.7-3-8.7-1.3-10.4-4.9c-0.7-1.5-0.2-3.3-0.7-4.9c-0.6-1.9-2.4-3.1-4.3-3c-0.9,0.1-1.7,0.4-2.5,0.8
					c-5.2,2.2-10.7,3.6-16.3,4.2c-1.1,0.1-2.1,0.3-3.1,0.6c-2.3,0.9-3.9,3.1-5,5.3c-1.1,2.2-1.9,4.7-3.4,6.7
					c-1.6,2.1-3.8,3.6-5.8,5.1c-0.8,0.5-1.5,1.2-1.9,2.1c-0.4,1-0.5,2-0.4,3.1l0.4,12.7c0.1,1.6,0.1,3.3,0.8,4.8
					c0.9,1.8,2.6,3,3.9,4.6c1.2,1.7,1.9,3.7,1.8,5.8c0,0.8-0.1,1.8,0.5,2.4c0.4,0.3,0.8,0.4,1.3,0.4l16.7,1.4c2.9,0.2,6.2,0.7,8.1,3
					c0.9,1.1,1.6,2.7,3,2.8c0.6,0,1.2-0.1,1.8-0.3c1.5-0.1,2.8,1.1,3.7,2.3c1.3,2,1.8,4.3,1.6,6.7c-0.1,1.5-0.6,2.9-0.7,4.4
					c-0.4,5.6,4.3,10.5,4.4,16.2c0.1,3.3-1.5,6.4-3,9.4c2.4,3.8,0.4,8.8,1.4,13.1c0.9,4.2,4.3,7.4,5.1,11.6c0.4,1.9,0.4,4.3,2,5.3
					c0.7,0.4,1.5,0.5,2.3,0.5c4.8,0.1,9.6-1.1,13.9-3.3c2-1,4.1-2.6,4.5-4.9c0.3-1.9-0.6-3.9,0.3-5.5c1.1-1.9,3.9-1.8,5.5-3.2
					c2.6-2.4,0.6-6.9,1.6-10.3c1-3.1,4.2-4.7,5.9-7.5c0.6-1.2,1.1-2.5,1.4-3.8c0.7-3.2,1.2-6.4,1.4-9.7c0-2,0.2-4,0.4-5.9
					c1.8-11.2,12.5-18.7,16-29.5c0.3-1,0.5-2.4-0.4-3c-0.5-0.3-1.1-0.3-1.7-0.2l-7.7,1c-0.9,0.2-1.9,0.2-2.9-0.2
					c-0.9-0.4-1.5-1.6-1-2.4c1.3-2.4-1.4-5.5-2.6-8c-3.2-6.7-7.1-13.2-11.5-19.1c-0.3-0.3-0.5-0.7-0.5-1.1l2.2,0.1
					c-0.7-2.7-2-5.7-4.5-6.7c-1.5-0.6-3.1-0.4-4.6-0.3C1237.9,202.9,1233.1,202.2,1228.7,201.5z"/>
				<path id="Path_382" class="st34" d="M1242.3,140c1.2,1.3,2.5,2.6,4.1,2.8c3,0.4,5.1-2.8,6.5-5.5c0.1,1.5,1.3,2.6,2.7,2.5
					c0.7-0.1,1.4-0.4,2.1-0.8c5.9-3.3,12.5-5.1,19.2-5.1c-0.1-1.1,0.5-2.1,1.6-2.3c1.4-0.3,2.6,0.9,3.2,2.2c0.7,1.3,1.1,2.7,2.1,3.7
					c1,0.9,3.1,0.9,3.5-0.5c0.4-1.3-0.9-2.4-2-3.2c-1.1-0.8-2.3-2.2-1.5-3.3c5.6-1.3,11.3-2.6,17.1-2.8c1,0,2-0.1,2.9-0.5
					c0.9-0.4,1.5-1.4,1.3-2.4c-2.6,0.6-5.3-0.4-6.8-2.6c8-0.7,16.5-1.3,23.6,2.6c0.9,1.9-3.5,3.4-2.3,5.1c0.4,0.5,1.1,0.6,1.8,0.6
					c4.9,0.1,9.9,0.2,14.7-0.6c1.8-0.3,3.6-0.7,5.4-0.4c3,0.4,5.5,2.4,8.4,3.1c1.2,0.4,2.5,0.2,3.5-0.4c1-0.7,1.4-2.3,0.6-3.3
					c2.8-2.8,7.3-2.1,11-0.8s7.1,3.5,10.9,3.8c2.8,0.2,5.6-0.6,8.3-0.1c1.7,0.3,3.3,1.1,5,1.6c3.2,0.9,6.5,0.7,9.8,0.8
					c8.4,0.1,16.7,1.8,24.5,5c1,0.3,1.9,0.9,2.7,1.7c0.8,0.8,1,2,0.6,3l-8.1-1.2c0.8,1.5,2.7,1.8,4.3,2.3s3.2,2.3,2.3,3.8
					c-1.7-0.6-3.3,1.2-4.2,2.8c-0.9,1.6-1.9,3.6-3.7,3.7c-1.6,0.1-3.6-1.3-4.6-0.1c1.5,1.9,2.7,4,3.7,6.1c1,2.2,1.8,5.1,0.4,7.1
					c-0.2,0.4-0.6,0.6-1,0.8c-1.2,0.3-1.9-1.2-2.7-2c-1-1.1-2.6-1.4-4-1.9s-2.9-1.5-3-3.1c-0.1-1,0.4-1.8,0.8-2.7
					c0.6-1.5,0.9-3.1,0.8-4.7c0-1.3-0.5-2.6-1.3-3.6c-0.9-0.9-2.5-1.2-3.4-0.4c-0.5,0.4-0.8,1-1.4,1c-1,0-1.8-1.8-2.7-1.2
					c0.1,0.7,0,1.4-0.4,2c-2.5,2.2-6.3,1.3-9.6,2.1c-1.5,0.5-3,1.1-4.4,2c-0.5,0.2-0.9,0.6-1.2,1.1c-0.3,0.9,0,1.9,0.8,2.4
					c0.8,0.5,1.6,0.8,2.5,0.9c3.9,0.8,7.9,1.9,11,4.5c3.1,2.6,5.1,6.9,4.2,10.9l-7.7-7.6c0.3,3.2,0.5,6.4,0.5,9.6
					c0.1,0.6,0,1.3-0.2,1.8c-0.5,1.3-2,1.7-3.4,2c-1.4,0.3-2.4,1.7-2.1,3.2c0,0.1,0,0.2,0.1,0.3c0.5,1.6,1.6,2.8,2.7,4
					s2.1,2.6,2.3,4.2c0.1,1.6-1.1,3.5-2.6,3.4c-1.2-0.1-2.1-1.2-2.6-2.3s-0.8-2.4-1.6-3.3c-2.3-2.9-7.6-1.6-9.7-4.7
					c-1.1,1.3-1.5,3-1,4.6c1-0.6,2.3,0,3,0.9c0.7,0.9,1.1,2.1,1.6,3.1c0.8,1.4,2,2.6,2.1,4.2c0,0.6,0,1.2,0,1.8c0.2,1,1,1.7,1.5,2.5
					c1.3,1.9,1.2,4.4,0.4,6.6c-0.8,2.1-2.3,3.9-3.8,5.6c-2.5,3.1-5.2,5.9-8.2,8.5c-0.9,0.6-1.7,1.5-2.3,2.4c-0.5,1-0.6,2.4,0.3,3.1
					c-0.6,0-1.7,0.3-2.2,0.4c-0.2-2.4-0.3-4.9-0.1-7.3c-2.3-1.2-4.8,1.9-4.5,4.6s2.2,4.8,3.5,7.1c1,1.7,1.7,3.6,1.4,5.5
					c-0.3,1.9-2,3.7-3.9,3.5c-3-0.3-4.3-4.7-7.2-5.2c-0.3-0.1-0.5,0-0.8,0.1c-0.4,0.3-0.5,0.9-0.5,1.4c-0.1,2.5-0.2,5.2,0.7,7.5
					c1.4,3.4,5,6.3,4.3,9.9c-4.1-2-6.3-6.7-7.2-11.3c-1-4.6-1.1-9.3-2.9-13.6c-1.3,1.7-4.1,0.3-5.3-1.5c-1.1-1.7-1.8-3.7-3-5.5
					s-2.8-3.3-4.8-3.4c-2.1-0.1-4,1.4-5.6,2.8c-1.3,1.2-2.7,2.4-3.5,4c-1.1,2.4-0.8,5.1-0.9,7.8c-0.1,2.8-0.6,5.8-2.5,7.9
					s-5.4,2.8-7.4,0.9c-1.1-1-1.6-2.4-2.1-3.8c-2.3-6.8-4.1-13.7-5.6-20.6c-0.3,1.6-1.7,3.6-3,2.7c-0.3-0.3-0.5-0.6-0.7-0.9
					c-2.4-4.2-6.9-6.8-11.5-8.3c-4.5-1.5-9.3-2.2-13.8-3.9c-2.5-0.9-4.9-2.2-7.2-3.7c-1.2,1.8-1.3,4-0.3,5.9c1,1.9,3.2,2.8,5.2,2.2
					c1-0.3,1.8-1,2.8-1.4s2.3-0.2,2.7,0.8c0.4,0.9-0.2,2.1,0.1,3.1c0.5,1.5,2.7,1.6,3.4,3c0.6,1,0.1,2.4-0.7,3.2
					c-0.9,0.7-1.9,1.4-2.9,1.8c-3.2,1.8-5.5,5-8.3,7.4c-2.8,2.4-6.8,4.2-10.1,2.7c0.8-4.2-4-7.2-4.9-11.4c-0.3-1.4-0.1-2.8-0.6-4.1
					c-0.6-1.9-2.3-3.2-3.6-4.7c-3.3-3.6-5.1-8.5-4.9-13.4c0.1-1.7,0.4-3.5,0-5.1c-0.4-1.7-1.7-3.3-3.4-3.2
					c-3.8,0.2-8.6,0.5-10.6-2.9c-0.7-1.2-1-2.9,0-3.8c0.7-0.6,1.8-0.6,2.7-0.5l8.6,0.9c2,0.2,4.2,0.4,5.9-0.7
					c1.7-1.1,2.5-3.9,0.9-5.2c-1.2-0.9-3.2-0.9-3.6-2.3c-0.3-1.2,1-2.6,0.3-3.6c-0.5-0.7-1.7-0.5-2.4,0s-1.2,1.4-2,1.8
					c-1.4,0.7-3,0-4.5-0.4c-1.5-0.5-3.4-0.5-4.2,0.9c-0.8,1.6,0.7,3.6-0.1,5.2c-1,2.1-4.6,0.9-6.1,2.7c-1.7,2.1,1.1,5.1,0.6,7.7
					c-1.5,0.8-3.2,0.7-4.6-0.3c-1.4-1-2.1-2.6-1.9-4.3c0.1-1.2,0.7-2.4,0.3-3.5c-0.3-0.9-1.2-1.4-2-1.9l-8.3-4.7
					c-0.8,1.5,0.2,3.3,1.4,4.4c1.2,1.1,2.7,1.9,3.6,3.4c1.1,2.1,0.3,4.7-1.6,5.9c-0.2,0.2-0.5,0.2-0.8,0.1c-0.3-0.2-0.5-0.4-0.5-0.7
					c-1.5-3.9-3.7-7.7-7.2-9.7s-8.6-1.6-10.9,1.8c-0.5,0.8-0.9,1.7-1.4,2.6c-2.5,4.5-8,6.7-13.1,6.5c-0.5,0-1-0.1-1.4-0.3
					c-0.8-0.6-0.8-1.8-0.7-2.8l0.5-4.3c0.1-0.9,0.3-1.8,0.9-2.4c0.9-0.8,2.3-0.3,3.5-0.3c1.9-0.1,3.5-1.4,4-3.2
					c0.5-1.8,0-3.8-1.4-5.1c-0.5-0.5-1.3-1.2-1-1.9c0.2-0.4,0.6-0.7,1.1-0.7c2.2-0.6,4.4-0.8,6.6-1.6c2.1-0.8,4.2-2.3,4.7-4.6
					c0.2-0.7,0.2-1.5,0.8-1.9c0.3-0.1,0.6-0.2,1-0.2c2.4-0.3,4.1-2.5,4-5c1-0.7,2.4-0.2,3.4,0.6s1.9,1.8,3,2.1
					c2.2,0.6,4.4-1.4,6.7-1.4c1,0,2,0.3,2.9,0c0.9-0.3,1.5-1.3,2.2-2c0.7-0.7,2-1.1,2.6-0.4l-0.6-4.3c2.3,0.6,4.7,0.1,6.6-1.2
					l-7.2-2.5c-0.3-0.1-0.5-0.2-0.7-0.4c-0.5-0.6,0-1.5,0.4-2.2c1-1.6,1.2-4.2-0.5-5c-1.1-0.5-2.5,0.1-3.6,0.7l-5.3,3
					c-0.2,1,1.1,1.6,1.8,2.3c1.3,1.2,1.4,3.1,0.3,4.4c-0.6,0.7-1.4,1-2.2,1.1c0.7,0.9,1,2.2,0.7,3.3l-3.5,0.3
					c-0.4,0.1-0.8,0-1.2-0.2c-0.4-0.3-0.3-1-0.4-1.5c-0.2-1.2-1.4-2.1-2.6-2.3c-1.2-0.1-2.5,0-3.6,0.3c-0.5,0.2-1.1,0.2-1.6,0
					c-0.3-0.2-0.5-0.5-0.6-0.8c-0.5-1.3,0-2.8,0.8-4c0.9-1.1,1.9-2,3-2.9c2.5-2.2,4.3-5.1,5.2-8.4c2-0.8,4-2,5.9-2.8
					c3-1.6,6.4-2.2,9.8-1.9l6.6,0.1c2,0,4,0.1,5.8,0.9c1.8,0.8,3.4,2.4,3.5,4.4c0.1,0.5-0.1,0.9-0.4,1.2c-0.3,0.1-0.5,0.2-0.8,0.2
					C1244.9,139.5,1244.2,139.9,1242.3,140z"/>
				<path id="Path_383" class="st34" d="M1189.6,161.3c0.5-0.5,0.7-1.3,0.5-2c-1.3-0.5-2.7-0.2-3.7,0.7c-0.4,0.4-0.7,0.9-1,1.4
					c-0.9,1.5-1.6,3.2-1.1,4.8c0.1,0.4,0.3,0.7,0.6,0.9c0.2,0.1,0.5,0.1,0.7,0.1c1,0,1.9-0.1,2.9-0.2c0.6-0.1,1.3-0.2,1.5-0.8
					c0.3-0.7-0.4-1.6-0.2-2.3c0.1-0.3,0.3-0.6,0.6-0.9c0.3-0.3,0.4-0.6,0.4-1c-0.1-0.4-0.6-0.6-0.8-0.3"/>
				<path id="Path_384" class="st34" d="M1194.6,154.7c-0.9-0.2-1.7-0.3-2.6-0.2c-0.2,0-0.4,0-0.6,0.1c-0.2,0.1-0.3,0.3-0.3,0.5
					c-0.4,1.3,0.2,2.6,1.4,3.1c0.3,0.1,0.6,0.2,0.9,0.4c0.7,0.6,0.3,1.8,0.4,2.7c0.2,1.1,1.2,2,1,3c-0.1,0.8-1,1.5-0.9,2.3
					c0.1,0.9,1.2,1.1,2.1,1.2c0.5,0.1,1,0,1.5-0.2c0.5-0.3,0.8-0.8,0.9-1.4c0.4-1.1,0.5-2.2,0.4-3.3c0-0.5-0.1-1-0.4-1.5
					c-0.3-0.4-0.5-0.7-0.9-1C1195.9,158.6,1197.7,155.6,1194.6,154.7z"/>
				<path id="Path_385" class="st35" d="M1410.9,308.9c0,0-126-74.4-180.2-60.3c0,0-114.9,12.7-128.3,40.7
					c0,0-36.5-117.5-49.9-121.4"/>
				<path id="Path_386" class="st35" d="M1102.4,289.3c21.1-57.9,211.4-122.2,211.4-122.2c-27,7-83.2,81.4-83.2,81.4
					s-118.8-88.9-178.1-80.7c0,0,261.5,8.8,358.4,141"/>
				<ellipse id="Ellipse_114" class="st6" cx="1052.5" cy="167.9" rx="5.5" ry="5.7"/>
				<ellipse id="Ellipse_115" class="st6" cx="1102.4" cy="289.3" rx="5.5" ry="5.7"/>
				<ellipse id="Ellipse_116" class="st6" cx="1313.8" cy="167.2" rx="5.5" ry="5.7"/>
				<ellipse id="Ellipse_117" class="st6" cx="1410.9" cy="308.9" rx="5.5" ry="5.7"/>
				<ellipse id="Ellipse_118" class="st6" cx="1230.6" cy="248.6" rx="5.5" ry="5.7"/>
			</g>
			<g id="Group_1887" transform="translate(-51 -60)">
				
					<ellipse id="Ellipse_64" transform="matrix(0.3465 -0.9381 0.9381 0.3465 85.0906 1537.8665)" class="st36" cx="1146.2" cy="707.9" rx="13.5" ry="4.1"/>
				<ellipse id="Ellipse_65" class="st36" cx="1121.9" cy="728.3" rx="26.3" ry="27.1"/>
				<rect id="Rectangle_552" x="1109.9" y="749.5" class="st36" width="8" height="14.7"/>
				<rect id="Rectangle_553" x="1125.9" y="749.5" class="st36" width="8" height="14.7"/>
				<ellipse id="Ellipse_66" class="st36" cx="1116.6" cy="764.4" rx="6.7" ry="2.6"/>
				<ellipse id="Ellipse_67" class="st36" cx="1132.6" cy="764.1" rx="6.7" ry="2.6"/>
				<path id="Path_280" class="st6" d="M1096.4,703.1c-2.1-9.8,4.7-19.7,15.2-22.1s20.7,3.6,22.9,13.4c2.1,9.8-4.8,13.4-15.3,15.8
					C1108.6,712.6,1098.5,712.9,1096.4,703.1z"/>
				
					<ellipse id="Ellipse_68" transform="matrix(0.4407 -0.8976 0.8976 0.4407 -31.5862 1380.7914)" class="st36" cx="1092.3" cy="715.7" rx="4.2" ry="13.2"/>
			</g>
			<g id="Group_1888" transform="translate(214 242)">
				<ellipse id="Ellipse_69" class="st36" cx="1076.8" cy="423.6" rx="25.7" ry="26.4"/>
				
					<rect id="Rectangle_554" x="1080.8" y="444.3" transform="matrix(1 -4.775744e-03 4.775744e-03 1 -2.1437 5.1855)" class="st36" width="7.8" height="14.4"/>
				
					<rect id="Rectangle_555" x="1065.2" y="444.4" transform="matrix(1 -4.775744e-03 4.775744e-03 1 -2.1443 5.1111)" class="st36" width="7.8" height="14.4"/>
				
					<ellipse id="Ellipse_70" transform="matrix(0.8553 -0.5181 0.5181 0.8553 -83.9973 619.6899)" class="st36" cx="1067.6" cy="460.2" rx="6.5" ry="2.5"/>
				
					<ellipse id="Ellipse_71" transform="matrix(0.8553 -0.5181 0.5181 0.8553 -81.7506 627.5895)" class="st36" cx="1082.8" cy="460.2" rx="6.5" ry="2.5"/>
				<ellipse id="Ellipse_72" class="st3" cx="1076.1" cy="416.9" rx="8.8" ry="9"/>
				<ellipse id="Ellipse_73" class="st34" cx="1073.1" cy="413.1" rx="2.9" ry="3"/>
				<path id="Path_281" class="st6" d="M1101.6,398.9c2-9.6-4.6-19.2-14.9-21.5c-10.3-2.3-20.2,3.6-22.2,13.1c-2,9.6,4.8,13,15,15.3
					C1089.7,408.2,1099.6,408.5,1101.6,398.9z"/>
				
					<ellipse id="Ellipse_74" transform="matrix(0.4007 -0.9162 0.9162 0.4007 253.3685 1207.8495)" class="st36" cx="1050" cy="410.2" rx="4.1" ry="12.9"/>
				
					<ellipse id="Ellipse_75" transform="matrix(0.4007 -0.9162 0.9162 0.4007 264.7437 1268.9974)" class="st36" cx="1102.4" cy="432.1" rx="4.1" ry="12.9"/>
				<path id="Path_282" class="st3" d="M1082,435.1c0,3.3-2.6,6-5.8,6.1s-5.9-2.6-5.9-6v0c0-3.3,2.6-4,5.8-4
					C1079.4,431.1,1082,431.8,1082,435.1z"/>
			</g>
			<g id="top">
				<rect id="bg" x="930.4" y="255.5" class="st27" width="469.1" height="35.2"/>
				<g>
					<defs>
						<rect id="SVGID_25_" x="942.7" y="264.9" width="447.9" height="10.1"/>
					</defs>
					<clipPath id="SVGID_26_">
						<use xlink:href="#SVGID_25_"  style="overflow:visible;"/>
					</clipPath>
					<g id="status_bar_light" transform="translate(20 15)" class="st37">
						<g id="status_bar_light-2">
							<g id="Battery" transform="translate(709 2.333)">
								<g>
									<defs>
										<path id="SVGID_27_" d="M648.4,249.1h10.2c0.9,0,1.6,0.8,1.6,1.7v3.8l0,0c0,0.9-0.7,1.7-1.6,1.7h-10.2
											c-0.9,0-1.6-0.8-1.6-1.7v-3.8l0,0C646.7,249.8,647.5,249.1,648.4,249.1z"/>
									</defs>
									<clipPath id="SVGID_28_">
										<use xlink:href="#SVGID_27_"  style="overflow:visible;"/>
									</clipPath>
									<g id="Border" class="st38">
										<path id="Fill" class="st0" d="M648.4,249.1h10.2c0.9,0,1.6,0.8,1.6,1.7v3.8l0,0c0,0.9-0.7,1.7-1.6,1.7h-10.2
											c-0.9,0-1.6-0.8-1.6-1.7v-3.8l0,0C646.7,249.8,647.5,249.1,648.4,249.1z"/>
									</g>
								</g>
								<g>
									<defs>
										<path id="SVGID_29_" d="M660.8,251.4v2.5c0.5-0.2,0.8-0.7,0.8-1.3C661.6,252.1,661.3,251.6,660.8,251.4"/>
									</defs>
									<clipPath id="SVGID_30_">
										<use xlink:href="#SVGID_29_"  style="overflow:visible;"/>
									</clipPath>
									<g id="Cap" transform="translate(23 3.667)" class="st39">
										<path id="Fill-2" d="M634.7,244.6h6.9v8.8h-6.9V244.6z"/>
									</g>
								</g>
								<g>
									<defs>
										<path id="SVGID_31_" d="M648.8,250.3h9.4c0.4,0,0.8,0.4,0.8,0.8c0,0,0,0,0,0v2.9l0,0c0,0.5-0.4,0.8-0.8,0.8l0,0h-9.4
											c-0.4,0-0.8-0.4-0.8-0.8c0,0,0,0,0,0v-2.9l0,0C648,250.7,648.3,250.3,648.8,250.3L648.8,250.3z"/>
									</defs>
									<clipPath id="SVGID_32_">
										<use xlink:href="#SVGID_31_"  style="overflow:visible;"/>
									</clipPath>
									<g id="Capacity" transform="translate(2 2)" class="st40">
										<path id="Fill-3" d="M642.9,245.2H660v10.9h-17.1V245.2z"/>
									</g>
								</g>
							</g>
							<g id="Wifi" transform="translate(688.694 2.331)">
								<g>
									<defs>
										<path id="SVGID_33_" d="M659.3,250.5c1.4,0,2.7,0.5,3.6,1.5c0.1,0.1,0.2,0.1,0.3,0l0.7-0.7c0,0,0.1-0.1,0.1-0.1
											c0-0.1,0-0.1-0.1-0.1c-2.6-2.5-6.6-2.5-9.2,0c0,0-0.1,0.1-0.1,0.1c0,0.1,0,0.1,0.1,0.1l0.7,0.7c0.1,0.1,0.2,0.1,0.3,0
											C656.6,251,657.9,250.5,659.3,250.5L659.3,250.5z M659.3,252.9c0.7,0,1.5,0.3,2,0.8c0.1,0.1,0.2,0.1,0.3,0l0.7-0.7
											c0,0,0.1-0.1,0.1-0.1c0-0.1,0-0.1-0.1-0.1c-1.7-1.6-4.3-1.6-6,0c0,0-0.1,0.1-0.1,0.1c0,0.1,0,0.1,0.1,0.1l0.7,0.7
											c0.1,0.1,0.2,0.1,0.3,0C657.8,253.2,658.6,252.9,659.3,252.9L659.3,252.9z M660.7,254.6c0,0,0.1-0.1,0.1-0.1
											c0-0.1,0-0.1-0.1-0.1c-0.8-0.7-1.9-0.7-2.7,0c0,0-0.1,0.1-0.1,0.1c0,0.1,0,0.1,0.1,0.1l1.2,1.3c0,0,0.1,0.1,0.1,0.1
											c0.1,0,0.1,0,0.1-0.1L660.7,254.6z"/>
									</defs>
									<clipPath id="SVGID_34_">
										<use xlink:href="#SVGID_33_"  style="overflow:visible;"/>
									</clipPath>
									<g id="Wifi-2" class="st41">
										<path id="Fill-4" d="M651.6,245.9H667v13.2h-15.4V245.9z"/>
									</g>
								</g>
							</g>
							<g id="Cellular_Connection" transform="translate(666.667 2.667)">
								<g>
									<defs>
										<path id="SVGID_35_" d="M663.8,253.1h0.6c0.3,0,0.6,0.3,0.6,0.6v1.3c0,0.3-0.3,0.6-0.6,0.6h-0.6c-0.3,0-0.6-0.3-0.6-0.6
											v-1.3C663.2,253.4,663.5,253.1,663.8,253.1z M666.7,251.9h0.6c0.3,0,0.6,0.3,0.6,0.6v2.5c0,0.3-0.3,0.6-0.6,0.6h-0.6
											c-0.3,0-0.6-0.3-0.6-0.6v-2.5C666.1,252.2,666.3,251.9,666.7,251.9L666.7,251.9z M669.5,250.4h0.6c0.3,0,0.6,0.3,0.6,0.6
											v4c0,0.3-0.3,0.6-0.6,0.6h-0.6c-0.3,0-0.6-0.3-0.6-0.6v-4C668.9,250.7,669.2,250.4,669.5,250.4z M672.4,249h0.6
											c0.3,0,0.6,0.3,0.6,0.6v5.4c0,0.3-0.3,0.6-0.6,0.6h-0.6c-0.3,0-0.6-0.3-0.6-0.6v-5.4C671.8,249.2,672,249,672.4,249z"/>
									</defs>
									<clipPath id="SVGID_36_">
										<use xlink:href="#SVGID_35_"  style="overflow:visible;"/>
									</clipPath>
									<g id="Cellular_Connection-2" class="st42">
										<path id="Fill-5" d="M660.2,245.8h16.5v13h-16.5V245.8z"/>
									</g>
								</g>
							</g>
							<g id="Bars___Time_Black">
								<path id="Background" class="st0" d="M922.7,260h33v-10.1h-33V260z"/>
								<path id="_Time" d="M932.7,259.5c1.5,0,2.4-1.2,2.4-3.3c0-0.7-0.1-1.4-0.4-2c-0.4-0.8-1.1-1.3-2-1.2c-1.2-0.1-2.2,0.8-2.2,2
									c0,0.1,0,0.1,0,0.2c0,1.1,0.8,2,1.9,2.1c0,0,0.1,0,0.1,0c0.7,0,1.3-0.3,1.6-0.9h0.1c0,1.4-0.5,2.3-1.4,2.3
									c-0.5,0-0.9-0.3-1.1-0.8h-1.1C930.8,258.9,931.7,259.6,932.7,259.5z M932.7,256.4c-0.6,0-1.2-0.5-1.2-1.1c0,0,0-0.1,0-0.1
									c0-0.7,0.5-1.2,1.2-1.2s1.2,0.6,1.2,1.2C933.9,255.8,933.4,256.4,932.7,256.4C932.8,256.4,932.8,256.4,932.7,256.4
									L932.7,256.4z M937,258.7c0.4,0,0.7-0.3,0.7-0.7c0-0.4-0.3-0.7-0.7-0.7c-0.4,0-0.7,0.3-0.7,0.7
									C936.4,258.4,936.6,258.7,937,258.7C937,258.7,937,258.7,937,258.7L937,258.7z M937,255.5c0.4,0,0.7-0.3,0.7-0.6
									c0,0,0,0,0-0.1c0-0.4-0.3-0.7-0.7-0.7c-0.4,0-0.6,0.3-0.6,0.7C936.4,255.2,936.6,255.5,937,255.5
									C937,255.5,937,255.5,937,255.5L937,255.5z M941.9,259.4h1v-1.2h0.8v-0.9h-0.8v-4.1h-1.5c-1.1,1.6-1.9,3-2.5,4.1v1h2.9
									V259.4z M939.9,257.2c0.7-1.3,1.3-2.3,1.9-3.2h0.1v3.2L939.9,257.2L939.9,257.2z M946.2,259.4h1.1v-6.2h-1.1l-1.6,1.1v1.1
									l1.5-1.1h0.1L946.2,259.4z"/>
							</g>
						</g>
					</g>
				</g>
				<g id="header_back_filter_light">
					<g id="bg-2">
						<path class="st3" d="M1399.6,291H964.6v-0.6h434.9V291z"/>
						<path class="st43" d="M964.6,290.7h434.9H964.6 M964.6,290.1h434.9v1.3H964.6V290.1z"/>
					</g>
					<g>
						<defs>
							<rect id="SVGID_37_" x="930.4" y="255.5" width="469.1" height="27.6"/>
						</defs>
						<clipPath id="SVGID_38_">
							<use xlink:href="#SVGID_37_"  style="overflow:visible;"/>
						</clipPath>
						<g id="Status_bar_light-3" class="st44">
							<path id="bg-3" class="st3" d="M930.4,255.5h469.1v27.6H930.4V255.5z"/>
							<g>
								<defs>
									<rect id="SVGID_39_" x="942.7" y="264.3" width="447.9" height="10.1"/>
								</defs>
								<clipPath id="SVGID_40_">
									<use xlink:href="#SVGID_39_"  style="overflow:visible;"/>
								</clipPath>
								<g id="Status_Bar_Light-4" transform="translate(20 14)" class="st45">
									<g id="status_bar_light-5">
										<g id="Battery-2" transform="translate(709 2.333)">
											<g>
												<defs>
													<path id="SVGID_41_" d="M648.4,249.5h10.2c0.9,0,1.6,0.8,1.6,1.7v3.8l0,0c0,0.9-0.7,1.7-1.6,1.7h-10.2
														c-0.9,0-1.6-0.8-1.6-1.7v-3.8l0,0C646.7,250.2,647.5,249.5,648.4,249.5z"/>
												</defs>
												<clipPath id="SVGID_42_">
													<use xlink:href="#SVGID_41_"  style="overflow:visible;"/>
												</clipPath>
												<g id="Border-2" class="st46">
													<g id="Fill-6">
														<path class="st0" d="M648.4,249.5h10.2c0.9,0,1.6,0.8,1.6,1.7v3.8l0,0c0,0.9-0.7,1.7-1.6,1.7h-10.2
															c-0.9,0-1.6-0.8-1.6-1.7v-3.8l0,0C646.7,250.2,647.5,249.5,648.4,249.5z"/>
														<path class="st0" d="M648.4,249.5c-0.9,0-1.6,0.8-1.6,1.7v3.8c0,0.9,0.7,1.7,1.6,1.7h10.2c0.9,0,1.6-0.8,1.6-1.7v-3.8
															c0-0.9-0.7-1.7-1.6-1.7H648.4 M648.4,248.2h10.2c1.6,0,2.9,1.3,2.9,2.9v3.8c0,1.6-1.3,2.9-2.9,2.9h-10.2
															c-1.6,0-2.9-1.3-2.9-2.9v-3.8C645.5,249.5,646.8,248.2,648.4,248.2z"/>
													</g>
												</g>
											</g>
											<g>
												<defs>
													<path id="SVGID_43_" d="M660.8,251.8v2.5c0.5-0.2,0.8-0.7,0.8-1.3C661.6,252.5,661.3,252,660.8,251.8"/>
												</defs>
												<clipPath id="SVGID_44_">
													<use xlink:href="#SVGID_43_"  style="overflow:visible;"/>
												</clipPath>
												<g id="Cap-2" transform="translate(23 3.667)" class="st47">
													<path id="Fill-7" d="M634.7,244.9h6.9v8.8h-6.9V244.9z"/>
												</g>
											</g>
											<g>
												<defs>
													<path id="SVGID_45_" d="M648.8,250.7h9.4c0.4,0,0.8,0.4,0.8,0.8c0,0,0,0,0,0v2.9l0,0c0,0.5-0.4,0.8-0.8,0.8l0,0h-9.4
														c-0.4,0-0.8-0.4-0.8-0.8c0,0,0,0,0,0v-2.9l0,0C648,251.1,648.3,250.7,648.8,250.7L648.8,250.7z"/>
												</defs>
												<clipPath id="SVGID_46_">
													<use xlink:href="#SVGID_45_"  style="overflow:visible;"/>
												</clipPath>
												<g id="Capacity-2" transform="translate(2 2)" class="st48">
													<path id="Fill-8" d="M642.9,245.6H660v10.9h-17.1V245.6z"/>
												</g>
											</g>
										</g>
										<g id="Wifi-3" transform="translate(688.694 2.331)">
											<g>
												<defs>
													<path id="SVGID_47_" d="M659.3,250.9c1.4,0,2.7,0.5,3.6,1.5c0.1,0.1,0.2,0.1,0.3,0l0.7-0.7c0,0,0.1-0.1,0.1-0.1
														c0-0.1,0-0.1-0.1-0.1c-2.6-2.5-6.6-2.5-9.2,0c0,0-0.1,0.1-0.1,0.1c0,0.1,0,0.1,0.1,0.1l0.7,0.7c0.1,0.1,0.2,0.1,0.3,0
														C656.6,251.4,657.9,250.9,659.3,250.9L659.3,250.9z M659.3,253.3c0.7,0,1.5,0.3,2,0.8c0.1,0.1,0.2,0.1,0.3,0l0.7-0.7
														c0,0,0.1-0.1,0.1-0.1c0-0.1,0-0.1-0.1-0.1c-1.7-1.6-4.3-1.6-6,0c0,0-0.1,0.1-0.1,0.1c0,0.1,0,0.1,0.1,0.1l0.7,0.7
														c0.1,0.1,0.2,0.1,0.3,0C657.8,253.6,658.6,253.3,659.3,253.3L659.3,253.3z M660.7,255c0,0,0.1-0.1,0.1-0.1
														c0-0.1,0-0.1-0.1-0.1c-0.8-0.7-1.9-0.7-2.7,0c0,0-0.1,0.1-0.1,0.1c0,0.1,0,0.1,0.1,0.1l1.2,1.3c0,0,0.1,0.1,0.1,0.1
														c0.1,0,0.1,0,0.1-0.1L660.7,255z"/>
												</defs>
												<clipPath id="SVGID_48_">
													<use xlink:href="#SVGID_47_"  style="overflow:visible;"/>
												</clipPath>
												<g id="Wifi-4" class="st49">
													<path id="Fill-9" d="M651.6,246.3H667v13.2h-15.4V246.3z"/>
												</g>
											</g>
										</g>
										<g id="Cellular_Connection-3" transform="translate(666.667 2.667)">
											<g>
												<defs>
													<path id="SVGID_49_" d="M663.8,253.5h0.6c0.3,0,0.6,0.3,0.6,0.6v1.3c0,0.3-0.3,0.6-0.6,0.6h-0.6
														c-0.3,0-0.6-0.3-0.6-0.6v-1.3C663.2,253.8,663.5,253.5,663.8,253.5z M666.7,252.3h0.6c0.3,0,0.6,0.3,0.6,0.6v2.5
														c0,0.3-0.3,0.6-0.6,0.6h-0.6c-0.3,0-0.6-0.3-0.6-0.6v-2.5C666.1,252.5,666.3,252.3,666.7,252.3L666.7,252.3z
														 M669.5,250.8h0.6c0.3,0,0.6,0.3,0.6,0.6v4c0,0.3-0.3,0.6-0.6,0.6h-0.6c-0.3,0-0.6-0.3-0.6-0.6v-4
														C668.9,251.1,669.2,250.8,669.5,250.8z M672.4,249.3h0.6c0.3,0,0.6,0.3,0.6,0.6v5.4c0,0.3-0.3,0.6-0.6,0.6h-0.6
														c-0.3,0-0.6-0.3-0.6-0.6V250C671.8,249.6,672,249.3,672.4,249.3z"/>
												</defs>
												<clipPath id="SVGID_50_">
													<use xlink:href="#SVGID_49_"  style="overflow:visible;"/>
												</clipPath>
												<g id="Cellular_Connection-4" class="st50">
													<path id="Fill-10" d="M660.2,246.2h16.5v13h-16.5V246.2z"/>
												</g>
											</g>
										</g>
										<g id="Bars___Time_Black-2">
											<path id="Background-2" class="st0" d="M922.7,260.4h33v-10.1h-33V260.4z"/>
											<path id="_Time-2" d="M932.7,259.9c1.5,0,2.4-1.2,2.4-3.3c0-0.7-0.1-1.4-0.4-2c-0.4-0.8-1.1-1.3-2-1.2
												c-1.2-0.1-2.2,0.8-2.2,2c0,0.1,0,0.1,0,0.2c0,1.1,0.8,2,1.9,2.1c0,0,0.1,0,0.1,0c0.7,0,1.3-0.3,1.6-0.9h0.1
												c0,1.4-0.5,2.3-1.4,2.3c-0.5,0-0.9-0.3-1.1-0.8h-1.1C930.8,259.2,931.7,260,932.7,259.9z M932.7,256.8
												c-0.6,0-1.2-0.5-1.2-1.1c0,0,0-0.1,0-0.1c0-0.7,0.5-1.2,1.2-1.2s1.2,0.6,1.2,1.2C933.9,256.2,933.4,256.7,932.7,256.8
												C932.8,256.7,932.8,256.7,932.7,256.8L932.7,256.8z M937,259.1c0.4,0,0.7-0.3,0.7-0.7c0-0.4-0.3-0.7-0.7-0.7
												c-0.4,0-0.7,0.3-0.7,0.7C936.4,258.8,936.6,259.1,937,259.1C937,259.1,937,259.1,937,259.1L937,259.1z M937,255.9
												c0.4,0,0.7-0.3,0.7-0.6c0,0,0,0,0-0.1c0-0.4-0.3-0.7-0.7-0.7c-0.4,0-0.6,0.3-0.6,0.7C936.4,255.6,936.6,255.9,937,255.9
												C937,255.9,937,255.9,937,255.9L937,255.9z M941.9,259.7h1v-1.2h0.8v-0.9h-0.8v-4.1h-1.5c-1.1,1.6-1.9,3-2.5,4.1v1h2.9
												V259.7z M939.9,257.6c0.7-1.3,1.3-2.3,1.9-3.2h0.1v3.2L939.9,257.6L939.9,257.6z M946.2,259.7h1.1v-6.2h-1.1l-1.6,1.1
												v1.1l1.5-1.1h0.1L946.2,259.7z"/>
										</g>
									</g>
								</g>
							</g>
						</g>
					</g>
				</g>
			</g>
			<text transform="matrix(0.9721 0 0 1 981.3619 398.7829)" class="st6 st8 st51">Designpathy</text>
		</g>
	</g>
</g>
</svg>
