<?xml version="1.0" encoding="utf-8"?>
<!-- Generator: Adobe Illustrator 25.2.1, SVG Export Plug-In . SVG Version: 6.00 Build 0)  -->
<svg version="1.1" id="Layer_1" xmlns="http://www.w3.org/2000/svg" xmlns:xlink="http://www.w3.org/1999/xlink" x="0px" y="0px"
	 viewBox="0 0 1920 1080" style="enable-background:new 0 0 1920 1080;" xml:space="preserve">
<style type="text/css">
	.st0{fill:#E8D9CA;stroke:#000000;stroke-miterlimit:10;}
	.st1{fill:#87B271;}
	.st2{fill:#536D45;}
	.st3{fill:#E58D6A;}
	.st4{fill:#C26E49;}
	.st5{opacity:0.1;enable-background:new    ;}
	.st6{fill:#F8E0D7;}
</style>
<rect class="st0" width="1920" height="1080"/>
<rect x="411.6" y="397.6" class="st1" width="20.7" height="108"/>
<g>
	<g>
		<path class="st1" d="M1578.7,428.4c0,66.9-29.1,126.4-74.3,164.3c-45.2-37.9-74.3-97.4-74.3-164.3s29.1-126.4,74.3-164.3
			C1549.6,301.9,1578.7,361.4,1578.7,428.4z"/>
		<path class="st2" d="M1578.7,428.4c0,66.9-29.1,126.4-74.3,164.3V264C1549.6,301.9,1578.7,361.4,1578.7,428.4z"/>
	</g>
	<g>
		<path class="st1" d="M1498.7,405c35.5,42.2,48.8,98.1,40.4,150.5c-48.7,4.5-98.6-14.7-134.2-56.9c-35.5-42.2-48.8-98.1-40.4-150.5
			C1413.2,343.6,1463.2,362.8,1498.7,405z"/>
		<path class="st2" d="M1498.7,405c35.5,42.2,48.8,98.1,40.4,150.5l-174.6-207.4C1413.2,343.6,1463.2,362.8,1498.7,405z"/>
	</g>
	<g>
		<path class="st1" d="M1602.1,493.1c-31.6,45.8-79.7,70.2-128.5,70.8c-13-51.2-4.8-108.3,26.8-154s79.6-70.2,128.5-70.8
			C1641.9,390.3,1633.7,447.3,1602.1,493.1z"/>
		<path class="st2" d="M1602.1,493.1c-31.6,45.8-79.7,70.2-128.5,70.8L1628.9,339C1641.9,390.3,1633.7,447.3,1602.1,493.1z"/>
	</g>
</g>
<g>
	<g>
		<path class="st1" d="M1038.5,383.2c0,66.9-31.7,126.4-80.9,164.3c-49.2-37.9-80.9-97.4-80.9-164.3s31.7-126.4,80.9-164.3
			C1006.8,256.7,1038.5,316.3,1038.5,383.2z"/>
		<path class="st2" d="M1038.5,383.2c0,66.9-31.7,126.4-80.9,164.3V218.9C1006.8,256.7,1038.5,316.3,1038.5,383.2z"/>
	</g>
	<g>
		<path class="st1" d="M951.4,359.9c38.7,42.2,53.1,98.1,44,150.5c-53,4.5-107.4-14.7-146.1-56.9c-38.7-42.2-53.1-98.1-44-150.5
			C858.3,298.4,912.7,317.6,951.4,359.9z"/>
		<path class="st2" d="M951.4,359.9c38.7,42.2,53.1,98.1,44,150.5l-190-207.5C858.3,298.4,912.7,317.6,951.4,359.9z"/>
	</g>
	<g>
		<path class="st1" d="M1064,447.9c-34.4,45.8-86.7,70.2-139.9,70.8c-14.2-51.2-5.2-108.3,29.2-154s86.7-70.2,139.9-70.8
			C1107.4,345.1,1098.4,402.1,1064,447.9z"/>
		<path class="st2" d="M1064,447.9c-34.4,45.8-86.7,70.2-139.9,70.8l169-224.9C1107.4,345.1,1098.4,402.1,1064,447.9z"/>
	</g>
</g>
<g>
	<path class="st3" d="M1642.8,575.1l-18.5,215.5c-1.9,22.1-20.4,39-42.6,39h-170.3c-22.2,0-40.6-17-42.6-39l-18.5-215.5H1642.8z"/>
	<path class="st3" d="M1668.3,499.7v46.1c0,6.5-5.2,11.7-11.7,11.7h-320.2c-6.5,0-11.7-5.2-11.7-11.7v-46.1
		c0-6.5,5.2-11.7,11.7-11.7h320.2C1663.1,488,1668.3,493.2,1668.3,499.7z"/>
	<polygon class="st4" points="1644.3,557.5 1642.8,575.1 1350.3,575.1 1348.7,557.5 	"/>
	<path class="st5" d="M1668.3,499.7v46.1c0,6.5-5.2,11.7-11.7,11.7h-12.3l-1.5,17.6l-18.5,215.5c-1.9,22.1-20.4,39-42.6,39h-85.2
		V488h160.1C1663.1,488,1668.3,493.2,1668.3,499.7z"/>
</g>
<g>
	<path class="st1" d="M496.2,398.3c-17.9,17.9-45.4,22.4-73.4,14.7c-7.7-28-3.2-55.5,14.7-73.4c17.9-17.9,45.4-22.4,73.4-14.7
		C518.6,352.9,514.1,380.4,496.2,398.3z"/>
	<path class="st2" d="M496.2,398.3c-17.9,17.9-45.4,22.4-73.4,14.7l88.1-88.1C518.6,352.9,514.1,380.4,496.2,398.3z"/>
</g>
<g>
	<path class="st1" d="M349.7,398.3c17.9,17.9,45.4,22.4,73.4,14.7c7.7-28,3.2-55.5-14.7-73.4c-17.9-17.9-45.4-22.4-73.4-14.7
		C327.3,352.9,331.7,380.4,349.7,398.3z"/>
	<path class="st2" d="M349.7,398.3c17.9,17.9,45.4,22.4,73.4,14.7L335,324.9C327.3,352.9,331.7,380.4,349.7,398.3z"/>
</g>
<g>
	<path class="st3" d="M565,574.6l-18.5,215.5c-1.9,22.1-20.4,39-42.6,39H333.6c-22.2,0-40.6-17-42.6-39l-18.5-215.5H565z"/>
	<path class="st3" d="M590.5,499.2v46.1c0,6.5-5.2,11.7-11.7,11.7H258.7c-6.5,0-11.7-5.2-11.7-11.7v-46.1c0-6.5,5.2-11.7,11.7-11.7
		h320.2C585.3,487.5,590.5,492.7,590.5,499.2z"/>
	<polygon class="st4" points="566.5,557 565,574.6 272.5,574.6 271,557 	"/>
	<path class="st5" d="M590.5,499.2v46.1c0,6.5-5.2,11.7-11.7,11.7h-12.3l-1.5,17.6l-18.5,215.5c-1.9,22.1-20.4,39-42.6,39h-85.2
		V487.5h160.1C585.3,487.5,590.5,492.7,590.5,499.2z"/>
</g>
<g>
	<path class="st3" d="M1152.4,656.7c0,70.8-34.2,133.7-87.1,172.9H849.9c-52.8-39.2-87.1-102.1-87.1-172.9c0-23.2,1.1-45.5,4.6-66.4
		c2.5-15.1,6.2-29.4,11.6-42.8c8.3-20.6,20.7-39,38.8-54.5h279.7c18.1,15.5,30.4,33.9,38.7,54.5c5.4,13.4,9.1,27.7,11.6,42.8
		C1151.3,611.2,1152.4,633.5,1152.4,656.7z"/>
	<path class="st6" d="M1147.8,590.3H767.4c2.5-15.1,6.2-29.4,11.6-42.8h357.2C1141.7,560.9,1145.4,575.2,1147.8,590.3z"/>
	<path class="st5" d="M1152.4,656.7c0,70.8-34.2,133.7-87.1,172.9H957.6V493h139.9c18.1,15.5,30.4,33.9,38.7,54.5
		c5.4,13.4,9.1,27.7,11.6,42.8C1151.3,611.2,1152.4,633.5,1152.4,656.7z"/>
</g>
</svg>
