<?xml version="1.0" encoding="utf-8"?>
<!-- Generator: Adobe Illustrator 24.1.1, SVG Export Plug-In . SVG Version: 6.00 Build 0)  -->
<svg version="1.1" id="Layer_1" xmlns="http://www.w3.org/2000/svg" xmlns:xlink="http://www.w3.org/1999/xlink" x="0px" y="0px"
	 viewBox="0 0 1920 1080" style="enable-background:new 0 0 1920 1080;" xml:space="preserve">
<style type="text/css">
	.st0{fill:#4C4D5D;}
	.st1{fill:#111111;}
	.st2{fill:#CCE5E8;}
	.st3{fill:#FAFCFE;}
	.st4{fill:#EDF4F9;}
	.st5{fill:none;stroke:#CBE6ED;stroke-width:21.9879;stroke-linecap:round;stroke-miterlimit:10;}
	.st6{fill:none;stroke:#CBE6ED;stroke-width:21.9963;stroke-linecap:round;stroke-miterlimit:10;}
	.st7{fill:#CBE6ED;stroke:#CBE6ED;stroke-width:2.3522;stroke-linecap:round;stroke-miterlimit:10;}
	.st8{fill:#CBE6ED;stroke:#CBE6ED;stroke-width:2.0097;stroke-linecap:round;stroke-miterlimit:10;}
	.st9{fill:#ED9665;}
</style>
<g>
	<path class="st0" d="M1403.2,895H556.8c-34.7,0-62.8-28.1-62.8-62.8V227.8c0-34.7,28.1-62.8,62.8-62.8h846.4
		c34.7,0,62.8,28.1,62.8,62.8v604.4C1466,866.9,1437.9,895,1403.2,895z"/>
</g>
<g>
	<rect x="949" y="165" class="st1" width="57" height="730"/>
</g>
<g>
	<path class="st2" d="M1364,858H593c-26,0-47-21-47-47V283c0-26,21-47,47-47h771c26,0,47,21,47,47v528C1411,837,1390,858,1364,858z"
		/>
</g>
<g>
	<path class="st3" d="M546,165c45.9-19.5,116.1-42.2,202.8-44.5c70.8-1.8,125.6,10.7,148.2,16.5c33.2,8.5,60.6,19,81,28
		c0,216,0,432,0,648c-13.6-11.4-96.9-79-226.6-75.2c-116.5,3.4-189.7,62-205.4,75.2C546,597,546,381,546,165z"/>
</g>
<g>
	<path class="st4" d="M979,165c36.8-16.2,108-42.2,202.8-44.5c109.5-2.6,191.7,28,229.2,44.5c0,216,0,432,0,648
		c-13.6-11.4-96.9-79-226.6-75.2c-116.5,3.4-189.7,62-205.4,75.2C979,597,979,381,979,165z"/>
</g>
<g>
	<g>
		<path class="st5" d="M917,222.5c-31.4-25.6-91.3-41.7-156.2-42c-95.5-0.4-148.2,33.7-151.8,36.1"/>
		<path class="st5" d="M918.1,368.2c-31.4-25.6-91.3-41.7-156.2-42c-95.5-0.4-148.2,33.7-151.8,36.1"/>
		<path class="st5" d="M918.1,294.2c-31.4-25.6-91.3-41.7-156.2-42c-95.5-0.4-148.2,33.7-151.8,36.1"/>
	</g>
	<g>
		<path class="st5" d="M917.5,435.3c-31.4-25.6-91.3-41.7-156.2-42c-95.5-0.4-148.2,33.7-151.8,36.1"/>
		<path class="st5" d="M918.6,581c-31.4-25.6-91.3-41.7-156.2-42c-95.5-0.4-148.2,33.7-151.8,36.1"/>
		<path class="st5" d="M918.6,507c-31.4-25.6-91.3-41.7-156.2-42c-95.5-0.4-148.2,33.7-151.8,36.1"/>
	</g>
	<path class="st5" d="M918.6,728c-31.4-25.6-91.3-41.7-156.2-42c-95.5-0.4-148.2,33.7-151.8,36.1"/>
	<path class="st5" d="M918.6,654c-31.4-25.6-91.3-41.7-156.2-42c-95.5-0.4-148.2,33.7-151.8,36.1"/>
</g>
<path class="st6" d="M1348.3,368.8c-31.4-25.6-91.3-41.7-156.2-42c-95.5-0.4-148.2,33.7-151.8,36.2"/>
<g>
	<path class="st6" d="M1347.8,437c-31.4-25.6-91.3-41.7-156.2-42c-95.5-0.4-148.2,33.7-151.8,36.2"/>
	<path class="st6" d="M1348.9,582.8c-31.4-25.6-91.3-41.7-156.2-42c-95.5-0.4-148.2,33.7-151.8,36.2"/>
	<path class="st6" d="M1348.9,508.8c-31.4-25.6-91.3-41.7-156.2-42c-95.5-0.4-148.2,33.7-151.8,36.2"/>
</g>
<path class="st6" d="M1348.9,729.9c-31.4-25.6-91.3-41.7-156.2-42c-95.5-0.4-148.2,33.7-151.8,36.2"/>
<path class="st6" d="M1348.9,655.9c-31.4-25.6-91.3-41.7-156.2-42c-95.5-0.4-148.2,33.7-151.8,36.2"/>
<path class="st7" d="M1357,312c-31.4-19.3-89.1-48.1-164-47.9c-74.4,0.1-131.7,28.7-163,47.9c0-32.2,0-64.3,0-96.5
	c35.5-18.2,93.3-41,166-40.5c70.2,0.5,126,22.6,161,40.5C1357,247.7,1357,279.8,1357,312z"/>
<path class="st8" d="M1615,295"/>
<path class="st9" d="M917,142.8"/>
<polygon class="st9" points="918,143 919,347 948,316 978.5,347 980,165 "/>
</svg>
