<?xml version="1.0" encoding="utf-8"?>
<!-- Generator: Adobe Illustrator 25.2.0, SVG Export Plug-In . SVG Version: 6.00 Build 0)  -->
<svg version="1.1" id="Layer_1" xmlns="http://www.w3.org/2000/svg" xmlns:xlink="http://www.w3.org/1999/xlink" x="0px" y="0px"
	 viewBox="0 0 1920 1080" style="enable-background:new 0 0 1920 1080;" xml:space="preserve">
<style type="text/css">
	.st0{fill:none;}
	.st1{fill:#97CAEB;}
	.st2{opacity:0.1;fill:#767679;enable-background:new    ;}
	.st3{fill:url(#SVGID_1_);}
	.st4{fill:#FFFFFF;}
	.st5{fill:#EDEDF4;}
	.st6{opacity:0.8;fill:#FA5959;enable-background:new    ;}
	.st7{opacity:0.8;fill:#FED253;enable-background:new    ;}
	.st8{opacity:0.8;fill:#8CCF4D;enable-background:new    ;}
	.st9{fill:url(#SVGID_2_);}
	.st10{fill:#DCCCCF;}
	.st11{fill:#3F3D56;}
	.st12{opacity:0.1;enable-background:new    ;}
	.st13{fill:url(#SVGID_3_);}
	.st14{fill:#454B69;}
	.st15{fill:#FBBEBE;}
	.st16{opacity:5.000000e-02;enable-background:new    ;}
	.st17{opacity:0.1;}
	.st18{fill:#0058A8;}
</style>
<path class="st0" d="M-371.6,660.8c0,43.3-35.1,78.4-78.4,78.4V582.4C-406.7,582.4-371.6,617.5-371.6,660.8z"/>
<line class="st0" x1="-450" y1="921.5" x2="-450" y2="739.2"/>
<line class="st0" x1="-450" y1="582.4" x2="-450" y2="415.1"/>
<rect class="st1" width="1920" height="1080"/>
<g>
	<ellipse class="st2" cx="908.1" cy="971.5" rx="739.9" ry="37"/>
	
		<linearGradient id="SVGID_1_" gradientUnits="userSpaceOnUse" x1="1025.8442" y1="145.8595" x2="1025.8442" y2="919.6711" gradientTransform="matrix(1 0 0 -1 -73 1006.99)">
		<stop  offset="0" style="stop-color:#808080;stop-opacity:0.25"/>
		<stop  offset="0.54" style="stop-color:#808080;stop-opacity:0.12"/>
		<stop  offset="1" style="stop-color:#808080;stop-opacity:0.1"/>
	</linearGradient>
	<path class="st3" d="M1558.3,87.3h-1211c-6,0-10.8,4.9-10.8,10.8v741.2c0,12,9.7,21.8,21.7,21.8c0,0,0,0,0.1,0h1189.1
		c12,0,21.8-9.7,21.8-21.8c0,0,0,0,0-0.1V98.1C1569.2,92.2,1564.3,87.3,1558.3,87.3C1558.3,87.3,1558.3,87.3,1558.3,87.3z"/>
	<path class="st4" d="M1564.2,133.3v701.6c0,11.9-9.7,21.6-21.6,21.6H363.2c-11.9,0-21.6-9.7-21.6-21.6V133.3H1564.2z"/>
	<path class="st5" d="M1564.2,102.1v31.2H341.6v-31.2c0-5.9,4.8-10.7,10.7-10.7c0,0,0,0,0,0h1201.3
		C1559.5,91.5,1564.2,96.3,1564.2,102.1z"/>
	<circle class="st6" cx="361" cy="112.1" r="5"/>
	<circle class="st7" cx="374.8" cy="112.1" r="5"/>
	<circle class="st8" cx="388.5" cy="112.1" r="5"/>
	
		<linearGradient id="SVGID_2_" gradientUnits="userSpaceOnUse" x1="539.0724" y1="350.5862" x2="539.0724" y2="358.0869" gradientTransform="matrix(6.123234e-17 1 1 -6.123234e-17 666 -468.01)">
		<stop  offset="0" style="stop-color:#808080;stop-opacity:0.25"/>
		<stop  offset="0.54" style="stop-color:#808080;stop-opacity:0.12"/>
		<stop  offset="1" style="stop-color:#808080;stop-opacity:0.1"/>
	</linearGradient>
	<rect x="1016.6" y="68.6" class="st9" width="7.5" height="5"/>
	<rect x="622.8" y="194.8" class="st5" width="117.5" height="12.5"/>
	<rect x="622.8" y="231.1" class="st5" width="660.1" height="12.5"/>
	<rect x="622.8" y="267.3" class="st5" width="660.1" height="12.5"/>
	<rect x="622.8" y="303.6" class="st5" width="660.1" height="12.5"/>
	<rect x="622.8" y="339.8" class="st5" width="660.1" height="12.5"/>
	<rect x="748.9" y="409" class="st5" width="407.5" height="315"/>
	<ellipse class="st10" cx="1482.1" cy="1031.5" rx="39" ry="7.5"/>
	<ellipse class="st11" cx="1481.4" cy="1028.4" rx="4.5" ry="5.9"/>
	<ellipse class="st11" cx="1481.4" cy="1021.1" rx="4.5" ry="5.9"/>
	<ellipse class="st11" cx="1481.4" cy="1013.8" rx="4.5" ry="5.9"/>
	<ellipse class="st11" cx="1481.4" cy="1006.6" rx="4.5" ry="5.9"/>
	<ellipse class="st11" cx="1481.4" cy="999.3" rx="4.5" ry="5.9"/>
	<ellipse class="st11" cx="1481.4" cy="992.1" rx="4.5" ry="5.9"/>
	<ellipse class="st11" cx="1481.4" cy="984.8" rx="4.5" ry="5.9"/>
	<path class="st10" d="M1498.4,935.1c0.6-0.8,1.2-1.6,1.7-2.5l-11.9-2l12.9,0.1c2.5-5.4,2.7-11.7,0.4-17.2l-17.3,9l16-11.7
		c-5.9-10.5-19.1-14.2-29.6-8.4c-10.5,5.9-14.2,19.1-8.4,29.6c0.6,1.1,1.3,2.1,2.1,3.1c-1,1.2-1.8,2.6-2.5,4l15.5,8.1l-16.5-5.5
		c-2.4,7-1,14.6,3.5,20.4c-7.4,9.4-5.8,23.1,3.6,30.6s23.1,5.8,30.6-3.6c6.2-7.9,6.2-19.1,0-27
		C1504.6,954.1,1504.6,943,1498.4,935.1L1498.4,935.1z"/>
	<path class="st12" d="M1459.6,948.5c0,4.9,1.6,9.6,4.7,13.4c-7.4,9.4-5.8,23.1,3.6,30.6c9.4,7.4,23.1,5.8,30.6-3.6
		c6.2-7.9,6.2-19.1,0-27C1501.3,958.3,1459.6,946.1,1459.6,948.5z"/>
	<ellipse class="st10" cx="279.9" cy="934.7" rx="17.6" ry="3.4"/>
	<ellipse class="st11" cx="279.6" cy="933.2" rx="2.1" ry="2.7"/>
	<ellipse class="st11" cx="279.6" cy="929.9" rx="2.1" ry="2.7"/>
	<ellipse class="st11" cx="279.6" cy="926.7" rx="2.1" ry="2.7"/>
	<ellipse class="st11" cx="279.6" cy="923.4" rx="2.1" ry="2.7"/>
	<ellipse class="st11" cx="279.6" cy="920.1" rx="2.1" ry="2.7"/>
	<ellipse class="st11" cx="279.6" cy="916.8" rx="2.1" ry="2.7"/>
	<ellipse class="st11" cx="279.6" cy="913.5" rx="2.1" ry="2.7"/>
	<path class="st10" d="M287.3,891.1c0.3-0.4,0.5-0.7,0.8-1.1l-5.4-0.9h5.8c1.1-2.5,1.2-5.3,0.2-7.8l-7.8,4.1l7.3-5.3
		c-2.7-4.7-8.8-6.3-13.5-3.5c-4.7,2.7-6.3,8.8-3.5,13.5c0.2,0.4,0.5,0.7,0.7,1.1c-0.4,0.6-0.8,1.2-1.1,1.8l7,3.6l-7.5-2.5
		c-1.1,3.1-0.5,6.6,1.6,9.2c-3.4,4.3-2.6,10.5,1.7,13.8c4.3,3.4,10.5,2.6,13.8-1.7c2.8-3.6,2.8-8.6,0-12.2
		C290.1,899.6,290.1,894.6,287.3,891.1L287.3,891.1z"/>
	<path class="st12" d="M269.8,897.1c0,2.2,0.7,4.4,2.1,6.1c-3.4,4.3-2.6,10.5,1.7,13.8c4.3,3.4,10.5,2.6,13.8-1.7
		c2.8-3.6,2.8-8.6,0-12.2C288.6,901.5,269.8,896,269.8,897.1z"/>
	
		<linearGradient id="SVGID_3_" gradientUnits="userSpaceOnUse" x1="1093.8655" y1="11.3578" x2="1093.8655" y2="742.136" gradientTransform="matrix(1 0 0 -1 -665.04 1006.99)">
		<stop  offset="0" style="stop-color:#808080;stop-opacity:0.25"/>
		<stop  offset="0.54" style="stop-color:#808080;stop-opacity:0.12"/>
		<stop  offset="1" style="stop-color:#808080;stop-opacity:0.1"/>
	</linearGradient>
	<path class="st13" d="M572.9,386.9h-67.7c-2.1,0-3.9,1.5-4.4,3.6l-18.3,90.3c0,0.2,0,0.5,0,0.7l-1.7,0.2l-1.6,0.2
		c-0.1,0-0.2,0-0.3-0.1c-0.5-0.3-0.8-0.9-0.9-1.5c-0.9-3.2-1.5-6.5-1.9-9.8c-0.2-3.6-0.2-7.3,0-10.9c0.1-2.9,0-5.7,0-8.6
		c0.5-3.2,0.8-6.5,0.9-9.7c0.2-3.5-0.2-6.9-1-10.3c-0.5-1.8-1.2-3.6-2-5.3c-0.6-4.9-1.3-9.8-2-14.6c-0.5-3.6-1.1-7.3-1.8-10.8
		c0.2-0.6,0.3-1.2,0.4-1.8c0.8-6-1.6-12-6.4-15.7c-1.5-1.2-3.1-2.2-4.8-2.9c-1.4-0.6-2.9-1.1-4.4-1.5l-23.3-7.3
		c-2.2-3.1-4.4-6.3-6.3-9.6c-1.9-2.9-3.5-6-4.9-9.2c15.7-11.2,20-32.8,9.6-49.1c-0.4-0.6-0.8-1.2-1.2-1.8c0.2-2.8-0.2-5.6-1-8.3
		c-0.2-1-0.5-2-0.9-2.9c-0.6-1.3-1.4-2.4-2.4-3.5c-0.2-0.2-0.4-0.4-0.6-0.6c-1.9-2.1-4.1-4-6.4-5.6c-7.7-5.6-18.1-12.4-27.6-14.7
		c-4.7-1.1-9.6-1.1-14.3-0.1l-0.7-0.2l-1.4-0.3c0.3,0.1,0.7,0.3,1,0.5c-5-1.1-10.2-1-15.1,0.3c-6.2,1.8-8.3,6.7-10.9,12
		c-4.2,8.6-10.6,15.9-18.5,21.2c-5.1,3.4-11.2,6.4-13.6,12c-2.3,5.2-0.7,11.2-0.2,16.9c1.3,15.7-5.4,31-17.8,40.7
		c-7,5.4-16.3,9.9-17.8,18.5c-1.1,6.2,2.4,12.1,5,17.7c5.6,12,7.5,26.6,0.9,38.1c-1.8,3.3-4.4,6.3-5.3,9.9c-1.7,6.4,2,13.4,7.5,17.2
		c5.5,3.7,12.5,4.7,19.2,4.7c1.1,0,2.3,0,3.5-0.2c-0.6,5.6-1.3,11.2-2.2,16.8c-1.3,8.2-3.1,16.5-2.6,24.8c0.3,4.5,1.3,9.2,4.2,12.6
		c4.6,5.5,12.6,6.6,19.7,6.3c11.3-0.4,22.4-3.4,33.7-4c-0.2,0.5-0.3,0.9-0.3,1.5c0,2,1.2,4.1,0.7,6.1c-0.2,0.7-0.6,1.3-1,1.9
		c-2.9,4.3-6.3,9-5.3,14.1c0.5,2.5,2,4.9,1.3,7.4c-0.4,1.1-1.1,2.2-1.9,3.1c-4,5.9-3.1,13.7-2.1,20.8l1.3,0.4
		c-0.4,0.8-0.8,1.6-1.1,2.5c-1.6,3.7-2.6,7.6-2.8,11.6c0.1,4.5,0.9,9,2.3,13.2c2,7.3,4,14.5,6.6,21.5c2.2,6,4.8,11.9,7.4,17.7
		c0.8,1.8,1.6,3.6,2.4,5.4c5,11.2,9.9,22.4,14.9,33.7c0.6,1.3,1.1,2.6,1.5,4c0.3,1.2,0.3,2.4,0.5,3.6c0.8,4.7,3.8,8.6,6.1,12.8
		c7.5,14.1,5.7,31.2,3.6,47.1c1.1,1.1,2.4,2.1,3.7,2.9c-0.2,1.6-0.4,3.2-0.8,4.7c-2,9.1-4.4,18.1-5.7,27.3c-0.7,4.5-1,9-1,13.5
		c0,4.4,1.6,8.8,1.6,13.1c1.1,4.4,2.7,8.5,3.8,12.8c0.5,6.7,1.2,13.4,2.2,20.1c0.3,6.1,0.7,12.1,1,18.2c0.3,5.4,0.6,11-1.9,15.8
		c0,0.2-0.2,0.3-0.3,0.5c-4.3-0.3-8.4,1.6-10.9,5.1c-2.5,3.7-4,8-4.2,12.5c-0.3,1.9-0.1,3.8,0.6,5.6c0.7,1.5,1.9,2.4,2.7,3.8
		c0.8,1.6,1.3,3.2,1.5,5c1.6,10,3.3,20.1,4.1,30.2c0.3,3.1,0.5,6.4,2.3,8.9s5.8,3.8,8.1,1.6c-2.3-11.6-3.4-23.4-3.4-35.3
		c0.8-0.1,1.5-0.1,2.3,0c0.4,2,1.1,4.1,1.7,6.1c0.4,1.5,0.9,2.9,1.5,4.4c-0.2,2,0,5-0.1,6.4c-0.1,6.4-0.1,12.8,0,19.2
		c0.1,3.7,0.2,7.3,0.4,11c0,0.4,0.1,0.8,0.2,1.2c0.1,0.1,0.3,0.2,0.5,0.2c1.2,0,2.5,0,3.7,0c0.1-1.4,0.2-2.9,0.2-4.4
		c0-3.3,0-6.7,0-10c0-2.8,0-5.7,0-8.5c0.9,5.1,2.1,10.2,3.3,15.2l2.6,10.7l0.3,1.1l2.2,9.1c0.1,0.3,0.2,0.6,0.3,0.9
		c0.3,0.4,0.7,0.8,1.1,1.1c9.3,6.8,21.6,8.1,32.2,3.5c0.4-0.2,0.8-0.4,1.1-0.7c0.6-0.8,0.8-1.7,0.7-2.7c-0.1-2.9,0.4-5.8,1.7-8.4
		c0.7-1,1.2-2,1.6-3.1c0.2-1.8-0.1-3.6-1-5.2l-2.4-5.6c1.1,0,2.3-0.2,3.4-0.3c1.7-1.5,0.5-4.5,1.9-6.2c0.6-0.5,1.2-1,1.9-1.5
		c1.8-1.6,1.6-4.4,0.8-6.6c-2.6-7.2-9.5-11.7-16-15.7l-0.8-0.5c-5.3-24.7-14.6-49-12.1-74c0.5-5.3,1.6-10.6,2.5-16
		c4.4-26.3,4.1-53.2,9.1-79.3c2.6-0.1,5.1-0.9,7.4-2.2c4.3-2.6,6.3-7.7,6.9-12.7c0.6-4.9-0.1-9.9,0-14.9c0.1-7.2,1.8-14.2,3.6-21.2
		c2-8.1-1.5-16.8,0.6-24.9c0.8-2.5,1.4-5,1.9-7.6c0.4-3.6-0.3-7.5,1-10.9c0.6-1.6,1.6-3,2.2-4.5c2.9-6.6-0.3-14.5,2.6-21.1
		c0.9-1.5,1.6-3.2,2.1-4.9c0.1-1.4-0.1-2.7-0.5-4c-0.7-3-1.5-6.1-1.9-9.1c-0.2-1.1-0.3-2.1-0.3-3.2c0.1-1.1,0.4-2.3,0.8-3.4
		c2.2-7.6,2.5-15.7,2.7-23.6c0.1-4.2,0.2-8.7-1.5-12.5c-0.5-1.1-1.2-2.2-2-3.2l0.2-0.1c-1.1-4.5-2-9.8-0.4-14.2
		c0.7-1.9,1.9-3.7,1.6-5.7c-0.2-2-1.6-3.4-2.1-5.1c-0.9-2.9,0.5-6,1.3-9c1.5-5.1,1.1-10.5,0.8-15.8c0-1.1-0.2-2.3-0.8-3.3
		c-0.4-0.6-0.9-1.1-1.3-1.7c-0.7-1.6-0.7-3.4,0.1-4.9c0.8-1.5,1.5-3.1,2-4.7c0.1-0.5,0.1-1,0-1.5c1.1-0.5,2-1.2,3.1-1.7
		c4.4-2.3,9.5-2,14.4-2.1c4.9-0.1,10.4-1.1,13.3-5c0.3-0.5,0.7-0.9,1.2-1.2c0.2-0.1,0.3-0.1,0.5-0.2c1.8,0.2,2.9,0.2,2.7-0.2
		c0.8-0.4,1.2-1.2,1.7-2c0.1-0.2,0.3-0.4,0.4-0.6c1.8-1.1,3.7-2,5.7-2.8c-0.4,0-0.7,0-1.1,0c3-1,6.2-1.4,9.4-1.3
		c3,0,8.3,0.4,10.6-1.9c4.4-2.8,5.6-8.3,7.7-13.1c0.7-1.5,1.4-3,2.2-4.5l11.3-1.1c1.9-0.2,3.5-1.6,3.9-3.5l16.9-83.6
		c0.5-2.4-1.1-4.7-3.5-5.2C573.4,386.9,573.1,386.9,572.9,386.9z M359.4,501.5c-5.1,2.2-10.8,2.2-15.9,0c-0.8-0.3-1.6-1.3-1-1.8
		s1.1-0.1,1.6-0.3c0.9-0.5,0.3-1.9-0.3-2.8c-1.5-2.6-0.4-5.9,1-8.6c1.4-2.6,3.3-5.3,3.3-8.3c-0.1-1-0.1-1.9,0-2.9
		c0.5-1.4,1.2-2.6,2.1-3.7c0.3-0.4,0.5-0.8,0.7-1.2c0.4,0.6,0.8,1.2,1.2,1.8c1.3,2,2.6,4,3.9,6c1,1.4,1.7,3,1.9,4.7
		c-0.1,1-0.1,2,0.2,3c0.6,1.3,2.4,2.3,1.7,3.6c-0.7,1.3-0.7,2.9,0,4.3c0.7,1.2,1.7,2.1,2.4,3.3c0.2,0.3,0.4,0.7,0.5,1.1
		C361.7,500.3,360.6,501,359.4,501.5z M500.1,485.8c-0.9,0.2-1.7,0.4-2.6,0.6c-0.1-0.5-0.2-0.8-0.2-0.8l-4.5,1.3
		c-1.7,0.1-3.4-0.3-5-1l18.7-1.8C504.4,484.8,502.3,485.3,500.1,485.8z"/>
	<path class="st11" d="M362.6,281.7c-4.2,8.5-10.5,15.8-18.3,21.1c-5.1,3.4-11,6.3-13.5,11.9c-2.3,5.2-0.7,11.2-0.2,16.8
		c1.3,15.5-5.3,30.7-17.5,40.3c-6.9,5.4-16.1,9.8-17.6,18.4c-1,6.1,2.4,12,5,17.6c5.5,11.9,7.4,26.5,0.9,37.9
		c-1.8,3.2-4.4,6.2-5.3,9.8c-1.7,6.4,1.9,13.3,7.4,17.1c5.5,3.7,12.4,4.7,19,4.7c4.8,0,10-0.7,13.4-4.1c2.3-2.3,3.4-5.4,4.5-8.4
		l8.3-23.6c1.5-4.3,3.1-8.7,6.3-11.9c6.7-6.8,17.7-6.1,27.2-6c14.1,0.2,28.2-2,41.5-6.5c7.8-2.7,16.3-7.2,18.2-15.2
		c1.8-8.1-3.6-15.4-8.3-21.9c-3.5-4.8-6.9-9.8-10.1-15c-3.1-5-6-10.3-6.9-16.1c-1.5-9.6,3.1-19,6.6-28.1c3.5-9.1,5.9-19.9,0.9-28.2
		c-2.2-3.2-5-6-8.3-8.2c-7.7-5.6-17.9-12.4-27.3-14.6c-5-1.2-10.3-1.1-15.3,0.2C367.3,271.6,365.2,276.5,362.6,281.7z"/>
	<path class="st14" d="M465.6,394.5c1.9,6.4,3.2,13,4,19.6c2.3,16,4.7,32.1,4.2,48.3c-0.2,3.6-0.2,7.2,0,10.8c0.4,3.3,1,6.6,1.9,9.8
		c0.1,0.6,0.4,1.1,0.9,1.5c0.6,0.3,1.2,0,1.8-0.1c2.1-0.2,3.6,1.8,5.2,3.1c3.2,2.6,7.7,2.9,11.3,0.8c-1.1,4.9,0.8,9.9,4.8,12.9
		c4.1,2.8,9.1,3.8,13.9,2.5c-2.4-0.4-4.7,1.3-6,3.4c-0.5,0.7-0.8,1.6-1.6,2c-0.8,0.4-2.2-0.1-3.1,0.4c-0.5,0.3-0.9,0.7-1.1,1.2
		c-2.9,3.9-8.3,4.8-13.1,5c-4.8,0.1-10-0.2-14.2,2.1c-1.1,0.6-2,1.3-3.1,1.8c-3.4,1.5-7.4,0-10-2.5c-2.5-2.7-4.3-5.9-5.1-9.5
		c-4.4-14-3.5-29.1-2.6-43.8C454.9,440.4,457.8,416.6,465.6,394.5z"/>
	<path class="st12" d="M465.6,394.5c1.9,6.4,3.2,13,4,19.6c2.3,16,4.7,32.1,4.2,48.3c-0.2,3.6-0.2,7.2,0,10.8c0.4,3.3,1,6.6,1.9,9.8
		c0.1,0.6,0.4,1.1,0.9,1.5c0.6,0.3,1.2,0,1.8-0.1c2.1-0.2,3.6,1.8,5.2,3.1c3.2,2.6,7.7,2.9,11.3,0.8c-1.1,4.9,0.8,9.9,4.8,12.9
		c4.1,2.8,9.1,3.8,13.9,2.5c-2.4-0.4-4.7,1.3-6,3.4c-0.5,0.7-0.8,1.6-1.6,2c-0.8,0.4-2.2-0.1-3.1,0.4c-0.5,0.3-0.9,0.7-1.1,1.2
		c-2.9,3.9-8.3,4.8-13.1,5c-4.8,0.1-10-0.2-14.2,2.1c-1.1,0.6-2,1.3-3.1,1.8c-3.4,1.5-7.4,0-10-2.5c-2.5-2.7-4.3-5.9-5.1-9.5
		c-4.4-14-3.5-29.1-2.6-43.8C454.9,440.4,457.8,416.6,465.6,394.5z"/>
	<path class="st15" d="M394.8,821.8c1.2,5.1,3.2,9.9,4.4,15c0.8,4.4,1.3,8.8,1.5,13.3l1.2,22.5c0.3,5.3,0.6,11-1.8,15.7
		c-1.6,3.3-4.5,6.1-5.3,9.7c-1.3,5.7,2.8,11,6.6,15.4l18.7,21.6c5.8,6.8,12.2,13.9,20.9,16.2c1.3,0.4,2.7,0.5,4,0.1
		c2.4-0.8,3.6-3.7,3.2-6.2c-0.5-2.5-1.7-4.8-3.3-6.8c-4.9-6.9-10.2-13.6-13.3-21.4c-4-9.9-4.5-20.9-4.2-31.6
		c1-43.7,12-86.8,10.7-130.6c-9.5-0.7-19.4-2.3-29-2.2c-8.5,0.1-7.5,8.7-9,15.6c-2,9-4.4,18-5.7,27.1c-0.7,4.5-1,9-1,13.5
		C393.3,813.2,394.8,817.6,394.8,821.8z"/>
	<path class="st16" d="M394.8,821.8c1.2,5.1,3.2,9.9,4.4,15c0.8,4.4,1.3,8.8,1.5,13.3l1.2,22.5c0.3,5.3,0.6,11-1.8,15.7
		c-1.6,3.3-4.5,6.1-5.3,9.7c-1.3,5.7,2.8,11,6.6,15.4l18.7,21.6c5.8,6.8,12.2,13.9,20.9,16.2c1.3,0.4,2.7,0.5,4,0.1
		c2.4-0.8,3.6-3.7,3.2-6.2c-0.5-2.5-1.7-4.8-3.3-6.8c-4.9-6.9-10.2-13.6-13.3-21.4c-4-9.9-4.5-20.9-4.2-31.6
		c1-43.7,12-86.8,10.7-130.6c-9.5-0.7-19.4-2.3-29-2.2c-8.5,0.1-7.5,8.7-9,15.6c-2,9-4.4,18-5.7,27.1c-0.7,4.5-1,9-1,13.5
		C393.3,813.2,394.8,817.6,394.8,821.8z"/>
	<path class="st11" d="M400.4,888.9c-4.4-0.9-8.9,1.5-11.6,5c-2.5,3.7-4,8-4.2,12.4c-0.3,1.9-0.1,3.8,0.6,5.6
		c0.7,1.4,1.9,2.4,2.7,3.7c0.8,1.5,1.3,3.2,1.5,4.9c1.6,10,3.2,20,4.1,30.1c0.3,3.1,0.5,6.3,2.3,8.8c1.8,2.5,5.8,3.7,8,1.6
		c-2.3-11.5-3.4-23.2-3.4-35c5.1-0.7,9.5,3.3,12.9,7.3c3.4,4,6.5,8.2,9.3,12.7c2.4,4.2,5.1,8.2,8.2,11.9c6.8,7.2,16.7,10.6,26.4,9
		c1.7-1.5,0.4-4.4,1.8-6.1c0.6-0.5,1.2-1,1.9-1.5c1.8-1.5,1.6-4.4,0.8-6.5c-2.5-7.1-9.4-11.6-15.8-15.7c-11.6-7.3-23.4-14.5-35-21.5
		c-4.5-2.8-7.8-6.9-9.6-11.9C400.8,902.6,399,888.4,400.4,888.9z"/>
	<path class="st16" d="M400.4,888.9c-4.4-0.9-8.9,1.5-11.6,5c-2.5,3.7-4,8-4.2,12.4c-0.3,1.9-0.1,3.8,0.6,5.6
		c0.7,1.4,1.9,2.4,2.7,3.7c0.8,1.5,1.3,3.2,1.5,4.9c1.6,10,3.2,20,4.1,30.1c0.3,3.1,0.5,6.3,2.3,8.8c1.8,2.5,5.8,3.7,8,1.6
		c-2.3-11.5-3.4-23.2-3.4-35c5.1-0.7,9.5,3.3,12.9,7.3c3.4,4,6.5,8.2,9.3,12.7c2.4,4.2,5.1,8.2,8.2,11.9c6.8,7.2,16.7,10.6,26.4,9
		c1.7-1.5,0.4-4.4,1.8-6.1c0.6-0.5,1.2-1,1.9-1.5c1.8-1.5,1.6-4.4,0.8-6.5c-2.5-7.1-9.4-11.6-15.8-15.7c-11.6-7.3-23.4-14.5-35-21.5
		c-4.5-2.8-7.8-6.9-9.6-11.9C400.8,902.6,399,888.4,400.4,888.9z"/>
	<path class="st15" d="M398.5,809.1c-2.3,29.2,4.2,58.2,10,86.9c0.5,2.3,0.8,4.6,0.9,7c-0.2,2.9-0.7,5.8-1.5,8.7
		c-2.2,11.8,0.6,24,3.4,35.7c1.9,8.1,4.7,17.3,12.2,20.8c5.3,2.5,11.6,1.5,17.4,0.3c1.9-0.2,3.7-0.9,5.2-2.1c2.1-2,2.2-5.2,2-8
		c-2-32.2-18.3-63.1-15.1-95.2c0.5-5.3,1.6-10.6,2.5-15.8c4.5-27.3,3.9-55.4,9.7-82.4c0.3-0.9,0.3-2,0-2.9c-0.5-0.9-1.3-1.7-2.2-2.1
		c-5.3-3.2-10.9-6-17-6.8c-4.8-0.7-10.7-0.1-14.7,2.8c-4,2.9-4.5,9.7-5.7,14.6C402.2,783.1,399.8,796.1,398.5,809.1z"/>
	<path class="st11" d="M406.2,973c0,0.4,0.1,0.8,0.2,1.2c0.1,0.1,0.3,0.2,0.5,0.2c1.2,0,2.4,0,3.6,0c0.1-1.5,0.1-2.9,0.2-4.4v-9.9
		c0-7.9,0-15.8-0.3-23.6c0-0.3,0-0.6-0.1-0.9c-0.1-0.2-0.2-0.3-0.4-0.4c-0.9-0.4-2.9-1.7-3.6-0.2c-0.7,1.5-0.4,6-0.4,7.9
		c-0.1,6.4-0.1,12.7,0,19.1C405.8,965.7,406,969.3,406.2,973z"/>
	<path class="st11" d="M469.9,627.8c0,1.1,0.1,2.1,0.3,3.2c0.5,3,1.2,6.1,1.9,9.1c0.4,1.3,0.6,2.6,0.5,4c-0.4,1.7-1.1,3.4-2,4.9
		c-2.9,6.5,0.2,14.5-2.6,21c-0.7,1.6-1.7,2.9-2.2,4.5c-1.3,3.4-0.6,7.3-1,10.9c-0.5,2.6-1.1,5.1-1.9,7.6c-2,8.1,1.3,16.7-0.6,24.8
		c-1.7,6.9-3.4,13.9-3.5,21.1c-0.1,4.9,0.6,9.9,0,14.8c-0.6,4.9-2.6,10-6.8,12.6c-3.3,2.1-7.4,2.3-11.3,2.4
		c-7.5,0.1-15.1-0.1-22.6-0.7c-7.5-0.6-15.6-1.8-20.9-7.2c2-15.8,3.9-32.8-3.6-46.8c-2.2-4.2-5.2-8.1-6-12.7
		c-0.2-1.2-0.3-2.4-0.5-3.6c-0.3-1.4-0.8-2.7-1.5-4c-4.9-11.2-9.8-22.4-14.7-33.5c-0.8-1.8-1.6-3.6-2.4-5.4
		c-2.5-5.8-5.1-11.6-7.3-17.6c-2.6-7-4.6-14.2-6.5-21.4c-1.4-4.3-2.1-8.7-2.2-13.2c0.2-4,1.1-7.8,2.7-11.5c0.9-2.1,1.9-4.2,2.9-6.2
		c29.2-6.9,59.2-9.5,89.1-7.6c4.8,0.1,9.5,0.9,14.1,2.3c3.1,1.1,5.9,2.9,8.1,5.3c1,1.1,1.9,2.4,2.5,3.8c1.8,3.8,1.6,8.2,1.5,12.4
		c-0.3,7.9-0.5,16-2.7,23.5C470.2,625.5,470,626.6,469.9,627.8z"/>
	<path class="st11" d="M449.4,956.8c-4.4,3.3-9.6,5.5-15.1,6.4c-4.8,0.7-10.2,0.2-14-2.9c-4.4-3.5-5.9-9.4-7.2-14.8l-1.7-7.3
		c-0.6-2.6-1.2-5.2-1.7-7.9c-1.2-7-1.6-14.1-1.1-21.1c-4,1.6-6.4,6.3-6.6,10.5s1.1,8.4,2.3,12.5c0.5,2,1.2,3.9,2.2,5.7
		c0.7,1.2,1.6,2.2,2.2,3.5c0.8,1.8,1.2,3.8,1.3,5.8c0.9,6.6,2.2,13,3.9,19.4l2.6,10.6l0.3,1.1l2.2,9c0.1,0.3,0.2,0.6,0.3,0.9
		c0.3,0.4,0.6,0.8,1.1,1.1c9.2,6.8,21.4,8.1,31.8,3.4c0.4-0.2,0.8-0.4,1.1-0.7c0.6-0.8,0.8-1.7,0.7-2.7c-0.1-2.9,0.4-5.8,1.7-8.4
		c0.7-1,1.2-2,1.6-3.1c0.2-1.8-0.1-3.6-1-5.2l-5.4-12.6C450.6,959,450.1,957.9,449.4,956.8z"/>
	<path class="st15" d="M436.8,434.1c-0.2,2.8-0.7,5.5-1.6,8.1c-0.7,1.9-1.8,3.6-3.3,4.9c-2.5-3.4-6.9-4.5-10.3-7
		c-2.8-2.4-5.2-5.1-7.2-8.2c-4.4-5.8-9.3-11-14-16.4c-0.7-0.8-1.5-1.7-2.1-2.5c-2.4-2.9-4.5-6-6.4-9.2c-3.9-6.7-6.5-14.3-12.4-19.4
		c-3.2-2.8-7.2-4.6-10-7.7c1.7-2.9,2.8-6.2,3.3-9.6c0.7-3.2,1.3-6.5,1.7-9.8c0.1-0.9,0.2-1.7,0.2-2.6c0-0.4,0-0.7,0-1.1
		c0-2.7-1.7-7.3,1-8.8c2.5-1.5,6.6-1.5,9.6-1.4h0.5c6.9,0.1,13.6,2.2,19.3,6c1.3,0.8,2.4,1.8,3.3,3.1c1.3,2.4,1.8,5.2,1.5,7.9
		c0,0.6,0,1.3-0.1,1.9v0.9c-0.1,3.1,0.2,6.4,2.4,8.6c2.2,2.2,6,2.4,9.2,3.4c0.5,0.2,1,0.3,1.5,0.6c3.5,1.6,6.4,4.1,8.6,7.3
		c2.4,3.6,4.1,7.7,5,12c0.9,3.8,1.4,7.7,1.7,11.6C438.5,415.8,438,425,436.8,434.1z"/>
	<path class="st12" d="M409.9,362.3v0.9c-3.9,1.5-13.3-2.6-17.7-2.6c-8.7,0-11.3,1.7-17.6-3.4c0.1-1.2,0.2-2.5,0.2-3.7
		c0-2.7-1.7-7.3,1-8.8s7.1-1.5,10.1-1.4c6.9,0.1,13.6,2.2,19.3,6c1.3,0.8,2.4,1.8,3.3,3.1C410.3,355.2,410.1,358.9,409.9,362.3z"/>
	<path class="st15" d="M433.9,326.1c0,20.1-16.3,36.5-36.4,36.5c-2.4,0-4.7-0.2-7.1-0.7c-17.1-3.4-29.4-18.4-29.4-35.8
		c-0.4-20.1,15.6-36.8,35.8-37.2c20.1-0.4,36.8,15.6,37.2,35.8C433.9,325.2,433.9,325.7,433.9,326.1L433.9,326.1z"/>
	<path class="st10" d="M372.5,369.2c-1.1-1-2.5-1.6-4-1.7c-2.2,0.2-4,1.7-4.8,3.7c-0.9,2-1.2,4.1-1.9,6.1c-1,2.7-2.9,5-5.4,6.6
		c-1.7,1.1-3.8,1.8-4.9,3.5c-1.9,2.6-0.7,6.3,0.8,9.1c5.8,10.5,16.4,17.4,26.5,23.8l11.4,7.3c4.6,3,9.3,5.8,14.2,8.3
		c7.9,3.9,16.5,6.4,24.4,10.4c3.6,1.8,7.3,4,11.2,4.6c0.8-2.7,1.4-5.5,1.6-8.3c2-17.4,3.9-35.2,0-52.3c-0.5-3.3-1.9-6.4-4-9
		c-1.5-1.4-3.2-2.6-5.1-3.5c-4.6-2.5-9.4-4.7-14.3-6.7c-2.3-1.1-4.8-1.7-7.3-1.6c0.2,1.9,0.8,3.8,1.7,5.5
		c6.1,13.6,12.3,27.3,18.4,41c1.3,2.5,2.1,5.3,2.2,8.1c-0.1,4-2.9,7.9-1.7,11.8c-10.7-15.6-23-30-36.6-43c-0.6-0.5-1.1-1.1-1.5-1.8
		c-0.3-1.1-0.4-2.3-0.2-3.4c0.1-2.1-0.3-5-2.1-6.5c-1.2-1-3.1-1.3-4.5-2.2C381.8,375.9,377.2,372.5,372.5,369.2z"/>
	<path class="st12" d="M470,588c-9.2,4.6-19.3,7.4-29.6,8.2c-10.3,0.7-20.6,0.8-30.8,0.2l-23.4-0.9c-10.6-0.4-21.1-1.3-31.2-4.5
		c0.9-2.1,1.9-4.2,2.9-6.2c29.2-6.9,59.2-9.5,89.1-7.6c4.8,0.1,9.5,0.9,14.1,2.3c3.1,1.1,5.9,2.9,8.1,5.3
		C469.5,585.8,469.8,586.9,470,588z"/>
	<path class="st14" d="M468.3,473.9c-4,13.7-1.3,28.6,1.2,42.6c1.4,1,2.1,2.8,1.7,4.5c-0.5,1.6-1.2,3.2-1.9,4.7
		c-0.8,1.5-0.8,3.3-0.1,4.9c0.4,0.6,0.9,1.1,1.3,1.8c0.5,1,0.8,2.1,0.7,3.3c0.3,5.3,0.6,10.7-0.8,15.8c-0.8,2.9-2.2,6-1.3,9
		c0.6,1.8,1.9,3.3,2.1,5.1c0.2,1.8-0.9,3.8-1.6,5.6c-1.6,4.4-0.7,9.6,0.4,14.1c-9.2,4.6-19.3,7.4-29.6,8.2
		c-10.3,0.7-20.6,0.8-30.8,0.2l-23.4-0.9c-10.7-0.4-21.2-1.3-31.4-4.5c-1-7-1.8-14.8,2.1-20.7c0.8-0.9,1.4-2,1.8-3.1
		c0.7-2.4-0.8-4.9-1.3-7.3c-1-5,2.4-9.8,5.3-14c0.4-0.6,0.8-1.2,1-1.9c0.5-1.9-0.6-4.1-0.7-6c0-0.6,0.1-1.1,0.4-1.6
		c0.4-0.8,1.2-1.5,1.7-2.2c0.5-1.1,0.6-2.2,0.4-3.4c-0.5-7.3-1.4-14.6-2.6-21.8c-0.1-0.6-0.2-1.3-0.4-2c-0.2-1-0.6-2-1.1-2.9
		c-0.7-1.2-1.7-2.1-2.4-3.3c-0.7-1.3-0.7-2.9,0-4.3c0.7-1.2-1.1-2.3-1.7-3.5c-0.2-1-0.3-2-0.2-3c-0.2-1.7-0.9-3.3-1.9-4.7
		c-1.3-2-2.6-4-3.9-6c-5.8-9-11.9-17.9-18.1-26.6c-3-4.2-6-8.3-9.1-12.4c-2.5-3.3-5.1-6.7-6.4-10.6c-0.2-0.7-0.4-1.4-0.5-2.1
		c-0.7-3.8-0.2-7.7,1.6-11.2c1.7-2.9,3.6-5.6,5.8-8.1c2.1-3.1,4.3-6.1,6.7-9c2.4-2.9,5.9-4.6,9.7-4.9c2.2,0,4.7,0.6,6.2-0.9
		c0.6-0.6,0.8-1.3,1.5-1.8c1.6-1.5,4.2-0.5,6.1,0.6l36.5,20.6l5.9,3.4c1.1,0.6,2.2,1.3,3.2,1.9c5.1,3,9.9,6.3,14.5,9.9
		c6.8,5.4,14.3,10.4,20.2,16.8c0.6,0.6,1.1,1.2,1.6,1.8c1.1-7.4,2.1-14.9,3.2-22.3c0.4-2.1,0.5-4.3,0.4-6.5
		c-0.3-2.1-0.8-4.2-1.6-6.3c-0.2-0.7-0.5-1.5-0.7-2.2c-1.3-3.9-2.6-7.9-3.9-11.8c-1.9-5.8-4-11.8-8.3-16.1c-1.1-0.9-2-1.9-2.9-3l0,0
		c-0.8-1.1-1.1-2.5-0.7-3.8l30.8,9.6c1.5,0.5,2.9,0.9,4.4,1.5c1.7,0.7,3.3,1.7,4.7,2.9c4.7,3.7,7.1,9.7,6.3,15.7
		c-0.3,1.9-1,3.8-1.4,5.7c-0.7,3.4-1.8,7.4-0.3,10.6c1.5,3.2,2.9,6,4.3,9c1.2,2.3,2.1,4.7,2.9,7.1c0.8,3.4,1.2,6.8,1,10.3
		c-0.2,7.7-1.5,15.3-3.9,22.6C470,469.2,469.1,471.5,468.3,473.9z"/>
	<polygon class="st11" points="405.6,491.2 478.5,484.4 491.3,482.9 479.5,487.1 	"/>
	<polygon class="st11" points="403.9,494.8 403.9,489.3 481.3,485.5 485,488.7 	"/>
	<path class="st15" d="M404.2,484.3c1.6-0.4,3.4-0.3,5-0.7c2.1-0.5,4-1.8,6.2-2.1c1.3-0.1,2.7,0,4,0.3l10,1.7
		c0.8,0.1,1.7,0.4,1.9,1.1c0.1,0.7-0.1,1.4-0.6,1.8c-1.8,1.9-4.7,2.2-7.3,2.3l-7,0.4c-1.4,0-2.7,0.3-3.9,0.9
		c-1.2,0.7-1.8,2.1-1.3,3.5c0.4,0.6,0.9,1.1,1.6,1.5c2.8,1.5,6,2.1,9.1,1.7c2.5-0.5,5-1.2,7.5-2.1c6.1-2,12.6-2.7,19-2
		c1.7,0.2,3.6,0.6,4.2,2.2c0.3,1.1,0.1,2.3-0.7,3.2c-2.5,3.5-7.5,3.6-11.6,4.5c-4,0.9-7.6,2.8-10.7,5.5c0.9,1.9,0.2,4.2-0.8,6
		c-1.1,2.2-2.3,4.3-3.7,6.2c-0.8,1.2-1.9,2.2-3.1,2.8c-0.8,0.3-1.7,0.4-2.6,0.5c-8.7,0.5-17.4,0-25.9-1.5c-0.9-0.1-1.8-0.4-2.5-1
		c-0.4-0.6-0.7-1.3-0.8-2c-0.9-4.4-1.7-8.7-2.3-13.2c-0.7-2.8-0.4-5.7,0.8-8.3c1.1-2,2.8-2.7,4.5-4
		C396.9,490.8,399.2,485.6,404.2,484.3z"/>
	<path class="st11" d="M498.4,393.6l-18.1,89.8c-0.5,2.3,1,4.7,3.3,5.2c0.5,0.1,0.9,0.1,1.4,0.1l68.3-6.7c1.9-0.2,3.5-1.6,3.9-3.5
		l16.7-83.1c0.5-2.4-1-4.7-3.3-5.2c-0.3-0.1-0.7-0.1-1-0.1h-66.9C500.6,390,498.8,391.5,498.4,393.6z"/>
	<path class="st15" d="M532.4,500.5c4.4-2.7,5.6-8.3,7.6-13c1.6-3.4,3.4-6.8,5.5-9.9c1.7-2.9,3.5-6.4,2.1-9.4c-1.1-2-2.9-3.4-5-4.1
		c-1.9-0.9-4.1-1.2-6.2-0.8c-2.4,0.6-4.1,2.6-5.7,4.4l-5.6,6.5c-2.4,3.1-5.3,5.8-8.6,8.1c-2.1,1.1-4.2,2.1-6.5,2.7
		c-4,1.3-8.1,2.5-12.3,3.5c-2.4,0.5-4.7,1.2-6.9,2.1c-0.9,0.3-1.6,1-2,1.9c-0.2,1.1,0.1,2.2,0.7,3.1c1.5,2.7,3.1,8.1,6,9
		c2.8,0.7,5.7,1.2,8.6,1.3c2.9,0.3,5.1-0.9,7.7-1.9c3.2-1.2,6.7-1.8,10.2-1.6C524.9,502.4,530,502.8,532.4,500.5z"/>
	<path class="st14" d="M495,488.3c0,0,2.6,17.3,18.7,15.4c0,0-8.6,3.4-7.7,5.3s-19.9-3.7-19.9-3.7l-1.1-9c0,0-0.7-5,0-5.1
		C485.7,491.1,495,488.3,495,488.3z"/>
	<path class="st12" d="M495,488.3c0,0,2.6,17.3,18.7,15.4c0,0-8.6,3.4-7.7,5.3s-19.9-3.7-19.9-3.7l-1.1-9c0,0-0.7-5,0-5.1
		C485.7,491.1,495,488.3,495,488.3z"/>
	<path class="st12" d="M420.6,416.1c1.6,0.8,2.9,2.1,3.7,3.6c1.4,2.1,2.4,4.5,3,6.9c0.8,2.9,1.2,6.3,3.4,8.5"/>
	<path class="st12" d="M352.8,464c1.2,4.2,0.7,8.7-1.4,12.5c-5.8-9-11.9-17.9-18.1-26.6c-3-4.2-6-8.3-9.1-12.4
		c-2.5-3.3-5.1-6.7-6.4-10.6c-0.2-0.7-0.4-1.4-0.5-2.1c1.5-2.3,3.9-4,6.5-4.7c4.2,12.3,15,21.1,22.7,31.6
		C349.4,455.4,351.5,459.5,352.8,464z"/>
	<path class="st12" d="M406.9,526.9l-25.4,0.9c-2.2,0.1-4.8,0.5-5.5,2.6c-0.2,0.7-0.2,1.4-0.4,2c-0.7,2.3-3.8,2.6-6.2,2.6
		c-2.1,0-4.2,0.1-6.3,0.2c0-0.6,0.1-1.1,0.4-1.6c0.4-0.8,1.2-1.5,1.7-2.2c0.5-1.1,0.6-2.2,0.4-3.4c-0.5-7.3-1.4-14.6-2.6-21.8
		c-0.1-0.6-0.2-1.3-0.4-2c2-1.3,4.3-2,6.6-2c2.1,0.2,4,1.5,6.1,1.3c3.6-0.2,6.1-4.2,9.8-4.5c0.8,0.1,1.6,0,2.3-0.3
		c1.1-0.6,1.3-2.1,1.9-3.2c0.9-1.7,3.3-2.1,5.2-1.7c-0.1,3.8,0.2,7.7,0.7,11.5c0.2,1.7,0.6,3.3,1.2,4.9c0.7,1.6,1.6,3.1,2.6,4.5
		C401.6,518.9,404.2,522.8,406.9,526.9z"/>
	<path class="st14" d="M322.5,418.8c-4.5,1.1-7.7,5.4-9,9.8c-1.3,4.5-1.1,9.2-1,13.9c0.4,17.3-0.7,34.6-3.5,51.6
		c-1.3,8.2-3,16.4-2.5,24.7c0.3,4.5,1.3,9.1,4.2,12.6c4.5,5.4,12.4,6.5,19.5,6.3c12.7-0.5,25.2-4.2,37.9-4.1c2.4,0,5.5-0.3,6.2-2.6
		c0.2-0.6,0.2-1.3,0.4-2c0.7-2.1,3.3-2.5,5.5-2.6l25.4-0.9c-2.7-4-5.3-8-8.1-12c-1-1.4-1.9-2.9-2.6-4.5c-0.6-1.6-1-3.2-1.2-4.9
		c-0.5-3.8-0.8-7.6-0.7-11.5c-1.8-0.4-4.4,0-5.2,1.6c-0.6,1.1-0.8,2.7-1.9,3.2c-0.7,0.3-1.5,0.3-2.3,0.3c-3.6,0.2-6.1,4.4-9.7,4.5
		c-2.1,0.1-4-1.1-6.1-1.3c-3.3-0.3-6.2,1.8-9.3,3.2c-5,2.2-10.7,2.2-15.7,0c-0.7-0.3-1.6-1.2-1-1.8c0.6-0.6,1.1-0.1,1.6-0.3
		c0.9-0.5,0.2-1.8-0.3-2.7c-1.5-2.6-0.4-5.8,1-8.5c1.4-2.7,3.2-5.2,3.3-8.2c-0.1-1-0.1-1.9,0-2.9c0.5-1.4,1.2-2.6,2.1-3.7
		c2.5-4,3.1-8.8,1.9-13.3c-1.3-4.4-3.5-8.6-6.3-12.2C337.5,439.9,326.7,431,322.5,418.8z"/>
	<path class="st12" d="M391.2,410.1l5.9,3.4c-1.8,0.8-3.7,1.6-5.6,2.2c-13.3,4.5-8.6,10.7-22.7,10.5c-9.6-0.1-20.5-0.8-27.2,6
		c-3.2,3.2-4.8,7.6-6.3,11.9c-0.7,1.9-1.4,3.9-2.1,5.8c-3-4.2-6-8.3-9.1-12.4c-2.5-3.3-5.1-6.7-6.4-10.6c-1.4-4.4-1-9.2,1-13.3
		c1.7-2.9,3.6-5.6,5.8-8.1c2.1-3.1,4.3-6.1,6.7-9c2.4-2.9,5.9-4.6,9.7-4.9c2.2,0,4.7,0.6,6.2-0.9c0.6-0.6,0.8-1.3,1.5-1.8
		c1.6-1.5,4.2-0.5,6.1,0.6L391.2,410.1z"/>
	<path class="st11" d="M426.5,299.2c-0.2-1.7-0.6-3.4-1.3-5.1c-0.6-1.3-1.4-2.4-2.4-3.4c-6.2-7-15.1-11.1-24.5-11.1
		c-0.8-0.1-1.6,0.1-2.4,0.4c-0.2,0.1-0.4,0.2-0.5,0.3c-6.7-4.5-14.5-8.9-21.8-10.7c-5-1.2-10.3-1.1-15.3,0.2
		c-6.1,1.8-8.2,6.7-10.8,12c-4.2,8.5-10.5,15.8-18.3,21.1c-5,3.4-11,6.3-13.5,11.9c-2.3,5.2-0.7,11.2-0.2,16.8
		c1.3,15.5-5.3,30.7-17.5,40.3c-6.9,5.4-16.1,9.8-17.6,18.4c-1,6.1,2.4,12,5,17.6c5.5,11.9,7.4,26.5,0.9,37.9
		c-1.8,3.2-4.4,6.2-5.3,9.8c-1.7,6.4,1.9,13.3,7.4,17.1c5.5,3.7,12.4,4.7,19,4.7c4.8,0,10-0.7,13.4-4.1c2.1-2.4,3.7-5.3,4.5-8.4
		c2.8-7.9,5.6-15.8,8.4-23.6c1.5-4.3,3.1-8.7,6.3-11.9c6.7-6.8,17.7-6.1,27.2-6c14.1,0.2,9.3-6,22.7-10.5
		c7.8-2.6,16.4-7.1,18.2-15.2s-3.6-15.4-8.3-21.9c-3.6-4.8-6.9-9.8-10.1-15c-3.1-5-6-10.3-6.9-16.1c-1.5-9.6,22-15,25.5-24.1
		c1-2.6,1.8-5.2,2.5-7.9c1.7-0.1,3.2-0.3,4.4-0.3c4.5-0.2,9.5-2,11.1-6.2C427,304,427.1,301.6,426.5,299.2z"/>
	<g class="st17">
		<path d="M387.1,276.8c0.8-0.3,1.6-0.4,2.4-0.4h0.3c-4.9-3.1-10.3-5.5-16-7.1l-1.3-0.3c4.9,2.3,9.7,5,14.2,8
			C386.8,277,387,276.9,387.1,276.8z"/>
		<path d="M426.5,299c-0.2-1.7-0.6-3.4-1.3-5.1c-0.6-1.3-1.4-2.4-2.4-3.4c-5-5.6-11.7-9.3-19-10.6c3.9,1.9,7.3,4.5,10.2,7.7
			c1,1,1.7,2.2,2.4,3.4c0.7,1.6,1.1,3.3,1.3,5.1c0.6,2.3,0.5,4.7-0.1,7c-1.5,4.2-6.6,6-11,6.2c-1.1,0-2.7,0.2-4.4,0.3
			c-0.7,2.7-1.5,5.3-2.5,7.9c-3.5,9.1-26.9,14.5-25.5,24.1c0.8,5.8,3.8,11.1,6.9,16.1c3.1,5,6.5,10.2,10.1,15
			c4.7,6.5,10.2,14,8.3,21.9c-1.8,7.9-10.3,12.6-18.2,15.2c-13.3,4.5-8.6,10.7-22.7,10.5c-9.6-0.1-20.5-0.8-27.2,6
			c-3.2,3.2-4.8,7.6-6.3,11.9l-8.4,23.6c-0.9,3.1-2.4,6-4.5,8.4c-3.4,3.4-8.6,4.1-13.4,4.1c-2.7,0-5.5-0.2-8.2-0.6
			c5.1,2.8,11.2,3.6,17,3.5c4.8,0,10-0.7,13.4-4.1c2.1-2.4,3.7-5.3,4.5-8.4c2.8-7.9,5.6-15.8,8.4-23.6c1.5-4.3,3.1-8.7,6.3-11.9
			c6.7-6.8,17.7-6.1,27.2-6c14.1,0.2,9.3-6,22.7-10.5c7.8-2.6,16.4-7.1,18.2-15.2c1.8-8.1-3.6-15.4-8.3-21.9
			c-3.6-4.8-6.9-9.8-10.1-15c-3.1-5-6-10.3-6.9-16.1c-1.5-9.6,22-15,25.5-24.1c1-2.6,1.8-5.2,2.5-7.9c1.7-0.1,3.2-0.3,4.4-0.3
			c4.5-0.2,9.5-2,11.1-6.2C427.1,303.7,427.1,301.3,426.5,299z"/>
	</g>
	<path class="st18" d="M845.1,537.2c-1.2,9.3-2.7,37.9,14.3,60.2c15.7,20.8,34.9,29.8,37.9,56c0.7,4,0.5,8.2-0.6,12.1
		c-35.7-21.7-56.2-51.9-56.2-96.3C840.5,558.4,842,547.6,845.1,537.2z"/>
	<path class="st18" d="M907.2,466.8c-7.8,5.3-14.4,12.2-19.3,20.3c-40.4,74.4,41.7,106.2,38.7,157.2c-0.3,10.6-3.2,21-8.5,30.3
		c-5-1.6-9.9-3.5-14.6-5.8c4.5-10.7,4.9-22.6,1.2-33.5c-7.6-25.5-45.1-53.1-45.7-92C858.4,512.9,874.7,479.5,907.2,466.8z"/>
	<path class="st18" d="M965.3,559.6h93.5c0.5,7.3,0.7,12.1,0.7,15.6c0,40-18.9,66.9-51.7,87.8c-16.5,10.3-35.4,16.1-54.9,16.7
		c17.6-17,31.5-41.1,30-68C981.7,587.7,972.4,575.9,965.3,559.6z"/>
	<path class="st18" d="M953.4,448.6c-6.1,3.7-41.4,26.6-30.1,79.6c6.1,29,41.9,62.3,40.4,99.4c-1,26.7-16.3,46.4-20.5,51.9
		c-5.5-0.3-11-1.1-16.4-2.4c7.2-11.8,11.9-24.8,13.8-38.5c5.1-48.6-44.4-69.6-42.2-119.2C899.9,484.5,919.7,459.8,953.4,448.6z"/>
</g>
</svg>
