<?xml version="1.0" encoding="utf-8"?>
<!-- Generator: Adobe Illustrator 25.1.0, SVG Export Plug-In . SVG Version: 6.00 Build 0)  -->
<svg version="1.1" id="Layer_1" xmlns="http://www.w3.org/2000/svg" xmlns:xlink="http://www.w3.org/1999/xlink" x="0px" y="0px"
	 viewBox="0 0 1920 1080" style="enable-background:new 0 0 1920 1080;" xml:space="preserve">
<style type="text/css">
	.st0{fill:#FEC84E;stroke:#000000;stroke-miterlimit:10;}
	.st1{fill:none;}
	.st2{font-family:'OCRAExtended';}
	.st3{font-size:200px;}
	.st4{fill:#FEC84E;stroke:#231F20;stroke-width:10;stroke-miterlimit:10;}
	.st5{font-size:50px;}
	.st6{fill:none;stroke:#000000;stroke-width:3;stroke-miterlimit:10;}
</style>
<rect class="st0" width="1920" height="1080"/>
<path class="st1" d="M-371.6,660.8c0,43.3-35.1,78.4-78.4,78.4V582.4C-406.7,582.4-371.6,617.5-371.6,660.8z"/>
<line class="st1" x1="-450" y1="921.5" x2="-450" y2="739.2"/>
<line class="st1" x1="-450" y1="582.4" x2="-450" y2="415.1"/>
<g>
	<g>
		<text transform="matrix(1 0 0 1 462.0611 450.7066)" class="st2 st3">lemoons</text>
		<path class="st4" d="M1437.9,384.4c0,35.1-28.4,63.5-63.5,63.5c-5.9,0-11.7-0.8-17.1-2.3c26.8-7.5,46.4-32,46.4-61.2
			c0-29.2-19.7-53.7-46.4-61.2c5.4-1.5,11.2-2.3,17.1-2.3C1409.5,320.9,1437.9,349.4,1437.9,384.4z"/>
	</g>
	<g>
		<text transform="matrix(1 0 0 1 470.6592 554.9586)" class="st2 st5">Match, chat, and meet new aliens.</text>
		<text transform="matrix(1 0 0 1 475.6096 688.0496)" class="st2 st5">LOGIN TO EXISTING ACCOUNT .......</text>
		<text transform="matrix(1 0 0 1 475.6093 822.9185)" class="st2 st5">CREATE A NEW ACCOUNT ............</text>
	</g>
</g>
<path class="st6" d="M1472,719.2H472.3c-10,0-18.1-8.1-18.1-18.1v-62.5c0-10,8.1-18.1,18.1-18.1H1472c10,0,18.1,8.1,18.1,18.1V701
	C1490.2,711,1482,719.2,1472,719.2z"/>
<path class="st6" d="M1472,851.9H472.3c-10,0-18.1-8.1-18.1-18.1v-62.5c0-10,8.1-18.1,18.1-18.1H1472c10,0,18.1,8.1,18.1,18.1v62.5
	C1490.2,843.8,1482,851.9,1472,851.9z"/>
</svg>
