<?xml version="1.0" encoding="utf-8"?>
<!-- Generator: Adobe Illustrator 24.1.1, SVG Export Plug-In . SVG Version: 6.00 Build 0)  -->
<svg version="1.1" id="Layer_1" xmlns="http://www.w3.org/2000/svg" xmlns:xlink="http://www.w3.org/1999/xlink" x="0px" y="0px"
	 viewBox="0 0 1133.9 1133.9" style="enable-background:new 0 0 1133.9 1133.9;" xml:space="preserve">
<style type="text/css">
	.st0{fill:#2B1D17;}
	.st1{fill:#010101;}
	.st2{fill:#F4B486;}
	.st3{fill:#FAC696;}
	.st4{fill:none;stroke:#2B1D17;stroke-width:25.446;stroke-miterlimit:10;}
	.st5{fill:#FFFFFF;}
	.st6{fill:#E9A27B;}
</style>
<g>
	<g>
		<path class="st0" d="M402.4,960c-122.4,0-222.1-86.3-222.1-192.5V434c0-75.4,33.9-146.3,95.3-199.6
			c61.5-53.4,143.3-82.8,230.4-82.8h99.1c86.8,0,168.4,29.3,229.7,82.5c61.3,53.2,95.1,123.9,95.1,199.1v335.2
			C929.9,874,830.8,960,709,960H402.4z"/>
		<path class="st1" d="M605.1,152.6c43.7,0,86.2,7.4,126.1,22.1c38.6,14.1,73.2,34.4,102.9,60.2c29.7,25.8,53,55.8,69.3,89.2
			c16.8,34.6,25.4,71.3,25.4,109.1v335.2c0,25.7-5.8,50.6-17.2,74c-11.1,22.7-26.9,43-47.1,60.5c-20.2,17.5-43.7,31.3-69.9,40.9
			c-27.1,10-56,15-85.7,15H402.4c-29.9,0-58.9-5.1-86.1-15.1c-26.3-9.7-50-23.5-70.3-41.1c-20.3-17.6-36.2-38.1-47.3-60.8
			c-11.5-23.6-17.3-48.6-17.3-74.4V434c0-37.9,8.6-74.8,25.5-109.4c16.3-33.5,39.7-63.6,69.5-89.4c29.8-25.9,64.5-46.2,103.2-60.4
			c40-14.7,82.6-22.1,126.5-22.1L605.1,152.6 M605.1,150.5H506c-180.5,0-326.8,126.9-326.8,283.5v333.5
			c0,106.9,99.9,193.5,223.1,193.5H709c122.6,0,222-86.2,222-192.6V433.2C931,277.1,785.1,150.5,605.1,150.5L605.1,150.5z"/>
	</g>
	<path class="st2" d="M630.3,832v129H490V832c0-9,7.9-16.4,17.6-16.4h105.2C622.4,815.7,630.3,823,630.3,832z"/>
	<g>
		<path class="st3" d="M502.2,877.2h105.5c132.7,0,240.3-107.6,240.3-240.3V418.8c0-93.2-75.6-168.8-168.8-168.8H430.6
			c-92.8,0-168.1,75.3-168.1,168.1v219.5C262.5,769.9,369.8,877.2,502.2,877.2z"/>
	</g>
	<g>
		<path class="st0" d="M609.5,214.5c0,12-1.3,23.8-3.8,35.4c-7.3,34.3-25.1,66.3-51.1,94.2c-61.5,66.2-168.9,110.1-290.9,110.1
			c-0.4,0-0.8,0-1.2,0c-28.7-0.1-56.6-2.5-83.2-7.2v-13c0-156.5,146.3-283.5,326.8-283.5h91.1C605.2,170.9,609.5,192.3,609.5,214.5z
			"/>
	</g>
	<g>
		<path class="st0" d="M931,433.2v13.7c-26.6,4.7-54.3,7.2-83,7.4c-0.8,0-1.6,0-2.4,0c-122.1,0-229.4-43.8-290.9-110
			c-26-28-43.8-59.9-51.1-94.2c-2.5-11.5-3.8-23.4-3.8-35.4c0-22.2,4.3-43.7,12.5-64h92.9C785.1,150.5,931,277.1,931,433.2z"/>
	</g>
	<path class="st4" d="M362.5,535.7c0-20.8,21.4-37.6,47.9-37.6s47.9,16.8,47.9,37.6"/>
	<path class="st5" d="M664.5,694.4c0,50-46.7,90.5-104.3,90.5s-104.3-40.5-104.3-90.5L664.5,694.4L664.5,694.4z"/>
	<ellipse class="st6" cx="349.7" cy="647.4" rx="34.2" ry="31.7"/>
	<path class="st2" d="M563.4,646.9h-6.6c-8,0-14.4-6.5-14.4-14.4v-35.8c0-8,6.5-14.4,14.4-14.4h6.6c8,0,14.4,6.5,14.4,14.4v35.8
		C577.8,640.5,571.4,646.9,563.4,646.9z"/>
	<path class="st4" d="M650.9,535.2c0-20.8,21.4-37.6,47.9-37.6s47.9,16.8,47.9,37.6"/>
	<ellipse class="st6" cx="754.9" cy="646.2" rx="34.2" ry="31.7"/>
</g>
</svg>
