<?xml version="1.0" encoding="utf-8"?>
<!-- Generator: Adobe Illustrator 24.1.1, SVG Export Plug-In . SVG Version: 6.00 Build 0)  -->
<svg version="1.1" id="Layer_1" xmlns="http://www.w3.org/2000/svg" xmlns:xlink="http://www.w3.org/1999/xlink" x="0px" y="0px"
	 viewBox="0 0 1133.86 1133.86" style="enable-background:new 0 0 1133.86 1133.86;" xml:space="preserve">
<style type="text/css">
	.st0{fill:#F5E3E6;}
	.st1{fill:#2B1D17;}
	.st2{fill:#010101;}
	.st3{fill:#F4B486;}
	.st4{fill:#FAC696;}
	.st5{fill:none;stroke:#2B1D17;stroke-width:25.446;stroke-miterlimit:10;}
	.st6{fill:#FFFFFF;}
	.st7{fill:#E9A27B;}
</style>
<rect class="st0" width="1133.86" height="1133.86"/>
<g>
	<g>
		<path class="st1" d="M402.36,959.95c-122.44,0-222.05-86.35-222.05-192.48V433.95c0-75.4,33.86-146.3,95.34-199.63
			c61.53-53.37,143.34-82.77,230.37-82.77h99.11c86.79,0,168.37,29.31,229.73,82.54c61.31,53.19,95.08,123.89,95.08,199.08V768.4
			c0,105.62-99.13,191.55-220.98,191.55H402.36z"/>
		<path class="st2" d="M605.14,152.6c43.74,0,86.17,7.43,126.11,22.09c38.56,14.15,73.19,34.4,102.93,60.2
			c29.71,25.77,53.04,55.78,69.32,89.19c16.85,34.56,25.4,71.27,25.4,109.1V768.4c0,25.68-5.8,50.59-17.24,74.05
			c-11.06,22.68-26.89,43.05-47.07,60.55c-20.2,17.52-43.72,31.28-69.92,40.89c-27.14,9.96-55.97,15.01-85.7,15.01H402.36
			c-29.87,0-58.85-5.07-86.12-15.08c-26.33-9.66-49.97-23.48-70.26-41.09c-20.27-17.59-36.19-38.06-47.3-60.85
			c-11.49-23.57-17.32-48.61-17.32-74.41V433.95c0-37.94,8.57-74.75,25.47-109.41c16.33-33.5,39.72-63.59,69.52-89.43
			c29.82-25.86,64.54-46.17,103.21-60.36c40.05-14.7,82.6-22.15,126.47-22.15H605.14 M605.14,150.5h-99.11
			c-180.47,0-326.76,126.91-326.76,283.45v333.52c0,106.89,99.88,193.53,223.1,193.53h306.61C831.59,961,931,874.77,931,768.4
			V433.18C931,277.07,785.1,150.5,605.14,150.5L605.14,150.5z"/>
	</g>
	<path class="st3" d="M630.29,832.05V961H490.01V832.05c0-9.04,7.87-16.36,17.57-16.36h105.15
		C622.42,815.69,630.29,823.02,630.29,832.05z"/>
	<g>
		<path class="st4" d="M502.2,877.22h105.53c132.72,0,240.31-107.59,240.31-240.31V418.75c0-93.24-75.59-168.83-168.83-168.83H430.6
			c-92.83,0-168.09,75.26-168.09,168.09v219.52C262.5,769.91,369.82,877.22,502.2,877.22z"/>
	</g>
	<g>
		<path class="st1" d="M609.55,214.53c0,12.02-1.28,23.84-3.76,35.39c-7.32,34.33-25.14,66.27-51.14,94.24
			c-61.54,66.21-168.85,110.05-290.94,110.05c-0.4,0-0.82,0-1.22-0.01c-28.7-0.06-56.59-2.55-83.24-7.2v-13.05
			c0-156.55,146.3-283.45,326.76-283.45h91.05C605.21,170.88,609.55,192.35,609.55,214.53z"/>
	</g>
	<g>
		<path class="st1" d="M931,433.18v13.66c-26.56,4.68-54.34,7.22-82.96,7.35c-0.8,0.01-1.62,0.01-2.44,0.01
			c-122.08,0-229.4-43.84-290.94-110.05c-26-27.97-43.82-59.91-51.14-94.24c-2.48-11.54-3.76-23.36-3.76-35.39
			c0-22.18,4.34-43.65,12.48-64.03h92.89C785.1,150.5,931,277.07,931,433.18z"/>
	</g>
	<path class="st5" d="M362.53,535.69c0-20.75,21.44-37.57,47.88-37.57c26.44,0,47.88,16.82,47.88,37.57"/>
	<path class="st6" d="M664.45,694.44c0,49.97-46.7,90.47-104.3,90.47s-104.3-40.51-104.3-90.47H664.45z"/>
	<ellipse class="st7" cx="349.72" cy="647.42" rx="34.16" ry="31.74"/>
	<path class="st3" d="M563.44,646.92h-6.58c-7.95,0-14.4-6.45-14.4-14.4v-35.76c0-7.95,6.45-14.4,14.4-14.4h6.58
		c7.95,0,14.4,6.45,14.4,14.4v35.76C577.84,640.47,571.39,646.92,563.44,646.92z"/>
	<path class="st5" d="M650.93,535.18c0-20.75,21.44-37.57,47.88-37.57s47.88,16.82,47.88,37.57"/>
	<ellipse class="st7" cx="754.92" cy="646.16" rx="34.16" ry="31.74"/>
</g>
</svg>
