<?xml version="1.0" encoding="utf-8"?>
<!-- Generator: Adobe Illustrator 24.1.1, SVG Export Plug-In . SVG Version: 6.00 Build 0)  -->
<svg version="1.1" id="Layer_1" xmlns="http://www.w3.org/2000/svg" xmlns:xlink="http://www.w3.org/1999/xlink" x="0px" y="0px"
	 viewBox="0 0 1920 1080" style="enable-background:new 0 0 1920 1080;" xml:space="preserve">
<style type="text/css">
	.st0{fill:#F5E3E6;}
	.st1{fill:#2A1D17;}
	.st2{fill:#F5B486;}
	.st3{fill:#FAC596;}
	.st4{fill:none;stroke:#2A1D17;stroke-width:21.6075;stroke-miterlimit:10;}
	.st5{fill:#FFFFFF;}
	.st6{fill:#E8A17B;}
</style>
<rect class="st0" width="1920" height="1080"/>
<g>
	<g>
		<path class="st1" d="M805.15,886.02c-100.35,0-182-75.96-182-169.34V423.32c0-66.34,27.76-128.72,78.17-175.64
			c50.43-46.94,117.48-72.79,188.8-72.79h81.25c71.13,0,137.99,25.78,188.28,72.59c50.27,46.79,77.96,109,77.96,175.16V717.5
			c0,92.92-81.25,168.52-181.12,168.52H805.15z"/>
		<path d="M971.38,175.79c35.84,0,70.6,6.53,103.32,19.42c31.6,12.44,59.98,30.25,84.35,52.93c24.36,22.67,43.48,49.07,56.84,78.47
			c13.82,30.42,20.83,62.73,20.83,96.04V717.5c0,44.75-18.73,86.83-52.74,118.48c-34.05,31.69-79.32,49.14-127.48,49.14H805.15
			c-48.4,0-93.9-17.54-128.11-49.38c-34.18-31.81-53-74.09-53-119.07V423.32c0-33.4,7.03-65.8,20.89-96.31
			c13.39-29.47,32.57-55.95,57-78.68c24.44-22.74,52.89-40.6,84.58-53.08c32.82-12.92,67.68-19.47,103.61-19.47H971.38 M971.38,174
			h-81.25c-147.94,0-267.87,111.63-267.87,249.32v293.36c0,94.02,81.88,170.23,182.89,170.23h251.35
			c100.52,0,182.01-75.85,182.01-169.41V422.64C1238.51,285.33,1118.91,174,971.38,174L971.38,174z"/>
	</g>
	<path class="st2" d="M992,773.49v113.42H877V773.49c0-7.95,6.45-14.39,14.4-14.39h86.2C985.55,759.1,992,765.54,992,773.49z"/>
	<g>
		<path class="st3" d="M930.19,813.22L930.19,813.22c132.72,0,240.31-107.59,240.31-240.31V430.28
			c0-93.24-75.59-168.83-168.83-168.83H858.59c-92.84,0-168.09,75.26-168.09,168.09v143.99C690.5,705.9,797.81,813.22,930.19,813.22
			z"/>
	</g>
	<g>
		<path class="st1" d="M975,230.32c0,10.57-1.05,20.97-3.08,31.12c-6,30.19-20.61,58.29-41.92,82.89
			c-50.45,58.24-138.42,96.8-238.5,96.8c-0.33,0-0.67,0-1-0.01c-23.53-0.06-46.39-2.24-68.24-6.33v-11.48
			c0-137.7,119.93-249.32,267.87-249.32h74.64C971.44,191.93,975,210.81,975,230.32z"/>
	</g>
	<g>
		<path class="st1" d="M1238.51,422.64v12.02c-21.77,4.11-44.55,6.35-68.01,6.47c-0.66,0.01-1.33,0.01-2,0.01
			c-100.08,0-188.05-38.56-238.5-96.8c-21.31-24.6-35.92-52.7-41.92-82.89c-2.03-10.15-3.08-20.55-3.08-31.12
			c0-19.51,3.56-38.39,10.23-56.32h76.15C1118.91,174,1238.51,285.33,1238.51,422.64z"/>
	</g>
	<path class="st4" d="M772.5,512.81c0-18.25,17.57-33.04,39.25-33.04S851,494.56,851,512.81"/>
	<path class="st5" d="M1020,652.45c0,43.95-38.28,79.58-85.5,79.58S849,696.4,849,652.45H1020z"/>
	<ellipse class="st6" cx="762" cy="611.08" rx="28" ry="27.92"/>
	<path class="st2" d="M934.6,610.64h-0.21c-7.95,0-14.4-6.45-14.4-14.4v-27.98c0-7.95,6.45-14.4,14.4-14.4h0.21
		c7.95,0,14.4,6.45,14.4,14.4v27.98C949,604.2,942.55,610.64,934.6,610.64z"/>
	<path class="st4" d="M1008.92,512.37c0-18.25,17.57-33.04,39.25-33.04c21.68,0,39.25,14.79,39.25,33.04"/>
	<ellipse class="st6" cx="1094.17" cy="609.98" rx="28" ry="27.92"/>
</g>
</svg>
