<?xml version="1.0" encoding="utf-8"?>
<!-- Generator: Adobe Illustrator 24.1.1, SVG Export Plug-In . SVG Version: 6.00 Build 0)  -->
<svg version="1.1" id="_x31_c549851-e1f5-47c2-9f19-cda9fc007f23"
	 xmlns="http://www.w3.org/2000/svg" xmlns:xlink="http://www.w3.org/1999/xlink" x="0px" y="0px" viewBox="0 0 742 751"
	 style="enable-background:new 0 0 742 751;" xml:space="preserve">
<style type="text/css">
	.st0{fill:url(#SVGID_1_);}
	.st1{fill:url(#SVGID_2_);}
	.st2{fill:#FFFFFF;}
	.st3{fill:#514C4D;}
	.st4{fill:#BDBDBD;}
	.st5{fill:#F5F5F5;}
	.st6{fill:#DCCCCF;}
	.st7{opacity:0.2;enable-background:new    ;}
	.st8{fill:url(#SVGID_3_);}
	.st9{fill:#EFE4EA;}
	.st10{fill:#2B1D17;}
	.st11{fill:#010101;}
	.st12{fill:#F4B486;}
	.st13{fill:#FAC696;}
	.st14{fill:none;stroke:#2B1D17;stroke-width:2.7429;stroke-miterlimit:10;}
	.st15{fill:#E9A27B;}
	.st16{fill:#F8F8F8;}
	.st17{fill:none;}
</style>
<linearGradient id="SVGID_1_" gradientUnits="userSpaceOnUse" x1="372" y1="33" x2="372" y2="741.33" gradientTransform="matrix(1 0 0 -1 0 752)">
	<stop  offset="0" style="stop-color:#808080;stop-opacity:0.25"/>
	<stop  offset="0.54" style="stop-color:#808080;stop-opacity:0.12"/>
	<stop  offset="1" style="stop-color:#808080;stop-opacity:0.1"/>
</linearGradient>
<rect x="102.6" y="10.7" class="st0" width="538.8" height="708.3"/>
<linearGradient id="SVGID_2_" gradientUnits="userSpaceOnUse" x1="372" y1="472.02" x2="372" y2="742" gradientTransform="matrix(1 0 0 -1 0 752)">
	<stop  offset="0" style="stop-color:#B3B3B3;stop-opacity:0.25"/>
	<stop  offset="0.54" style="stop-color:#B3B3B3;stop-opacity:0.1"/>
	<stop  offset="1" style="stop-color:#B3B3B3;stop-opacity:5.000000e-02"/>
</linearGradient>
<rect x="102" y="10" class="st1" width="540" height="270"/>
<rect x="109.5" y="16.1" class="st2" width="525" height="691.8"/>
<rect x="108.9" y="15.5" class="st3" width="526.2" height="263.7"/>
<rect x="219.6" y="353.6" class="st4" width="142.7" height="10.9"/>
<rect x="219.6" y="397.1" class="st5" width="142.7" height="10.9"/>
<rect x="219.6" y="375.4" class="st6" width="372.6" height="10.9"/>
<rect x="315.1" y="114.1" class="st2" width="142.7" height="10.9"/>
<rect x="315.1" y="138.3" class="st2" width="229.8" height="10.9"/>
<path class="st7" d="M363.7,169.7h132.7c2.8,0,5,2.2,5,5v2.1c0,2.8-2.2,5-5,5H363.7c-2.8,0-5-2.2-5-5v-2.1
	C358.7,172,360.9,169.7,363.7,169.7z"/>
<circle class="st6" cx="158.5" cy="366.3" r="25.4"/>
<rect x="219.6" y="458.8" class="st4" width="142.7" height="10.9"/>
<rect x="219.6" y="502.4" class="st5" width="142.7" height="10.9"/>
<rect x="219.6" y="480.6" class="st6" width="372.6" height="10.9"/>
<circle class="st6" cx="158.5" cy="471.5" r="25.4"/>
<rect x="219.6" y="564.1" class="st4" width="142.7" height="10.9"/>
<rect x="219.6" y="607.6" class="st5" width="142.7" height="10.9"/>
<rect x="219.6" y="585.8" class="st6" width="372.6" height="10.9"/>
<circle class="st6" cx="158.5" cy="576.8" r="25.4"/>
<linearGradient id="SVGID_3_" gradientUnits="userSpaceOnUse" x1="-359.9215" y1="674.4473" x2="-354.2016" y2="537.6673" gradientTransform="matrix(-1 1.000000e-02 1.000000e-02 1 -160.2201 -460.49)">
	<stop  offset="0" style="stop-color:#000000;stop-opacity:0.12"/>
	<stop  offset="0.55" style="stop-color:#000000;stop-opacity:9.000000e-02"/>
	<stop  offset="1" style="stop-color:#000000;stop-opacity:2.000000e-02"/>
</linearGradient>
<path class="st8" d="M132.9,142.7c0.5,38.7,32.2,69.6,70.9,69.1c38.7-0.5,69.6-32.2,69.1-70.9c-0.4-29.5-19.2-55.5-47-65.2l0.2,18
	c0.1,13.1-10.3,23.8-23.4,24l0,0c-13.1,0.1-23.8-10.3-24-23.4l-0.2-18C150.8,86.6,132.6,113.2,132.9,142.7z"/>
<path class="st9" d="M271.1,143.5c0,28.6-17.6,53.1-42.5,63.2c-7.9,3.2-16.6,5-25.6,5c-10.1,0-19.7-2.2-28.4-6.2
	c-23.5-10.8-39.8-34.5-39.8-62c0-37.7,30.5-68.2,68.2-68.2C240.5,75.3,271.1,105.9,271.1,143.5z"/>
<g>
	<g>
		<path class="st10" d="M184.4,187.3c-13.2,0-23.9-9.3-23.9-20.8v-35.9c0-8.1,3.7-15.8,10.3-21.5c6.6-5.8,15.4-8.9,24.8-8.9h10.7
			c9.4,0,18.2,3.2,24.8,8.9c6.6,5.7,10.3,13.4,10.3,21.5v36.1c0,11.4-10.7,20.7-23.8,20.7H184.4z"/>
		<path class="st11" d="M206.2,100.3c4.7,0,9.3,0.8,13.6,2.4c4.2,1.5,7.9,3.7,11.1,6.5c3.2,2.8,5.7,6,7.5,9.6
			c1.8,3.7,2.7,7.7,2.7,11.8v36.1c0,2.8-0.6,5.5-1.9,8c-1.2,2.4-2.9,4.6-5.1,6.5c-2.2,1.9-4.7,3.4-7.5,4.4c-2.9,1.1-6,1.6-9.2,1.6
			h-33c-3.2,0-6.3-0.5-9.3-1.6c-2.8-1-5.4-2.5-7.6-4.4c-2.2-1.9-3.9-4.1-5.1-6.6c-1.2-2.5-1.9-5.2-1.9-8v-35.9
			c0-4.1,0.9-8.1,2.7-11.8c1.8-3.6,4.3-6.9,7.5-9.6c3.2-2.8,7-5,11.1-6.5c4.3-1.6,8.9-2.4,13.6-2.4L206.2,100.3 M206.2,100h-10.7
			c-19.5,0-35.2,13.7-35.2,30.6v35.9c0,11.5,10.8,20.9,24,20.9h33.1c13.2,0,23.9-9.3,23.9-20.8v-36.1
			C241.3,113.7,225.6,100,206.2,100L206.2,100z"/>
	</g>
	<path class="st12" d="M208.9,173.5v13.9h-15.1v-13.9c0-1,0.9-1.8,1.9-1.8H207C208.1,171.7,208.9,172.5,208.9,173.5z"/>
	<g>
		<path class="st13" d="M195.1,178.4h11.4c14.3,0,25.9-11.6,25.9-25.9v-23.5c0-10-8.1-18.2-18.2-18.2h-26.8
			c-10,0-18.1,8.1-18.1,18.1v23.7C169.3,166.8,180.8,178.4,195.1,178.4z"/>
	</g>
	<g>
		<path class="st10" d="M206.7,106.9c0,1.3-0.1,2.6-0.4,3.8c-0.8,3.7-2.7,7.1-5.5,10.2c-6.6,7.1-18.2,11.9-31.4,11.9
			c0,0-0.1,0-0.1,0c-3.1,0-6.1-0.3-9-0.8v-1.4c0-16.9,15.8-30.6,35.2-30.6h9.8C206.2,102.2,206.7,104.5,206.7,106.9z"/>
	</g>
	<g>
		<path class="st10" d="M241.3,130.5v1.5c-2.9,0.5-5.9,0.8-8.9,0.8c-0.1,0-0.2,0-0.3,0c-13.2,0-24.7-4.7-31.4-11.9
			c-2.8-3-4.7-6.5-5.5-10.2c-0.3-1.2-0.4-2.5-0.4-3.8c0-2.4,0.5-4.7,1.3-6.9h10C225.6,100,241.3,113.7,241.3,130.5z"/>
	</g>
	<path class="st14" d="M180.1,141.5c0-2.2,2.3-4.1,5.2-4.1s5.2,1.8,5.2,4.1"/>
	<path class="st2" d="M212.6,158.7c0,5.4-5,9.8-11.2,9.8c-6.2,0-11.2-4.4-11.2-9.8H212.6L212.6,158.7z"/>
	<ellipse class="st15" cx="178.7" cy="153.6" rx="3.7" ry="3.4"/>
	<path class="st12" d="M201.7,153.5H201c-0.9,0-1.6-0.7-1.6-1.6v-3.9c0-0.9,0.7-1.6,1.6-1.6h0.7c0.9,0,1.6,0.7,1.6,1.6v3.9
		C203.3,152.8,202.6,153.5,201.7,153.5z"/>
	<path class="st14" d="M211.2,141.5c0-2.2,2.3-4.1,5.2-4.1c2.9,0,5.2,1.8,5.2,4.1"/>
	<ellipse class="st15" cx="222.4" cy="153.5" rx="3.7" ry="3.4"/>
</g>
<path class="st3" d="M229.5,213.9h-56.2c0-2.9,0.4-5.7,1.3-8.3c8.6,4,18.2,6.2,28.4,6.2c9.1,0,17.7-1.8,25.6-5
	C229.1,209,229.5,211.4,229.5,213.9z"/>
<path class="st16" d="M228.5,206.7c-7.9,3.2-16.6,5-25.6,5c-10.1,0-19.7-2.2-28.4-6.2c3.6-11.4,14.2-19.8,26.8-19.8
	C214.4,185.8,225.4,194.7,228.5,206.7z"/>
<path class="st17" d="M-197.6,320.1c0,31-25.2,56.2-56.2,56.2c-31,0-56.2-25.2-56.2-56.2H-197.6z"/>
<line class="st17" x1="-159" y1="320.1" x2="-197.6" y2="320.1"/>
<line class="st17" x1="-310" y1="320.1" x2="-337" y2="320.1"/>
</svg>
