<?xml version="1.0" encoding="utf-8"?>
<!-- Generator: Adobe Illustrator 25.2.0, SVG Export Plug-In . SVG Version: 6.00 Build 0)  -->
<svg version="1.1" id="Layer_1" xmlns="http://www.w3.org/2000/svg" xmlns:xlink="http://www.w3.org/1999/xlink" x="0px" y="0px"
	 viewBox="0 0 1920 1080" style="enable-background:new 0 0 1920 1080;" xml:space="preserve">
<style type="text/css">
	.st0{fill:none;}
	.st1{fill:#F4F0F6;}
	.st2{fill:#3F3D56;}
	.st3{fill:#FFFFFF;}
	.st4{fill:#E6E6E6;}
	.st5{fill:#DCCCCF;}
	.st6{fill:#F64060;}
</style>
<path class="st0" d="M-371.6,660.8c0,43.3-35.1,78.4-78.4,78.4V582.4C-406.7,582.4-371.6,617.5-371.6,660.8z"/>
<line class="st0" x1="-450" y1="921.5" x2="-450" y2="739.2"/>
<line class="st0" x1="-450" y1="582.4" x2="-450" y2="415.1"/>
<rect x="751.5" y="1204.9" class="st0" width="0" height="4.6"/>
<text transform="matrix(1 0 0 1 194.0327 1618.3467)" style="font-family:'FreestyleScript-Regular'; font-size:12px;">Lorem ipsum</text>
<g>
	<rect y="3.6" class="st1" width="1920" height="1080"/>
</g>
<g>
	<g>
		<path class="st2" d="M552.3,328.6l-4.4,0l-1-119.5c-0.3-38.2-31.5-68.9-69.7-68.6c0,0,0,0,0,0l0,0L224,142.7
			c-38.2,0.3-68.9,31.5-68.6,69.7v0l5.5,655.6c0.3,38.2,31.5,68.9,69.7,68.6l0,0l253.2-2.1c38.2-0.3,68.9-31.5,68.6-69.7l0,0
			l-3.8-451l4.4,0L552.3,328.6z"/>
		<path class="st3" d="M480.1,158.6l-33,0.3c5.2,12.5-0.7,26.9-13.2,32.1c-2.9,1.2-6.1,1.9-9.3,1.9l-145,1.2
			c-13.6,0.1-24.6-10.8-24.7-24.3c0-3.2,0.6-6.3,1.7-9.3l-30.9,0.3c-28.5,0.2-51.5,23.6-51.2,52.1l5.5,654.7
			c0.2,28.5,23.6,51.5,52.1,51.2l0,0l254.4-2.1c28.5-0.2,51.5-23.6,51.2-52.1l0,0l-5.5-654.7C532,181.2,508.7,158.3,480.1,158.6
			L480.1,158.6z"/>
		<path class="st2" d="M490.9,375.1l-271.5,2.3c-2.8,0-5-2.2-5.1-5l-0.6-67.3c0-2.8,2.2-5,5-5.1l271.5-2.3c2.8,0,5,2.2,5.1,5
			l0.6,67.3C495.9,372.8,493.7,375.1,490.9,375.1z M218.8,302c-1.7,0-3,1.4-3,3l0.6,67.3c0,1.7,1.4,3,3,3l271.5-2.3c1.7,0,3-1.4,3-3
			l-0.6-67.3c0-1.7-1.4-3-3-3L218.8,302z"/>
		<path class="st2" d="M493.1,641.6l-271.5,2.3c-2.8,0-5-2.2-5.1-5l-1-124.7c0-2.8,2.2-5,5-5.1l271.5-2.3c2.8,0,5,2.2,5.1,5l1,124.7
			C498.1,639.3,495.9,641.6,493.1,641.6z M220.5,511.1c-1.7,0-3,1.4-3,3l1,124.7c0,1.7,1.4,3,3,3l271.5-2.3c1.7,0,3-1.4,3-3
			l-1-124.7c0-1.7-1.4-3-3-3L220.5,511.1z"/>
		<path class="st4" d="M489.8,479.7l-120.7,1c-2.8,0-5-2.2-5.1-5l-0.6-67.3c0-2.8,2.2-5,5-5.1l120.7-1c2.8,0,5,2.2,5.1,5l0.6,67.3
			C494.8,477.4,492.5,479.7,489.8,479.7z M368.5,405.3c-1.7,0-3,1.4-3,3l0.6,67.3c0,1.7,1.4,3,3,3l120.7-1c1.7,0,3-1.4,3-3
			l-0.6-67.3c0-1.7-1.4-3-3-3L368.5,405.3z"/>
		<path class="st4" d="M343.7,805.8l-120.7,1c-2.8,0-5-2.2-5.1-5l-1.1-125.7c0-2.8,2.2-5,5-5.1l120.7-1c2.8,0,5,2.2,5.1,5l1.1,125.7
			C348.7,803.5,346.4,805.7,343.7,805.8z M221.9,673c-1.7,0-3,1.4-3,3l1.1,125.7c0,1.7,1.4,3,3,3l120.7-1c1.7,0,3-1.4,3-3L345.6,675
			c0-1.7-1.4-3-3-3L221.9,673z"/>
		<path class="st4" d="M492.5,804.5l-120.7,1c-2.8,0-5-2.2-5.1-5l-1.1-125.7c0-2.8,2.2-5,5-5.1l120.7-1c2.8,0,5,2.2,5.1,5l1.1,125.7
			C497.5,802.2,495.3,804.5,492.5,804.5z M370.7,671.8c-1.7,0-3,1.4-3,3l1.1,125.7c0,1.7,1.4,3,3,3l120.7-1c1.7,0,3-1.4,3-3
			l-1.1-125.7c0-1.7-1.4-3-3-3L370.7,671.8z"/>
		<circle class="st5" cx="261.1" cy="553" r="20.5"/>
		<path class="st4" d="M308.2,538.9c-1.9,0-3.4,1.5-3.4,3.4c0,1.9,1.5,3.4,3.4,3.4c0,0,0,0,0,0l160.9-1.3c1.9,0,3.4-1.5,3.4-3.4
			c0-1.9-1.5-3.4-3.4-3.4c0,0,0,0,0,0L308.2,538.9z"/>
		<path class="st4" d="M308.4,559.4c-1.9,0-3.4,1.5-3.4,3.4c0,1.9,1.5,3.4,3.4,3.4c0,0,0,0,0,0l69.2-0.6c1.9,0,3.4-1.6,3.4-3.5
			c0-1.9-1.6-3.4-3.4-3.4L308.4,559.4z"/>
		<path class="st4" d="M245.7,592.7c-2.6,0-4.7,1.6-4.7,3.5s2.1,3.4,4.7,3.4l222-1.9c2.6,0,4.7-1.6,4.7-3.5c0-1.9-2.1-3.4-4.7-3.4
			L245.7,592.7z"/>
		<path class="st4" d="M245.8,613.1c-2.6,0-4.7,1.6-4.7,3.5c0,1.9,2.1,3.4,4.7,3.4l222-1.9c2.6,0,4.7-1.6,4.7-3.5
			c0-1.9-2.1-3.4-4.7-3.4L245.8,613.1z"/>
		<path class="st4" d="M308.4,321.7c-1.9,0-3.4,1.5-3.4,3.4c0,1.9,1.5,3.4,3.4,3.4c0,0,0,0,0,0l160.9-1.3c1.9,0,3.4-1.6,3.4-3.5
			c0-1.9-1.6-3.4-3.4-3.4L308.4,321.7z"/>
		<path class="st4" d="M308.6,342.2c-1.9,0-3.4,1.5-3.4,3.4s1.5,3.4,3.4,3.4c0,0,0,0,0,0l69.2-0.6c1.9,0,3.4-1.6,3.4-3.5
			c0-1.9-1.6-3.4-3.4-3.4L308.6,342.2z"/>
		<path class="st4" d="M340.8,481l-113.2,0.9l26.3-46.4c1.5-2.6,4.8-3.5,7.4-2.1c0.8,0.5,1.5,1.2,2,2l11.5,19.6l19.1-33.7
			c1.9-3.3,6-4.4,9.3-2.6c1,0.6,1.9,1.4,2.5,2.5L340.8,481z M231.1,479.9l106.2-0.9L304,422.3c-1.3-2.3-4.3-3-6.6-1.7
			c-0.7,0.4-1.3,1-1.7,1.8l-20.8,36.7l-13.3-22.6c-1-1.6-3.1-2.2-4.7-1.2c-0.5,0.3-0.9,0.7-1.2,1.3L231.1,479.9z"/>
		<path class="st4" d="M485.6,479.8l-113.2,0.9l26.3-46.4c1.5-2.6,4.8-3.5,7.4-2.1c0.8,0.5,1.5,1.2,2,2l11.5,19.6l19.1-33.7
			c1.9-3.3,6-4.4,9.3-2.6c1,0.6,1.9,1.4,2.5,2.5L485.6,479.8z M375.9,478.7l106.2-0.9l-33.3-56.7c-1.3-2.3-4.3-3-6.6-1.7
			c-0.7,0.4-1.3,1-1.7,1.8l-20.8,36.7l-13.3-22.6c-1-1.6-3.1-2.2-4.7-1.2c-0.5,0.3-0.9,0.7-1.2,1.3L375.9,478.7z"/>
		<path class="st4" d="M340.9,481l-120.7,1c-2.8,0-5-2.2-5.1-5l-0.6-67.3c0-2.8,2.2-5,5-5.1l120.7-1c2.8,0,5,2.2,5.1,5l0.6,67.3
			C346,478.7,343.7,480.9,340.9,481z M219.6,406.6c-1.7,0-3,1.4-3,3l0.6,67.3c0,1.7,1.4,3,3,3l120.7-1c1.7,0,3-1.4,3-3l-0.6-67.3
			c0-1.7-1.4-3-3-3L219.6,406.6z"/>
		<path class="st4" d="M247.8,696.7c-1.9,0-3.4,1.5-3.4,3.4c0,1.9,1.5,3.4,3.4,3.4c0,0,0,0,0,0l69.2-0.6c1.9,0,3.4-1.6,3.4-3.4
			c0-1.9-1.6-3.4-3.4-3.4L247.8,696.7z"/>
		<path class="st4" d="M248,716.8c-1.9,0-3.4,1.6-3.4,3.5c0,1.9,1.6,3.4,3.4,3.4l69.2-0.6c1.9,0,3.4-1.6,3.4-3.5
			c0-1.9-1.6-3.4-3.4-3.4L248,716.8z"/>
		<path class="st4" d="M283.1,780.3c-11.9,0.1-21.6-9.4-21.7-21.3c-0.1-11.9,9.4-21.6,21.3-21.7c11.9-0.1,21.6,9.4,21.7,21.3l0,0
			C304.5,770.5,295,780.2,283.1,780.3z M282.8,739.4c-10.8,0.1-19.4,8.9-19.3,19.6c0.1,10.8,8.9,19.4,19.6,19.3
			c10.8-0.1,19.4-8.9,19.3-19.6l0,0C302.3,747.9,293.5,739.3,282.8,739.4L282.8,739.4z"/>
		<path class="st4" d="M466.6,778.8c1.9,0,3.4-1.5,3.4-3.4s-1.5-3.4-3.4-3.4c0,0,0,0,0,0l-69.2,0.6c-1.9,0-3.4,1.5-3.4,3.4
			c0,1.9,1.5,3.4,3.4,3.4c0,0,0,0,0,0L466.6,778.8z"/>
		<path class="st4" d="M466.4,758.7c1.9,0,3.4-1.6,3.4-3.4c0-1.9-1.6-3.4-3.4-3.4l-69.2,0.6c-1.9,0-3.4,1.5-3.4,3.4
			c0,1.9,1.5,3.4,3.4,3.4c0,0,0,0,0,0L466.4,758.7z"/>
		<path class="st4" d="M431.2,695.2c11.9-0.1,21.6,9.4,21.7,21.3c0.1,11.9-9.4,21.6-21.3,21.7s-21.6-9.4-21.7-21.3l0,0
			C409.8,705,419.4,695.3,431.2,695.2z M431.6,736.2c10.8-0.1,19.4-8.9,19.3-19.6c-0.1-10.8-8.9-19.4-19.6-19.3
			c-10.8,0.1-19.4,8.9-19.3,19.6l0,0C412,727.6,420.8,736.2,431.6,736.2z"/>
	</g>
	<path class="st6" d="M280,346.3c0,5.6-4,10.4-9.5,11.4c-0.7,0.1-1.4,0.2-2.1,0.2c-0.2,0-0.3,0.1-0.4,0.3c-1.1,3.1-3.3,5-6.6,5.5
		c-2.2,0.3-4.2-0.3-5.9-1.6c-0.2-0.2-0.4-0.2-0.6,0c-2,1.5-4.3,2.1-6.8,1.9c-4.8-0.3-8.9-4-9.7-8.8c-0.1-0.3-0.1-0.7-0.1-1
		c0-0.3-0.1-0.4-0.4-0.4c-1.5-0.3-2.8-0.9-4-1.8c-2.2-1.7-3.5-3.9-3.8-6.6c-0.3-3.1,0.6-5.8,2.8-8.1c0.2-0.2,0.2-0.3,0.1-0.5
		c-0.8-1.5-1.2-3.1-1.2-4.8c0.2-4.2,3.1-7.7,7.2-8.6c0.5-0.1,0.7-0.3,0.9-0.7c2-4.4,5.4-7,10.1-7.9c3.3-0.6,6.4,0,9.3,1.7
		c0.2,0.1,0.4,0.2,0.7,0.1c4.6-1.3,8.7-0.4,12.1,2.9c2,1.9,3.2,4.4,3.5,7.2c0.1,0.6,0.1,1.2,0.1,1.8c0,0.2,0.1,0.3,0.3,0.4
		c2.1,0.8,3.5,2.2,4.1,4.3c0.8,2.6,0.1,4.9-1.8,6.9c-0.2,0.2-0.1,0.3,0,0.4C279.4,342.3,280,344.2,280,346.3z M259.5,345.4
		c0,2.4,1.5,4.5,3.7,5.2c1.1,0.4,2.2,0.5,3.3,0.6c0.8,0,1.6,0,2.4-0.4c0.6-0.3,0.9-0.8,0.8-1.4c0-0.7-0.3-1.1-0.9-1.4
		c-0.2-0.1-0.4-0.2-0.7-0.2c-0.7-0.1-1.4-0.2-2.1-0.4c-1.1-0.2-1.6-0.8-1.6-2c0-1,0.3-2,0.6-2.9c0.6-1.7,1.3-3.4,2.1-5
		c0.7-1.6,1.5-3.2,2-4.9c0.3-0.9,0.4-1.9,0.2-2.8c-0.4-1.5-1.3-2.4-2.8-2.7c-1.4-0.3-2.7-0.3-4,0.5c-0.4,0.3-0.8,0.2-1.2-0.1
		c-0.3-0.2-0.5-0.5-0.8-0.7c-1.3-1.2-2.9-1.2-4.3-0.2c-0.5,0.4-1,1-1.6,1.3c-0.5,0.3-1.1,0.4-1.7,0.1c-0.6-0.3-1.1-0.6-1.7-0.8
		c-0.6-0.3-1.2-0.6-1.8-0.7c-2.1-0.2-4.3,1.1-5.2,3c-0.4,0.8-0.7,1.7-1.1,2.6c-1.5,4-2.7,8.2-3.9,12.3c-0.6,1.8,0.1,3.7,1.7,4.7
		c1.2,0.8,2.6,1,3.9,0.6c1.1-0.3,1.7-1.2,2.2-2.2c1.4-3.4,2.7-6.8,4.1-10.2c0.4-0.9,0.7-1.9,1.1-2.8c0.4-0.9,1.5-1.2,2.2-0.6
		c0.4,0.4,0.5,0.9,0.5,1.4c0,0.6-0.3,1.1-0.5,1.6c-0.9,2.2-1.8,4.5-2.7,6.7c-0.2,0.5-0.4,0.9-0.5,1.4c-0.1,0.8,0.2,1.6,0.9,1.9
		c0.7,0.3,1.4,0.3,2.1,0.1c0.8-0.3,1.3-1,1.7-1.7c1.3-2.6,2.6-5.2,4-7.8c0.6-1.2,1.2-2.4,1.9-3.6c0.2-0.4,0.5-0.9,0.9-1.1
		c0.4-0.2,0.8-0.3,1.2,0c0.4,0.2,0.4,0.6,0.4,1c0,0.2-0.1,0.4-0.2,0.6c-0.2,0.4-0.3,0.8-0.5,1.2c-1.1,2.3-2.2,4.6-3.3,6.9
		C259.9,343.4,259.4,344.4,259.5,345.4z M274.9,362.5c0-1.5-1.3-2.8-2.8-2.8c-1.6,0-2.9,1.3-2.9,2.8c0,1.5,1.3,2.8,2.9,2.8
		C273.6,365.3,274.9,364.1,274.9,362.5z M227,339c1.5,0,2.7-1.2,2.7-2.7c0-1.5-1.2-2.7-2.7-2.7c-1.5,0-2.7,1.2-2.7,2.7
		C224.3,337.7,225.5,339,227,339z M260.5,308.5c-1.5,0-2.7,1.2-2.7,2.7c0,1.5,1.2,2.7,2.7,2.7c1.5,0,2.7-1.2,2.7-2.7
		C263.1,309.7,261.9,308.5,260.5,308.5z M282.6,325.4c0-1.2-1.1-2.3-2.3-2.3c-1.3,0-2.3,1.1-2.3,2.3c0,1.3,1,2.3,2.3,2.3
		C281.5,327.7,282.6,326.6,282.6,325.4z M235.2,318.8c0,1.2,0.9,2.1,2.1,2.1c1.2,0,2.1-0.9,2.1-2.1c0-1.1-0.9-2-2.1-2
		C236.1,316.7,235.2,317.6,235.2,318.8z M256.8,366.5c0-1-0.8-1.8-1.8-1.8c-1,0-1.8,0.8-1.8,1.8c0,1,0.8,1.7,1.8,1.7
		C256,368.3,256.8,367.5,256.8,366.5z M284.3,339.1c-0.9,0-1.7,0.8-1.7,1.7c0,0.9,0.8,1.7,1.7,1.7c1,0,1.7-0.7,1.7-1.7
		C286,339.9,285.2,339.1,284.3,339.1z M243.1,306.8c-0.8,0-1.5,0.6-1.5,1.4c0,0.8,0.6,1.5,1.5,1.4c0.8,0,1.4-0.6,1.4-1.5
		C244.6,307.4,244,306.8,243.1,306.8z M287.6,331.3c-0.7,0-1.3,0.6-1.3,1.3c0,0.7,0.6,1.3,1.3,1.3c0.7,0,1.3-0.6,1.3-1.3
		C288.8,331.9,288.3,331.3,287.6,331.3z M236.6,356.8c0-0.7-0.6-1.3-1.3-1.3c-0.7,0-1.3,0.6-1.3,1.3c0,0.7,0.6,1.3,1.3,1.3
		C236,358,236.6,357.5,236.6,356.8z"/>
</g>
<image style="overflow:visible;" width="1280" height="457" xlink:href="../../../../../../Pictures/1280px-Meetup_1.svg.png"  transform="matrix(0.8663 0 0 0.8663 657.2773 355.0045)">
</image>
</svg>
