<?xml version="1.0" encoding="utf-8"?>
<!-- Generator: Adobe Illustrator 25.2.0, SVG Export Plug-In . SVG Version: 6.00 Build 0)  -->
<svg version="1.1" id="Layer_1" xmlns="http://www.w3.org/2000/svg" xmlns:xlink="http://www.w3.org/1999/xlink" x="0px" y="0px"
	 viewBox="0 0 1920 1080" style="enable-background:new 0 0 1920 1080;" xml:space="preserve">
<style type="text/css">
	.st0{fill:none;}
	.st1{fill:#F4F0F6;}
	.st2{fill:#3F3D56;}
	.st3{fill:#FFFFFF;}
	.st4{fill:#E6E6E6;}
	.st5{fill:#DCCCCF;}
	.st6{fill:#F64060;}
</style>
<path class="st0" d="M-371.6,660.8c0,43.3-35.1,78.4-78.4,78.4V582.4C-406.7,582.4-371.6,617.5-371.6,660.8z"/>
<line class="st0" x1="-450" y1="921.5" x2="-450" y2="739.2"/>
<line class="st0" x1="-450" y1="582.4" x2="-450" y2="415.1"/>
<rect x="751.5" y="1204.9" class="st0" width="0" height="4.6"/>
<text transform="matrix(1 0 0 1 194.0327 1618.3467)" style="font-family:'FreestyleScript-Regular'; font-size:12px;">Lorem ipsum</text>
<g>
	<rect y="3.6" class="st1" width="1920" height="1080"/>
</g>
<g>
	<g>
		<g>
			<path class="st2" d="M1028.4,315.9l-4.4,0l-1-119.5c-0.3-38.2-31.5-68.9-69.7-68.6c0,0,0,0,0,0l0,0L700.1,130
				c-38.2,0.3-68.9,31.5-68.6,69.7v0l5.5,655.6c0.3,38.2,31.5,68.9,69.7,68.6l0,0l253.2-2.1c38.2-0.3,68.9-31.5,68.6-69.7v0
				l-3.8-451l4.4,0L1028.4,315.9z"/>
			<path class="st3" d="M956.3,145.8l-33,0.3c5.2,12.5-0.7,26.9-13.2,32.1c-2.9,1.2-6.1,1.9-9.3,1.9l-145,1.2
				c-13.6,0.1-24.6-10.8-24.7-24.3c0-3.2,0.6-6.3,1.7-9.3l-30.9,0.3c-28.5,0.2-51.5,23.6-51.2,52.1l5.5,654.7
				c0.2,28.5,23.6,51.5,52.1,51.2l0,0l254.4-2.1c28.5-0.2,51.5-23.6,51.2-52.1l0,0l-5.5-654.7C1008.1,168.5,984.8,145.6,956.3,145.8
				L956.3,145.8z"/>
			<path class="st2" d="M967,362.4l-271.5,2.3c-2.8,0-5-2.2-5.1-5l-0.6-67.3c0-2.8,2.2-5,5-5.1l271.5-2.3c2.8,0,5,2.2,5.1,5
				l0.6,67.3C972,360.1,969.8,362.4,967,362.4z M694.9,289.3c-1.7,0-3,1.4-3,3l0.6,67.3c0,1.7,1.4,3,3,3l271.5-2.3c1.7,0,3-1.4,3-3
				l-0.6-67.3c0-1.7-1.4-3-3-3L694.9,289.3z"/>
			<path class="st2" d="M969.3,628.9l-271.5,2.3c-2.8,0-5-2.2-5.1-5l-1-124.7c0-2.8,2.2-5,5-5.1l271.5-2.3c2.8,0,5,2.2,5.1,5
				l1,124.7C974.3,626.6,972,628.9,969.3,628.9z M696.6,498.4c-1.7,0-3,1.4-3,3l1,124.7c0,1.7,1.4,3,3,3l271.5-2.3c1.7,0,3-1.4,3-3
				l-1-124.7c0-1.7-1.4-3-3-3L696.6,498.4z"/>
			<path class="st4" d="M965.9,467l-120.7,1c-2.8,0-5-2.2-5.1-5l-0.6-67.3c0-2.8,2.2-5,5-5.1l120.7-1c2.8,0,5,2.2,5.1,5l0.6,67.3
				C970.9,464.7,968.7,467,965.9,467z M844.6,392.6c-1.7,0-3,1.4-3,3l0.6,67.3c0,1.7,1.4,3,3,3l120.7-1c1.7,0,3-1.4,3-3l-0.6-67.3
				c0-1.7-1.4-3-3-3L844.6,392.6z"/>
			<path class="st4" d="M819.8,793l-120.7,1c-2.8,0-5-2.2-5.1-5L693,663.4c0-2.8,2.2-5,5-5.1l120.7-1c2.8,0,5,2.2,5.1,5l1.1,125.7
				C824.8,790.8,822.6,793,819.8,793z M698,660.3c-1.7,0-3,1.4-3,3l1.1,125.7c0,1.7,1.4,3,3,3l120.7-1c1.7,0,3-1.4,3-3l-1.1-125.7
				c0-1.7-1.4-3-3-3L698,660.3z"/>
			<path class="st4" d="M968.6,791.8l-120.7,1c-2.8,0-5-2.2-5.1-5l-1.1-125.7c0-2.8,2.2-5,5-5.1l120.7-1c2.8,0,5,2.2,5.1,5
				l1.1,125.7C973.6,789.5,971.4,791.8,968.6,791.8z M846.8,659.1c-1.7,0-3,1.4-3,3l1.1,125.7c0,1.7,1.4,3,3,3l120.7-1
				c1.7,0,3-1.4,3-3l-1.1-125.7c0-1.7-1.4-3-3-3L846.8,659.1z"/>
			<circle class="st5" cx="737.2" cy="540.3" r="20.5"/>
			<path class="st4" d="M784.4,526.2c-1.9,0-3.4,1.5-3.4,3.4c0,1.9,1.5,3.4,3.4,3.4c0,0,0,0,0,0l160.9-1.3c1.9,0,3.4-1.5,3.4-3.4
				c0-1.9-1.5-3.4-3.4-3.4c0,0,0,0,0,0L784.4,526.2z"/>
			<path class="st4" d="M784.5,546.7c-1.9,0-3.4,1.5-3.4,3.4c0,1.9,1.5,3.4,3.4,3.4c0,0,0,0,0,0l69.2-0.6c1.9,0,3.4-1.6,3.4-3.5
				c0-1.9-1.6-3.4-3.4-3.4L784.5,546.7z"/>
			<path class="st4" d="M721.8,580c-2.6,0-4.7,1.6-4.7,3.5s2.1,3.4,4.7,3.4l222-1.9c2.6,0,4.7-1.6,4.7-3.5c0-1.9-2.1-3.4-4.7-3.4
				L721.8,580z"/>
			<path class="st4" d="M722,600.4c-2.6,0-4.7,1.6-4.7,3.5c0,1.9,2.1,3.4,4.7,3.4l222-1.9c2.6,0,4.7-1.6,4.7-3.5
				c0-1.9-2.1-3.4-4.7-3.4L722,600.4z"/>
			<path class="st4" d="M784.5,309c-1.9,0-3.4,1.5-3.4,3.4c0,1.9,1.5,3.4,3.4,3.4c0,0,0,0,0,0l160.9-1.3c1.9,0,3.4-1.6,3.4-3.5
				c0-1.9-1.6-3.4-3.4-3.4L784.5,309z"/>
			<path class="st4" d="M784.7,329.5c-1.9,0-3.4,1.5-3.4,3.4c0,1.9,1.5,3.4,3.4,3.4c0,0,0,0,0,0l69.2-0.6c1.9,0,3.4-1.6,3.4-3.5
				c0-1.9-1.6-3.4-3.4-3.4L784.7,329.5z"/>
			<path class="st4" d="M817,468.3l-113.2,0.9l26.3-46.4c1.5-2.6,4.8-3.5,7.4-2.1c0.8,0.5,1.5,1.2,2,2l11.5,19.6l19.1-33.7
				c1.9-3.3,6-4.4,9.3-2.6c1,0.6,1.9,1.4,2.5,2.5L817,468.3z M707.2,467.2l106.2-0.9l-33.3-56.7c-1.3-2.3-4.3-3-6.6-1.7
				c-0.7,0.4-1.3,1-1.7,1.8L751,446.4l-13.3-22.6c-1-1.6-3.1-2.2-4.7-1.2c-0.5,0.3-0.9,0.7-1.2,1.3L707.2,467.2z"/>
			<path class="st4" d="M961.8,467L848.6,468l26.3-46.4c1.5-2.6,4.8-3.5,7.4-2.1c0.8,0.5,1.5,1.2,2,2l11.5,19.6l19.1-33.7
				c1.9-3.3,6-4.4,9.3-2.6c1,0.6,1.9,1.4,2.5,2.5L961.8,467z M852,466l106.2-0.9l-33.3-56.7c-1.3-2.3-4.3-3-6.6-1.7
				c-0.7,0.4-1.3,1-1.7,1.8l-20.8,36.7l-13.3-22.6c-1-1.6-3.1-2.2-4.7-1.2c-0.5,0.3-0.9,0.7-1.2,1.3L852,466z"/>
			<path class="st4" d="M817.1,468.2l-120.7,1c-2.8,0-5-2.2-5.1-5l-0.6-67.3c0-2.8,2.2-5,5-5.1l120.7-1c2.8,0,5,2.2,5.1,5l0.6,67.3
				C822.1,466,819.8,468.2,817.1,468.2z M695.8,393.9c-1.7,0-3,1.4-3,3l0.6,67.3c0,1.7,1.4,3,3,3l120.7-1c1.7,0,3-1.4,3-3l-0.6-67.3
				c0-1.7-1.4-3-3-3L695.8,393.9z"/>
			<path class="st4" d="M723.9,684c-1.9,0-3.4,1.5-3.4,3.4s1.5,3.4,3.4,3.4c0,0,0,0,0,0l69.2-0.6c1.9,0,3.4-1.6,3.4-3.4
				c0-1.9-1.6-3.4-3.4-3.4L723.9,684z"/>
			<path class="st4" d="M724.1,704.1c-1.9,0-3.4,1.6-3.4,3.5c0,1.9,1.6,3.4,3.4,3.4l69.2-0.6c1.9,0,3.4-1.6,3.4-3.5
				c0-1.9-1.6-3.4-3.4-3.4L724.1,704.1z"/>
			<path class="st4" d="M759.2,767.6c-11.9,0.1-21.6-9.4-21.7-21.3s9.4-21.6,21.3-21.7c11.9-0.1,21.6,9.4,21.7,21.3l0,0
				C780.6,757.8,771.1,767.5,759.2,767.6z M758.9,726.7c-10.8,0.1-19.4,8.9-19.3,19.6s8.9,19.4,19.6,19.3
				c10.8-0.1,19.4-8.9,19.3-19.6l0,0C778.4,735.2,769.6,726.6,758.9,726.7L758.9,726.7z"/>
			<path class="st4" d="M942.7,766.1c1.9,0,3.4-1.5,3.4-3.4c0-1.9-1.5-3.4-3.4-3.4c0,0,0,0,0,0l-69.2,0.6c-1.9,0-3.4,1.5-3.4,3.4
				c0,1.9,1.5,3.4,3.4,3.4c0,0,0,0,0,0L942.7,766.1z"/>
			<path class="st4" d="M942.5,746c1.9,0,3.4-1.6,3.4-3.4c0-1.9-1.6-3.4-3.4-3.4l-69.2,0.6c-1.9,0-3.4,1.5-3.4,3.4s1.5,3.4,3.4,3.4
				c0,0,0,0,0,0L942.5,746z"/>
			<path class="st4" d="M907.4,682.5c11.9-0.1,21.6,9.4,21.7,21.3s-9.4,21.6-21.3,21.7c-11.9,0.1-21.6-9.4-21.7-21.3l0,0
				C886,692.3,895.5,682.6,907.4,682.5z M907.7,723.5c10.8-0.1,19.4-8.9,19.3-19.6s-8.9-19.4-19.6-19.3
				c-10.8,0.1-19.4,8.9-19.3,19.6l0,0C888.2,714.9,896.9,723.5,907.7,723.5z"/>
		</g>
		<path class="st6" d="M755.9,333.1c0,5.6-4,10.4-9.5,11.4c-0.7,0.1-1.4,0.2-2.1,0.2c-0.2,0-0.3,0.1-0.4,0.3c-1.1,3.1-3.3,5-6.6,5.5
			c-2.2,0.3-4.2-0.3-5.9-1.6c-0.2-0.2-0.4-0.2-0.6,0c-2,1.5-4.3,2.1-6.8,1.9c-4.8-0.3-8.9-4-9.7-8.8c-0.1-0.3-0.1-0.7-0.1-1
			c0-0.3-0.1-0.4-0.4-0.4c-1.5-0.3-2.8-0.9-4-1.8c-2.2-1.7-3.5-3.9-3.8-6.6c-0.3-3.1,0.6-5.8,2.8-8.1c0.2-0.2,0.2-0.3,0.1-0.5
			c-0.8-1.5-1.2-3.1-1.2-4.8c0.2-4.2,3.1-7.7,7.2-8.6c0.5-0.1,0.7-0.3,0.9-0.7c2-4.4,5.4-7,10.1-7.9c3.3-0.6,6.4,0,9.3,1.7
			c0.2,0.1,0.4,0.2,0.7,0.1c4.6-1.3,8.7-0.4,12.1,2.9c2,1.9,3.2,4.4,3.5,7.2c0.1,0.6,0.1,1.2,0.1,1.8c0,0.2,0.1,0.3,0.3,0.4
			c2.1,0.8,3.5,2.2,4.1,4.3c0.8,2.6,0.1,4.9-1.8,6.9c-0.2,0.2-0.1,0.3,0,0.4C755.4,329.1,755.9,331,755.9,333.1z M735.4,332.2
			c0,2.4,1.5,4.5,3.7,5.2c1.1,0.4,2.2,0.5,3.3,0.6c0.8,0,1.6,0,2.4-0.4c0.6-0.3,0.9-0.8,0.8-1.4c0-0.7-0.3-1.1-0.9-1.4
			c-0.2-0.1-0.4-0.2-0.7-0.2c-0.7-0.1-1.4-0.2-2.1-0.4c-1.1-0.2-1.6-0.8-1.6-2c0-1,0.3-2,0.6-2.9c0.6-1.7,1.3-3.4,2.1-5
			c0.7-1.6,1.5-3.2,2-4.9c0.3-0.9,0.4-1.9,0.2-2.8c-0.4-1.5-1.3-2.4-2.8-2.7c-1.4-0.3-2.7-0.3-4,0.5c-0.4,0.3-0.8,0.2-1.2-0.1
			c-0.3-0.2-0.5-0.5-0.8-0.7c-1.3-1.2-2.9-1.2-4.3-0.2c-0.5,0.4-1,1-1.6,1.3c-0.5,0.3-1.1,0.4-1.7,0.1c-0.6-0.3-1.1-0.6-1.7-0.8
			c-0.6-0.3-1.2-0.6-1.8-0.7c-2.1-0.2-4.3,1.1-5.2,3c-0.4,0.8-0.7,1.7-1.1,2.6c-1.5,4-2.7,8.2-3.9,12.3c-0.6,1.8,0.1,3.7,1.7,4.7
			c1.2,0.8,2.6,1,3.9,0.6c1.1-0.3,1.7-1.2,2.2-2.2c1.4-3.4,2.7-6.8,4.1-10.2c0.4-0.9,0.7-1.9,1.1-2.8c0.4-0.9,1.5-1.2,2.2-0.6
			c0.4,0.4,0.5,0.9,0.5,1.4c0,0.6-0.3,1.1-0.5,1.6c-0.9,2.2-1.8,4.5-2.7,6.7c-0.2,0.5-0.4,0.9-0.5,1.4c-0.1,0.8,0.2,1.6,0.9,1.9
			c0.7,0.3,1.4,0.3,2.1,0.1c0.8-0.3,1.3-1,1.7-1.7c1.3-2.6,2.6-5.2,4-7.8c0.6-1.2,1.2-2.4,1.9-3.6c0.2-0.4,0.5-0.9,0.9-1.1
			c0.4-0.2,0.8-0.3,1.2,0c0.4,0.2,0.4,0.6,0.4,1c0,0.2-0.1,0.4-0.2,0.6c-0.2,0.4-0.3,0.8-0.5,1.2c-1.1,2.3-2.2,4.6-3.3,6.9
			C735.8,330.1,735.4,331.1,735.4,332.2z M750.8,349.2c0-1.5-1.3-2.8-2.8-2.8c-1.6,0-2.9,1.3-2.9,2.8c0,1.5,1.3,2.8,2.9,2.8
			C749.6,352.1,750.8,350.8,750.8,349.2z M703,325.7c1.5,0,2.7-1.2,2.7-2.7c0-1.5-1.2-2.7-2.7-2.7c-1.5,0-2.7,1.2-2.7,2.7
			C700.3,324.5,701.5,325.7,703,325.7z M736.4,295.3c-1.5,0-2.7,1.2-2.7,2.7c0,1.5,1.2,2.7,2.7,2.7c1.5,0,2.7-1.2,2.7-2.7
			C739.1,296.5,737.9,295.3,736.4,295.3z M758.5,312.1c0-1.2-1.1-2.3-2.3-2.3c-1.3,0-2.3,1.1-2.3,2.3c0,1.3,1,2.3,2.3,2.3
			C757.5,314.4,758.5,313.4,758.5,312.1z M711.2,305.5c0,1.2,0.9,2.1,2.1,2.1c1.2,0,2.1-0.9,2.1-2.1c0-1.1-0.9-2-2.1-2
			C712.1,303.5,711.2,304.3,711.2,305.5z M732.7,353.3c0-1-0.8-1.8-1.8-1.8c-1,0-1.8,0.8-1.8,1.8c0,1,0.8,1.7,1.8,1.7
			C731.9,355,732.7,354.2,732.7,353.3z M760.3,325.9c-0.9,0-1.7,0.8-1.7,1.7c0,0.9,0.8,1.7,1.7,1.7c1,0,1.7-0.7,1.7-1.7
			C761.9,326.6,761.2,325.9,760.3,325.9z M719.1,293.6c-0.8,0-1.5,0.6-1.5,1.4c0,0.8,0.6,1.5,1.5,1.4c0.8,0,1.4-0.6,1.4-1.5
			C720.5,294.2,719.9,293.6,719.1,293.6z M763.5,318.1c-0.7,0-1.3,0.6-1.3,1.3c0,0.7,0.6,1.3,1.3,1.3c0.7,0,1.3-0.6,1.3-1.3
			C764.8,318.7,764.2,318.1,763.5,318.1z M712.5,343.5c0-0.7-0.6-1.3-1.3-1.3c-0.7,0-1.3,0.6-1.3,1.3c0,0.7,0.6,1.3,1.3,1.3
			C712,344.8,712.5,344.2,712.5,343.5z"/>
	</g>
	<g>
		<path class="st2" d="M1303.9,388.6l-4.4,0l-1-119.5c-0.3-38.2-31.5-68.9-69.7-68.6c0,0,0,0,0,0l0,0l-253.2,2.1
			c-38.2,0.3-68.9,31.5-68.6,69.7v0l5.5,655.6c0.3,38.2,31.5,68.9,69.7,68.6l0,0l253.2-2.1c38.2-0.3,68.9-31.5,68.6-69.7v0l-3.8-451
			l4.4,0L1303.9,388.6z"/>
		<path class="st3" d="M1231.8,218.5l-33,0.3c5.2,12.5-0.7,26.9-13.2,32.1c-2.9,1.2-6.1,1.9-9.3,1.9l-145,1.2
			c-13.6,0.1-24.6-10.8-24.7-24.3c0-3.2,0.6-6.3,1.7-9.3l-30.9,0.3c-28.5,0.2-51.5,23.6-51.2,52.1l5.5,654.7
			c0.2,28.5,23.6,51.5,52.1,51.2l0,0l254.4-2.1c28.5-0.2,51.5-23.6,51.2-52.1l0,0l-5.5-654.7
			C1283.6,241.2,1260.3,218.3,1231.8,218.5L1231.8,218.5z"/>
		<path class="st6" d="M1136.2,581.5c-0.4,0.6-0.7,1.1-1,1.5c-2.9,4.1-6.1,7.9-10.5,10.5c-5.9,3.5-12.2,4.9-18.9,3.5
			c-3.4-0.7-6.6-2.7-9.8-4.2c-0.7-0.4-1.1-0.4-1.8,0.1c-2.8,1.6-5.4,3.4-8.3,4.7c-5.2,2.2-10.6,3.5-16.2,2c-3.5-0.9-6.6-2.9-9.4-5.3
			c-2-1.7-2.1-1.7-4.1-0.1c-3.6,2.9-7.7,4.8-12,6.4c-5.3,1.9-10.8,3.2-16.5,3.7c-6.9,0.7-13.3-0.5-17.9-6.1
			c-3.7-4.5-4.8-9.8-2.5-15.2c2.5-6,5.4-11.8,8.1-17.7c1.4-3,2.8-6.1,4.2-9.2c0.3-0.6,0.4-1.2,0.4-1.9c0.1-1.2,0.3-2.4-1.1-3.1
			c-1.3-0.7-2.9-0.6-4,0.7c-1.2,1.6-2.4,3.3-3.3,5.1c-3.1,5.9-6,11.9-9.1,17.8c-2.2,4.5-4.5,8.9-6.7,13.4c-2.1,4.2-6.2,5.8-10.6,4.2
			c-1.5-0.5-2.4-1.7-2.7-3.3c-0.4-2.4,0.4-4.5,1.2-6.6c1.8-4.6,3.7-9.2,5.5-13.8c1-2.5,2-5,2.9-7.4c0.6-1.8,0.9-3.6,0.1-5.3
			c-0.6-1.3-1.7-2.3-3.3-2.1c-1.8,0.2-3.1,1.1-3.8,2.7c-2.3,5.7-4.5,11.5-6.8,17.2c-2.7,6.9-5.4,13.8-8.2,20.6
			c-1.1,2.5-2.6,4.8-5.3,5.9c-1.3,0.5-2.9,0.9-4.3,0.9c-4.5,0.1-8.4-1.4-11.2-5.3c-2.1-3-2.7-6.5-1.6-10.1c1-3.4,1.9-6.7,2.9-10
			c1-3.2,2-6.3,2.9-9.5c0.9-2.9,1.8-5.9,2.8-8.8c2-5.7,3.5-11.6,6.6-16.8c2.1-3.6,5.6-5.5,9.5-6.7c4.1-1.2,7.6,0.3,11.1,2.1
			c1.3,0.6,2.7,1.4,4,1.9c1.9,0.8,3.6,0.3,5.2-1c1.3-1,2.5-2,3.7-3.2c2.9-2.8,9.2-3.4,12.2-0.1c0.7,0.7,1.5,1.4,2.3,2.1
			c1.6,1.4,2.2,1.5,4.1,0.5c4.4-2.5,9-2.1,13.5-0.5c2.6,0.9,4.2,3.2,5.2,5.8c1.4,3.8,0.9,7.6-0.6,11.2c-2.7,6.7-5.7,13.3-8.3,20
			c-1.5,4-2.9,8.1-4,12.2c-0.5,1.7-0.5,3.7-0.1,5.3c0.6,2.6,3,3.4,5.3,3.7c3.6,0.5,7.2-0.2,10.6-1.2c2.9-0.8,5.9-1.8,8.7-2.8
			c1.4-0.5,2.7-1.3,4-1.9c1.1-0.6,1.2-1.4,0.6-2.5c-1.2-2.1-2.5-4.3-3.6-6.5c-2.3-4.7-4.2-9.6-3.6-15c0.4-4.7,2.1-8.8,6.5-11.3
			c6.4-3.6,11.6-2.7,16.3,2.8c4.1,4.7,5.4,10.4,3.7,16.5c-1,3.4-2.4,6.7-3.7,10c-0.4,0.9-0.2,1.5,0.4,2c2.7,2.5,5.8,4.5,9.2,5.9
			c1.3,0.5,2.7,0.9,4,1.2c2.9,0.6,5.7-0.1,8.1-1.8c1.2-0.8,1.2-1.5,0.4-2.6c-5.6-7.7-7.9-16.2-6.1-25.6c0.6-3.5,2.2-6.8,6-7.9
			c2.4-0.6,5-0.6,7.4-0.3c4,0.5,7.5,2.1,9.9,5.4c2.9,4.1,3.6,8.5,2.4,13.4c-0.9,3.5-2.7,6.5-4.8,9.4c-0.8,1.1-0.9,2.2,0.3,3
			c1.7,1.2,3.4,2.5,5.3,3.2c4.1,1.5,8.4,1.3,12.6,0c4.5-1.4,7.7-4.5,9.6-8.9c2.2-5.3,2.2-11,2.1-16.6c-0.1-4.4-0.3-8.8-0.4-13.2
			c-0.1-1.5-0.3-1.7-1.8-1.3c-4,0.8-7.9,1.5-11.9,2.2c-1.2,0.2-2.5,0.4-3.7,0.6c-2.7,0.5-5-0.6-5.1-3.8c-0.2-3.2-0.6-6.4-1-9.6
			c0-0.2-0.1-0.4-0.1-0.5c-0.2-3.7,0.7-5.8,5.2-5.7c4.6,0.2,9.3,0.3,14,0.6c2.3,0.1,3.1-0.5,3.3-2.7c0.1-1.8,0.2-3.5,0.3-5.3
			c0.2-2.7,0.7-3.3,3.5-3.2c1.6,0.1,3.2,0.3,4.8,0.7c2.2,0.5,3.4,2,3.5,4.3c0.1,1.8,0.1,3.6,0.1,5.4c0,1.3,0.4,2,1.8,2.1
			c4.2,0.4,8.3,1,12.4,1.5c2,0.2,3,1,3.3,2.5c0.5,2.5-0.1,4.2-2,4.9c-2.7,1-5.4,1.7-8.2,2.4c-1.9,0.5-3.9,0.7-5.9,1
			c-1.3,0.2-2,0.9-2,2.4c0.1,7.3-0.1,14.6,0.1,21.9c0.1,3.8,0.7,7.6,2.3,11.2c1.3,2.9,3.6,4,6.7,3.5c4.6-0.7,8.8-2.4,12.4-5.3
			c2-1.6,3.4-3.6,3.5-6.3c0.2-5,0.4-9.9,0.7-14.9c0.1-1.4,0.3-2.9,0.7-4.3c0.3-0.7,1.2-1.7,1.9-1.8c3.7-0.1,7.5-0.2,11.2,0.2
			c2.4,0.2,4,2.4,3.8,4.9c-0.2,3.5-0.6,6.9-1,10.4c-0.4,4.3-0.8,8.5-1.2,12.8c-0.5,4.3,3,6.5,6.4,6.5c2.9,0.1,4.5-1,5.8-4.1
			c1.3-3.2,2-6.6,2.6-9.9c0.7-4.8,1.1-9.6,1.7-14.4c0.2-2,1.4-3.5,3-3.8c1.8-0.4,4.1,0.3,4.6,1.9c0.5,1.3,0.4,3,0.2,4.5
			c-0.6,5.5-1.5,11-2,16.4c-0.3,3.4,1.5,5.8,4.9,6.8c1.7,0.5,3.3,0.9,5,1.1c3,0.3,5.1-1.8,5.7-5.2c0.5-2.8,0.6-5.8,0.9-8.7
			c0.3-3.4,0.3-6.9,0.9-10.3c0.9-5,4.1-9.5,10.1-11c3.6-0.9,7.2-1,10.8-0.6c5.4,0.6,11.2,4.3,12.9,10.6c1.3,4.8,0.8,9.4-0.7,14
			c-1.8,5.3-5.1,9.5-9.7,12.6c-0.4,0.3-0.7,0.9-1,1.3c0.6,0.3,1.2,0.7,1.8,0.7c5.5-0.1,10.7-1.3,15.5-4.2c1.1-0.6,2.2-1.1,3.4-1.7
			c1.1-0.5,1.7,0.1,1.4,1c-0.5,1.5-1.1,3.1-2,4.3c-4.1,5.2-9.7,7.6-16.1,8.1c-2.7,0.2-5.5-0.2-8.3-0.3c-2.1-0.1-4.2-0.3-6.3-0.4
			c-1.1-0.1-1.7,0.4-1.9,1.4c-1.7,6.8-2.5,13.8-3.4,20.7c-0.5,4.4-1.3,8.8-2.4,13c-0.6,2.4-2.4,4-4.9,4.3c-1.5,0.3-2.6-0.4-3.1-1.8
			c-0.4-1.2-0.8-2.4-0.9-3.7c-0.5-6.1-0.3-12.2,0.5-18.3c0.4-3.1,0.7-6.2,1-9.3c0.3-2.1,0.6-4.3,0.8-6.5c0.2-1.8-0.2-2.1-1.9-2.5
			c-3.5-0.7-6.9-1.4-10.4-2.1c-2.4-0.5-4.2,0.3-5.8,1.9c-2.1,2.1-4.4,4-7.2,5.2c-3.3,1.4-6.9,1.2-10.3,0.6c-5-0.8-8.9-3.4-11.7-7.6
			c-0.9-1.3-1.5-2.8-2.2-4.2c-0.4-0.8-0.7-1.1-1.7-0.6c-3.3,1.7-6.6,3.4-10,4.8c-3.8,1.6-7.8,2.1-11.8,1c-3.9-1.1-6.9-3.6-9.4-6.8
			C1137.9,583.7,1137.2,582.9,1136.2,581.5z M1249.1,565.9c-0.1-0.5-0.1-1.1-0.1-1.6c-0.5-3.1-3.6-4.5-6.1-2.6
			c-1.1,0.9-2.1,1.9-2.9,3.2c-2.6,4-3.7,8.4-4.9,13c-0.3,1.1-0.5,2.3-0.5,3.5c0.1,2.1,1.3,2.8,3.1,1.6c3.7-2.4,6.5-5.8,8.9-9.5
			C1248,571.1,1249.2,568.7,1249.1,565.9z M1101.8,568.1c0.1-2.1-0.5-4.1-2-5.7c-0.9-0.9-2-1.2-3.2-0.9c-1.5,0.5-2.4,1.6-2.5,3.5
			c-0.2,3.6,1.3,6.8,2.9,9.8c0.8,1.6,1.6,1.5,2.7,0.1C1101.2,572.9,1101.8,570.5,1101.8,568.1z M1064.7,567.4
			c-0.4-1.3-0.6-2.7-1.2-4c-0.7-1.5-2.6-2.3-4.2-1.9c-1.8,0.5-2.5,1.3-2.2,3.4c0.2,1.9,0.6,3.7,1.1,5.6c0.4,1.3,0.9,2.7,1.6,3.8
			c0.9,1.7,1.8,1.7,2.7,0.1C1063.6,572.4,1064.6,570.1,1064.7,567.4z"/>
	</g>
</g>
</svg>
