<?xml version="1.0" encoding="utf-8"?>
<!-- Generator: Adobe Illustrator 25.2.0, SVG Export Plug-In . SVG Version: 6.00 Build 0)  -->
<svg version="1.1" id="Layer_1" xmlns="http://www.w3.org/2000/svg" xmlns:xlink="http://www.w3.org/1999/xlink" x="0px" y="0px"
	 viewBox="0 0 1920 1080" style="enable-background:new 0 0 1920 1080;" xml:space="preserve">
<style type="text/css">
	.st0{fill:none;}
	.st1{fill:#F4CCCC;}
	.st2{font-family:'FreestyleScript-Regular';}
	.st3{font-size:300px;}
	.st4{enable-background:new    ;}
</style>
<path class="st0" d="M-371.6,660.8c0,43.3-35.1,78.4-78.4,78.4V582.4C-406.7,582.4-371.6,617.5-371.6,660.8z"/>
<line class="st0" x1="-450" y1="921.5" x2="-450" y2="739.2"/>
<line class="st0" x1="-450" y1="582.4" x2="-450" y2="415.1"/>
<g>
	<rect class="st1" width="1920" height="1080"/>
</g>
<text transform="matrix(0.9337 0 0 1 564 567.8733)" class="st2 st3">TasteBuds</text>
<g>
	<g class="st4">
		<path d="M193.9,682.9l6-0.9h1.2l6.6,0.9v2.4h-13.8V682.9z M211.8,644.8h3.6l13.8,40.5h-5.6l-12.1-35.9h1.4l-12.2,35.9h-2.8
			L211.8,644.8z M204.7,669.4h16.2l1,2.8h-18.1L204.7,669.4z M216.6,682.9l7.6-0.9h1.2l7.4,0.9v2.4h-16.2V682.9z"/>
		<path d="M249.2,683.2l6.5-1.2l-2,3.3c0.1-2.7,0.2-8.9,0.2-12.6v-26.4l-5-0.6v-2.1l9-2.7l0.8,0.5l-0.2,8.5v11.5l0.2,0.8v18.4
			l-0.6,5.3l-8.9-0.6L249.2,683.2L249.2,683.2z M274,671.4c0-7.7-3.2-11.9-7.7-11.9c-2.2,0-5.1,1-9.5,5.3l-0.5-1.1
			c3.5-5.3,7.4-7.6,11.5-7.6c6.4,0,11.4,5.5,11.4,14.7s-5.3,15.3-12.3,15.3c-3.7,0-7.4-1.6-10.6-7.9l0.5-1c3.1,4,6.4,5.5,9.2,5.5
			C270.3,682.8,274,679.1,274,671.4z"/>
		<path d="M309.4,667.6c0,1.4-0.2,2.6-0.4,3.4h-22.1v-2.5h14.3c2.9,0,3.5-1.4,3.5-3.1c0-3.4-2.9-6.5-6.7-6.5
			c-3.8,0-8.3,3.2-8.3,11.8c0,7.6,3.8,11.7,9.8,11.7c3.8,0,6.2-1.7,8.4-4.3l1.4,1.1c-2.2,4.3-6,7-11.5,7c-8,0-13.3-5.6-13.3-14.7
			c0-9.2,6.2-15.3,13.7-15.3C304.5,656.1,309.4,660.3,309.4,667.6z"/>
		<path d="M326.2,683.1c1.3,0,2.5-0.5,4.1-1.7l1.4,1.6c-1.5,1.9-4,3.1-7,3.1c-4.1,0-6.7-2.2-6.7-6.8c0-1.4,0.1-2.7,0.1-5V660h-5
			v-2.6l7.4-1l-2.4,2l1.8-9.7h3.5l-0.5,10.5v19.4C322.8,681.8,324.1,683.1,326.2,683.1z M331.1,656.9v3.1h-10.7v-3.1H331.1z"/>
		<path d="M345.6,683.1c1.3,0,2.5-0.5,4.1-1.7l1.4,1.6c-1.5,1.9-4,3.1-7,3.1c-4.1,0-6.7-2.2-6.7-6.8c0-1.4,0.1-2.7,0.1-5V660h-5
			v-2.6l7.4-1l-2.4,2l1.8-9.7h3.5l-0.5,10.5v19.4C342.2,681.8,343.5,683.1,345.6,683.1z M350.5,656.9v3.1h-10.7v-3.1H350.5z"/>
		<path d="M378.7,667.6c0,1.4-0.2,2.6-0.4,3.4h-22.1v-2.5h14.3c2.9,0,3.5-1.4,3.5-3.1c0-3.4-2.9-6.5-6.7-6.5
			c-3.8,0-8.3,3.2-8.3,11.8c0,7.6,3.8,11.7,9.8,11.7c3.8,0,6.2-1.7,8.4-4.3l1.4,1.1c-2.2,4.3-6,7-11.5,7c-8,0-13.3-5.6-13.3-14.7
			c0-9.2,6.2-15.3,13.7-15.3C373.8,656.1,378.7,660.3,378.7,667.6z"/>
		<path d="M388.8,672.7v-2.8c0-3.3-0.1-5.2-0.2-7.6l-4.8-0.5v-2.1l8.2-3.6l0.9,0.6l0.7,7.5v8.5c0,3.7,0.1,9.9,0.2,12.6h-5.2
			C388.8,682.6,388.8,676.5,388.8,672.7z M384.3,683.2l6.6-1.2h1.2l6.6,1.2v2.1h-14.4L384.3,683.2L384.3,683.2z M391.2,664.6h3.4
			l-1.5,0.4c1.9-5.6,5.6-8.9,9.1-8.9c1.7,0,3.5,0.8,4.3,2c0,2.8-1.1,4.4-3.5,4.4c-1.4,0-2.5-0.5-3.6-1.4l-1.6-1.4l2.9-0.6
			c-3.7,1.9-5.9,4.9-7.3,9.5h-2.3v-4H391.2z"/>
		<path d="M426.9,660.2l-5.9-1v-2.3h13.6v2.3l-6.5,1H426.9z M445.8,656.9l8.9,23.5h-1.3l7.2-23.5h3.4l-9.8,28.8h-2.1
			c-5.8-14.9-7.4-19.7-8.9-24.5h2.2l-9.1,24.5h-2.1l-10.7-28.8h5.4l8,23.5h-1.3l8.6-23.5H445.8z M438.4,659.2v-2.3h13.2v2.3l-5.7,1
			h-1.2L438.4,659.2z M460.7,660.2l-5.6-1v-2.3h11v2.3l-4.2,1H460.7z"/>
		<path d="M479.3,669.6c2.5-0.9,6.3-2,9.3-2.5v2.2c-2.7,0.5-6.2,1.7-8,2.4c-5.4,2.1-6,4.4-6,6.1c0,3.2,2.1,4.4,4.9,4.4
			c2.1,0,3.3-0.8,7.1-3.5l1.2-0.9l0.8,1.3l-1.7,1.7c-3.6,3.6-5.6,5.3-9.3,5.3c-4.4,0-8-2.5-8-7.5
			C469.5,675.3,471.3,672.6,479.3,669.6z M486.2,679.8v-13.7c0-5.9-1.7-7.3-5.6-7.3c-1.4,0-3.2,0.2-5.4,1.1l2.4-1.9l-1.6,5.2
			c-0.5,1.7-1.4,2.7-3.1,2.7s-2.6-0.9-2.7-2.4c1.1-4.6,5.6-7.4,11.6-7.4c6.2,0,9.2,2.8,9.2,10.4v12.7c0,2.7,0.8,3.7,2.2,3.7
			c1,0,1.7-0.5,2.3-1.3l1.2,1.3c-1.4,2.3-3.1,3.1-5.1,3.1C488.4,685.9,486.2,683.5,486.2,679.8z"/>
		<path d="M497.2,696.4c0.4-1.7,2.2-2.5,4-2.5c1.6,0,2.8,0.6,4.4,2.2l1.9,1.9l-2.3,1.3l-1.6-1.3c4-2,6.4-6.1,7.9-10.3l1.9-5.2
			l9.2-25.5h3.2L515,685c-4.1,10.8-7.4,15.4-12.4,15.4C499.7,700.3,497.2,698.7,497.2,696.4z M503.3,659.9l-5.9-0.9v-2.1h14.3v2.2
			l-7.2,0.8H503.3z M512.2,688.5l-12.5-31.6h5.6l9.4,25.6L512.2,688.5z M522.4,659.9L516,659v-2.1h11.8v2.1l-4.2,0.9H522.4z"/>
		<path d="M555.6,683.1c1.3,0,2.5-0.5,4.1-1.7l1.4,1.6c-1.5,1.9-4,3.1-7,3.1c-4.1,0-6.7-2.2-6.7-6.8c0-1.4,0.1-2.7,0.1-5V660h-5
			v-2.6l7.4-1l-2.4,2l1.8-9.7h3.5l-0.5,10.5v19.4C552.3,681.8,553.6,683.1,555.6,683.1z M560.5,656.9v3.1h-10.7v-3.1H560.5z"/>
		<path d="M564,671.2c0-10,6.8-15.1,13.7-15.1c6.8,0,13.7,5.2,13.7,15.1c0,10-6.9,14.9-13.7,14.9C570.8,686.1,564,681.2,564,671.2z
			 M586,671.2c0-8-3.1-12.4-8.3-12.4c-5.3,0-8.3,4.4-8.3,12.4s2.9,12.2,8.3,12.2C582.9,683.4,586,679.3,586,671.2z"/>
		<path d="M615.7,670.6c0,7.6,4,11.7,9.7,11.7c3.5,0,6.5-1.7,8.4-4.7l1.4,0.7c-1.6,5-5.5,7.7-11.1,7.7c-8.2,0-13.4-5.8-13.4-14.9
			c0-9.4,6.6-15.1,13.7-15.1c5.3,0,9.8,3.3,10.6,7.7c-0.3,1.5-1.2,2.2-2.7,2.2c-2,0-2.8-1.2-3.2-2.7l-1.5-5.3l2.8,2.2
			c-2-1.1-4.1-1.5-5.8-1.5C619.4,658.8,615.7,663,615.7,670.6z"/>
		<path d="M640.1,671.2c0-10,6.8-15.1,13.7-15.1c6.8,0,13.7,5.2,13.7,15.1c0,10-6.9,14.9-13.7,14.9
			C646.9,686.1,640.1,681.2,640.1,671.2z M662,671.2c0-8-3.1-12.4-8.3-12.4c-5.3,0-8.3,4.4-8.3,12.4s2.9,12.2,8.3,12.2
			C659,683.4,662,679.3,662,671.2z"/>
		<path d="M677.1,685.3c0.1-2.7,0.2-8.9,0.2-12.6v-2.8c0-3.3-0.1-5.2-0.2-7.6l-4.8-0.5v-2.1l8.2-3.6l0.9,0.6l0.7,7v9.1
			c0,3.7,0.1,9.9,0.2,12.6h-5.2V685.3z M686.5,683.2v2.1h-13.8v-2.1l6.6-1.2h1.2L686.5,683.2z M700.3,667.2v5.5
			c0,3.8,0.1,9.9,0.2,12.6h-5.2c0.1-2.7,0.2-8.8,0.2-12.6v-5c0-5.6-1.4-7.4-5-7.4c-3,0-5.5,1.2-8.9,4.1h-1.3v-2.7h3.1l-2.6,1.1
			c2.8-3.8,7.6-6.7,11.9-6.7C697.9,656.1,700.3,659.3,700.3,667.2z M698.7,682l6,1.2v2.1h-13.8v-2.1l6.6-1.2H698.7z"/>
		<path d="M713.4,685.3c0.1-2.7,0.2-8.9,0.2-12.6v-2.8c0-3.3-0.1-5.2-0.2-7.6l-4.8-0.5v-2.1l8.2-3.6l0.9,0.6l0.7,7v9.1
			c0,3.7,0.1,9.9,0.2,12.6h-5.2V685.3z M722.8,683.2v2.1H709v-2.1l6.6-1.2h1.2L722.8,683.2z M736.6,667.2v5.5
			c0,3.8,0.1,9.9,0.2,12.6h-5.2c0.1-2.7,0.2-8.8,0.2-12.6v-5c0-5.6-1.4-7.4-5-7.4c-3,0-5.5,1.2-8.9,4.1h-1.3v-2.7h3.1l-2.6,1.1
			c2.8-3.8,7.6-6.7,11.9-6.7C734.2,656.1,736.6,659.3,736.6,667.2z M735,682l6,1.2v2.1h-13.8v-2.1l6.6-1.2H735z"/>
		<path d="M770.3,667.6c0,1.4-0.2,2.6-0.4,3.4h-22.1v-2.5h14.3c2.9,0,3.5-1.4,3.5-3.1c0-3.4-2.9-6.5-6.7-6.5s-8.3,3.2-8.3,11.8
			c0,7.6,3.8,11.7,9.8,11.7c3.8,0,6.2-1.7,8.4-4.3l1.4,1.1c-2.2,4.3-6,7-11.5,7c-8,0-13.3-5.6-13.3-14.7c0-9.2,6.2-15.3,13.7-15.3
			C765.4,656.1,770.3,660.3,770.3,667.6z"/>
		<path d="M780.9,670.6c0,7.6,4,11.7,9.7,11.7c3.5,0,6.5-1.7,8.4-4.7l1.4,0.7c-1.6,5-5.5,7.7-11.1,7.7c-8.2,0-13.4-5.8-13.4-14.9
			c0-9.4,6.6-15.1,13.7-15.1c5.3,0,9.8,3.3,10.6,7.7c-0.3,1.5-1.2,2.2-2.7,2.2c-2,0-2.8-1.2-3.2-2.7l-1.5-5.3l2.8,2.2
			c-2-1.1-4.1-1.5-5.8-1.5C784.6,658.8,780.9,663,780.9,670.6z"/>
		<path d="M816.2,683.1c1.3,0,2.5-0.5,4.1-1.7l1.4,1.6c-1.5,1.9-4,3.1-7,3.1c-4.1,0-6.7-2.2-6.7-6.8c0-1.4,0.1-2.7,0.1-5V660h-5
			v-2.6l7.4-1l-2.4,2l1.8-9.7h3.5l-0.5,10.5v19.4C812.9,681.8,814.2,683.1,816.2,683.1z M821.2,656.9v3.1h-10.7v-3.1H821.2z"/>
		<path d="M853.4,697.6v2.1H838v-2.1l6.8-1.2h1.2L853.4,697.6z M843.1,669.9c0-3.3-0.1-5.2-0.2-7.6l-4.8-0.5v-2.1l8.2-3.6l0.9,0.6
			l0.5,5.1l0.2,0.1v18.7l-0.2,0.4v6c0,4.2,0.1,8.5,0.2,12.7h-5c0.1-4.2,0.2-8.4,0.2-12.6L843.1,669.9L843.1,669.9z M855.3,659.4
			c-2.2,0-5.2,1.1-9.6,5.3l-0.5-1.1c3.5-5.3,7.4-7.6,11.5-7.6c6.4,0,11.4,5.6,11.4,14.9c0,9.2-5.3,15.1-12.3,15.1
			c-3.7,0-7.4-1.7-10.6-7.9l0.5-1c3.1,4,6,5.6,8.9,5.6c4.6,0,8.3-3.5,8.3-11.3C862.9,663.8,859.7,659.4,855.3,659.4z"/>
		<path d="M898.3,667.6c0,1.4-0.2,2.6-0.4,3.4h-22.1v-2.5H890c2.9,0,3.5-1.4,3.5-3.1c0-3.4-2.9-6.5-6.7-6.5s-8.3,3.2-8.3,11.8
			c0,7.6,3.8,11.7,9.8,11.7c3.8,0,6.2-1.7,8.4-4.3l1.4,1.1c-2.2,4.3-6,7-11.5,7c-8,0-13.3-5.6-13.3-14.7c0-9.2,6.2-15.3,13.7-15.3
			C893.4,656.1,898.3,660.3,898.3,667.6z"/>
		<path d="M904.1,671.2c0-10,6.8-15.1,13.7-15.1c6.8,0,13.7,5.2,13.7,15.1c0,10-6.9,14.9-13.7,14.9
			C910.9,686.1,904.1,681.2,904.1,671.2z M926,671.2c0-8-3.1-12.4-8.3-12.4c-5.3,0-8.3,4.4-8.3,12.4s2.9,12.2,8.3,12.2
			C923,683.4,926,679.3,926,671.2z"/>
		<path d="M951.7,697.6v2.1h-15.4v-2.1l6.8-1.2h1.2L951.7,697.6z M941.3,669.9c0-3.3-0.1-5.2-0.2-7.6l-4.8-0.5v-2.1l8.2-3.6l0.9,0.6
			l0.5,5.1l0.2,0.1v18.7L946,681v6c0,4.2,0.1,8.5,0.2,12.7h-5c0.1-4.2,0.2-8.4,0.2-12.6v-17.2H941.3z M953.6,659.4
			c-2.2,0-5.2,1.1-9.6,5.3l-0.5-1.1c3.5-5.3,7.4-7.6,11.5-7.6c6.4,0,11.4,5.6,11.4,14.9c0,9.2-5.3,15.1-12.3,15.1
			c-3.7,0-7.4-1.7-10.6-7.9l0.5-1c3.1,4,6,5.6,8.9,5.6c4.6,0,8.3-3.5,8.3-11.3C961.2,663.8,958,659.4,953.6,659.4z"/>
		<path d="M979.7,640.9l0.8,0.5l-0.2,8.5v22.8c0,4.2,0.1,8.4,0.2,12.6h-5.2c0.1-4.2,0.2-8.4,0.2-12.6v-26.4l-5-0.6v-2.1L979.7,640.9
			z M985.3,683.2v2.1h-14.8v-2.1l6.8-1.2h1.2L985.3,683.2z"/>
		<path d="M1014.4,667.6c0,1.4-0.2,2.6-0.4,3.4h-22.1v-2.5h14.3c2.9,0,3.5-1.4,3.5-3.1c0-3.4-2.9-6.5-6.7-6.5s-8.3,3.2-8.3,11.8
			c0,7.6,3.8,11.7,9.8,11.7c3.8,0,6.2-1.7,8.4-4.3l1.4,1.1c-2.2,4.3-6,7-11.5,7c-8,0-13.3-5.6-13.3-14.7c0-9.2,6.2-15.3,13.7-15.3
			C1009.4,656.1,1014.4,660.3,1014.4,667.6z"/>
		<path d="M1045.1,683.1c1.3,0,2.5-0.5,4.1-1.7l1.4,1.6c-1.5,1.9-4,3.1-7,3.1c-4.1,0-6.7-2.2-6.7-6.8c0-1.4,0.1-2.7,0.1-5V660h-5
			v-2.6l7.4-1l-2.4,2l1.8-9.7h3.5l-0.5,10.5v19.4C1041.8,681.8,1043.1,683.1,1045.1,683.1z M1050.1,656.9v3.1h-10.7v-3.1H1050.1z"/>
		<path d="M1053.5,671.2c0-10,6.8-15.1,13.7-15.1c6.8,0,13.7,5.2,13.7,15.1c0,10-6.9,14.9-13.7,14.9
			C1060.3,686.1,1053.5,681.2,1053.5,671.2z M1075.5,671.2c0-8-3.1-12.4-8.3-12.4c-5.3,0-8.3,4.4-8.3,12.4s2.9,12.2,8.3,12.2
			C1072.4,683.4,1075.5,679.3,1075.5,671.2z"/>
		<path d="M1104.6,685.3c0.1-2.7,0.2-8.9,0.2-12.6v-2.8c0-3.3-0.1-5.2-0.2-7.6l-4.8-0.5v-2.1l8.2-3.6l0.9,0.6l0.7,7v9.1
			c0,3.7,0.1,9.9,0.2,12.6h-5.2V685.3z M1114,683.2v2.1h-13.8v-2.1l6.6-1.2h1.2L1114,683.2z M1127.8,667.2v5.5
			c0,3.8,0.1,9.9,0.2,12.6h-5.2c0.1-2.7,0.2-8.8,0.2-12.6v-5c0-5.6-1.4-7.4-5-7.4c-3,0-5.5,1.2-8.9,4.1h-1.3v-2.7h3.1l-2.6,1.1
			c2.8-3.8,7.6-6.7,11.9-6.7C1125.4,656.1,1127.8,659.3,1127.8,667.2z M1126.2,682l6,1.2v2.1h-13.8v-2.1l6.6-1.2H1126.2z"/>
		<path d="M1144.4,674.7c0,5.3,1.6,7.2,4.9,7.2c3.1,0,6.2-1.5,9.2-4.5h1.3v3.1h-3.1l2.1-0.9c-3.4,4.6-7.5,6.5-11.4,6.5
			c-4.8,0-7.8-2.9-7.7-10.8l0.2-15.8l1.3,1.1l-5.6-1.2v-2.1l8.6-0.8l0.6,0.6l-0.3,8.4L1144.4,674.7L1144.4,674.7z M1158.7,685.8
			l-0.8-7l0.2-19.3l1.3,1.1l-5.6-1.2v-2.1l8.5-0.8l0.6,0.6l-0.2,8.4v17.9l-1.4-1.4l5.6,1.2v2.1L1158.7,685.8z"/>
		<path d="M1182.7,683.1c1.3,0,2.5-0.5,4.1-1.7l1.4,1.6c-1.5,1.9-4,3.1-7,3.1c-4.1,0-6.7-2.2-6.7-6.8c0-1.4,0.1-2.7,0.1-5V660h-5
			v-2.6l7.4-1l-2.4,2l1.8-9.7h3.5l-0.5,10.5v19.4C1179.3,681.8,1180.6,683.1,1182.7,683.1z M1187.6,656.9v3.1h-10.7v-3.1H1187.6z"/>
		<path d="M1195.4,672.7v-2.8c0-3.3-0.1-5.2-0.2-7.6l-4.8-0.5v-2.1l8.2-3.6l0.9,0.6l0.7,7.5v8.5c0,3.7,0.1,9.9,0.2,12.6h-5.2
			C1195.3,682.6,1195.4,676.5,1195.4,672.7z M1190.9,683.2l6.6-1.2h1.2l6.6,1.2v2.1h-14.4L1190.9,683.2L1190.9,683.2z M1197.8,664.6
			h3.4l-1.5,0.4c1.9-5.6,5.6-8.9,9.1-8.9c1.7,0,3.5,0.8,4.3,2c0,2.8-1.1,4.4-3.5,4.4c-1.4,0-2.5-0.5-3.6-1.4l-1.6-1.4l2.9-0.6
			c-3.7,1.9-5.9,4.9-7.3,9.5h-2.3L1197.8,664.6L1197.8,664.6z"/>
		<path d="M1220.2,685.3c0.1-2.7,0.2-8.9,0.2-12.6v-2.8c0-3.3-0.1-5.2-0.2-7.6l-4.9-0.5v-2.1l9.1-3.6l0.9,0.6l-0.2,8.1v7.9
			c0,3.7,0.1,9.9,0.2,12.6L1220.2,685.3L1220.2,685.3z M1229.4,683.2v2.1h-13.8v-2.1l6.6-1.2h1.2L1229.4,683.2z M1218.7,645.6
			c0-2.3,1.7-3.8,4-3.8c2.2,0,4,1.5,4,3.8c0,2.2-1.7,3.8-4,3.8C1220.4,649.3,1218.7,647.8,1218.7,645.6z"/>
		<path d="M1245.1,683.1c1.3,0,2.5-0.5,4.1-1.7l1.4,1.6c-1.5,1.9-4,3.1-7,3.1c-4.1,0-6.7-2.2-6.7-6.8c0-1.4,0.1-2.7,0.1-5V660h-5
			v-2.6l7.4-1l-2.4,2l1.8-9.7h3.5l-0.5,10.5v19.4C1241.7,681.8,1243,683.1,1245.1,683.1z M1250,656.9v3.1h-10.7v-3.1H1250z"/>
		<path d="M1257.4,685.3c0.1-2.7,0.2-8.9,0.2-12.6v-2.8c0-3.3-0.1-5.2-0.2-7.6l-4.9-0.5v-2.1l9.1-3.6l0.9,0.6l-0.2,8.1v7.9
			c0,3.7,0.1,9.9,0.2,12.6L1257.4,685.3L1257.4,685.3z M1266.6,683.2v2.1h-13.8v-2.1l6.6-1.2h1.2L1266.6,683.2z M1255.9,645.6
			c0-2.3,1.7-3.8,4-3.8c2.2,0,4,1.5,4,3.8c0,2.2-1.7,3.8-4,3.8C1257.6,649.3,1255.9,647.8,1255.9,645.6z"/>
		<path d="M1271.3,671.2c0-10,6.8-15.1,13.7-15.1c6.8,0,13.7,5.2,13.7,15.1c0,10-6.9,14.9-13.7,14.9
			C1278.1,686.1,1271.3,681.2,1271.3,671.2z M1293.2,671.2c0-8-3.1-12.4-8.3-12.4c-5.3,0-8.3,4.4-8.3,12.4s2.9,12.2,8.3,12.2
			C1290.2,683.4,1293.2,679.3,1293.2,671.2z"/>
		<path d="M1308.3,685.3c0.1-2.7,0.2-8.9,0.2-12.6v-2.8c0-3.3-0.1-5.2-0.2-7.6l-4.8-0.5v-2.1l8.2-3.6l0.9,0.6l0.7,7v9.1
			c0,3.7,0.1,9.9,0.2,12.6h-5.2V685.3z M1317.7,683.2v2.1h-13.8v-2.1l6.6-1.2h1.2L1317.7,683.2z M1331.5,667.2v5.5
			c0,3.8,0.1,9.9,0.2,12.6h-5.2c0.1-2.7,0.2-8.8,0.2-12.6v-5c0-5.6-1.4-7.4-5-7.4c-3,0-5.5,1.2-8.9,4.1h-1.3v-2.7h3.1l-2.6,1.1
			c2.8-3.8,7.6-6.7,11.9-6.7C1329.1,656.1,1331.5,659.3,1331.5,667.2z M1329.9,682l6,1.2v2.1h-13.8v-2.1l6.6-1.2H1329.9z"/>
		<path d="M1350.3,669.6c2.5-0.9,6.3-2,9.3-2.5v2.2c-2.7,0.5-6.2,1.7-8,2.4c-5.4,2.1-6,4.4-6,6.1c0,3.2,2.1,4.4,4.9,4.4
			c2.1,0,3.3-0.8,7.1-3.5l1.2-0.9l0.8,1.3l-1.7,1.7c-3.6,3.6-5.6,5.3-9.3,5.3c-4.4,0-8-2.5-8-7.5
			C1340.5,675.3,1342.3,672.6,1350.3,669.6z M1357.2,679.8v-13.7c0-5.9-1.7-7.3-5.6-7.3c-1.4,0-3.2,0.2-5.4,1.1l2.4-1.9l-1.6,5.2
			c-0.5,1.7-1.4,2.7-3.1,2.7c-1.6,0-2.6-0.9-2.7-2.4c1.1-4.6,5.6-7.4,11.6-7.4c6.2,0,9.2,2.8,9.2,10.4v12.7c0,2.7,0.8,3.7,2.2,3.7
			c1,0,1.7-0.5,2.3-1.3l1.2,1.3c-1.4,2.3-3.1,3.1-5.1,3.1C1359.4,685.9,1357.2,683.5,1357.2,679.8z"/>
		<path d="M1378.9,640.9l0.8,0.5l-0.2,8.5v22.8c0,4.2,0.1,8.4,0.2,12.6h-5.2c0.1-4.2,0.2-8.4,0.2-12.6v-26.4l-5-0.6v-2.1
			L1378.9,640.9z M1384.4,683.2v2.1h-14.8v-2.1l6.8-1.2h1.2L1384.4,683.2z"/>
		<path d="M1410.7,640.9l0.8,0.5l-0.2,8.5v22.8c0,4.2,0.1,8.4,0.2,12.6h-5.2c0.1-4.2,0.2-8.4,0.2-12.6v-26.4l-5-0.6v-2.1
			L1410.7,640.9z M1416.2,683.2v2.1h-14.8v-2.1l6.8-1.2h1.2L1416.2,683.2z M1428.5,656.9l-19.6,20.2v-3.5l16-16.7H1428.5z M1426,682
			l6.6,1.2v2.1h-7.9l-10-16l3.4-3.5l11.8,18.5L1426,682z M1422.6,660.6l-5.5-1.4v-2.3h13.9v2.3l-6.7,1L1422.6,660.6z"/>
		<path d="M1439.5,685.3c0.1-2.7,0.2-8.9,0.2-12.6v-2.8c0-3.3-0.1-5.2-0.2-7.6l-4.8-0.5v-2.1l8.2-3.6l0.9,0.6l0.7,7v9.1
			c0,3.7,0.1,9.9,0.2,12.6h-5.2V685.3z M1448.9,683.2v2.1h-13.8v-2.1l6.6-1.2h1.2L1448.9,683.2z M1462.7,667.2v5.5
			c0,3.8,0.1,9.9,0.2,12.6h-5.2c0.1-2.7,0.2-8.8,0.2-12.6v-5c0-5.6-1.4-7.4-5-7.4c-3,0-5.5,1.2-8.9,4.1h-1.3v-2.7h3.1l-2.6,1.1
			c2.8-3.8,7.6-6.7,11.9-6.7C1460.3,656.1,1462.7,659.3,1462.7,667.2z M1461.1,682l6,1.2v2.1h-13.8v-2.1l6.6-1.2H1461.1z"/>
		<path d="M1471.7,671.2c0-10,6.8-15.1,13.7-15.1c6.8,0,13.7,5.2,13.7,15.1c0,10-6.9,14.9-13.7,14.9
			C1478.5,686.1,1471.7,681.2,1471.7,671.2z M1493.6,671.2c0-8-3.1-12.4-8.3-12.4c-5.3,0-8.3,4.4-8.3,12.4s2.9,12.2,8.3,12.2
			C1490.6,683.4,1493.6,679.3,1493.6,671.2z"/>
		<path d="M1507.7,660.2l-5.9-1v-2.3h13.6v2.3l-6.5,1H1507.7z M1526.6,656.9l8.9,23.5h-1.3l7.2-23.5h3.4l-9.8,28.8h-2.1
			c-5.8-14.9-7.4-19.7-8.9-24.5h2.2l-9.1,24.5h-2.1l-10.7-28.8h5.4l8,23.5h-1.3l8.6-23.5H1526.6z M1519.2,659.2v-2.3h13.2v2.3
			l-5.7,1h-1.2L1519.2,659.2z M1541.5,660.2l-5.6-1v-2.3h11v2.3l-4.2,1H1541.5z"/>
		<path d="M1558.2,640.9l0.8,0.5l-0.2,8.5v22.8c0,4.2,0.1,8.4,0.2,12.6h-5.2c0.1-4.2,0.2-8.4,0.2-12.6v-26.4l-5-0.6v-2.1
			L1558.2,640.9z M1563.8,683.2v2.1H1549v-2.1l6.8-1.2h1.2L1563.8,683.2z"/>
		<path d="M1592.8,667.6c0,1.4-0.2,2.6-0.4,3.4h-22.1v-2.5h14.3c2.9,0,3.5-1.4,3.5-3.1c0-3.4-2.9-6.5-6.7-6.5
			c-3.8,0-8.3,3.2-8.3,11.8c0,7.6,3.8,11.7,9.8,11.7c3.8,0,6.2-1.7,8.4-4.3l1.4,1.1c-2.2,4.3-6,7-11.5,7c-8,0-13.3-5.6-13.3-14.7
			c0-9.2,6.2-15.3,13.7-15.3C1587.9,656.1,1592.8,660.3,1592.8,667.6z"/>
		<path d="M1612.1,682.8c3.1,0,5.2-1.3,7.9-4.9l0.5,1.6c-2.3,4.1-5.1,6.5-9.8,6.5c-7.3,0-12.2-6.1-12.2-14.8
			c0-9.1,5.4-15.2,12.8-15.2c3.4,0,6.4,1.4,9.5,6.1l-0.6,1.6c-3.5-3.4-5.9-4.3-8.2-4.3c-4.5,0-8.4,3.6-8.4,11.8
			C1603.7,679.2,1607.3,682.8,1612.1,682.8z M1628.8,683.2v2.1l-9.2,0.6l-0.6-6.1v-17.6l0.2-0.8v-15.1l-5.2-0.6v-2.1l9.2-2.7
			l0.8,0.5l-0.2,8.5v35.4l-1-3.1L1628.8,683.2z"/>
		<path d="M1654.7,690.9c0-2.7-1.7-4.7-6.1-4.7h-7.1c-1,0-2.1-0.1-3-0.2v-0.2c-3.1-0.7-4.6-2.2-4.6-4.7c0-2.1,1.4-4.4,5.5-7.9
			l1.3,0.9c-1.8,1.9-2.6,3.2-2.6,5c0,1.6,0.7,2.7,3.5,2.7h7.9c6.4,0,9.5,2.8,9.5,7.7c0,5.2-4.9,10.3-14.6,10.3
			c-8.6,0-12.4-3-12.4-7.3c0-2.9,1.9-5.2,7.9-7.7l0.3,0.4c-2.4,2.3-3.4,4.1-3.4,6.5c0,4,3.1,5.5,7.7,5.5
			C1651.1,697,1654.7,694.3,1654.7,690.9z M1644.1,656.1c6.1,0,10.7,3.2,10.7,9.8c0,6.4-4.7,9.8-10.7,9.8c-6.2,0-10.7-3.2-10.7-9.8
			C1633.3,659.6,1638,656.1,1644.1,656.1z M1638,666c0,4.4,2.2,7.4,5.9,7.4c3.9,0,6.2-3.2,6.2-7.6c0-4.3-2.2-7.3-5.9-7.3
			C1640.3,658.5,1638,661.6,1638,666z M1658.4,656.1l0.9,0.6v3.7h-8.8v-1.6L1658.4,656.1z"/>
		<path d="M1688.2,667.6c0,1.4-0.2,2.6-0.4,3.4h-22.1v-2.5h14.3c2.9,0,3.5-1.4,3.5-3.1c0-3.4-2.9-6.5-6.7-6.5
			c-3.8,0-8.3,3.2-8.3,11.8c0,7.6,3.8,11.7,9.8,11.7c3.8,0,6.2-1.7,8.4-4.3l1.4,1.1c-2.2,4.3-6,7-11.5,7c-8,0-13.3-5.6-13.3-14.7
			c0-9.2,6.2-15.3,13.7-15.3C1683.3,656.1,1688.2,660.3,1688.2,667.6z"/>
	</g>
</g>
<rect x="751.5" y="1204.9" class="st0" width="0" height="4.6"/>
<text transform="matrix(1 0 0 1 194.0327 1618.3467)" class="st2" style="font-size:12px;">Lorem ipsum</text>
<rect x="424" y="1302.4" class="st0" width="4.6" height="7"/>
</svg>
